<svg xmlns="http://www.w3.org/2000/svg" xmlns:xlink="http://www.w3.org/1999/xlink" width="86.109" height="86.109" viewBox="0 0 86.109 86.109">
  <defs>
    <filter id="Path_896985" x="0" y="0" width="86.109" height="86.109" filterUnits="userSpaceOnUse">
      <feOffset dy="3" input="SourceAlpha"/>
      <feGaussianBlur stdDeviation="3" result="blur"/>
      <feFlood flood-opacity="0.161"/>
      <feComposite operator="in" in2="blur"/>
      <feComposite in="SourceGraphic"/>
    </filter>
    <clipPath id="clip-path">
      <rect id="Rectangle_412145" data-name="Rectangle 412145" width="44.819" height="44.839" fill="none"/>
    </clipPath>
  </defs>
  <g id="Group_1213254" data-name="Group 1213254" transform="translate(-967.92 -1965.836)">
    <g id="Group_1212278" data-name="Group 1212278" transform="translate(631.395 -14867.25)">
      <g id="Group_1198723" data-name="Group 1198723" transform="translate(139.635 12371.764)">
        <g id="Group_1198139" data-name="Group 1198139" transform="translate(205.891 4467.322)">
          <g id="Group_1111318" data-name="Group 1111318" transform="translate(0)">
            <g id="Group_1109826" data-name="Group 1109826" transform="translate(0 0)">
              <g id="Group_1098742" data-name="Group 1098742" transform="translate(0)">
                <g transform="matrix(1, 0, 0, 1, -9, -6)" filter="url(#Path_896985)">
                  <g id="Path_896985-2" data-name="Path 896985" transform="translate(9 6)" fill="#d3af82" opacity="0.859">
                    <path d="M 34.05470275878906 67.6094970703125 C 29.52462196350098 67.6094970703125 25.13032341003418 66.72238159179688 20.99385261535645 64.97280120849609 C 16.99824333190918 63.28280639648438 13.40971279144287 60.86331558227539 10.32794284820557 57.78155517578125 C 7.246182918548584 54.69978332519531 4.826692581176758 51.11125564575195 3.136692762374878 47.11564636230469 C 1.387112736701965 42.97917556762695 0.5000027418136597 38.58487319946289 0.5000027418136597 34.05479431152344 C 0.5000027418136597 29.52469444274902 1.387112736701965 25.13037490844727 3.136692762374878 20.9938850402832 C 4.826692581176758 16.99826431274414 7.246182918548584 13.40972518920898 10.32794284820557 10.32795429229736 C 13.40971279144287 7.246184825897217 16.99824333190918 4.826694488525391 20.99385261535645 3.136694669723511 C 25.13032341003418 1.387114763259888 29.52462196350098 0.5000047087669373 34.05470275878906 0.5000047087669373 C 38.58478164672852 0.5000047087669373 42.97908401489258 1.387114763259888 47.11555099487305 3.136694669723511 C 51.11116409301758 4.826694488525391 54.69969177246094 7.246174812316895 57.78146362304688 10.3279447555542 C 60.86322402954102 13.4097146987915 63.28271102905273 16.99823379516602 64.97270965576172 20.99384498596191 C 66.7222900390625 25.13031387329102 67.60940551757812 29.52461433410645 67.60940551757812 34.05469512939453 C 67.60940551757812 38.58479309082031 66.7222900390625 42.9791145324707 64.97270965576172 47.11560440063477 C 63.28271102905273 51.11122512817383 60.86322402954102 54.69976425170898 57.78146362304688 57.78153610229492 C 54.69969177246094 60.86330413818359 51.11116409301758 63.28280639648438 47.11555099487305 64.97280120849609 C 42.97908401489258 66.72238159179688 38.58478164672852 67.6094970703125 34.05470275878906 67.6094970703125 Z" stroke="none"/>
                    <path d="M 34.05470275878906 0.9999923706054688 C 29.59190368652344 0.9999923706054688 25.26313400268555 1.873817443847656 21.18863296508789 3.597183227539062 C 17.25262451171875 5.261985778808594 13.71751403808594 7.645496368408203 10.68150329589844 10.68150329589844 C 7.645492553710938 13.71752548217773 5.261981964111328 17.25263595581055 3.597190856933594 21.18866348266602 C 1.873825073242188 25.26318359375 1 29.59197616577148 1 34.05479431152344 C 1 38.51759338378906 1.873825073242188 42.84636688232422 3.597190856933594 46.92086410522461 C 5.261981964111328 50.85687255859375 7.645492553710938 54.39198303222656 10.68150329589844 57.42799377441406 C 13.71751403808594 60.46399307250977 17.25262451171875 62.84750366210938 21.18863296508789 64.51229858398438 C 25.26313400268555 66.23566436767578 29.59190368652344 67.10948181152344 34.05470275878906 67.10948181152344 C 38.51750183105469 67.10948181152344 42.84627532958984 66.23566436767578 46.92077255249023 64.51229858398438 C 50.85679244995117 62.84749603271484 54.39189147949219 60.46399307250977 57.42790222167969 57.42798614501953 C 60.46391296386719 54.39196395874023 62.8474235534668 50.85684204101562 64.51221466064453 46.92082214355469 C 66.23558044433594 42.84630584716797 67.10940551757812 38.51751708984375 67.10940551757812 34.05469512939453 C 67.10940551757812 29.59189605712891 66.23558044433594 25.26312637329102 64.51221466064453 21.18862533569336 C 62.8474235534668 17.25261306762695 60.46391296386719 13.71750640869141 57.42790222167969 10.68149566650391 C 54.39189147949219 7.645484924316406 50.85678100585938 5.261974334716797 46.92077255249023 3.597183227539062 C 42.84627532958984 1.873817443847656 38.51750183105469 0.9999923706054688 34.05470275878906 0.9999923706054688 M 34.05470275878906 -7.62939453125e-06 C 52.86259460449219 -7.62939453125e-06 68.10940551757812 15.24680328369141 68.10940551757812 34.05469512939453 L 68.10940551757812 34.05479431152344 C 68.10940551757812 52.86268615722656 52.86259460449219 68.10948181152344 34.05470275878906 68.10948181152344 C 15.24681091308594 68.10948181152344 0 52.86268615722656 0 34.05479431152344 L 0 34.05469512939453 C 0 15.24680328369141 15.24681091308594 -7.62939453125e-06 34.05470275878906 -7.62939453125e-06 Z" stroke="none" fill="#fff"/>
                  </g>
                </g>
                <g id="Rectangle_400907" data-name="Rectangle 400907" transform="translate(0)" fill="none" stroke="#fff" stroke-width="1">
                  <rect width="68.109" height="68.109" rx="34.055" stroke="none"/>
                  <rect x="0.5" y="0.5" width="67.109" height="67.109" rx="33.555" fill="none"/>
                </g>
              </g>
            </g>
          </g>
        </g>
      </g>
    </g>
    <g id="Group_1213714" data-name="Group 1213714" transform="translate(988.565 1983.471)">
      <g id="Group_1213713" data-name="Group 1213713" clip-path="url(#clip-path)">
        <path id="Path_1261306" data-name="Path 1261306" d="M0,22.363a22.409,22.409,0,0,0,44.819.119,7.03,7.03,0,0,0-7.06-7.1l-7.648,0,0-14.663A.673.673,0,0,0,29.423,0L15.483,0C15.1,0,14.7.2,14.7.629l-.009,14.753L6.829,15.4A6.919,6.919,0,0,0,0,22.363M18.176,6.3a.646.646,0,0,0-.658.639L17.5,11.105a.747.747,0,0,0,.823.791,1.622,1.622,0,0,1,.57.043v3.428l-2.8.012,0-13.985h12.62l0,13.985-2.8-.014,0-3.425a1.573,1.573,0,0,1,.57-.044A.747.747,0,0,0,27.3,11.1L27.287,6.94a.667.667,0,0,0-.71-.645ZM18.9,7.7h7v2.791h-7ZM20.3,11.911h4.209v8.363H20.3ZM7.181,27.3l30.485,0a4.908,4.908,0,1,0,.007-9.813L25.935,17.5a1.033,1.033,0,0,1,.025-.692l11.509-.04a5.7,5.7,0,0,1,5.938,5.588A5.637,5.637,0,0,1,37.664,28L7.14,28A5.631,5.631,0,0,1,1.4,22.551a5.541,5.541,0,0,1,5.421-5.739l12.019-.025a.793.793,0,0,1-.01.717l-11.6-.027A4.916,4.916,0,1,0,7.181,27.3m18.737-7.022a5.853,5.853,0,0,1,.026-1.385l12.147.04a3.338,3.338,0,0,1,3.1,2.643,5.666,5.666,0,0,0-3.626-1.3ZM3.64,21.533a3.411,3.411,0,0,1,3.6-2.63l11.65,0a8.1,8.1,0,0,1-.007,1.371l-11.746,0A5.755,5.755,0,0,0,3.64,21.533m.161,2.2a3.6,3.6,0,0,1,3.435-2.046l12.116,0,18.213-.01A3.584,3.584,0,0,1,41,23.764a3.429,3.429,0,0,1-3.239,2.122L6.935,25.879A3.344,3.344,0,0,1,3.8,23.731M7.6,29.421l29.761-.005a7.558,7.558,0,0,0,5.454-2.062,20.991,20.991,0,0,1-40.822,0A7.675,7.675,0,0,0,7.6,29.421" transform="translate(0 0)" fill="#050506"/>
        <path id="Path_1261307" data-name="Path 1261307" d="M25.332,270.58a7.675,7.675,0,0,1-5.608-2.072,20.991,20.991,0,0,0,40.822.005,7.558,7.558,0,0,1-5.454,2.062Z" transform="translate(-17.736 -241.159)" fill="#cbd0d8"/>
        <path id="Path_1261308" data-name="Path 1261308" d="M37.451,214.9a3.344,3.344,0,0,0,3.135,2.148l30.829.007a3.429,3.429,0,0,0,3.239-2.122,3.584,3.584,0,0,0-3.439-2.084L53,212.856l-12.116,0a3.6,3.6,0,0,0-3.435,2.046" transform="translate(-33.65 -191.166)" fill="#5c9bea"/>
        <path id="Path_1261309" data-name="Path 1261309" d="M160.211,18.6l8.4,0a.667.667,0,0,1,.71.645l.013,4.165a.747.747,0,0,1-.824.792,1.576,1.576,0,0,0-.57.044l0,3.425,2.8.014,0-13.985h-12.62l0,13.985,2.8-.012V24.241a1.622,1.622,0,0,0-.57-.043.747.747,0,0,1-.823-.791l.013-4.166a.646.646,0,0,1,.658-.639" transform="translate(-142.035 -12.302)" fill="#c9ced6"/>
        <path id="Path_1261310" data-name="Path 1261310" d="M19.637,175.135a4.916,4.916,0,1,1,.054-9.825l11.6.027a.794.794,0,0,0,.01-.717l-12.019.025a5.542,5.542,0,0,0-5.421,5.739,5.631,5.631,0,0,0,5.739,5.452l30.525,0a5.637,5.637,0,0,0,5.743-5.651,5.7,5.7,0,0,0-5.938-5.587l-11.509.04a1.033,1.033,0,0,0-.025.692l11.738-.013a4.908,4.908,0,1,1-.007,9.813Z" transform="translate(-12.456 -147.834)" fill="#dcdee2"/>
        <rect id="Rectangle_412143" data-name="Rectangle 412143" width="4.209" height="8.363" transform="translate(20.298 11.911)" fill="#eff1f4"/>
        <path id="Path_1261311" data-name="Path 1261311" d="M35.6,186.876l11.651-.006a5.667,5.667,0,0,1,3.626,1.3,3.338,3.338,0,0,0-3.1-2.643l-12.147-.04a5.848,5.848,0,0,0-.026,1.385" transform="translate(-9.685 -166.597)" fill="#c8cdd5"/>
        <path id="Path_1261312" data-name="Path 1261312" d="M254.354,188.184a5.755,5.755,0,0,1,3.493-1.257l11.745,0a8.092,8.092,0,0,0,.007-1.371l-11.65,0a3.411,3.411,0,0,0-3.6,2.63" transform="translate(-250.714 -166.651)" fill="#c8cdd5"/>
        <rect id="Rectangle_412144" data-name="Rectangle 412144" width="6.995" height="2.791" transform="translate(18.905 7.698)" fill="#e3e6ea"/>
      </g>
    </g>
  </g>
</svg>
