<svg xmlns="http://www.w3.org/2000/svg" xmlns:xlink="http://www.w3.org/1999/xlink" width="86.109" height="86.109" viewBox="0 0 86.109 86.109">
  <defs>
    <filter id="Path_896985" x="0" y="0" width="86.109" height="86.109" filterUnits="userSpaceOnUse">
      <feOffset dy="3" input="SourceAlpha"/>
      <feGaussianBlur stdDeviation="3" result="blur"/>
      <feFlood flood-opacity="0.161"/>
      <feComposite operator="in" in2="blur"/>
      <feComposite in="SourceGraphic"/>
    </filter>
    <clipPath id="clip-path">
      <rect id="Rectangle_412146" data-name="Rectangle 412146" width="51.045" height="33.493" fill="none"/>
    </clipPath>
  </defs>
  <g id="Group_1212625" data-name="Group 1212625" transform="translate(-967.92 -1965.836)">
    <g id="Group_1212278" data-name="Group 1212278" transform="translate(631.395 -14867.25)">
      <g id="Group_1198723" data-name="Group 1198723" transform="translate(139.635 12371.764)">
        <g id="Group_1198139" data-name="Group 1198139" transform="translate(205.891 4467.322)">
          <g id="Group_1111318" data-name="Group 1111318" transform="translate(0)">
            <g id="Group_1109826" data-name="Group 1109826" transform="translate(0 0)">
              <g id="Group_1098742" data-name="Group 1098742" transform="translate(0)">
                <g transform="matrix(1, 0, 0, 1, -9, -6)" filter="url(#Path_896985)">
                  <g id="Path_896985-2" data-name="Path 896985" transform="translate(9 6)" fill="#d3af82" opacity="0.859">
                    <path d="M 34.05470275878906 67.6094970703125 C 29.52462196350098 67.6094970703125 25.13032341003418 66.72238159179688 20.99385261535645 64.97280120849609 C 16.99824333190918 63.28280639648438 13.40971279144287 60.86331558227539 10.32794284820557 57.78155517578125 C 7.246182918548584 54.69978332519531 4.826692581176758 51.11125564575195 3.136692762374878 47.11564636230469 C 1.387112736701965 42.97917556762695 0.5000027418136597 38.58487319946289 0.5000027418136597 34.05479431152344 C 0.5000027418136597 29.52469444274902 1.387112736701965 25.13037490844727 3.136692762374878 20.9938850402832 C 4.826692581176758 16.99826431274414 7.246182918548584 13.40972518920898 10.32794284820557 10.32795429229736 C 13.40971279144287 7.246184825897217 16.99824333190918 4.826694488525391 20.99385261535645 3.136694669723511 C 25.13032341003418 1.387114763259888 29.52462196350098 0.5000047087669373 34.05470275878906 0.5000047087669373 C 38.58478164672852 0.5000047087669373 42.97908401489258 1.387114763259888 47.11555099487305 3.136694669723511 C 51.11116409301758 4.826694488525391 54.69969177246094 7.246174812316895 57.78146362304688 10.3279447555542 C 60.86322402954102 13.4097146987915 63.28271102905273 16.99823379516602 64.97270965576172 20.99384498596191 C 66.7222900390625 25.13031387329102 67.60940551757812 29.52461433410645 67.60940551757812 34.05469512939453 C 67.60940551757812 38.58479309082031 66.7222900390625 42.9791145324707 64.97270965576172 47.11560440063477 C 63.28271102905273 51.11122512817383 60.86322402954102 54.69976425170898 57.78146362304688 57.78153610229492 C 54.69969177246094 60.86330413818359 51.11116409301758 63.28280639648438 47.11555099487305 64.97280120849609 C 42.97908401489258 66.72238159179688 38.58478164672852 67.6094970703125 34.05470275878906 67.6094970703125 Z" stroke="none"/>
                    <path d="M 34.05470275878906 0.9999923706054688 C 29.59190368652344 0.9999923706054688 25.26313400268555 1.873817443847656 21.18863296508789 3.597183227539062 C 17.25262451171875 5.261985778808594 13.71751403808594 7.645496368408203 10.68150329589844 10.68150329589844 C 7.645492553710938 13.71752548217773 5.261981964111328 17.25263595581055 3.597190856933594 21.18866348266602 C 1.873825073242188 25.26318359375 1 29.59197616577148 1 34.05479431152344 C 1 38.51759338378906 1.873825073242188 42.84636688232422 3.597190856933594 46.92086410522461 C 5.261981964111328 50.85687255859375 7.645492553710938 54.39198303222656 10.68150329589844 57.42799377441406 C 13.71751403808594 60.46399307250977 17.25262451171875 62.84750366210938 21.18863296508789 64.51229858398438 C 25.26313400268555 66.23566436767578 29.59190368652344 67.10948181152344 34.05470275878906 67.10948181152344 C 38.51750183105469 67.10948181152344 42.84627532958984 66.23566436767578 46.92077255249023 64.51229858398438 C 50.85679244995117 62.84749603271484 54.39189147949219 60.46399307250977 57.42790222167969 57.42798614501953 C 60.46391296386719 54.39196395874023 62.8474235534668 50.85684204101562 64.51221466064453 46.92082214355469 C 66.23558044433594 42.84630584716797 67.10940551757812 38.51751708984375 67.10940551757812 34.05469512939453 C 67.10940551757812 29.59189605712891 66.23558044433594 25.26312637329102 64.51221466064453 21.18862533569336 C 62.8474235534668 17.25261306762695 60.46391296386719 13.71750640869141 57.42790222167969 10.68149566650391 C 54.39189147949219 7.645484924316406 50.85678100585938 5.261974334716797 46.92077255249023 3.597183227539062 C 42.84627532958984 1.873817443847656 38.51750183105469 0.9999923706054688 34.05470275878906 0.9999923706054688 M 34.05470275878906 -7.62939453125e-06 C 52.86259460449219 -7.62939453125e-06 68.10940551757812 15.24680328369141 68.10940551757812 34.05469512939453 L 68.10940551757812 34.05479431152344 C 68.10940551757812 52.86268615722656 52.86259460449219 68.10948181152344 34.05470275878906 68.10948181152344 C 15.24681091308594 68.10948181152344 0 52.86268615722656 0 34.05479431152344 L 0 34.05469512939453 C 0 15.24680328369141 15.24681091308594 -7.62939453125e-06 34.05470275878906 -7.62939453125e-06 Z" stroke="none" fill="#fff"/>
                  </g>
                </g>
                <g id="Rectangle_400907" data-name="Rectangle 400907" transform="translate(0)" fill="none" stroke="#fff" stroke-width="1">
                  <rect width="68.109" height="68.109" rx="34.055" stroke="none"/>
                  <rect x="0.5" y="0.5" width="67.109" height="67.109" rx="33.555" fill="none"/>
                </g>
              </g>
            </g>
          </g>
        </g>
      </g>
    </g>
    <g id="Group_1213716" data-name="Group 1213716" transform="translate(985.452 1989.144)">
      <g id="Group_1213715" data-name="Group 1213715" clip-path="url(#clip-path)">
        <path id="Path_1261313" data-name="Path 1261313" d="M0,0H24.719V33.493H0ZM21.75,11.983a.85.85,0,0,1,.432,1.305l-1.417,2.793a.887.887,0,0,1-.7.662l-7.358,0-.686,10.362,11.1,0,0-25.51L1.6,1.589l.036,14.03,3.23-6.4a.747.747,0,0,1,.7-.455L8.276,8.76l1.3-2.612a.867.867,0,0,1,.805-.572.855.855,0,0,1,.787.586l1.387,2.758Zm-9.741,3.166,7.433-.014.932-1.915-8.958-3L10.341,8.237,1.654,25.592a5.052,5.052,0,0,0-.014,1.517l8.761.005.771-11.286a.764.764,0,0,1,.839-.678M1.662,22,7.449,10.432a3.148,3.148,0,0,0-1.393-.011L1.617,19.29A20.087,20.087,0,0,0,1.662,22m21.464,6.7H1.6V31.9H23.126Z" fill="#020203"/>
        <path id="Path_1261314" data-name="Path 1261314" d="M33.936,24.089l-9.194-3.062-1.387-2.758a.855.855,0,0,0-.787-.586.867.867,0,0,0-.805.572l-1.3,2.612-2.708.006a.747.747,0,0,0-.7.455l-3.23,6.4-.036-14.03,21.524.008,0,25.51-11.105,0,.686-10.362,7.358,0a.887.887,0,0,0,.7-.662l1.417-2.793a.85.85,0,0,0-.432-1.306" transform="translate(-12.186 -12.106)" fill="#86baf2"/>
        <path id="Path_1261315" data-name="Path 1261315" d="M35.321,250.548H13.8v-3.209H35.321Zm-3.185-.8a.8.8,0,0,0,0-1.594l-15.168,0a.8.8,0,0,0,.017,1.594Z" transform="translate(-12.195 -218.645)" fill="#dfe2e6"/>
        <path id="Path_1261316" data-name="Path 1261316" d="M50.354,255.957H35.2a.8.8,0,0,1-.017-1.594l15.168,0a.8.8,0,0,1,0,1.594" transform="translate(-30.414 -224.854)" fill="#040404"/>
        <path id="Path_1261317" data-name="Path 1261317" d="M24.124,77.913a.764.764,0,0,0-.839.678l-.77,11.286-8.761-.005a5.056,5.056,0,0,1,.014-1.517L22.455,71l1.075,1.982,8.958,3L31.557,77.9Z" transform="translate(-12.114 -62.764)" fill="#955252"/>
        <path id="Path_1261318" data-name="Path 1261318" d="M13.794,100.849a20.086,20.086,0,0,1-.045-2.706l4.44-8.869a3.148,3.148,0,0,1,1.393.011Z" transform="translate(-12.132 -78.854)" fill="#626a74"/>
        <path id="Path_1261319" data-name="Path 1261319" d="M226.945,0h24.717V33.493H226.945ZM247.8,11.948a.836.836,0,0,1,.655,1.021l-.791,3.961a.8.8,0,0,1-.758.619l-7.267.012-.668,9.548,11.093,0-.007-25.514-21.522,0,.025,14.056,3.1-6.12a1.044,1.044,0,0,1,.638-.749l2.912-.016c.45-.844.87-1.678,1.272-2.554.168-.366.385-.61.74-.62a.756.756,0,0,1,.833.531l.731,2.835Zm-8.719,3.988h7.131l.507-2.66-9-3c-.56-.186-.384-1.2-.732-1.476L228.6,25.591c-.23.461.012,1.007-.035,1.51l4.823-.007a4.8,4.8,0,0,1,4.252-3.945l.431-6.168a1.19,1.19,0,0,1,.226-.774.955.955,0,0,1,.783-.269M228.6,21.991,234.4,10.419A4.8,4.8,0,0,0,233,10.4l-4.447,8.877a18.849,18.849,0,0,0,.05,2.713m8.761,5.082a16.619,16.619,0,0,0,.1-2.282,3.165,3.165,0,0,0-2.425,2.278,12.761,12.761,0,0,0,2.33,0m12.7,1.621H228.536V31.9h21.525Z" transform="translate(-200.617)" fill="#030303"/>
        <path id="Path_1261320" data-name="Path 1261320" d="M259.915,24.049l-9.011-3-.731-2.835a.756.756,0,0,0-.832-.531c-.355.01-.572.254-.74.62-.4.876-.823,1.711-1.272,2.554l-2.911.016a1.044,1.044,0,0,0-.638.749l-3.1,6.12-.025-14.056,21.522,0,.007,25.514-11.093,0,.668-9.548,7.267-.012a.8.8,0,0,0,.758-.619l.791-3.961a.836.836,0,0,0-.655-1.021" transform="translate(-212.732 -12.101)" fill="#86baf2"/>
        <path id="Path_1261321" data-name="Path 1261321" d="M262.187,250.548H240.662v-3.209h21.525Zm-3.145-.8a.794.794,0,0,0-.029-1.587l-15.165,0a.793.793,0,0,0-.791.854.8.8,0,0,0,.791.741Z" transform="translate(-212.742 -218.645)" fill="#dfe2e6"/>
        <path id="Path_1261322" data-name="Path 1261322" d="M250.916,83a.955.955,0,0,0-.783.27,1.19,1.19,0,0,0-.226.774l-.431,6.168a4.8,4.8,0,0,0-4.252,3.945l-4.823.007c.046-.5-.2-1.049.035-1.51l8.39-16.789c.348.274.172,1.29.732,1.476l9,3L258.047,83Z" transform="translate(-212.452 -67.067)" fill="#fccfa4"/>
        <path id="Path_1261323" data-name="Path 1261323" d="M240.663,100.924a18.849,18.849,0,0,1-.05-2.713l4.447-8.877a4.8,4.8,0,0,1,1.4.018Z" transform="translate(-212.677 -78.933)" fill="#905050"/>
        <path id="Path_1261324" data-name="Path 1261324" d="M299,215.978a12.758,12.758,0,0,1-2.33,0A3.165,3.165,0,0,1,299.1,213.7a16.614,16.614,0,0,1-.1,2.282" transform="translate(-262.255 -188.905)" fill="#915050"/>
        <path id="Path_1261325" data-name="Path 1261325" d="M277.273,255.958l-15.194.007a.8.8,0,0,1-.791-.741.793.793,0,0,1,.791-.854l15.165,0a.794.794,0,0,1,.029,1.587" transform="translate(-230.973 -224.859)" fill="#040404"/>
      </g>
    </g>
  </g>
</svg>
