<svg xmlns="http://www.w3.org/2000/svg" xmlns:xlink="http://www.w3.org/1999/xlink" width="129.063" height="80.898" viewBox="0 0 129.063 80.898">
  <defs>
    <clipPath id="clip-path">
      <rect id="Rectangle_412162" data-name="Rectangle 412162" width="58.076" height="80.899" fill="none"/>
    </clipPath>
  </defs>
  <g id="Group_1213510" data-name="Group 1213510" transform="translate(-788.103 -1978.102)">
    <g id="Group_1201007" data-name="Group 1201007">
      <g id="Rectangle_410589" data-name="Rectangle 410589" transform="translate(788.103 2007.607)" fill="#d3af82" stroke="#93795a" stroke-width="1">
        <rect width="129.063" height="43.021" rx="8" stroke="none"/>
        <rect x="0.5" y="0.5" width="128.063" height="42.021" rx="7.5" fill="none"/>
      </g>
    </g>
    <g id="Group_1213728" data-name="Group 1213728" transform="translate(823.596 1978.102)">
      <g id="Group_1213727" data-name="Group 1213727" clip-path="url(#clip-path)">
        <path id="Path_1261407" data-name="Path 1261407" d="M125.322,297.695a1.891,1.891,0,0,0-2.278.035l-5.038,2.8c-.975-2.527-1.657-3.073-1.308-5.916a20.371,20.371,0,0,0,15.017-.038c.338,2.929-.3,3.316-1.293,5.932-1.737-.94-3.418-1.773-5.1-2.817" transform="translate(-95.169 -240.424)" fill="#eef0f2"/>
        <path id="Path_1261408" data-name="Path 1261408" d="M96.942,165.141c-.035,9.548-8.217,16.885-17.522,16.957-9.4.073-17.787-7.325-17.786-16.872v-7.156l35.334,0Z" transform="translate(-50.303 -129.01)" fill="#e8c4ba"/>
        <path id="Path_1261409" data-name="Path 1261409" d="M55.52,79.6l.051-9.923a8.877,8.877,0,0,0-8.692-9c-1.132-.028-2.134-.036-3.3.037a2.108,2.108,0,0,1,.627,1.019,1.45,1.45,0,0,1-.52,1.273l-3.937,3.919c.939,1.587,2.793,1.721,1.487,3.589-2.129,3.046-4.635,5.8-6.542,9.029-.715.149-.837,1.631-2.216,1.28a1.262,1.262,0,0,1-.926-1.219c-.017-.465.357-.861.663-1.269L38.7,69.677c-.587-.961-3.038-2.252-1.788-3.511l4.2-4.225a34.084,34.084,0,0,0-2.791-2.727L30.512,79.593c-.249.65-.762,1.272-1.391,1.3-.73.037-1.262-.53-1.559-1.3l-7.811-20.38-2.793,2.732,4.029,4.019c1.527,1.523-.824,2.5-1.614,3.712l6.717,8.967a1.606,1.606,0,0,1,.429.965,1.292,1.292,0,0,1-.782,1.172c-1.438.546-1.651-1.128-2.38-1.2a.963.963,0,0,0-.23-.675l-6.392-8.484c-1.231-1.634.955-2.24,1.589-3.489l-3.935-3.922a1.464,1.464,0,0,1-.535-1.123,1.788,1.788,0,0,1,.646-1.162c-1.108-.1-2.046-.052-3.119-.047a8.9,8.9,0,0,0-8.882,9L2.555,79.6a1.425,1.425,0,0,1-1.067,1.249A1.213,1.213,0,0,1,0,79.787L.008,69.128A11.1,11.1,0,0,1,11,58.148l6.1-.022c.486-.563,1.4-1.063,1.685-1.779.373-1.05.019-2.235.128-3.415a20.358,20.358,0,0,1-8.667-9.9L6.42,43.014a2.661,2.661,0,0,1-2.74-2.758l.007-14.88a2.5,2.5,0,0,1,1.282-2.256,24.025,24.025,0,0,1,48.015-.027,2.457,2.457,0,0,1,1.247,1.917l-.039,15.812c0,1.374-1.518,2.2-2.686,2.194-1.383,0-2.535-.049-3.816.027A20.286,20.286,0,0,1,39.2,52.831a15.4,15.4,0,0,0,.053,3.531c.34.652,1.15,1.109,1.624,1.734l6.373.06A11.043,11.043,0,0,1,58.065,69.131l.011,10.655a1.2,1.2,0,0,1-1.355,1.08,1.376,1.376,0,0,1-1.2-1.267m-22.7-56.91L32.8,2.885a20.285,20.285,0,0,0-7.6,0l0,19.862Zm-10.1.029L22.673,3.5A21.4,21.4,0,0,0,7.545,22.766Zm27.713-.011A21.525,21.525,0,0,0,35.347,3.491l-.032,19.247Zm-3.011,3.829c.5-.522.845-.7,1.11-1.253l-39.013,0a2.3,2.3,0,0,0,1.154,1.254ZM8.693,28.4a15.559,15.559,0,0,0-2.42-2.466L6.225,40.4a26.678,26.678,0,0,0,3.158.026C8.31,36.2,8.957,32.678,8.693,28.4M48.627,40.421a17.521,17.521,0,0,0,3.111-.052l-.031-14.386a19.549,19.549,0,0,0-2.5,2.338l0,5.508a34.246,34.246,0,0,1-.583,6.592m-1.989-4.29.026-7.067-35.334,0v7.156c0,9.547,8.383,16.944,17.786,16.872,9.305-.072,17.486-7.408,17.522-16.956M30.153,57.27c1.681,1.043,3.362,1.877,5.1,2.817.993-2.617,1.631-3,1.293-5.932a20.373,20.373,0,0,1-15.017.037c-.348,2.844.334,3.389,1.308,5.916l5.038-2.8a1.891,1.891,0,0,1,2.278-.035M29.037,76.045l5.291-13.525L29.038,59.6l-5.286,2.994Z" transform="translate(0 0)" fill="#030304"/>
        <path id="Path_1261410" data-name="Path 1261410" d="M207.206,38.205l-15.111.031.032-19.247a21.525,21.525,0,0,1,15.079,19.215" transform="translate(-156.781 -15.499)" fill="#424953"/>
        <path id="Path_1261411" data-name="Path 1261411" d="M56.212,38.239l-15.167.048a21.4,21.4,0,0,1,15.127-19.27Z" transform="translate(-33.499 -15.521)" fill="#424953"/>
        <path id="Path_1261412" data-name="Path 1261412" d="M144.716,33.915l-7.61.062,0-19.862a20.285,20.285,0,0,1,7.6,0Z" transform="translate(-111.899 -11.226)" fill="#525a63"/>
        <path id="Path_1261413" data-name="Path 1261413" d="M89.639,138.781l-36.749,0a2.3,2.3,0,0,1-1.154-1.254l39.013,0c-.265.556-.614.731-1.11,1.253" transform="translate(-42.224 -112.245)" fill="#5d646f"/>
        <path id="Path_1261414" data-name="Path 1261414" d="M36.33,143.524c.263,4.28-.383,7.806.69,12.025a26.715,26.715,0,0,1-3.158-.025l.048-14.465a15.567,15.567,0,0,1,2.421,2.466" transform="translate(-27.637 -115.126)" fill="#515963"/>
        <path id="Path_1261415" data-name="Path 1261415" d="M264.512,155.777a34.262,34.262,0,0,0,.583-6.592v-5.508a19.533,19.533,0,0,1,2.5-2.338l.031,14.386a17.52,17.52,0,0,1-3.111.052" transform="translate(-215.885 -115.355)" fill="#535b65"/>
        <path id="Path_1261416" data-name="Path 1261416" d="M34.45,348.88l-20.8.023-.056-9.923a8.9,8.9,0,0,1,8.882-9c1.072,0,2.011-.049,3.119.047a1.787,1.787,0,0,0-.646,1.161,1.464,1.464,0,0,0,.535,1.123l3.935,3.922c-.634,1.25-2.82,1.856-1.589,3.489L34.22,348.2a.964.964,0,0,1,.23.675" transform="translate(-11.092 -269.303)" fill="#535b65"/>
        <path id="Path_1261417" data-name="Path 1261417" d="M209.555,348.9l-20.823-.053c1.907-3.226,4.413-5.983,6.542-9.029,1.306-1.869-.548-2-1.487-3.589l3.937-3.919a1.451,1.451,0,0,0,.52-1.274,2.108,2.108,0,0,0-.627-1.019c1.163-.073,2.166-.065,3.3-.037a8.876,8.876,0,0,1,8.692,9Z" transform="translate(-154.036 -269.301)" fill="#535b65"/>
        <path id="Path_1261418" data-name="Path 1261418" d="M167.014,342.493l-1.043-.015L173.78,322.1a34.056,34.056,0,0,1,2.791,2.727l-4.2,4.225c-1.25,1.258,1.2,2.549,1.788,3.511l-6.484,8.661c-.306.408-.679.8-.663,1.269" transform="translate(-135.459 -262.886)" fill="#626a74"/>
        <path id="Path_1261419" data-name="Path 1261419" d="M102.851,342.473l-1.043.015a1.607,1.607,0,0,0-.429-.965l-6.717-8.967c.789-1.208,3.14-2.189,1.613-3.712l-4.029-4.019,2.793-2.732Z" transform="translate(-75.288 -262.88)" fill="#626a75"/>
        <path id="Path_1261420" data-name="Path 1261420" d="M134.487,340.624,129.2,327.168l5.286-2.994,5.29,2.925Zm1.256-12.842a1.256,1.256,0,1,0-1.256,1.256,1.256,1.256,0,0,0,1.256-1.256m0,6.31a1.255,1.255,0,1,0-1.255,1.255,1.255,1.255,0,0,0,1.255-1.255" transform="translate(-105.45 -264.578)" fill="#e0e3e7"/>
        <path id="Path_1261421" data-name="Path 1261421" d="M153.629,338.221a1.256,1.256,0,1,1-1.256-1.256,1.256,1.256,0,0,1,1.256,1.256" transform="translate(-123.336 -275.018)" fill="#0d0d0d"/>
        <path id="Path_1261422" data-name="Path 1261422" d="M153.631,372.549a1.255,1.255,0,1,1-1.255-1.255,1.255,1.255,0,0,1,1.255,1.255" transform="translate(-123.339 -303.036)" fill="#090909"/>
      </g>
    </g>
  </g>
</svg>
