<svg xmlns="http://www.w3.org/2000/svg" xmlns:xlink="http://www.w3.org/1999/xlink" width="129.063" height="87.038" viewBox="0 0 129.063 87.038">
  <defs>
    <clipPath id="clip-path">
      <rect id="Rectangle_412051" data-name="Rectangle 412051" width="105.1" height="87.038" fill="none"/>
    </clipPath>
  </defs>
  <g id="Group_1201398" data-name="Group 1201398" transform="translate(-787.781 -2564.678)">
    <g id="Group_1201005" data-name="Group 1201005" transform="translate(0 26)">
      <g id="Rectangle_410589" data-name="Rectangle 410589" transform="translate(787.781 2575.623)" fill="#70d9c1" stroke="#4d9686" stroke-width="1">
        <rect width="129.063" height="43.021" rx="8" stroke="none"/>
        <rect x="0.5" y="0.5" width="128.063" height="42.021" rx="7.5" fill="none"/>
      </g>
    </g>
    <g id="Group_1213657" data-name="Group 1213657" transform="translate(804.234 2564.678)">
      <g id="Group_1213656" data-name="Group 1213656" clip-path="url(#clip-path)">
        <path id="Path_1261009" data-name="Path 1261009" d="M6.957,79.9l0-20.826a13.347,13.347,0,0,1,6.957-2.121l29.117.009a1.508,1.508,0,0,0,1.45-.787L57.82,29.529l2.251,4.2L78.584,38.4l-2.151,5.391-15.663.067c-.833,0-1.23.876-1.274,1.619L57.876,73.386a5.013,5.013,0,0,1-5,4.93,1.543,1.543,0,0,0-1.588,1.552L51.265,101.3a21.274,21.274,0,0,1-3.233-.014l-.041-21.643a1.5,1.5,0,0,0-1.4-1.322l-22.477-.034c.626-1.91,2.047-6.6-.787-6.515a1.581,1.581,0,0,0-1.579,1.61,11.01,11.01,0,0,1-2.007,6.032L11.906,92.645l-.09,8.629a16.424,16.424,0,0,1-3.209,0L8.6,81.754A1.8,1.8,0,0,0,6.957,79.9" transform="translate(-5.295 -22.474)" fill="#955252"/>
        <path id="Path_1261010" data-name="Path 1261010" d="M145.095,67.572a5.122,5.122,0,0,1-2.874.012l9.715-19.473a9.376,9.376,0,0,1,2.843.056Z" transform="translate(-108.241 -36.555)" fill="#626a74"/>
        <path id="Path_1261011" data-name="Path 1261011" d="M243.225,95.971,243.205,72.9a1.55,1.55,0,0,0-1.635-1.512l-10.513-.031a11.234,11.234,0,0,0,.7-3.751l1.5-25.755,14.755-.016a1.732,1.732,0,0,0,1.777-1.343l3.172-8.028a1.635,1.635,0,0,0-1.325-2.168,7.485,7.485,0,0,1-2.14-.642l3.536-7.081,2.22,4.2L273.8,31.457l-2.17,5.4-15.5.035a1.577,1.577,0,0,0-1.459,1.6L253.1,66.166c-.171,2.992-2.024,5.189-5.155,5.235A1.5,1.5,0,0,0,246.5,72.88l-.013,23.07a15.431,15.431,0,0,1-3.262.022" transform="translate(-175.853 -17.183)" fill="#fccfa4"/>
        <path id="Path_1261012" data-name="Path 1261012" d="M286.368,42.949a14.223,14.223,0,0,1-2.488-.662c.144-.441.228-1.019.605-1.135a7.5,7.5,0,0,1,2.737-.048,12.875,12.875,0,0,1-.854,1.844" transform="translate(-216.054 -31.204)" fill="#5f6771"/>
        <path id="Path_1261013" data-name="Path 1261013" d="M1.662,57.422a1.8,1.8,0,0,1,1.644,1.859L3.312,78.8a16.424,16.424,0,0,0,3.209,0l.09-8.629,7.833-13.227a11.012,11.012,0,0,0,2.007-6.032,1.581,1.581,0,0,1,1.579-1.61c2.834-.085,1.413,4.606.787,6.515l22.477.034a1.5,1.5,0,0,1,1.4,1.322l.041,21.643a21.272,21.272,0,0,0,3.233.014l.023-21.437a1.543,1.543,0,0,1,1.588-1.552,5.014,5.014,0,0,0,5-4.93L54.2,23.007c.043-.743.44-1.616,1.273-1.619l15.663-.067,2.15-5.391L54.776,11.258l-2.251-4.2L39.189,33.7a1.508,1.508,0,0,1-1.45.787L8.623,34.475A13.347,13.347,0,0,0,1.666,36.6,1.811,1.811,0,0,1,.1,35.434,1.764,1.764,0,0,1,.914,33.4,12.888,12.888,0,0,1,7.448,31.23l22.744-.044L41.267,9.052a1.544,1.544,0,0,1,1.494-.858l5.482-.044,3.025-5.886a1.625,1.625,0,0,1,2.6,0l3.105,6.139,7.471,1.9,1.473-2.92a1.529,1.529,0,0,1,1.45-.839l5.541-.017,2.63-5.312A1.875,1.875,0,0,1,76.852.029,1.626,1.626,0,0,1,78.691.9l2.977,5.9,18.895,4.717a1.609,1.609,0,0,1,1.186,2.146L98.5,21.838c-.2.5-.614,1.115-1.277,1.117l-15.163.054L80.442,49.945a8.2,8.2,0,0,1-6.52,7.4l-.01,26.372,11.419.017a27.388,27.388,0,0,0,.091-3.183A1.617,1.617,0,0,1,87.1,78.861c2.467.059,1.226,3.356,1.712,4.711.14.321,1.172.29,1.492-.007l.058-9.684a1.632,1.632,0,0,1,3.264,0l.057,9.681c.349.295,1.307.317,1.51.014a17.045,17.045,0,0,0,.09-3.045,1.615,1.615,0,0,1,1.826-1.663c2.25.226,1.156,3.2,1.534,4.838l4.82.039a1.644,1.644,0,1,1-.066,3.286l-101.664,0A1.553,1.553,0,0,1,.017,85.546L0,59.3a1.769,1.769,0,0,1,1.662-1.874m65.71,21.367a15.448,15.448,0,0,0,3.262-.022l.013-23.07a1.5,1.5,0,0,1,1.447-1.479c3.131-.046,4.984-2.242,5.155-5.235l1.577-27.67a1.577,1.577,0,0,1,1.459-1.6l15.5-.035,2.17-5.4L79.4,9.6l-2.22-4.2-3.536,7.081a7.485,7.485,0,0,0,2.14.642,1.635,1.635,0,0,1,1.325,2.167l-3.172,8.029a1.732,1.732,0,0,1-1.777,1.343L57.4,24.673,55.9,50.428a11.234,11.234,0,0,1-.7,3.751l10.513.031a1.55,1.55,0,0,1,1.635,1.512Zm2.942-67.044A12.863,12.863,0,0,0,71.168,9.9a7.5,7.5,0,0,0-2.737.048c-.377.116-.461.694-.605,1.135a14.205,14.205,0,0,0,2.488.662M36.854,31.017l9.685-19.406a9.393,9.393,0,0,0-2.843-.056L33.98,31.029a5.124,5.124,0,0,0,2.874-.012m27.2,52.677-.026-26.226L52.622,57.6c-1.107.171-2.109,1.364-3.352,1.4l0,24.741Zm-39.418,0-.03-24.563-7.634,0-7.1,11.964L9.869,83.738Zm6.624-15.153,5.483-9.373-8.8-.008.016,19.615a17.187,17.187,0,0,0,3.246-.008Zm3.248,15.176,4.926-.016-.057-22.339-4.9,8.179Zm-27.925-1.6H3.3v1.631H6.587Zm24.534,1.591c.138-.5.251-1.293-.061-1.478a5.615,5.615,0,0,0-2.986.087c-.294.139-.22,1.283.1,1.35a13.564,13.564,0,0,0,2.946.041m14.868-1.585-3.27,0v1.625l3.27,0Zm24.653,0H67.363v1.623h3.279Z" transform="translate(0 0)" fill="#040303"/>
        <path id="Path_1261016" data-name="Path 1261016" d="M120.273,256.993l-.06,10.226a17.21,17.21,0,0,1-3.246.008l-.016-19.615,8.8.008Z" transform="translate(-89.009 -188.451)" fill="#f8cda2"/>
        <rect id="Rectangle_412048" data-name="Rectangle 412048" width="3.285" height="1.631" transform="translate(3.303 82.117)" fill="#616973"/>
        <path id="Path_1261018" data-name="Path 1261018" d="M119.961,345.142a13.546,13.546,0,0,1-2.946-.041c-.321-.067-.395-1.211-.1-1.35a5.615,5.615,0,0,1,2.986-.087c.311.186.2.974.061,1.478" transform="translate(-88.84 -261.434)" fill="#626a74"/>
        <rect id="Rectangle_412049" data-name="Rectangle 412049" width="3.279" height="1.623" transform="translate(67.363 82.125)" fill="#626974"/>
        <rect id="Rectangle_412050" data-name="Rectangle 412050" width="3.27" height="1.625" transform="translate(42.72 82.124)" fill="#646c77"/>
      </g>
    </g>
  </g>
</svg>
