<svg xmlns="http://www.w3.org/2000/svg" xmlns:xlink="http://www.w3.org/1999/xlink" width="129.063" height="80.833" viewBox="0 0 129.063 80.833">
  <defs>
    <clipPath id="clip-path">
      <rect id="Rectangle_412053" data-name="Rectangle 412053" width="80.864" height="80.834" fill="none"/>
    </clipPath>
  </defs>
  <g id="Group_1201397" data-name="Group 1201397" transform="translate(-787.781 -2570.024)">
    <g id="Group_1201005" data-name="Group 1201005" transform="translate(0 26)">
      <g id="Rectangle_410589" data-name="Rectangle 410589" transform="translate(787.781 2575.623)" fill="#70d9c1" stroke="#4d9686" stroke-width="1">
        <rect width="129.063" height="43.021" rx="8" stroke="none"/>
        <rect x="0.5" y="0.5" width="128.063" height="42.021" rx="7.5" fill="none"/>
      </g>
    </g>
    <g id="Group_1213659" data-name="Group 1213659" transform="translate(807.679 2570.024)">
      <g id="Group_1213658" data-name="Group 1213658" clip-path="url(#clip-path)">
        <path id="Path_1261019" data-name="Path 1261019" d="M53.918,12.253a5.493,5.493,0,0,0,1.5-3.985,4.781,4.781,0,0,0-1.744-3.176,2.126,2.126,0,0,1,.2-2.82A1.354,1.354,0,0,0,54.011.431,1.279,1.279,0,0,0,52.164.362c-1.672,1.709-2.172,4.975-.1,6.723,2.508,2.12-1.367,3.572.091,5.157a1.234,1.234,0,0,0,1.767.011m8.8,2.563a5.473,5.473,0,0,0,1.546-3.8,4.51,4.51,0,0,0-1.658-3.287,2.111,2.111,0,0,1,.087-2.9,1.426,1.426,0,0,0,.24-1.777" transform="translate(0 0)" fill="#fefefe"/>
        <path id="Path_1261021" data-name="Path 1261021" d="M279.15,12.253a1.234,1.234,0,0,1-1.767-.011c-1.458-1.586,2.417-3.037-.091-5.157-2.067-1.748-1.568-5.014.1-6.723a1.279,1.279,0,0,1,1.846.069,1.354,1.354,0,0,1-.139,1.841,2.126,2.126,0,0,0-.2,2.82,4.781,4.781,0,0,1,1.744,3.176,5.494,5.494,0,0,1-1.5,3.985" transform="translate(-225.232 0)" fill="#080808"/>
        <path id="Path_1261022" data-name="Path 1261022" d="M327.253,26.016a1.214,1.214,0,0,1-1.8-.143,1.458,1.458,0,0,1,.215-1.9,2.061,2.061,0,0,0,.039-2.852,4.779,4.779,0,0,1-.005-7.154,1.266,1.266,0,0,1,1.771.285,1.426,1.426,0,0,1-.24,1.777,2.111,2.111,0,0,0-.087,2.9,4.51,4.51,0,0,1,1.657,3.287,5.473,5.473,0,0,1-1.546,3.8" transform="translate(-264.535 -11.2)" fill="#070707"/>
        <path id="Path_1261023" data-name="Path 1261023" d="M231.3,32.527a1.361,1.361,0,0,1-2.043.338c-1.614-1.42,2.365-3.083-.094-5.141-2-1.673-1.716-4.541-.127-6.573a1.306,1.306,0,0,1,1.921-.254,1.367,1.367,0,0,1-.035,1.988,2.1,2.1,0,0,0-.152,2.852c2.158,2.063,2.255,4.235.53,6.79" transform="translate(-185.903 -16.8)" fill="#070707"/>
        <path id="Path_1261025" data-name="Path 1261025" d="M114.837,170.232l-9.026,17.026a5.671,5.671,0,0,1-6.536,2.959A5.74,5.74,0,0,1,95,184.647l.033-37.984A7.721,7.721,0,0,0,87.24,138.6l-4.781-.008a2.273,2.273,0,0,1,0-1.214l4.794-.034a8.907,8.907,0,0,1,9.033,9.134l0,38.348a4.435,4.435,0,0,0,3.18,4.131,4.3,4.3,0,0,0,5.025-1.986l9.026-16.868c.2-.373.992-.077,1.324.131" transform="translate(-67.238 -112.106)" fill="#dadde1"/>
        <path id="Path_1261026" data-name="Path 1261026" d="M23.836,138.636l-9.216,0c-.391,0-.708-.166-.753-.506a.63.63,0,0,1,.591-.749l9.338-.009a1.327,1.327,0,0,1,.04,1.26" transform="translate(-11.315 -112.134)" fill="#5d656f"/>
        <path id="Path_1261027" data-name="Path 1261027" d="M1.258,142.544a1.159,1.159,0,0,1-1.235-1.2,1.217,1.217,0,0,1,1.1-1.311L27.449,140a8.781,8.781,0,0,1-2.192-5.566l0-38.349a5.069,5.069,0,0,0-5.061-5.33l-17.426-.06c-1.885-.006-3-2-2.729-3.647.3-1.8,1.8-2.662,3.65-2.655l16.883.069A11.292,11.292,0,0,1,31.31,93.287l4.841-4.023-1.893-3a1.2,1.2,0,0,1,.469-1.651c1.693-.876,2.31,1.769,3.473,2.954L51.868,76.149a1.544,1.544,0,0,1,2.3-.063l8.355,6.993c.705-.934.612-2.751,2.2-2.385a1.251,1.251,0,0,1,.921,1.521c-.223.919-.738,1.645-.929,2.689l11.457,9.54c.266.221.858.105,1.168.087a3.172,3.172,0,1,1,0,6.314c-.171-.011-.709-.059-.8.135l-8.81,18.955a11.049,11.049,0,0,0,1.337,2.5,10.122,10.122,0,0,1,8.455,17.494c.976.278,3.212-.446,3.29,1.249a1.19,1.19,0,0,1-1.125,1.358Zm71-48.015L53.036,78.484,33.84,94.523ZM12.521,88.213a1.327,1.327,0,0,0-.04-1.26l-9.338.009a.63.63,0,0,0-.591.749c.045.34.361.506.753.506ZM47.6,119.837c-.332-.208-1.124-.5-1.324-.131l-9.026,16.868a4.3,4.3,0,0,1-5.025,1.986,4.435,4.435,0,0,1-3.18-4.131l0-38.348a8.907,8.907,0,0,0-9.033-9.134l-4.794.034a2.275,2.275,0,0,0,0,1.214L20,88.2a7.721,7.721,0,0,1,7.794,8.065l-.033,37.984a5.74,5.74,0,0,0,4.274,5.569,5.672,5.672,0,0,0,6.536-2.959ZM78.268,97.052l-46.694,0v1.265l46.694,0ZM63.341,120.615a1.483,1.483,0,0,0,1.693-.892l8.752-18.866-42.2-.01,0,11.19a1.866,1.866,0,0,0,1.5,1.92ZM35.122,135.279,43.8,118.9l-12.227-2.7,0,18.048a1.905,1.905,0,0,0,3.549,1.028M64,140a10.178,10.178,0,0,1-.64-14.536,26.394,26.394,0,0,0-1.231-2.512L50.22,120.323l-9.132,17.2A18.509,18.509,0,0,1,39.507,140Zm7.227-8-5.057-9.486a1.429,1.429,0,0,0-1.144.551l5.195,9.709a.629.629,0,0,0,.89.137.722.722,0,0,0,.116-.911m-3.178,2.06-3.354-6.145a7.554,7.554,0,1,0,5.647-3.006l3.166,6a3.16,3.16,0,0,1-1.2,4.26,3.117,3.117,0,0,1-4.256-1.111" transform="translate(0 -61.711)" fill="#040405"/>
        <path id="Path_1261028" data-name="Path 1261028" d="M203.637,232.76,173.371,226.1a1.866,1.866,0,0,1-1.5-1.92l0-11.19,42.2.01-8.752,18.866a1.483,1.483,0,0,1-1.693.892" transform="translate(-140.295 -173.856)" fill="#4988da"/>
        <path id="Path_1261029" data-name="Path 1261029" d="M348.755,353.027a3.117,3.117,0,0,0,4.256,1.111,3.16,3.16,0,0,0,1.2-4.26l-3.166-6a7.529,7.529,0,1,1-5.647,3.006Z" transform="translate(-280.707 -280.679)" fill="#636b75"/>
        <rect id="Rectangle_412052" data-name="Rectangle 412052" width="46.694" height="1.265" transform="translate(31.575 35.343)" fill="#5690da"/>
        <path id="Path_1261030" data-name="Path 1261030" d="M360.089,340.388a.723.723,0,0,1-.116.911.629.629,0,0,1-.89-.137l-5.195-9.709a1.429,1.429,0,0,1,1.144-.551Z" transform="translate(-288.864 -270.101)" fill="#d9dce0"/>
        <path id="Path_1261031" data-name="Path 1261031" d="M222.585,107.333l-38.415-.006,19.2-16.039Zm-16.658-8.827a1.259,1.259,0,1,0-1.259,1.259,1.259,1.259,0,0,0,1.259-1.259m-7.584,5.045a1.258,1.258,0,1,0-1.258,1.258,1.258,1.258,0,0,0,1.258-1.258m13.894,1.268a1.254,1.254,0,1,0-1.254,1.254,1.255,1.255,0,0,0,1.254-1.254" transform="translate(-150.33 -74.514)" fill="#facea3"/>
        <path id="Path_1261032" data-name="Path 1261032" d="M291.391,124.979a1.259,1.259,0,1,1-1.259-1.259,1.259,1.259,0,0,1,1.259,1.259" transform="translate(-235.794 -100.987)" fill="#0d0a08"/>
        <path id="Path_1261033" data-name="Path 1261033" d="M250.12,152.435a1.258,1.258,0,1,1-1.258-1.258,1.258,1.258,0,0,1,1.258,1.258" transform="translate(-202.107 -123.399)" fill="#0b0907"/>
        <path id="Path_1261034" data-name="Path 1261034" d="M325.773,159.351a1.254,1.254,0,1,1-1.254-1.254,1.255,1.255,0,0,1,1.254,1.254" transform="translate(-263.866 -129.048)" fill="#0b0907"/>
      </g>
    </g>
  </g>
</svg>
