<svg id="Group_1213599" data-name="Group 1213599" xmlns="http://www.w3.org/2000/svg" xmlns:xlink="http://www.w3.org/1999/xlink" width="115.654" height="92.183" viewBox="0 0 115.654 92.183">
  <defs>
    <clipPath id="clip-path">
      <rect id="Rectangle_411996" data-name="Rectangle 411996" width="115.654" height="92.183" fill="none"/>
    </clipPath>
  </defs>
  <g id="Group_1213598" data-name="Group 1213598" clip-path="url(#clip-path)">
    <path id="Path_1260696" data-name="Path 1260696" d="M114.158,92.174,1.585,92.183a1.739,1.739,0,0,1-1.57-2c.192-2.244,2.837-1.287,3.573-1.822V61.111a6.418,6.418,0,0,1-2.305.249A1.727,1.727,0,0,1,0,59.64a1.805,1.805,0,0,1,1.53-1.794L39.72,47.422,39.69,34.44c-.909-.351-1.675-.813-1.743-1.7a1.823,1.823,0,0,1,1.395-1.973L50.954,27.2a14.466,14.466,0,1,1,13.756.01l11.6,3.55a1.866,1.866,0,0,1,1.4,1.786c.039.971-.773,1.527-1.746,1.89l-.031,12.982,38.232,10.429A1.824,1.824,0,0,1,115.64,59.4a1.75,1.75,0,0,1-1.044,1.882,4.156,4.156,0,0,1-2.514-.212l-.028,27.289c.8.571,3.109-.429,3.551,1.6.138.635-.094,2.208-1.447,2.208M68.663,14.45A10.837,10.837,0,1,0,57.826,25.287,10.837,10.837,0,0,0,68.663,14.45M87.088,57.916c1.237,0,1.506,1.361,1.44,1.962a1.754,1.754,0,0,1-1.759,1.576l-9.026.026,0,27.171L95.782,88.6,95.776,56.6l-22.124-6.03a1.773,1.773,0,0,1-1.358-1.592l-.025-15.64L57.818,29.009,43.387,33.33l-.026,15.645a1.818,1.818,0,0,1-1.383,1.612l-22.1,6.03,0,32.025,18.032,0,0-27.164-8.755-.011a1.833,1.833,0,0,1-2.036-1.6A1.689,1.689,0,0,1,28.68,57.9ZM16.273,88.491l-.047-30.873L7.208,60.032l0,28.528Zm92.157.081.033-28.521-9.036-2.46L99.4,88.571ZM56,61.439H41.538v16.27H56Zm18.117.008H59.654v16.27H74.118ZM51.233,81.435a18.8,18.8,0,0,0-4.676.027c.67.412,1.43,1.249,2.33,1.173.939-.08,1.6-.9,2.346-1.2m17.87.011a22.325,22.325,0,0,0-4.733-.023c.845.235,1.46,1.14,2.393,1.2.894.057,1.7-.745,2.341-1.176M45.209,84.976a27.583,27.583,0,0,0-3.6-2.139,18.422,18.422,0,0,0,.063,4.288Zm10.707,2.1a24.494,24.494,0,0,0,.026-4.265,27.959,27.959,0,0,0-3.508,2.178Zm7.222-2.184a30.787,30.787,0,0,0-3.445-2.076,17.766,17.766,0,0,0,.126,4.291,17.344,17.344,0,0,0,3.319-2.215m10.911,2.2a17.652,17.652,0,0,0-.064-4.263A28.479,28.479,0,0,0,70.49,85,34.367,34.367,0,0,0,74.048,87.1M50.986,88.56c-.61-.508-1.292-1.249-2.139-1.31-.864-.063-1.547.846-2.227,1.236a26.029,26.029,0,0,0,4.366.074M69.1,88.531c-.691-.443-1.405-1.311-2.294-1.285-.812.024-1.411.841-2.091,1.215a13.846,13.846,0,0,0,4.385.069" transform="translate(0 0)" fill="#030202"/>
    <path id="Path_1260697" data-name="Path 1260697" d="M142.8,139.216,84.394,139.2a1.688,1.688,0,0,0-1.558,1.966,1.832,1.832,0,0,0,2.035,1.6l8.755.011,0,27.164-18.032,0,0-32.025,22.1-6.03a1.818,1.818,0,0,0,1.383-1.612L99.1,114.63l14.431-4.321,14.452,4.326.025,15.64a1.773,1.773,0,0,0,1.358,1.592l22.124,6.03L151.5,169.9l-18.042.047,0-27.171,9.026-.026a1.754,1.754,0,0,0,1.759-1.576c.067-.6-.2-1.962-1.44-1.962m-21.8-3.65a1.818,1.818,0,0,0,1.574-1.858l-.007-14.476a1.694,1.694,0,0,0-1.676-1.786l-14.714.008a1.706,1.706,0,0,0-1.673,1.778l-.01,14.479a1.8,1.8,0,0,0,1.686,1.855Z" transform="translate(-55.714 -81.3)" fill="#945252"/>
    <rect id="Rectangle_411994" data-name="Rectangle 411994" width="14.464" height="16.27" transform="translate(41.538 61.439)" fill="#ea5464"/>
    <rect id="Rectangle_411995" data-name="Rectangle 411995" width="14.464" height="16.27" transform="translate(59.654 61.447)" fill="#d74352"/>
    <path id="Path_1260698" data-name="Path 1260698" d="M161.551,317.131l-3.539,2.149a18.407,18.407,0,0,1-.063-4.288,27.563,27.563,0,0,1,3.6,2.139" transform="translate(-116.343 -232.155)" fill="#cc404e"/>
    <path id="Path_1260699" data-name="Path 1260699" d="M271.6,319.241a34.361,34.361,0,0,1-3.558-2.093,28.447,28.447,0,0,1,3.494-2.169,17.654,17.654,0,0,1,.064,4.263" transform="translate(-197.553 -232.145)" fill="#c8344a"/>
    <path id="Path_1260700" data-name="Path 1260700" d="M230.248,316.989a17.361,17.361,0,0,1-3.319,2.215,17.776,17.776,0,0,1-.126-4.291,30.75,30.75,0,0,1,3.445,2.076" transform="translate(-167.111 -232.097)" fill="#c8344a"/>
    <path id="Path_1260701" data-name="Path 1260701" d="M202.861,319.159l-3.483-2.087a28.009,28.009,0,0,1,3.508-2.178,24.494,24.494,0,0,1-.026,4.265" transform="translate(-146.945 -232.083)" fill="#d0414f"/>
    <path id="Path_1260702" data-name="Path 1260702" d="M181.642,333.071a26.031,26.031,0,0,1-4.366-.075c.68-.39,1.363-1.3,2.227-1.235.847.062,1.529.8,2.139,1.31" transform="translate(-130.656 -244.512)" fill="#b13744"/>
    <path id="Path_1260703" data-name="Path 1260703" d="M250.471,333.04a13.846,13.846,0,0,1-4.385-.069c.68-.375,1.28-1.192,2.091-1.215.888-.026,1.6.841,2.294,1.285" transform="translate(-181.37 -244.509)" fill="#ad2d40"/>
    <path id="Path_1260704" data-name="Path 1260704" d="M181.711,309.292c-.747.3-1.407,1.12-2.346,1.2-.9.077-1.661-.76-2.331-1.173a18.788,18.788,0,0,1,4.676-.027" transform="translate(-130.478 -227.857)" fill="#cc404e"/>
    <path id="Path_1260705" data-name="Path 1260705" d="M249.5,309.318c-.637.431-1.447,1.232-2.341,1.176-.933-.059-1.547-.964-2.393-1.2a22.343,22.343,0,0,1,4.733.023" transform="translate(-180.401 -227.872)" fill="#c8344a"/>
    <path id="Path_1260706" data-name="Path 1260706" d="M202.022,155.571H187.2a1.8,1.8,0,0,1-1.686-1.855l.01-14.478a1.706,1.706,0,0,1,1.673-1.778l14.714-.008a1.693,1.693,0,0,1,1.676,1.786l.007,14.476a1.818,1.818,0,0,1-1.574,1.857m-4.793-14.381a33.6,33.6,0,0,0-5.343-.042,23.316,23.316,0,0,0,2.673,2.7,28.876,28.876,0,0,0,2.67-2.66m-5.28,5.234a20.047,20.047,0,0,0-2.757-2.576,40.476,40.476,0,0,0,.005,5.327,13.346,13.346,0,0,0,2.752-2.752m7.976,2.743a39.468,39.468,0,0,0-.015-5.32,15.22,15.22,0,0,0-2.725,2.676,16.216,16.216,0,0,0,2.74,2.644m-2.791,2.611a18.675,18.675,0,0,0-2.58-2.661,19.834,19.834,0,0,0-2.646,2.741,39.12,39.12,0,0,0,5.225-.08" transform="translate(-136.729 -101.304)" fill="#020101"/>
    <path id="Path_1260707" data-name="Path 1260707" d="M202.012,164.348a13.352,13.352,0,0,1-2.752,2.752,40.48,40.48,0,0,1-.005-5.328,20.064,20.064,0,0,1,2.757,2.576" transform="translate(-146.792 -119.229)" fill="#da4e5d"/>
    <path id="Path_1260708" data-name="Path 1260708" d="M232.628,167.088a16.256,16.256,0,0,1-2.74-2.644,15.2,15.2,0,0,1,2.725-2.676,39.471,39.471,0,0,1,.015,5.32" transform="translate(-169.432 -119.226)" fill="#da4e5d"/>
    <path id="Path_1260709" data-name="Path 1260709" d="M215.081,151.309a28.842,28.842,0,0,1-2.67,2.66,23.312,23.312,0,0,1-2.673-2.7,33.6,33.6,0,0,1,5.343.041" transform="translate(-154.581 -111.424)" fill="#ea5464"/>
    <path id="Path_1260710" data-name="Path 1260710" d="M215.051,184.469a39.12,39.12,0,0,1-5.225.08,19.835,19.835,0,0,1,2.646-2.741,18.676,18.676,0,0,1,2.58,2.661" transform="translate(-154.646 -133.996)" fill="#e75362"/>
    <path id="Path_1260711" data-name="Path 1260711" d="M200.352,24.577A10.837,10.837,0,1,1,189.515,13.74a10.837,10.837,0,0,1,10.837,10.837m-7.362-.2c-.35,2.589-3.143,6.641-.364,7.335a1.771,1.771,0,0,0,2.156-1.018c.507-1.891,1.567-3.705,1.833-5.685.568-4.218-3.171-7.731-7.22-7.663-3.946.067-7.538,3.532-6.984,7.665.257,1.917,1.3,3.661,1.76,5.506a1.776,1.776,0,0,0,2.25,1.177c2.82-.772-.136-4.89-.394-7.387-.2-1.954,1.857-3.375,3.616-3.321,1.6.049,3.607,1.458,3.346,3.392" transform="translate(-131.689 -10.127)" fill="#626a75"/>
    <path id="Path_1260712" data-name="Path 1260712" d="M203.295,34.471c.261-1.935-1.744-3.344-3.346-3.392-1.759-.053-3.818,1.368-3.616,3.321.257,2.5,3.213,6.616.394,7.387a1.776,1.776,0,0,1-2.25-1.177c-.455-1.845-1.5-3.589-1.76-5.506-.554-4.133,3.039-7.6,6.984-7.665,4.049-.068,7.788,3.445,7.22,7.663-.267,1.98-1.326,3.794-1.833,5.685a1.771,1.771,0,0,1-2.156,1.018c-2.779-.693.014-4.746.364-7.335" transform="translate(-141.994 -20.223)" fill="#030303"/>
  </g>
</svg>
