<svg xmlns="http://www.w3.org/2000/svg" xmlns:xlink="http://www.w3.org/1999/xlink" width="189.297" height="124.077" viewBox="0 0 189.297 124.077">
  <defs>
    <filter id="influencer-their-pet-creating-content-online-spaces-social-media" x="0" y="39.094" width="189.297" height="84.982" filterUnits="userSpaceOnUse">
      <feOffset dy="3" input="SourceAlpha"/>
      <feGaussianBlur stdDeviation="3" result="blur"/>
      <feFlood flood-opacity="0.161"/>
      <feComposite operator="in" in2="blur"/>
      <feComposite in="SourceGraphic"/>
    </filter>
    <filter id="Rectangle_401593" x="36.897" y="7.775" width="70.322" height="116.301" filterUnits="userSpaceOnUse">
      <feOffset dy="3" input="SourceAlpha"/>
      <feGaussianBlur stdDeviation="3" result="blur-2"/>
      <feFlood flood-opacity="0.161"/>
      <feComposite operator="in" in2="blur-2"/>
      <feComposite in="SourceGraphic"/>
    </filter>
    <clipPath id="clip-path">
      <rect id="Rectangle_412029" data-name="Rectangle 412029" width="103.733" height="103.76" fill="none"/>
    </clipPath>
  </defs>
  <g id="Group_1213205" data-name="Group 1213205" transform="translate(9 13.775)">
    <g transform="matrix(1, 0, 0, 1, -9, -13.78)" filter="url(#influencer-their-pet-creating-content-online-spaces-social-media)">
      <path id="influencer-their-pet-creating-content-online-spaces-social-media-2" data-name="influencer-their-pet-creating-content-online-spaces-social-media" d="M0,0H171.3V66.982H0Z" transform="translate(9 45.09)" fill="#376b5f"/>
    </g>
    <g id="Group_1182090" data-name="Group 1182090" transform="translate(36.897 0)">
      <g transform="matrix(1, 0, 0, 1, -45.9, -13.78)" filter="url(#Rectangle_401593)">
        <rect id="Rectangle_401593-2" data-name="Rectangle 401593" width="52.322" height="98.301" rx="8" transform="translate(45.9 13.78)" fill="#fc0"/>
      </g>
    </g>
    <g id="Group_1213635" data-name="Group 1213635" transform="translate(33.782 -13.775)">
      <g id="Group_1213634" data-name="Group 1213634" clip-path="url(#clip-path)">
        <path id="Path_1260833" data-name="Path 1260833" d="M91.135,103.729l-62.1.031A6.486,6.486,0,0,1,22.654,97.2l-.034-4.746-13.606-.05L0,83.411,0,9.725A1.532,1.532,0,0,1,1.653,8.11l21.07-.027C22.1,3.949,24.774.039,29.033.037L90.508,0a6.692,6.692,0,0,1,5.241,2.3A7.52,7.52,0,0,1,97.28,8.077c1.685.35,6.454-.828,6.454,1.4l0,22.019-6.431,6.5-.026,59.39a6.309,6.309,0,0,1-6.139,6.345M90.641,90.8a3.215,3.215,0,0,0,3.4-3.12l0-81.243A3.255,3.255,0,0,0,90.52,3.26l-61,0a3.3,3.3,0,0,0-3.587,3.405V91.555a9.776,9.776,0,0,1,3.838-.757ZM13.07,50.254l9.58-.04L22.582,43.8l-9.6-.008A1.646,1.646,0,0,1,11.345,42.1c.034-1.037.807-1.546,1.866-1.548l9.434-.023-.036-6.473-9.647-.021a1.566,1.566,0,0,1-1.614-1.6,1.583,1.583,0,0,1,1.62-1.606l9.67-.024.015-19.469-19.418,0,.007,69.709,6.665.056a1.5,1.5,0,0,1,1.421,1.457v6.567l11.326.007,0-25.892-9.913-.069a1.476,1.476,0,0,1-1.386-1.7,1.617,1.617,0,0,1,1.617-1.48l9.671-.037-.013-6.4-9.884-.077a1.567,1.567,0,0,1-1.4-1.691,1.659,1.659,0,0,1,1.72-1.531m87.468-20.165L100.509,11.4a23.391,23.391,0,0,0-3.208-.009l.022,21.773a23.158,23.158,0,0,0,3.216-3.076M8.069,84.342A10.072,10.072,0,0,0,5.7,84.4,15.264,15.264,0,0,0,8,86.708a8.453,8.453,0,0,0,.066-2.366m21.025,9.723a3.175,3.175,0,0,0-3.14,3.457,3.219,3.219,0,0,0,3.32,3.011L91,100.512a3.209,3.209,0,0,0,3.05-3.3c-.008-1.414.068-2.567-.069-3.936a9.9,9.9,0,0,1-3.116.828l-.1,3.506a1.486,1.486,0,0,1-1.661,1.3l-58.4,0c-2.358,0-1.2-3.431-1.611-4.841m58.459-.008H32.412v1.619H87.553Z" transform="translate(0 0)" fill="#040403"/>
        <path id="Path_1260834" data-name="Path 1260834" d="M113.166,396.326c.412,1.41-.747,4.84,1.61,4.84l58.4,0a1.486,1.486,0,0,0,1.661-1.3l.1-3.506a9.887,9.887,0,0,0,3.116-.828c.137,1.369.061,2.522.07,3.936a3.209,3.209,0,0,1-3.05,3.3l-61.723.021a3.219,3.219,0,0,1-3.32-3.011,3.175,3.175,0,0,1,3.14-3.457" transform="translate(-84.073 -302.261)" fill="#eab23f"/>
        <rect id="Rectangle_412027" data-name="Rectangle 412027" width="55.141" height="1.619" transform="translate(32.412 94.057)" fill="#d9dce0"/>
        <path id="Path_1260835" data-name="Path 1260835" d="M415.831,66.838a23.186,23.186,0,0,1-3.216,3.076l-.022-21.773a23.429,23.429,0,0,1,3.208.009Z" transform="translate(-315.292 -36.749)" fill="#f3b941"/>
        <path id="Path_1260836" data-name="Path 1260836" d="M23.557,86.992a1.659,1.659,0,0,0-1.72,1.531,1.567,1.567,0,0,0,1.4,1.691l9.884.077.013,6.4-9.671.037a1.618,1.618,0,0,0-1.617,1.48,1.476,1.476,0,0,0,1.386,1.7l9.913.07,0,25.892-11.326-.007V119.3a1.5,1.5,0,0,0-1.421-1.457l-6.665-.056-.007-69.709,19.418,0-.015,19.469-9.67.024a1.583,1.583,0,0,0-1.62,1.606,1.566,1.566,0,0,0,1.614,1.6L33.1,70.8l.035,6.473-9.434.023c-1.059,0-1.833.512-1.866,1.548a1.646,1.646,0,0,0,1.633,1.687l9.6.008.068,6.414Z" transform="translate(-10.487 -36.738)" fill="#e4e7eb"/>
        <path id="Path_1260837" data-name="Path 1260837" d="M26.526,357.512a8.446,8.446,0,0,1-.066,2.366,15.24,15.24,0,0,1-2.306-2.309,10.085,10.085,0,0,1,2.372-.057" transform="translate(-18.458 -273.17)" fill="#cdcfd1"/>
        <path id="Path_1260838" data-name="Path 1260838" d="M174.659,101.352l-60.874,0a9.777,9.777,0,0,0-3.838.757V17.214a3.3,3.3,0,0,1,3.587-3.405l61,0a3.255,3.255,0,0,1,3.522,3.176l0,81.243a3.214,3.214,0,0,1-3.4,3.12M168.347,49.5A24.347,24.347,0,1,0,144,73.85,24.347,24.347,0,0,0,168.347,49.5m-3.37,32.46a1.635,1.635,0,0,0,1.7-1.7,1.57,1.57,0,0,0-1.56-1.555l-42.4.01a1.532,1.532,0,0,0-1.415,1.743,1.659,1.659,0,0,0,1.679,1.5Zm.233,4.792A1.546,1.546,0,0,0,166.675,85a1.613,1.613,0,0,0-1.61-1.459l-42.093-.008A1.632,1.632,0,0,0,121.3,85.2c.033,1.067.78,1.585,1.9,1.584Zm-9.986,4.921a1.605,1.605,0,0,0,1.7-1.753,1.569,1.569,0,0,0-1.7-1.5l-22.374-.006a1.651,1.651,0,0,0-1.824,1.529,1.624,1.624,0,0,0,1.6,1.718Z" transform="translate(-84.019 -10.552)" fill="#fdcc53"/>
        <path id="Path_1260839" data-name="Path 1260839" d="M201.985,312.7l-42.011.03c-1.123,0-1.87-.517-1.9-1.584a1.632,1.632,0,0,1,1.676-1.666l42.093.008a1.613,1.613,0,0,1,1.61,1.459,1.546,1.546,0,0,1-1.464,1.752" transform="translate(-120.793 -236.496)" fill="#080603"/>
        <path id="Path_1260840" data-name="Path 1260840" d="M201.753,292.266l-42,0a1.659,1.659,0,0,1-1.679-1.5,1.532,1.532,0,0,1,1.415-1.743l42.4-.01a1.57,1.57,0,0,1,1.56,1.555,1.635,1.635,0,0,1-1.7,1.7" transform="translate(-120.794 -220.855)" fill="#0a0803"/>
        <path id="Path_1260841" data-name="Path 1260841" d="M223.519,333.439l-22.6-.011a1.624,1.624,0,0,1-1.6-1.718,1.651,1.651,0,0,1,1.824-1.529l22.374.006a1.569,1.569,0,0,1,1.7,1.5,1.605,1.605,0,0,1-1.7,1.753" transform="translate(-152.313 -252.315)" fill="#060502"/>
        <path id="Path_1260842" data-name="Path 1260842" d="M199.8,86.274a24.347,24.347,0,1,1-24.347-24.347A24.346,24.346,0,0,1,199.8,86.274m-21.637-9.547,13.456,2.966c.721.159,1.308.4,1.524.929a1.993,1.993,0,0,1-.135,1.774l-3.236,6.412a1.421,1.421,0,0,1-1.2.682l-10,.065-1.357,17.74a21.1,21.1,0,1,0-20.977-12.5l8.791-17.211a1.584,1.584,0,0,1,1.623-1.065l3.75,0c1.185-1.688,1.64-4.844,3.436-4.873a1.744,1.744,0,0,1,1.524.928c.9,1.409,1.736,2.73,2.8,4.162m-2.713,11.068a1.55,1.55,0,0,1,1.564-1.534l10.371-.007a35.286,35.286,0,0,0,1.832-3.688l-13.07-3.007-2.134-2.884L164.092,96.45a1.621,1.621,0,0,1-1.691,1.119,40.448,40.448,0,0,0-4.647.168,21.029,21.029,0,0,0,16.189,9.572Zm-7.758-8.4-7.375,14.75,1.066.533,7.375-14.75Z" transform="translate(-115.473 -47.323)" fill="#040403"/>
        <path id="Path_1260843" data-name="Path 1260843" d="M188.684,87.273c-1.064-1.432-1.9-2.754-2.8-4.162a1.744,1.744,0,0,0-1.524-.928c-1.8.029-2.252,3.185-3.437,4.873l-3.75,0a1.584,1.584,0,0,0-1.623,1.065l-8.791,17.211a21.052,21.052,0,1,1,20.977,12.505l1.357-17.74,10-.065a1.42,1.42,0,0,0,1.2-.682l3.236-6.411a1.994,1.994,0,0,0,.135-1.774c-.217-.531-.8-.77-1.524-.929Z" transform="translate(-125.993 -57.87)" fill="#85b9f0"/>
        <path id="Path_1260844" data-name="Path 1260844" d="M196.986,135.581,195.477,155.1a21.029,21.029,0,0,1-16.189-9.572,40.444,40.444,0,0,1,4.647-.168,1.621,1.621,0,0,0,1.691-1.119l9.923-19.776,2.134,2.884,13.07,3.007a35.294,35.294,0,0,1-1.832,3.688l-10.371.007a1.55,1.55,0,0,0-1.564,1.534" transform="translate(-137.007 -95.11)" fill="#945252"/>
        <rect id="Rectangle_412028" data-name="Rectangle 412028" width="16.491" height="1.192" transform="translate(44.846 46.823) rotate(-63.435)" fill="#5b626c"/>
      </g>
    </g>
  </g>
</svg>
