<svg xmlns="http://www.w3.org/2000/svg" xmlns:xlink="http://www.w3.org/1999/xlink" width="70" height="70" viewBox="0 0 70 70">
  <defs>
    <clipPath id="clip-path">
      <rect id="Rectangle_412173" data-name="Rectangle 412173" width="45.415" height="48.855" fill="none"/>
    </clipPath>
  </defs>
  <g id="Group_1213736" data-name="Group 1213736" transform="translate(-621.835 -3716)">
    <path id="Path_1259061" data-name="Path 1259061" d="M35,0A35,35,0,1,1,0,35,35,35,0,0,1,35,0Z" transform="translate(621.835 3716)" fill="#70d9c1"/>
    <g id="Group_1213742" data-name="Group 1213742" transform="translate(636.368 3728.896)">
      <g id="Group_1213741" data-name="Group 1213741" clip-path="url(#clip-path)">
        <path id="Path_1261471" data-name="Path 1261471" d="M272.9,42.7c1.923.99,4.115-.2,4.161,1.458a1.075,1.075,0,0,1-1.179,1.074,7.832,7.832,0,0,1-3.95-.71A5.126,5.126,0,0,1,269,40.051a5.3,5.3,0,0,1,3.834-4.949c.843-.271,4.429-.939,4.225.819-.162,1.394-1.751.713-3.233,1.055a3.343,3.343,0,0,0-2.761,3.072A3.094,3.094,0,0,0,272.9,42.7" transform="translate(-231.653 -29.926)" fill="#050505"/>
        <path id="Path_1261472" data-name="Path 1261472" d="M214.5,4.05c.034,2.3-1.305,4.138-3.535,4.143-2.257.006-3.574-1.867-3.555-4.073.018-2.132,1.255-3.923,3.421-4,2.195-.073,3.636,1.663,3.669,3.925m-2.166.911a6,6,0,0,0,.021-1.482,1.4,1.4,0,0,0-2.794-.031,7.3,7.3,0,0,0-.007,1.365,1.4,1.4,0,0,0,2.781.149" transform="translate(-178.613 -0.106)" fill="#040404"/>
        <path id="Path_1261473" data-name="Path 1261473" d="M6.815,17.5a1.053,1.053,0,0,1,1.194.966,1.024,1.024,0,0,1-1.126,1.1l-5.834,0a1.023,1.023,0,1,1,0-2.046Z" transform="translate(-0.007 -15.067)" fill="#020202"/>
        <path id="Path_1261474" data-name="Path 1261474" d="M21.6,123.33H18.046a1.008,1.008,0,0,1-1.04-1.049,1.024,1.024,0,0,1,1.052-.992l3.578,0a1.019,1.019,0,1,1-.038,2.037" transform="translate(-14.645 -104.449)" fill="#060606"/>
        <path id="Path_1261475" data-name="Path 1261475" d="M6.88,157.624l-5.832-.007a1.037,1.037,0,1,1,.025-2.074l5.917.007A1.008,1.008,0,0,1,8,156.638a1.037,1.037,0,0,1-1.123.986" transform="translate(0 -133.948)" fill="#080808"/>
        <path id="Path_1261476" data-name="Path 1261476" d="M7.07,88.914l-6.01.021A1.059,1.059,0,0,1,0,87.911a1.04,1.04,0,0,1,1.043-1.045l5.833-.006A1.029,1.029,0,0,1,8,87.774a.993.993,0,0,1-.931,1.139" transform="translate(-0.003 -74.8)" fill="#050505"/>
        <path id="Path_1261477" data-name="Path 1261477" d="M7.009,227.107l-5.951.006A1.053,1.053,0,0,1,0,226.088a1.024,1.024,0,0,1,1.044-1.025l6.109.023a.939.939,0,0,1,.85,1,.994.994,0,0,1-.995,1.02" transform="translate(-0.002 -193.816)" fill="#040404"/>
        <path id="Path_1261478" data-name="Path 1261478" d="M21.624,192.53l-3.578,0A1.041,1.041,0,0,1,17,191.546a1.021,1.021,0,0,1,.965-1.071l3.543-.024a1.046,1.046,0,0,1,1.133.972,1,1,0,0,1-1.013,1.107" transform="translate(-14.635 -164.009)" fill="#080808"/>
        <path id="Path_1261479" data-name="Path 1261479" d="M21.714,53.947l-3.665-.013A1.037,1.037,0,0,1,17,52.909a1.024,1.024,0,0,1,1.043-1.04l3.476-.011a1.037,1.037,0,0,1,1.117.909,1.06,1.06,0,0,1-.925,1.181" transform="translate(-14.643 -44.658)" fill="#050505"/>
        <path id="Path_1261480" data-name="Path 1261480" d="M78.534,40.61a9.47,9.47,0,0,1-18.662.708,9.666,9.666,0,0,1,3.417-9.571L63.3,5.833A5.848,5.848,0,1,1,75,5.973l0,25.768a9.614,9.614,0,0,1,3.539,8.869m-2.1-.148a7.6,7.6,0,0,0-2.934-7.24,1.237,1.237,0,0,1-.607-1.069l0-26.178a3.744,3.744,0,0,0-7.478-.362l-.044,26.568a1.007,1.007,0,0,1-.41.9,7.661,7.661,0,0,0-2.778,8.8,7.378,7.378,0,0,0,14.248-1.422" transform="translate(-51.379 0)" fill="#050505"/>
        <path id="Path_1261482" data-name="Path 1261482" d="M100.314,102.638a4.64,4.64,0,0,1-1.058,9.154,4.636,4.636,0,0,1-1.036-9.153l.007-22.985a1.026,1.026,0,0,1,1.039-1.042,1.053,1.053,0,0,1,1.037,1.043Zm1.5,4.514a2.553,2.553,0,1,0-2.553,2.553,2.553,2.553,0,0,0,2.553-2.553" transform="translate(-81.487 -67.698)" fill="#040404"/>
      </g>
    </g>
  </g>
</svg>
