<svg xmlns="http://www.w3.org/2000/svg" xmlns:xlink="http://www.w3.org/1999/xlink" width="70" height="70" viewBox="0 0 70 70">
  <defs>
    <clipPath id="clip-path">
      <rect id="Rectangle_412019" data-name="Rectangle 412019" width="50.021" height="50.005" fill="none"/>
    </clipPath>
  </defs>
  <g id="Group_1202272" data-name="Group 1202272" transform="translate(-620.835 -3827)">
    <circle id="Ellipse_12372" data-name="Ellipse 12372" cx="35" cy="35" r="35" transform="translate(620.835 3827)" fill="#70d9c1"/>
    <g id="Group_1213621" data-name="Group 1213621" transform="translate(630.824 3836.998)">
      <g id="Group_1213620" data-name="Group 1213620" clip-path="url(#clip-path)">
        <path id="Path_1260771" data-name="Path 1260771" d="M50.021,25A25.01,25.01,0,1,1,25.011,0a25.006,25.006,0,0,1,25.01,25M48.55,25a23.54,23.54,0,1,0-23.54,23.532A23.536,23.536,0,0,0,48.55,25" fill="#070707"/>
        <path id="Path_1260773" data-name="Path 1260773" d="M84.139,83.09l-.028-4.564A5.835,5.835,0,0,0,77.854,81c-.792.216-3.631-.242-3.675.3-.015.189.107.317.382.317l4.421,0a.7.7,0,0,1,.74.681.728.728,0,0,1-.757.765l-4.828-.035a1.743,1.743,0,0,1,.021-3.438l3.047-.087a7.121,7.121,0,0,1,6.9-2.472,1.317,1.317,0,0,1,1.2-1.533c.988-.063,2-.149,2.511.507.294.377.1.771.319,1.292a20.814,20.814,0,0,0-2.993-21.457L73.108,67.852a4.049,4.049,0,0,1,1.673,4.707,3.786,3.786,0,0,1-4.054,2.6l-4.275-.648L61.1,79.84a.734.734,0,1,1-1.086-.988L84.125,54.763a1.432,1.432,0,0,1,2.182.182A22.29,22.29,0,0,1,54.862,86.234a1.409,1.409,0,0,1-.122-2.1l3.177-3.173a.732.732,0,0,1,1.025.033.68.68,0,0,1,.061.917l-3.158,3.227A20.7,20.7,0,0,0,79.454,86.99c-1.71.316-2.887.448-4.251-.328l-9.659-5.5a1.844,1.844,0,0,1-.017-3.063,1.666,1.666,0,0,1,1.678,0l3.61,1.9a.745.745,0,0,1,.393.966.728.728,0,0,1-1,.355L66.453,79.38c-.151-.078-.29.139-.276.222a.43.43,0,0,0,.176.346l9.858,5.572a2.834,2.834,0,0,0,2.387.04L83.713,83.7a.652.652,0,0,0,.426-.612m-10.7-11.142a2.608,2.608,0,0,0-1.429-3.017l-4.194,4.243c2.123.4,4.833,1.359,5.623-1.226M86.6,80.166l-.026-3.137c-.257-.067-.766-.151-.95.066l.024,4.455a10.749,10.749,0,0,0,.952-1.384" transform="translate(-44.012 -44.021)" fill="#070707"/>
        <path id="Path_1260774" data-name="Path 1260774" d="M50.747,21.36,21.356,50.733a1.39,1.39,0,0,1-2.09-.107A22.283,22.283,0,0,1,50.684,19.359a1.365,1.365,0,0,1,.063,2M23.087,26.608a19.994,19.994,0,0,0-6.379,4.087,20.35,20.35,0,0,0,2.157,16.823l1.078-3.734c.472-1.635,1.8-2.936,2.9-4.2a4.775,4.775,0,0,1-.067-4.769c.167-.284.292-.566.575-.586.4-.029.68.062.805.3.439.844-1.1,1.785-.326,3.681,1.008,2.484,4.684,1.61,4.575,1.6l1.669.126L36.421,33.6l-3.679-3.325a.73.73,0,1,1,.966-1.093l3.782,3.346L49.634,20.386A20.8,20.8,0,0,0,17.8,27.772a33.082,33.082,0,0,1,5.534-2.84c.881-3,1.858-3.964,4.849-4.811a1.045,1.045,0,0,1,1.25.406,5.483,5.483,0,0,1,.741,5.562c.549.454,1.052.79,1.53,1.243a.751.751,0,0,1-.031,1.145c-.787.66-1.614-1.007-2.256-.942-.513.316-1.506,2.161-2.284,1.187a.764.764,0,0,1,.036-.97c1.739-1.712,2.774-3.87,1.247-6.13-2.979.45-3.957,3.137-3.667,5.659a.722.722,0,0,1-.6.9.758.758,0,0,1-.85-.653c-.061-.3.12-.559-.213-.921M20.459,49.54l8.214-8.235A6.093,6.093,0,0,1,24,40.592a10.7,10.7,0,0,0-2.749,3.852c.035-.073-1.852,6.156-.794,5.1" transform="translate(-11.599 -11.628)" fill="#060606"/>
        <path id="Path_1260778" data-name="Path 1260778" d="M89.93,106.533a.732.732,0,1,1-.732-.732.732.732,0,0,1,.732.732" transform="translate(-71.671 -85.716)" fill="#111"/>
      </g>
    </g>
  </g>
</svg>
