<svg xmlns="http://www.w3.org/2000/svg" xmlns:xlink="http://www.w3.org/1999/xlink" width="129.063" height="82.351" viewBox="0 0 129.063 82.351">
  <defs>
    <clipPath id="clip-path">
      <rect id="Rectangle_412073" data-name="Rectangle 412073" width="82.357" height="82.351" fill="none"/>
    </clipPath>
  </defs>
  <g id="Group_1201389" data-name="Group 1201389" transform="translate(-788.103 -1979.277)">
    <g id="Group_1201007" data-name="Group 1201007">
      <g id="Rectangle_410589" data-name="Rectangle 410589" transform="translate(788.103 2007.607)" fill="#d3af82" stroke="#93795a" stroke-width="1">
        <rect width="129.063" height="43.021" rx="8" stroke="none"/>
        <rect x="0.5" y="0.5" width="128.063" height="42.021" rx="7.5" fill="none"/>
      </g>
    </g>
    <g id="Group_1213679" data-name="Group 1213679" transform="translate(811.455 1979.277)">
      <rect id="Rectangle_412072" data-name="Rectangle 412072" width="2.574" height="7.375" transform="matrix(0.707, -0.707, 0.707, 0.707, 53.965, 55.807)" fill="#c6cbd3"/>
      <g id="Group_1213677" data-name="Group 1213677">
        <g id="Group_1213676" data-name="Group 1213676" clip-path="url(#clip-path)">
          <path id="Path_1261123" data-name="Path 1261123" d="M80.626,71.6a6.354,6.354,0,0,1-.393,9.086,6.523,6.523,0,0,1-9.115-.407L56.827,65.95c-.436-.437-.778-.7-.762-1.291.034-1.261,1.5-1.56,1.161-1.905l-5.22-5.275a32.159,32.159,0,1,1,5.454-5.444l5.484,5.331c.372-.776,1.628-1.828,2.321-1.135ZM61.745,32.156A29.591,29.591,0,1,0,32.154,61.748,29.592,29.592,0,0,0,61.745,32.156m-5.961,21.83-1.82,1.821,5.216,5.214L61,59.2Zm17.228,24.5a3.927,3.927,0,0,0,5.738.018c1.61-1.754,1.143-4.072-.5-5.709l-13.6-13.542-5.431,5.4Z" transform="translate(0 0)" fill="#050505"/>
          <path id="Path_1261124" data-name="Path 1261124" d="M72.87,43.287A29.592,29.592,0,1,1,43.279,13.7,29.592,29.592,0,0,1,72.87,43.287m-1.293,0a28.3,28.3,0,1,0-28.3,28.3,28.3,28.3,0,0,0,28.3-28.3" transform="translate(-11.124 -11.132)" fill="#d9dce0"/>
          <path id="Path_1261125" data-name="Path 1261125" d="M330.055,335.676l-13.8-13.833,5.431-5.4,13.6,13.542c1.645,1.637,2.111,3.955.5,5.709a3.927,3.927,0,0,1-5.738-.018" transform="translate(-257.041 -257.191)" fill="#636b76"/>
          <path id="Path_1261126" data-name="Path 1261126" d="M79.443,45.871,64.852,42.226l-2.4-4.715a1.291,1.291,0,0,0-2.23.025l-2.271,4.486-4.435.035a1.132,1.132,0,0,0-1.054.7L43.806,60.064l-9.446.025A25.722,25.722,0,1,1,58.789,85.746l0-3.936c3.233-.715,5.008-3.351,5.191-6.568l1.152-20.323L76.948,54.9a1.105,1.105,0,0,0,1.009-.714l2.52-6.259a1.528,1.528,0,0,0,.074-1.286,1.451,1.451,0,0,0-1.109-.771" transform="translate(-27.927 -27.903)" fill="#85baf1"/>
          <path id="Path_1261127" data-name="Path 1261127" d="M104.918,288.626a7.094,7.094,0,0,1,0,2.157,19.363,19.363,0,0,1-4.2-2.054Z" transform="translate(-81.854 -234.583)" fill="#80b3e8"/>
          <path id="Path_1261128" data-name="Path 1261128" d="M77.173,48.895a28.3,28.3,0,1,1-28.3-28.3,28.3,28.3,0,0,1,28.3,28.3M68.236,34.706a1.451,1.451,0,0,1,1.109.771,1.528,1.528,0,0,1-.074,1.286L66.75,43.023a1.1,1.1,0,0,1-1.009.714l-11.813.018L52.776,64.077c-.182,3.217-1.958,5.852-5.191,6.568l0,3.936A25.723,25.723,0,1,0,23.154,48.923L32.6,48.9l8.655-17.308a1.132,1.132,0,0,1,1.054-.7l4.435-.035,2.271-4.486a1.291,1.291,0,0,1,2.23-.026l2.4,4.715Zm-23.248,34.7a1.226,1.226,0,0,1,1.233-1.19,4.032,4.032,0,0,0,3.97-4.148l1.231-21.727a1.129,1.129,0,0,1,1-1.111l12.285-.047,1.664-4.256L51.851,33.251l-1.738-3.275L39.9,50.392a1.489,1.489,0,0,1-1.51,1.118l-15.117.008A25.748,25.748,0,0,0,31.877,68.2l9.333.021a1.213,1.213,0,0,1,1.206,1.124l.054,4.442a6.907,6.907,0,0,0,2.494.453ZM37.821,48.777l7.6-15.237a5.822,5.822,0,0,0-2.24-.02L35.546,48.8a4.479,4.479,0,0,0,2.276-.026m1.963,22-4.207.1a19.362,19.362,0,0,0,4.2,2.054,7.094,7.094,0,0,0,0-2.157" transform="translate(-16.72 -16.738)" fill="#040404"/>
          <path id="Path_1261129" data-name="Path 1261129" d="M56.694,110.132l-.023,4.832a6.907,6.907,0,0,1-2.494-.453l-.054-4.442a1.213,1.213,0,0,0-1.206-1.124l-9.333-.021a25.746,25.746,0,0,1-8.608-16.683l15.117-.008a1.49,1.49,0,0,0,1.51-1.118L61.82,70.7l1.738,3.275L78.08,77.653l-1.664,4.256-12.285.047a1.129,1.129,0,0,0-1,1.111L61.9,104.794a4.032,4.032,0,0,1-3.97,4.148,1.226,1.226,0,0,0-1.233,1.19" transform="translate(-28.426 -57.461)" fill="#945252"/>
          <path id="Path_1261130" data-name="Path 1261130" d="M102.818,104.457a4.477,4.477,0,0,1-2.276.026L108.179,89.2a5.818,5.818,0,0,1,2.24.019Z" transform="translate(-81.716 -72.418)" fill="#626974"/>
        </g>
      </g>
    </g>
  </g>
</svg>
