<svg xmlns="http://www.w3.org/2000/svg" xmlns:xlink="http://www.w3.org/1999/xlink" width="129.063" height="84.523" viewBox="0 0 129.063 84.523">
  <defs>
    <clipPath id="clip-path">
      <rect id="Rectangle_412067" data-name="Rectangle 412067" width="84.501" height="84.523" fill="none"/>
    </clipPath>
  </defs>
  <g id="Group_1213753" data-name="Group 1213753" transform="translate(2537.031 9718.224)">
    <g id="Group_1213452" data-name="Group 1213452" transform="translate(-3325.133 -11689.27)">
      <g id="Group_1201007" data-name="Group 1201007">
        <g id="Rectangle_410589" data-name="Rectangle 410589" transform="translate(788.103 2007.607)" fill="#d3af82" stroke="#93795a" stroke-width="1">
          <rect width="129.063" height="43.021" rx="8" stroke="none"/>
          <rect x="0.5" y="0.5" width="128.063" height="42.021" rx="7.5" fill="none"/>
        </g>
      </g>
    </g>
    <g id="Group_1213667" data-name="Group 1213667" transform="translate(-2514.75 -9718.224)">
      <g id="Group_1213666" data-name="Group 1213666" clip-path="url(#clip-path)">
        <path id="Path_1261069" data-name="Path 1261069" d="M74.238,84.5l-50.585.026a5.283,5.283,0,0,1-5.2-5.342l-.028-3.867L7.342,75.274,0,67.947,0,7.922A1.248,1.248,0,0,1,1.347,6.606L18.51,6.584C18,3.217,20.181.032,23.65.03L73.728,0A5.452,5.452,0,0,1,78,1.871a6.126,6.126,0,0,1,1.247,4.708C80.616,6.864,84.5,5.9,84.5,7.716l0,17.937-5.239,5.3-.021,48.38a5.139,5.139,0,0,1-5,5.168m-.4-10.532A2.619,2.619,0,0,0,76.6,71.424l0-66.181a2.652,2.652,0,0,0-2.869-2.587l-49.694,0a2.688,2.688,0,0,0-2.922,2.774V74.581a7.963,7.963,0,0,1,3.127-.617ZM10.647,40.937l7.8-.032L18.4,35.679l-7.824-.007A1.341,1.341,0,0,1,9.241,34.3c.027-.844.657-1.259,1.52-1.261l7.685-.018-.029-5.273-7.859-.017a1.275,1.275,0,0,1-1.314-1.306,1.289,1.289,0,0,1,1.32-1.308l7.877-.019.012-15.86-15.818,0,.006,56.785,5.429.046a1.221,1.221,0,0,1,1.158,1.187V72.6l9.226.006V51.519l-8.075-.056A1.2,1.2,0,0,1,9.25,50.075a1.317,1.317,0,0,1,1.317-1.206l7.878-.03-.011-5.215-8.051-.063a1.276,1.276,0,0,1-1.138-1.377,1.352,1.352,0,0,1,1.4-1.247M81.9,24.51,81.875,9.287a19.054,19.054,0,0,0-2.614-.007l.018,17.737A18.865,18.865,0,0,0,81.9,24.51M6.573,68.705a8.2,8.2,0,0,0-1.933.047,12.434,12.434,0,0,0,1.879,1.881,6.886,6.886,0,0,0,.054-1.927M23.7,76.625a2.586,2.586,0,0,0-2.557,2.816,2.622,2.622,0,0,0,2.7,2.453l50.279-.017a2.614,2.614,0,0,0,2.484-2.686c-.007-1.152.055-2.091-.056-3.206a8.062,8.062,0,0,1-2.538.674l-.082,2.856a1.211,1.211,0,0,1-1.353,1.056l-47.569,0c-1.92,0-.976-2.795-1.312-3.943m47.621-.006H26.4v1.319H71.321Z" transform="translate(0 0)" fill="#040403"/>
        <path id="Path_1261070" data-name="Path 1261070" d="M112.583,396.18c.336,1.148-.608,3.943,1.312,3.943l47.569,0a1.211,1.211,0,0,0,1.353-1.057l.082-2.856a8.053,8.053,0,0,0,2.538-.674c.112,1.115.05,2.054.057,3.206a2.614,2.614,0,0,1-2.485,2.686l-50.28.017a2.623,2.623,0,0,1-2.7-2.453,2.586,2.586,0,0,1,2.558-2.816" transform="translate(-88.883 -319.555)" fill="#eab23f"/>
        <rect id="Rectangle_412065" data-name="Rectangle 412065" width="44.918" height="1.319" transform="translate(26.403 76.619)" fill="#d9dce0"/>
        <path id="Path_1261071" data-name="Path 1261071" d="M415.23,63.362a18.888,18.888,0,0,1-2.62,2.506l-.018-17.737a19.085,19.085,0,0,1,2.614.007Z" transform="translate(-333.332 -38.852)" fill="#f3b941"/>
        <path id="Path_1261072" data-name="Path 1261072" d="M21.734,79.777a1.352,1.352,0,0,0-1.4,1.247A1.276,1.276,0,0,0,21.47,82.4l8.051.063.011,5.215-7.878.03a1.318,1.318,0,0,0-1.317,1.206A1.2,1.2,0,0,0,21.466,90.3l8.075.057V111.45l-9.226-.006v-5.349a1.221,1.221,0,0,0-1.158-1.187l-5.429-.046-.006-56.785,15.818,0-.012,15.86-7.877.019a1.289,1.289,0,0,0-1.32,1.308,1.275,1.275,0,0,0,1.314,1.306l7.859.017.029,5.273-7.685.018c-.863,0-1.493.417-1.52,1.261a1.341,1.341,0,0,0,1.33,1.374l7.824.007.056,5.225Z" transform="translate(-11.087 -38.84)" fill="#e4e7eb"/>
        <path id="Path_1261073" data-name="Path 1261073" d="M26.087,357.5a6.881,6.881,0,0,1-.054,1.927,12.417,12.417,0,0,1-1.879-1.881,8.213,8.213,0,0,1,1.933-.047" transform="translate(-19.514 -288.799)" fill="#cdcfd1"/>
        <path id="Path_1261074" data-name="Path 1261074" d="M162.662,85.122l-49.588,0a7.964,7.964,0,0,0-3.127.617V16.583a2.688,2.688,0,0,1,2.922-2.774l49.694,0a2.652,2.652,0,0,1,2.869,2.587l0,66.181a2.618,2.618,0,0,1-2.768,2.542M157.52,42.885a19.833,19.833,0,1,0-19.833,19.833A19.833,19.833,0,0,0,157.52,42.885m-2.745,26.442a1.332,1.332,0,0,0,1.387-1.384,1.279,1.279,0,0,0-1.27-1.266l-34.543.008A1.248,1.248,0,0,0,119.2,68.1a1.351,1.351,0,0,0,1.368,1.222Zm.19,3.9a1.259,1.259,0,0,0,1.193-1.428,1.314,1.314,0,0,0-1.311-1.188l-34.289-.007a1.33,1.33,0,0,0-1.365,1.357c.027.869.635,1.291,1.55,1.29ZM146.83,77.24a1.308,1.308,0,0,0,1.386-1.428,1.278,1.278,0,0,0-1.387-1.221L128.6,74.585a1.345,1.345,0,0,0-1.486,1.246,1.323,1.323,0,0,0,1.3,1.4Z" transform="translate(-88.826 -11.156)" fill="#fdcc53"/>
        <path id="Path_1261075" data-name="Path 1261075" d="M193.843,312.1l-34.222.025c-.915,0-1.523-.421-1.55-1.29a1.33,1.33,0,0,1,1.365-1.357l34.289.007a1.314,1.314,0,0,1,1.311,1.188,1.259,1.259,0,0,1-1.193,1.428" transform="translate(-127.704 -250.027)" fill="#080603"/>
        <path id="Path_1261076" data-name="Path 1261076" d="M193.655,291.663H159.444a1.351,1.351,0,0,1-1.368-1.222,1.248,1.248,0,0,1,1.153-1.42l34.543-.008a1.279,1.279,0,0,1,1.27,1.267,1.332,1.332,0,0,1-1.387,1.384" transform="translate(-127.706 -233.491)" fill="#0a0803"/>
        <path id="Path_1261077" data-name="Path 1261077" d="M219.032,332.835l-18.411-.009a1.323,1.323,0,0,1-1.3-1.4,1.345,1.345,0,0,1,1.486-1.246l18.226.005a1.278,1.278,0,0,1,1.387,1.221,1.308,1.308,0,0,1-1.386,1.428" transform="translate(-161.028 -266.751)" fill="#060502"/>
        <path id="Path_1261078" data-name="Path 1261078" d="M190.774,81.76a19.833,19.833,0,1,1-19.833-19.833A19.833,19.833,0,0,1,190.774,81.76m-17.626-7.777L184.11,76.4c.587.129,1.065.325,1.242.757a1.624,1.624,0,0,1-.11,1.445l-2.636,5.223a1.157,1.157,0,0,1-.977.556l-8.146.053-1.105,14.451A17.191,17.191,0,1,0,155.289,88.7l7.161-14.02a1.29,1.29,0,0,1,1.322-.868l3.055,0c.965-1.375,1.336-3.946,2.8-3.969a1.42,1.42,0,0,1,1.241.756c.734,1.147,1.414,2.224,2.28,3.39M170.939,83a1.263,1.263,0,0,1,1.274-1.25l8.448-.006a28.748,28.748,0,0,0,1.492-3L171.507,76.29l-1.738-2.35-8.083,16.109a1.32,1.32,0,0,1-1.377.912,32.95,32.95,0,0,0-3.785.137,17.13,17.13,0,0,0,13.188,7.8Zm-6.319-6.841-6.008,12.015.868.434,6.008-12.015Z" transform="translate(-122.08 -50.031)" fill="#040403"/>
        <path id="Path_1261079" data-name="Path 1261079" d="M184.27,85.133c-.867-1.167-1.547-2.243-2.28-3.391a1.421,1.421,0,0,0-1.241-.756c-1.463.023-1.834,2.594-2.8,3.969l-3.055,0a1.29,1.29,0,0,0-1.322.868l-7.161,14.02A17.149,17.149,0,1,1,183.5,110.033L184.6,95.582l8.146-.053a1.156,1.156,0,0,0,.977-.556l2.636-5.223a1.625,1.625,0,0,0,.11-1.445c-.177-.432-.654-.628-1.242-.757Z" transform="translate(-133.201 -61.181)" fill="#85b9f0"/>
        <path id="Path_1261080" data-name="Path 1261080" d="M193.7,133.52l-1.229,15.9a17.13,17.13,0,0,1-13.188-7.8,32.952,32.952,0,0,1,3.785-.137,1.32,1.32,0,0,0,1.377-.912l8.083-16.109,1.738,2.35,10.647,2.449a28.744,28.744,0,0,1-1.493,3l-8.448.006a1.263,1.263,0,0,0-1.274,1.25" transform="translate(-144.846 -100.551)" fill="#945252"/>
        <rect id="Rectangle_412066" data-name="Rectangle 412066" width="13.434" height="0.971" transform="translate(36.531 38.142) rotate(-63.435)" fill="#5b626c"/>
      </g>
    </g>
  </g>
</svg>
