<svg xmlns="http://www.w3.org/2000/svg" xmlns:xlink="http://www.w3.org/1999/xlink" width="79.642" height="82.296" viewBox="0 0 79.642 82.296">
  <defs>
    <filter id="Rectangle_410591" x="0" y="0" width="53.687" height="82.296" filterUnits="userSpaceOnUse">
      <feOffset dy="3" input="SourceAlpha"/>
      <feGaussianBlur stdDeviation="3" result="blur"/>
      <feFlood flood-opacity="0.161"/>
      <feComposite operator="in" in2="blur"/>
      <feComposite in="SourceGraphic"/>
    </filter>
    <clipPath id="clip-path">
      <rect id="Rectangle_412083" data-name="Rectangle 412083" width="79.092" height="64.296" fill="none"/>
    </clipPath>
  </defs>
  <g id="Group_1201410" data-name="Group 1201410" transform="translate(9 6)">
    <g transform="matrix(1, 0, 0, 1, -9, -6)" filter="url(#Rectangle_410591)">
      <path id="Rectangle_410591-2" data-name="Rectangle 410591" d="M10,0H25.687a10,10,0,0,1,10,10V64.3a0,0,0,0,1,0,0H0a0,0,0,0,1,0,0V10A10,10,0,0,1,10,0Z" transform="translate(9 6)" fill="#fc0"/>
    </g>
    <g id="Group_1213692" data-name="Group 1213692" transform="translate(-8.449 0)">
      <path id="Path_1261153" data-name="Path 1261153" d="M14.853,12.368h0Z" transform="translate(58.07 49.448)" fill="#fcfcfc"/>
      <g id="Group_1213691" data-name="Group 1213691">
        <g id="Group_1213690" data-name="Group 1213690" clip-path="url(#clip-path)">
          <path id="Path_1261139" data-name="Path 1261139" d="M3.7,61.78,3.691,49.5C2.48,49.248.03,50.03,0,48.244A1.182,1.182,0,0,1,1.123,47l2.563-.045,0-12.3-2.446-.026A1.246,1.246,0,0,1,0,33.319a1.29,1.29,0,0,1,1.417-1.175l8.452.008a10.014,10.014,0,0,1,10.253-9.9l6.992.013c.4-1.956,2.219-.983,3.748-1.292a1.351,1.351,0,0,1,1.316-1.186l8.607-.015c1.707,0-.036,1.771,3.589,1.176L51.911,5.84a1.383,1.383,0,0,1,1.482-.9c1.309.039,2.586.031,3.922,0L59.4.748A1.255,1.255,0,0,1,60.493,0a1.214,1.214,0,0,1,1.18.7l2.211,4.429L77.975,8.647a1.437,1.437,0,0,1,.938.585,1.441,1.441,0,0,1,.021,1.348L76.558,16.49a1.206,1.206,0,0,1-.951.827l-11.4.015L63.321,32.14l14.513.012a1.247,1.247,0,0,1,1.243,1.168c.1,1.921-2.622,1.1-3.693,1.365V46.906c1.161.337,3.505-.553,3.687,1.175a1.139,1.139,0,0,1-1.061,1.331l-2.62.084-.006,12.271c1.093.25,3.651-.521,3.691,1.224A1.239,1.239,0,0,1,77.792,64.3H1.29A1.239,1.239,0,0,1,.008,63.148a1.213,1.213,0,0,1,1.223-1.325ZM61.811,15.9a1.081,1.081,0,0,1,1.1-1.037l11.63-.019,1.577-4.085L62.2,7.233,60.5,4.12,50.839,23.43c-.288.574-.452,1.126-1.108,1.294l-3.994.032-.018,7.383,15.132.013ZM48.72,22.153,56,7.537a10.693,10.693,0,0,0-2.134-.047L46.532,22.141a3.959,3.959,0,0,0,2.189.012m-9.18.108H33.366v2.48h6.174Zm2.452,3.869A1.18,1.18,0,0,1,40.763,27.2L32.05,27.2c-1.724,0-.939-2.747-1.208-3.638-.326-.057-.984-.17-1.158.095l-.016,8.488,13.56.009.025-8.543a1.834,1.834,0,0,0-1.187-.034ZM17.281,32.109a10.211,10.211,0,0,1,3.253-7.316,7.385,7.385,0,0,0-8.175,7.355Zm9.9.022-.022-7.389a7.4,7.4,0,0,0-7.375,7.394ZM9.873,34.63H6.159V46.988H9.873Zm7.414.023H12.357V46.984h4.931Zm15.036,6.194c1.745-2.929.333-4.94,2.272-4.958,2.1-.02,1,3.467.572,4.887l4.371.009,0-6.154H19.777l-.018,4.714a2.553,2.553,0,0,0,2.524,2.694,1.22,1.22,0,0,1,1.2,1.258l.025,3.652,5.161.034Zm10.927-6.214H42.024V40.78h1.227ZM55.606,46.879,55.6,42.035A1.218,1.218,0,0,1,56.81,40.8a3.692,3.692,0,0,0,3.708-3.289,28.373,28.373,0,0,0,.156-2.869l-14.953,0,0,6.12,6.223.036a1.229,1.229,0,0,1,1.194,1.085l.021,5.031a6.994,6.994,0,0,0,2.444-.033m2.528.115,14.787-.028-.013-12.334-9.742.018-.15,2.829a6.186,6.186,0,0,1-4.911,5.651,29.853,29.853,0,0,0,.029,3.864m-7.477-.024-.028-3.681H33.784l-2.169,3.7Zm-29.624-.087a13.773,13.773,0,0,0-.122-2.434c-.12-.328-.824-.413-1.116-.437l-.059,2.926a2.272,2.272,0,0,0,1.3-.055m-12.5,9.976a1.19,1.19,0,0,1-1.135-1.4c.194-1.722,2.5-.373,2.477-2.448l-.034-3.55-3.676.021L6.16,61.808l14.846,0L21,49.5a5.4,5.4,0,0,0-1.887.028A11.149,11.149,0,0,1,8.535,56.859m7.83-7.367a34.634,34.634,0,0,0-4.016.021,26.033,26.033,0,0,0,.135,3.973,8.046,8.046,0,0,0,3.881-3.994m9.684,2.117c.113-.794.892-1.286,1.1-2.105a35.367,35.367,0,0,0-3.65-.039l-.01,8.573a9.138,9.138,0,0,0,2.41-.005c.2-2.152-.158-4.238.152-6.423m24.627,10.2-.013-12.357-20.535.007-1.72,2.885.015,9.473ZM55.6,49.447H53.14V58.1H55.6Zm17.322,0H58.07V61.816H72.923ZM25.944,60.558H23.48v1.259h2.463Zm29.657.011H53.143v1.247H55.6Z" transform="translate(0 0)" fill="#030303"/>
          <path id="Path_1261140" data-name="Path 1261140" d="M270.367,34.691l-.96,16.256-15.132-.013.018-7.384,3.994-.032c.656-.168.82-.72,1.108-1.294l9.664-19.31,1.695,3.113,13.921,3.522L283.1,33.635l-11.63.019a1.081,1.081,0,0,0-1.1,1.037" transform="translate(-208.556 -18.795)" fill="#fccfa4"/>
          <path id="Path_1261142" data-name="Path 1261142" d="M122.459,198.821l-3.656,6.137-5.161-.034-.025-3.652a1.22,1.22,0,0,0-1.2-1.258,2.553,2.553,0,0,1-2.523-2.694l.017-4.714h19.758l0,6.154-4.371-.009c.426-1.421,1.527-4.907-.571-4.887-1.939.018-.528,2.029-2.272,4.958" transform="translate(-90.135 -157.974)" fill="#fccfa4"/>
          <path id="Path_1261144" data-name="Path 1261144" d="M264.171,204.884a6.99,6.99,0,0,1-2.444.034l-.021-5.031a1.228,1.228,0,0,0-1.194-1.085l-6.223-.036,0-6.12,14.953,0a28.359,28.359,0,0,1-.156,2.869,3.693,3.693,0,0,1-3.707,3.29,1.218,1.218,0,0,0-1.21,1.239Z" transform="translate(-208.565 -158.006)" fill="#fccfa4"/>
          <path id="Path_1261145" data-name="Path 1261145" d="M177.329,133.26l.074-2.557a1.835,1.835,0,0,1,1.187.035l-.025,8.543-13.56-.009.016-8.488c.175-.265.833-.152,1.158-.095.269.89-.516,3.636,1.208,3.638l8.712.006a1.181,1.181,0,0,0,1.229-1.073" transform="translate(-135.337 -107.13)" fill="#636b76"/>
          <path id="Path_1261146" data-name="Path 1261146" d="M178,240.755h0Z" transform="translate(-144.218 -197.467)" fill="#f7f7f7"/>
          <rect id="Rectangle_412076" data-name="Rectangle 412076" width="4.931" height="12.331" transform="translate(12.357 34.652)" fill="#955353"/>
          <path id="Path_1261147" data-name="Path 1261147" d="M117.429,145l-7.4.006a7.4,7.4,0,0,1,7.375-7.394Z" transform="translate(-90.247 -112.868)" fill="#fccfa4"/>
          <path id="Path_1261148" data-name="Path 1261148" d="M73.658,145.021l-4.922.039a7.385,7.385,0,0,1,8.175-7.355,10.211,10.211,0,0,0-3.253,7.316" transform="translate(-56.377 -112.913)" fill="#935151"/>
          <path id="Path_1261149" data-name="Path 1261149" d="M260.985,56.166a3.962,3.962,0,0,1-2.189-.012L266.135,41.5a10.706,10.706,0,0,1,2.134.047Z" transform="translate(-212.264 -34.014)" fill="#905050"/>
          <path id="Path_1261150" data-name="Path 1261150" d="M133.185,277.126c-.31,2.185.044,4.271-.152,6.423a9.148,9.148,0,0,1-2.411.005l.01-8.573a35.474,35.474,0,0,1,3.651.039c-.205.82-.985,1.312-1.1,2.106" transform="translate(-107.136 -225.517)" fill="#fccfa4"/>
          <rect id="Rectangle_412078" data-name="Rectangle 412078" width="2.461" height="8.656" transform="translate(53.14 49.447)" fill="#fccfa4"/>
          <rect id="Rectangle_412079" data-name="Rectangle 412079" width="6.174" height="2.48" transform="translate(33.366 22.26)" fill="#a7afb9"/>
          <path id="Path_1261151" data-name="Path 1261151" d="M72.643,275.044a8.047,8.047,0,0,1-3.881,3.994,26.012,26.012,0,0,1-.135-3.973,34.678,34.678,0,0,1,4.016-.021" transform="translate(-56.278 -225.552)" fill="#905050"/>
          <rect id="Rectangle_412080" data-name="Rectangle 412080" width="1.227" height="6.147" transform="translate(42.024 34.632)" fill="#4f5760"/>
          <rect id="Rectangle_412081" data-name="Rectangle 412081" width="2.463" height="1.259" transform="translate(23.48 60.558)" fill="#636b76"/>
          <rect id="Rectangle_412082" data-name="Rectangle 412082" width="2.458" height="1.247" transform="translate(53.143 60.569)" fill="#636b76"/>
        </g>
      </g>
    </g>
  </g>
</svg>
