<svg xmlns="http://www.w3.org/2000/svg" xmlns:xlink="http://www.w3.org/1999/xlink" width="129.063" height="75.474" viewBox="0 0 129.063 75.474">
  <defs>
    <clipPath id="clip-path">
      <rect id="Rectangle_412120" data-name="Rectangle 412120" width="76.345" height="75.474" fill="none"/>
    </clipPath>
  </defs>
  <g id="Group_1201397" data-name="Group 1201397" transform="translate(-787.781 -2583.261)">
    <g id="Group_1201005" data-name="Group 1201005" transform="translate(0 26)">
      <g id="Rectangle_410589" data-name="Rectangle 410589" transform="translate(787.781 2575.623)" fill="#70d9c1" stroke="#4d9686" stroke-width="1">
        <rect width="129.063" height="43.021" rx="8" stroke="none"/>
        <rect x="0.5" y="0.5" width="128.063" height="42.021" rx="7.5" fill="none"/>
      </g>
    </g>
    <g id="Group_1213704" data-name="Group 1213704" transform="translate(818.14 2583.261)">
      <g id="Group_1213703" data-name="Group 1213703" clip-path="url(#clip-path)">
        <path id="Path_1261227" data-name="Path 1261227" d="M66.573,36.71l-5.358,5.364L58.7,39.688,36.017,62.363l-9.821.045-6.588,6.566-1.868-1.759-8.28,8.26a13.422,13.422,0,0,1-1.7-1.766l8.2-8.221-1.742-1.926,6.436-6.433c.158-.158.283-.828.012-.83L5.748,56.206C2.271,56.185,0,53.16,0,49.821l.03-29.69L11,12.8l.016-3A3.737,3.737,0,0,1,7.348,6.07c-.008-.845-.032-1.663,0-2.5A3.661,3.661,0,0,1,11.076,0H25.653a3.631,3.631,0,0,1,3.7,3.4,23.748,23.748,0,0,1,.009,2.85A3.705,3.705,0,0,1,25.713,9.8l.01,3,10.938,7.286.1,11.129L43.5,24.505l-2.365-2.487L46.5,16.623l4.889,4.843,6.782-6.722-2.36-2.537,5.383-5.374L76.345,21.979l-5.386,5.4L68.51,25l-6.778,6.763ZM25.716,7.326a1.255,1.255,0,0,0,1.191-1.273c.021-1.645.37-3.6-1.26-3.6l-14.566,0a1.231,1.231,0,0,0-1.269,1.3l0,2.312A1.259,1.259,0,0,0,11.1,7.323ZM23.259,9.791H13.467v2.441h9.791Zm37.918.494L59.242,12.22,70.98,23.957l1.935-1.935ZM31.4,19.571l-7.281-4.9-11.513,0-7.278,4.9Zm28.549-3.186-6.85,6.85,6.85,6.85,6.85-6.85Zm-13.457,3.67L44.545,22,61.182,38.642l1.95-1.95ZM4.917,26.808a2.453,2.453,0,0,1,2.6-2.366l22.048.028A2.358,2.358,0,0,1,31.8,26.7l.072,9.343a22.245,22.245,0,0,0,2.4-2.372l-.018-11.654H2.47L2.447,49.812a3.726,3.726,0,0,0,3.833,4L20.772,53.8a13.611,13.611,0,0,0,.007-2.415l-12.923.036c-1.375,0-2.931-.706-2.931-2.321ZM38.332,43.656a18.4,18.4,0,0,1,1.729-1.678l6.41,6.392a12.414,12.414,0,0,0,1.92-1.911L44.473,42.5a12.03,12.03,0,0,1,1.665-1.767l4.051,3.995a18.014,18.014,0,0,0,1.873-1.969l-6.368-6.4a10.318,10.318,0,0,1,1.7-1.7l6.428,6.389,3.162-3.169L45.27,26.2,23.776,47.7,35.447,59.38a18.1,18.1,0,0,0,1.983-1.9l-6.4-6.4a9.471,9.471,0,0,1,1.653-1.753l6.486,6.422a24.832,24.832,0,0,0,1.886-1.939l-3.939-4.055a15.8,15.8,0,0,1,1.712-1.636l4.032,3.931a19.8,19.8,0,0,0,1.867-1.928ZM14.676,34.182l.058-4.816,7.29.023.045,4.816,4.829.079.074,6.692,2.412-2.385-.006-11.706H7.342V48.935l13.417,0a5.3,5.3,0,0,0,.07-1.049c-.143-.6.216-.943.582-1.371L14.7,46.43l-.041-4.805-4.846-.08.022-7.289ZM19.576,44l.041-4.826,4.8-.035a10.169,10.169,0,0,0,0-2.444l-4.809-.03-.025-4.8a15.977,15.977,0,0,0-2.4-.038l-.077,4.836-4.794.035a10.116,10.116,0,0,0,0,2.443l4.8.035.036,4.8a14.139,14.139,0,0,0,2.43.022m6.664-2.313a33.064,33.064,0,0,0-4.189-.071,27.469,27.469,0,0,0,.107,4.216Zm.022,18.283L32.47,59.9l-9.085-9.094-.13,6.162Zm-6.625,5.552,4.3-4.314A12.967,12.967,0,0,0,22,59.241L17.7,63.636a19.263,19.263,0,0,0,1.941,1.882" transform="translate(0)" fill="#040505"/>
        <path id="Path_1261228" data-name="Path 1261228" d="M148.166,164.691l6.393,6.466a19.78,19.78,0,0,1-1.867,1.928l-4.032-3.931a15.783,15.783,0,0,0-1.712,1.636l3.938,4.055A24.766,24.766,0,0,1,149,176.784l-6.486-6.422a9.461,9.461,0,0,0-1.653,1.753l6.4,6.4a18.13,18.13,0,0,1-1.983,1.9l-11.672-11.682,21.494-21.5,11.716,11.677-3.162,3.169-6.428-6.389a10.333,10.333,0,0,0-1.7,1.7l6.368,6.4a17.985,17.985,0,0,1-1.873,1.969l-4.051-3.995a12.04,12.04,0,0,0-1.665,1.767l3.918,3.955a12.414,12.414,0,0,1-1.921,1.911l-6.41-6.392a18.4,18.4,0,0,0-1.729,1.678" transform="translate(-109.833 -121.036)" fill="#67d2f0"/>
        <rect id="Rectangle_412116" data-name="Rectangle 412116" width="9.688" height="9.688" transform="translate(53.101 23.236) rotate(-45)" fill="#e2e5e9"/>
        <rect id="Rectangle_412117" data-name="Rectangle 412117" width="2.757" height="23.529" transform="translate(44.545 22.005) rotate(-45)" fill="#c6cbd2"/>
        <rect id="Rectangle_412118" data-name="Rectangle 412118" width="2.737" height="16.6" transform="translate(59.242 12.22) rotate(-45)" fill="#c9ced6"/>
        <path id="Path_1261229" data-name="Path 1261229" d="M133.691,294.679l-3.008-3,.13-6.162,9.084,9.094Z" transform="translate(-107.429 -234.714)" fill="#68d3f1"/>
        <path id="Path_1261230" data-name="Path 1261230" d="M101.386,339.189a19.26,19.26,0,0,1-1.941-1.882l4.305-4.395a12.964,12.964,0,0,1,1.932,1.963Z" transform="translate(-81.749 -273.672)" fill="#dee1e5"/>
        <path id="Path_1261231" data-name="Path 1261231" d="M48.593,158.383l-4.841.074-.022,7.289,4.846.08.041,4.805,6.71.081c-.366.428-.725.772-.582,1.371a5.305,5.305,0,0,1-.07,1.049l-13.417,0V151.087H63.295l.006,11.706-2.412,2.385-.074-6.692-4.829-.079-.045-4.816-7.29-.023Z" transform="translate(-33.916 -124.201)" fill="#e4e7eb"/>
        <path id="Path_1261232" data-name="Path 1261232" d="M16.22,128.526l.009,22.29c0,1.615,1.557,2.325,2.931,2.321l12.923-.036a13.628,13.628,0,0,1-.007,2.415l-14.493.013a3.726,3.726,0,0,1-3.833-4l.023-27.793H45.552l.018,11.654a22.244,22.244,0,0,1-2.4,2.372L43.1,128.42a2.358,2.358,0,0,0-2.237-2.231l-22.048-.028a2.453,2.453,0,0,0-2.6,2.366" transform="translate(-11.303 -101.718)" fill="#b3db7e"/>
        <path id="Path_1261233" data-name="Path 1261233" d="M56.025,87.36H29.953l7.278-4.9H48.744Z" transform="translate(-24.623 -67.789)" fill="#9dd066"/>
        <path id="Path_1261234" data-name="Path 1261234" d="M71.044,18.643l-14.621,0a1.259,1.259,0,0,1-1.278-1.262l0-2.312a1.231,1.231,0,0,1,1.269-1.3l14.566,0c1.63,0,1.281,1.958,1.26,3.6a1.254,1.254,0,0,1-1.191,1.273" transform="translate(-45.328 -11.317)" fill="#cbd0d7"/>
        <path id="Path_1261235" data-name="Path 1261235" d="M76.105,190.876a14.139,14.139,0,0,1-2.43-.022l-.036-4.8-4.8-.035a10.126,10.126,0,0,1,0-2.443l4.794-.035.077-4.836a15.974,15.974,0,0,1,2.4.038l.025,4.8,4.809.03a10.178,10.178,0,0,1,0,2.444l-4.8.035Z" transform="translate(-56.529 -146.881)" fill="#f9d46f"/>
        <rect id="Rectangle_412119" data-name="Rectangle 412119" width="9.791" height="2.441" transform="translate(13.468 9.791)" fill="#99cb63"/>
        <path id="Path_1261236" data-name="Path 1261236" d="M127.973,233.754l-4.082,4.145a27.447,27.447,0,0,1-.107-4.216,33.089,33.089,0,0,1,4.189.071" transform="translate(-101.733 -192.072)" fill="#e4e7eb"/>
      </g>
    </g>
  </g>
</svg>
