<svg xmlns="http://www.w3.org/2000/svg" xmlns:xlink="http://www.w3.org/1999/xlink" width="129.063" height="76.751" viewBox="0 0 129.063 76.751">
  <defs>
    <clipPath id="clip-path">
      <rect id="Rectangle_412140" data-name="Rectangle 412140" width="76.772" height="76.751" fill="none"/>
    </clipPath>
  </defs>
  <g id="Group_1213505" data-name="Group 1213505" transform="translate(-787.781 -2576.688)">
    <g id="Group_1201005" data-name="Group 1201005" transform="translate(0 26)">
      <g id="Rectangle_410589" data-name="Rectangle 410589" transform="translate(787.781 2575.623)" fill="#70d9c1" stroke="#4d9686" stroke-width="1">
        <rect width="129.063" height="43.021" rx="8" stroke="none"/>
        <rect x="0.5" y="0.5" width="128.063" height="42.021" rx="7.5" fill="none"/>
      </g>
    </g>
    <g id="Group_1213710" data-name="Group 1213710" transform="translate(813.927 2576.688)">
      <g id="Group_1213709" data-name="Group 1213709" clip-path="url(#clip-path)">
        <path id="Path_1261270" data-name="Path 1261270" d="M.065,36.081C.2,33.77,2.343,34.957,5,34.615A9.892,9.892,0,0,1,14.925,23.5a10.113,10.113,0,0,1,5.332-7.584c3.406-1.774,6.928-1.153,10.043.48,1.918-2.2,4.674-4.015,7.669-4.037,6.2-.044,8.079,4.123,8.611,4.062a.55.55,0,0,0,.507-.549A14.845,14.845,0,1,1,69.8,27.408a10.352,10.352,0,0,1,1.976,7.208l3.673.027c1.034.008,1.22.756,1.259,1.437a38.389,38.389,0,1,1-76.643,0M74.277,14.843a12.37,12.37,0,1,0-12.371,12.37,12.371,12.371,0,0,0,12.371-12.37M7.476,33.356a3.89,3.89,0,0,0,.219,1.691,17.885,17.885,0,0,1,4.712,1.817,15.952,15.952,0,0,1,7.624-2.194l25-.034c3.923-.005,3.779,2.482,6.3,2.481h2.534c2.388,0,2.753-2.432,5.772-2.448l9.577-.05a7.1,7.1,0,0,0-1.684-5.991,19.044,19.044,0,0,1-5.029,1.093A14.936,14.936,0,0,1,47.7,19.132c-.066-.22-.562.009-.692.126a1.259,1.259,0,0,1-1.977-.308,7.421,7.421,0,0,0-13.28,0,1.3,1.3,0,0,1-.884.637,1.319,1.319,0,0,1-1.122-.344,7.39,7.39,0,0,0-8.1-1.233,7.469,7.469,0,0,0-4.308,6.667,1.513,1.513,0,0,1-.453,1.077,1.486,1.486,0,0,1-1.295.279,7.4,7.4,0,0,0-8.111,7.321M69.354,44.5l.022-2.382,4.7-.048a29.139,29.139,0,0,0,.175-4.96l-14.424.011c-1.988,0-2.552,2.481-5.767,2.488l-2.707.006c-3.512.007-3.741-2.51-6.134-2.508L20.4,37.126a13.48,13.48,0,0,0-7.257,2.232,1.341,1.341,0,0,1-1.529-.011A14.106,14.106,0,0,0,2.5,37.165a41.2,41.2,0,0,0,.183,4.915l64.111.008a13.709,13.709,0,0,1,.03,2.443L60,44.549l-3.007,3.033c-.31,1.591.344,3.37-.243,4.858-.539,1.36-2.209,2.031-2.889,3.3a23.223,23.223,0,0,0,1.865,1.886,5.946,5.946,0,0,1,4.45-1.945l2.534.006c2.51.006,3.565,1.517,5.268,2.959a35.389,35.389,0,0,0,5.749-14.061ZM17.848,64.353l-1.9,1.991a35.8,35.8,0,0,0,34.8,5.715l.025-3.631A5.874,5.874,0,0,1,52.962,64.1c1.65-1.514,1.416-1.881,1.593-4.088l-3.081-3.076-8.648-.06-2.5-2.411-6.859-.029a11.583,11.583,0,0,1,.03-2.445l7.9.058,2.519,2.4h7.62c.83-1.081,2.14-1.869,2.818-3l.211-4.873,1.726-2.026-53.237,0A35.618,35.618,0,0,0,14,64.658a27.422,27.422,0,0,0,2.156-2.149l-2.113-2.264a9.94,9.94,0,0,1,1.765-1.619,26.382,26.382,0,0,0,2.2,2.037l1.815-1.809-2.049-2.272a11.283,11.283,0,0,1,1.7-1.7l2.19,2.1,2.27-2.095,1.692,1.674-2.122,2.2a29.279,29.279,0,0,0,2.109,2.239,10.459,10.459,0,0,1-1.749,1.72l-2.2-2.107a22.014,22.014,0,0,0-1.9,1.888l2.109,2.274-1.666,1.669c-.913-.628-1.345-1.559-2.362-2.085m35.64,6.568A36.109,36.109,0,0,0,66.4,60.757c-1.2-1.229-2.077-2.554-3.7-2.558l-2.726-.007a3,3,0,0,0-3.021,3.03C57,65.107,53.838,65.9,53.433,67.61a5.412,5.412,0,0,0,.056,3.311" transform="translate(0 0)" fill="#050404"/>
        <path id="Path_1261271" data-name="Path 1261271" d="M31.746,267.211c1.018.526,1.45,1.457,2.362,2.085l1.666-1.669-2.109-2.274a21.987,21.987,0,0,1,1.9-1.888l2.2,2.107a10.468,10.468,0,0,0,1.749-1.72,29.286,29.286,0,0,1-2.109-2.239l2.122-2.2-1.692-1.674-2.27,2.095-2.19-2.1a11.273,11.273,0,0,0-1.7,1.7l2.049,2.272L31.9,263.521a26.381,26.381,0,0,1-2.2-2.037,9.941,9.941,0,0,0-1.765,1.619l2.113,2.264a27.413,27.413,0,0,1-2.156,2.149A35.616,35.616,0,0,1,16.95,247.407l53.237,0-1.726,2.026-.211,4.873c-.678,1.129-1.988,1.917-2.818,3h-7.62l-2.519-2.4-7.9-.058a11.6,11.6,0,0,0-.03,2.445l6.859.029,2.5,2.411,8.648.06,3.081,3.076c-.177,2.207.057,2.574-1.593,4.088a5.873,5.873,0,0,0-2.186,4.331l-.025,3.631a35.8,35.8,0,0,1-34.8-5.715Zm23.023-17.344H52.285v2.511h2.484Zm-13.638,1.26h-2.47v2.484h2.47Zm16.111,12.388H54.769v2.473h2.473Z" transform="translate(-13.898 -202.858)" fill="#bf8c5b"/>
        <path id="Path_1261272" data-name="Path 1261272" d="M80.713,213.449l4.369.084A35.389,35.389,0,0,1,79.332,227.6c-1.7-1.442-2.758-2.953-5.268-2.959l-2.534-.006a5.946,5.946,0,0,0-4.45,1.945,23.221,23.221,0,0,1-1.865-1.886c.68-1.267,2.351-1.938,2.889-3.3.588-1.487-.066-3.267.243-4.858l3.007-3.033,6.825-.016a13.707,13.707,0,0,0-.03-2.443l-64.111-.008a41.239,41.239,0,0,1-.183-4.915,14.105,14.105,0,0,1,9.113,2.182,1.341,1.341,0,0,0,1.529.011,13.478,13.478,0,0,1,7.257-2.232l24.818-.022c2.393,0,2.622,2.515,6.134,2.508l2.707-.006c3.216-.007,3.779-2.486,5.767-2.488L85.6,206.06a29.137,29.137,0,0,1-.175,4.959l-4.7.049Z" transform="translate(-11.359 -168.951)" fill="#bd8b5a"/>
        <path id="Path_1261273" data-name="Path 1261273" d="M295.743,335.9a5.412,5.412,0,0,1-.056-3.311c.405-1.711,3.568-2.5,3.522-6.387a3,3,0,0,1,3.021-3.03l2.726.007c1.624,0,2.5,1.328,3.7,2.558A36.109,36.109,0,0,1,295.743,335.9" transform="translate(-242.255 -264.983)" fill="#956748"/>
        <rect id="Rectangle_412134" data-name="Rectangle 412134" width="2.484" height="2.511" transform="translate(38.387 47.009)" fill="#050404"/>
        <rect id="Rectangle_412135" data-name="Rectangle 412135" width="2.47" height="2.484" transform="translate(24.763 48.269)" fill="#060505"/>
        <rect id="Rectangle_412136" data-name="Rectangle 412136" width="2.473" height="2.473" transform="translate(40.871 60.657)" fill="#090a0a"/>
        <path id="Path_1261274" data-name="Path 1261274" d="M96.551,97.312A5.9,5.9,0,0,1,90.939,101l-49.422-.058a7.4,7.4,0,0,1,8.111-7.321,1.485,1.485,0,0,0,1.294-.279,1.514,1.514,0,0,0,.453-1.077A7.468,7.468,0,0,1,55.684,85.6a7.39,7.39,0,0,1,8.1,1.233,1.32,1.32,0,0,0,1.123.344,1.3,1.3,0,0,0,.884-.637,7.421,7.421,0,0,1,13.28,0,1.259,1.259,0,0,0,1.977.308c.129-.117.625-.346.692-.126A14.936,14.936,0,0,0,96.551,97.312M65.009,91.091H62.525v2.47h2.484Zm12.376,3.7H74.912V97.3h2.473ZM52.621,97.3H50.137v2.47h2.484Z" transform="translate(-34.041 -67.59)" fill="#e9f5fc"/>
        <path id="Path_1261275" data-name="Path 1261275" d="M41.478,163.722l49.422.057a5.9,5.9,0,0,0,5.612-3.691,19.049,19.049,0,0,0,5.029-1.093,7.1,7.1,0,0,1,1.684,5.99l-9.577.05c-3.02.016-3.385,2.447-5.772,2.448H85.341c-2.525,0-2.381-2.487-6.3-2.482l-25,.034a15.952,15.952,0,0,0-7.624,2.194,17.876,17.876,0,0,0-4.712-1.817,3.891,3.891,0,0,1-.219-1.691" transform="translate(-34.002 -130.366)" fill="#c6e0f8"/>
        <rect id="Rectangle_412137" data-name="Rectangle 412137" width="2.484" height="2.47" transform="translate(28.483 23.501)" fill="#090a0a"/>
        <rect id="Rectangle_412138" data-name="Rectangle 412138" width="2.473" height="2.511" transform="translate(40.871 27.202)" fill="#090a0a"/>
        <rect id="Rectangle_412139" data-name="Rectangle 412139" width="2.484" height="2.47" transform="translate(16.096 29.713)" fill="#090a0a"/>
        <path id="Path_1261276" data-name="Path 1261276" d="M299.844,26.1a12.37,12.37,0,1,1-12.371-12.37A12.371,12.371,0,0,1,299.844,26.1M283.21,17.162q-.2.095-.392.2a9.9,9.9,0,1,0,.392-.2" transform="translate(-225.567 -11.258)" fill="#c36b60"/>
        <path id="Path_1261277" data-name="Path 1261277" d="M299.919,32.792c.066.477.745.129.981.347l3.316,3.06,2.874-2.813a1.2,1.2,0,0,1,1.737.1l4.043,4.046c-.053.357.06.866-.255,1.19l-2.906,2.982,2.878,3a1.462,1.462,0,0,1,.124,1.477l-4.346,4.181a1.435,1.435,0,0,1-1.236-.237l-2.911-2.861c-1.206.726-2.942,3.6-4.127,3.076a2.4,2.4,0,0,1-.737-.543l-3.792-3.848c-.482-1.423,2.233-2.885,3.091-4.256l-2.628-2.634c-.305-.306-.742-1.133-.442-1.539l4.152-4.319c.049-.132-.059-.215-.207-.215q.194-.1.392-.2m-1.207,12.657a7.817,7.817,0,0,0,1.752,1.9c.725-.608,1.122-1.283,1.779-1.839l.926-.783a1.565,1.565,0,0,1,2-.015l.557.38a18.625,18.625,0,0,1,2.151,2.271,25.47,25.47,0,0,0,1.992-1.912c-.82-.833-1.529-1.559-2.393-2.341-.519-.47-1.119-1.249-.637-1.94a9.275,9.275,0,0,1,1.085-1.33,11.636,11.636,0,0,0,1.846-1.807,14.707,14.707,0,0,0-1.614-1.728c-.205-.225-.308.015-.459.115-1.695,1.111-3,3.831-4.316,2.523l-2.908-2.888-1.91,1.916c.767,1.359,4.226,3.162,2.808,4.616Z" transform="translate(-242.276 -26.887)" fill="#060505"/>
        <path id="Path_1261278" data-name="Path 1261278" d="M333.34,33.092l-.264.043-4.043-4.046a1.2,1.2,0,0,0-1.737-.1L324.422,31.8l-3.315-3.06c-.237-.219-.916.13-.981-.347a9.9,9.9,0,0,1,13.215,4.7" transform="translate(-262.482 -22.488)" fill="#f6f4f4"/>
        <path id="Path_1261279" data-name="Path 1261279" d="M377.715,67.77c-.142-.066-.191-.121-.217-.189a1.463,1.463,0,0,0-.124-1.477l-2.878-3,2.906-2.982c.315-.324.2-.833.255-1.19l.264-.043a9.9,9.9,0,0,1-.2,8.881" transform="translate(-307.062 -48.285)" fill="#faf8f8"/>
        <path id="Path_1261280" data-name="Path 1261280" d="M290.124,58.947c-.3.406.137,1.233.442,1.538l2.628,2.634c-.858,1.371-3.573,2.833-3.091,4.256a.707.707,0,0,0-.319.027,9.9,9.9,0,0,1-.01-8.482Z" transform="translate(-236.818 -48.311)" fill="#fbfafa"/>
        <path id="Path_1261281" data-name="Path 1261281" d="M328.971,116.272l.032.324a9.9,9.9,0,0,1-8.374.025.477.477,0,0,1,.067-.37c1.186.528,2.921-2.35,4.127-3.076l2.911,2.86a1.435,1.435,0,0,0,1.236.237" transform="translate(-262.881 -92.796)" fill="#fbfafa"/>
        <path id="Path_1261282" data-name="Path 1261282" d="M294.471,105.841l3.792,3.848a2.4,2.4,0,0,0,.737.543.477.477,0,0,0-.067.37,9.9,9.9,0,0,1-4.782-4.734.708.708,0,0,1,.319-.027" transform="translate(-241.186 -86.777)" fill="#ede9e8"/>
        <path id="Path_1261283" data-name="Path 1261283" d="M298.393,33.889c-.028.164.075.3.207.215l-4.151,4.319-.35-.027a9.9,9.9,0,0,1,4.295-4.507" transform="translate(-241.142 -27.787)" fill="#ede9e8"/>
        <path id="Path_1261284" data-name="Path 1261284" d="M371.6,107.348a9.9,9.9,0,0,1-4.531,4.316l-.032-.324,4.346-4.181c.027.068.076.122.217.189" transform="translate(-300.946 -87.864)" fill="#ede9e8"/>
        <path id="Path_1261285" data-name="Path 1261285" d="M321.7,51.256c.186-.077.189.19.192.384l.036,3.036a9.27,9.27,0,0,0-1.085,1.33c-.482.691.118,1.469.637,1.94-.042.924-.935,1.611-1.75,1.982l-.557-.38a1.566,1.566,0,0,0-2,.015l-.926.783-3.531-.057,2.654-2.866c1.418-1.455-2.041-3.258-2.808-4.616l1.91-1.916,2.909,2.888c1.318,1.309,2.621-1.411,4.316-2.523" transform="translate(-256.284 -41.727)" fill="#e07a6d"/>
        <path id="Path_1261286" data-name="Path 1261286" d="M352.351,92.057c.815-.371,1.708-1.058,1.75-1.982.865.783,1.573,1.508,2.393,2.341a25.42,25.42,0,0,1-1.992,1.912,18.638,18.638,0,0,0-2.151-2.271" transform="translate(-288.905 -73.856)" fill="#bd665c"/>
        <path id="Path_1261287" data-name="Path 1261287" d="M363.521,55.395l-.036-3.036c0-.194-.005-.461-.192-.384.151-.1.254-.339.459-.115a14.7,14.7,0,0,1,1.614,1.728,11.635,11.635,0,0,1-1.846,1.807" transform="translate(-297.878 -42.445)" fill="#bd665c"/>
        <path id="Path_1261288" data-name="Path 1261288" d="M316.953,103.142c-.658.556-1.054,1.232-1.779,1.84a7.816,7.816,0,0,1-1.752-1.9Z" transform="translate(-256.986 -84.523)" fill="#c36b60"/>
        <path id="Path_1261289" data-name="Path 1261289" d="M318.135,34.1c-.132.089-.235-.051-.207-.215.148,0,.256.082.207.215" transform="translate(-260.677 -27.787)" fill="#f6f4f4"/>
      </g>
    </g>
  </g>
</svg>
