<svg xmlns="http://www.w3.org/2000/svg" xmlns:xlink="http://www.w3.org/1999/xlink" width="129.063" height="63.235" viewBox="0 0 129.063 63.235">
  <defs>
    <clipPath id="clip-path">
      <rect id="Rectangle_412133" data-name="Rectangle 412133" width="63.226" height="63.235" fill="none"/>
    </clipPath>
  </defs>
  <g id="Group_1213504" data-name="Group 1213504" transform="translate(-787.781 -2591.516)">
    <g id="Group_1201005" data-name="Group 1201005" transform="translate(0 26)">
      <g id="Rectangle_410589" data-name="Rectangle 410589" transform="translate(787.781 2575.623)" fill="#70d9c1" stroke="#4d9686" stroke-width="1">
        <rect width="129.063" height="43.021" rx="8" stroke="none"/>
        <rect x="0.5" y="0.5" width="128.063" height="42.021" rx="7.5" fill="none"/>
      </g>
    </g>
    <g id="Group_1213708" data-name="Group 1213708" transform="translate(820.7 2591.516)">
      <g id="Group_1213707" data-name="Group 1213707" clip-path="url(#clip-path)">
        <path id="Path_1261254" data-name="Path 1261254" d="M41.745,59.179a12.249,12.249,0,0,1-19.3-1.4A12.249,12.249,0,1,1,6.891,39.987a12.239,12.239,0,0,1,21.53-11.251,11.85,11.85,0,0,0,.109-2.912,5.222,5.222,0,0,1,2.322-4.456L37.7,16.8a19.26,19.26,0,0,1,.14-2.8c-2.285-.171-1.643-2.642-2.38-3.5-.765-.895-2.826-1.112-2.824-3.306l0-4.21A2.951,2.951,0,0,1,35.632.009L56.079,0a3,3,0,0,1,3.075,2.978l0,4.26c0,1.991-1.834,2.632-3.021,3.14-.183,1.162-.146,3.3-2.115,3.652l.045,2.739,7,4.7a4.85,4.85,0,0,1,2.157,4.08l.008,28.462A4.935,4.935,0,0,1,58.568,59.1ZM48.961,6.057l-.009-3.976a8.735,8.735,0,0,0-2.034,0l-.027,4a14.563,14.563,0,0,1-2.01-.024l-.033-3.973a8.063,8.063,0,0,0-1.985,0l-.058,4-1.995,0L40.79,2.082a8.614,8.614,0,0,0-2.033,0l-.027,4a10.464,10.464,0,0,1-2-.046l-.087-3.8c-.365-.469-1.781-.209-1.879.48-.207,1.45-.022,2.834-.09,4.283A1.077,1.077,0,0,0,35.79,8.159l20.143,0a1.116,1.116,0,0,0,1.195-1.177l-.005-3.859A1.028,1.028,0,0,0,56.385,2.1a2.807,2.807,0,0,0-1.305,0l-.028,3.982a14.446,14.446,0,0,1-2.01-.023l-.032-3.973a8.16,8.16,0,0,0-1.989,0l-.032,3.974a10.954,10.954,0,0,1-2.027,0m4.072,6.159a.986.986,0,0,0,.994-1.137,1.006,1.006,0,0,0-1.059-.881l-14.232,0a1.009,1.009,0,0,0,0,2.018ZM42.822,44.082l.023-19.6,18.029,0a2.554,2.554,0,0,0-1.128-1.441l-7.715-5.145-.062-3.624-12.176,0-.026,3.606L32,23.071a2.631,2.631,0,0,0-1.108,1.392l7.849.03v15.9a15.311,15.311,0,0,1,4.08,3.692M28.5,34.653a10.2,10.2,0,0,0-20.3.021ZM36.7,39.4V26.53l-6.116,0-.01,8.487a13.987,13.987,0,0,1-.449,4,12.84,12.84,0,0,1,6.575.37M61.191,26.519H44.868V51H61.191Zm-33.522,13.3a9.114,9.114,0,0,0,.8-3.111l-20.208,0a5.579,5.579,0,0,0,.592,2.519,12.278,12.278,0,0,1,13.579,4.979,12.747,12.747,0,0,1,5.236-4.392M18.675,43.1A10.2,10.2,0,0,0,4.328,57.447Zm6.158,14.244,14.22-14.219a9.9,9.9,0,0,0-9.011-1.977c-2.421.622-5.409,2.594-6.353,5.261.833,3,1.221,6.147-.106,9.123a3.862,3.862,0,0,0,1.25,1.811M20.121,44.554,5.78,58.9A10.192,10.192,0,0,0,20.121,44.554m6.093,14.323A10.168,10.168,0,0,0,40.519,44.565Zm32.033-1.75a3.2,3.2,0,0,0,2.861-4.092l-16.393,0a15.377,15.377,0,0,1-1.456,4.083Z" transform="translate(-0.001 0)" fill="#040404"/>
        <path id="Path_1261255" data-name="Path 1261255" d="M75.581,180.972l-20.3.021a10.2,10.2,0,0,1,20.3-.021" transform="translate(-47.078 -146.319)" fill="#fb806c"/>
        <path id="Path_1261256" data-name="Path 1261256" d="M75.079,250.511a12.746,12.746,0,0,0-5.236,4.392,12.278,12.278,0,0,0-13.579-4.979,5.578,5.578,0,0,1-.592-2.519l20.208,0a9.116,9.116,0,0,1-.8,3.111" transform="translate(-47.411 -210.69)" fill="#f5d16d"/>
        <path id="Path_1261257" data-name="Path 1261257" d="M53.289,300.26A10.192,10.192,0,0,1,38.948,314.6Z" transform="translate(-33.169 -255.706)" fill="#b1da7d"/>
        <path id="Path_1261258" data-name="Path 1261258" d="M176.654,314.645l14.305-14.312a10.168,10.168,0,0,1-14.305,14.312" transform="translate(-150.441 -255.768)" fill="#b2db7e"/>
        <path id="Path_1261259" data-name="Path 1261259" d="M160.18,291.532a3.863,3.863,0,0,1-1.25-1.811c1.327-2.976.939-6.124.106-9.123.944-2.668,3.932-4.639,6.353-5.261a9.9,9.9,0,0,1,9.011,1.977Z" transform="translate(-135.347 -234.186)" fill="#fc816d"/>
        <path id="Path_1261260" data-name="Path 1261260" d="M30.344,277.309,16,291.654a10.2,10.2,0,0,1,14.347-14.345m-6.477,1.761a9.567,9.567,0,0,0-.029-2.027,8.182,8.182,0,0,0-8.1,8.125,8.975,8.975,0,0,0,2.033-.009,6.174,6.174,0,0,1,6.1-6.089" transform="translate(-11.67 -234.206)" fill="#b0d87c"/>
        <path id="Path_1261261" data-name="Path 1261261" d="M35.537,290.709a6.174,6.174,0,0,0-6.1,6.089,8.972,8.972,0,0,1-2.033.009,8.182,8.182,0,0,1,8.1-8.125,9.567,9.567,0,0,1,.029,2.027" transform="translate(-23.339 -245.846)" fill="#060504"/>
        <path id="Path_1261262" data-name="Path 1261262" d="M220.13,125.966a15.314,15.314,0,0,0-4.08-3.692v-15.9l-7.849-.03a2.631,2.631,0,0,1,1.108-1.392l7.767-5.194.026-3.606,12.175,0,.062,3.624,7.715,5.145a2.554,2.554,0,0,1,1.128,1.441l-18.029,0Z" transform="translate(-177.308 -81.884)" fill="#c9ced6"/>
        <path id="Path_1261263" data-name="Path 1261263" d="M318.7,203.2H302.376V178.715H318.7Zm-5.108-10.209.039-3.053,3.024-.03,0-6.088-3.042-.012-.036-3.065-6.068.017-.061,3.043-3.024.031,0,6.062,3.041.049.049,3.047Zm3.079,2.048H304.411v2.026h12.257Zm-10.2,4.057h-2.061v2.069h2.061Zm10.2,0h-8.161v2.069h8.161Z" transform="translate(-257.508 -152.196)" fill="#e1e4e8"/>
        <path id="Path_1261264" data-name="Path 1261264" d="M247.889,17.506a10.954,10.954,0,0,0,2.027,0l.032-3.974a8.167,8.167,0,0,1,1.989,0l.032,3.973a14.468,14.468,0,0,0,2.01.024l.028-3.983a2.807,2.807,0,0,1,1.305,0,1.028,1.028,0,0,1,.738,1.031l.005,3.859a1.116,1.116,0,0,1-1.195,1.177l-20.143,0a1.077,1.077,0,0,1-1.117-1.164c.068-1.449-.117-2.833.09-4.283.1-.689,1.514-.949,1.879-.48l.087,3.8a10.476,10.476,0,0,0,2,.046l.027-4a8.606,8.606,0,0,1,2.033,0l.019,3.995,1.995,0,.058-4a8.063,8.063,0,0,1,1.985,0l.033,3.973a14.563,14.563,0,0,0,2.01.024l.027-4a8.735,8.735,0,0,1,2.034,0Z" transform="translate(-198.929 -11.45)" fill="#4ebfe6"/>
        <path id="Path_1261265" data-name="Path 1261265" d="M209.62,191.661a12.84,12.84,0,0,0-6.575-.37,13.992,13.992,0,0,0,.449-4l.01-8.487,6.116,0Z" transform="translate(-172.916 -152.265)" fill="#e4e7eb"/>
        <path id="Path_1261266" data-name="Path 1261266" d="M306.513,361.508l-14.989,0a15.377,15.377,0,0,0,1.456-4.083l16.393,0a3.2,3.2,0,0,1-2.861,4.092" transform="translate(-248.266 -304.381)" fill="#c8cdd4"/>
        <path id="Path_1261267" data-name="Path 1261267" d="M269.617,70.743l-14.3,0a1.009,1.009,0,0,1,0-2.018l14.232-.005a1.007,1.007,0,0,1,1.059.881.986.986,0,0,1-.994,1.137" transform="translate(-216.585 -58.527)" fill="#a9b1bb"/>
        <path id="Path_1261268" data-name="Path 1261268" d="M325.312,204.626l-6.077,0-.049-3.047-3.041-.049,0-6.062,3.024-.031.061-3.043,6.068-.017.036,3.065,3.042.012,0,6.088-3.024.03Zm-2.039-2.088.042-3,3.021-.062a14.181,14.181,0,0,0-.015-1.961l-3.019-.049-.049-3.023a12.2,12.2,0,0,0-1.961-.014l-.064,3.023-3.01.067a16,16,0,0,0-.006,1.961l2.98.057.091,3.019a15.77,15.77,0,0,0,1.99-.022" transform="translate(-269.23 -163.833)" fill="#060504"/>
        <rect id="Rectangle_412130" data-name="Rectangle 412130" width="12.257" height="2.026" transform="translate(46.903 42.841)" fill="#040404"/>
        <rect id="Rectangle_412131" data-name="Rectangle 412131" width="8.161" height="2.069" transform="translate(51 46.897)" fill="#040404"/>
        <rect id="Rectangle_412132" data-name="Rectangle 412132" width="2.061" height="2.069" transform="translate(46.903 46.897)" fill="#040404"/>
        <path id="Path_1261269" data-name="Path 1261269" d="M335.012,214.131a15.77,15.77,0,0,1-1.99.022l-.091-3.019-2.98-.057a16,16,0,0,1,.006-1.961l3.01-.067.064-3.023a12.2,12.2,0,0,1,1.961.014l.049,3.023,3.019.049a14.185,14.185,0,0,1,.015,1.961l-3.021.062Z" transform="translate(-280.968 -175.427)" fill="#fad66f"/>
      </g>
    </g>
  </g>
</svg>
