<svg xmlns="http://www.w3.org/2000/svg" xmlns:xlink="http://www.w3.org/1999/xlink" width="129.063" height="74.644" viewBox="0 0 129.063 74.644">
  <defs>
    <clipPath id="clip-path">
      <rect id="Rectangle_412160" data-name="Rectangle 412160" width="74.61" height="74.644" fill="none"/>
    </clipPath>
  </defs>
  <g id="Group_1201480" data-name="Group 1201480" transform="translate(-788.103 -1982.474)">
    <g id="Group_1201007" data-name="Group 1201007">
      <g id="Rectangle_410589" data-name="Rectangle 410589" transform="translate(788.103 2007.607)" fill="#d3af82" stroke="#93795a" stroke-width="1">
        <rect width="129.063" height="43.021" rx="8" stroke="none"/>
        <rect x="0.5" y="0.5" width="128.063" height="42.021" rx="7.5" fill="none"/>
      </g>
    </g>
    <g id="Group_1213724" data-name="Group 1213724" transform="translate(815.329 1982.474)">
      <g id="Group_1213723" data-name="Group 1213723" clip-path="url(#clip-path)">
        <path id="Path_1261394" data-name="Path 1261394" d="M421.577,13.8V83.687a11.434,11.434,0,0,1-2.321-.029l0-69.859a21.255,21.255,0,0,1,2.319,0" transform="translate(-348.135 -11.419)" fill="#804545"/>
        <rect id="Rectangle_412153" data-name="Rectangle 412153" width="4.682" height="69.943" transform="translate(64.118 2.369)" fill="#935151"/>
        <rect id="Rectangle_412154" data-name="Rectangle 412154" width="48.97" height="4.678" transform="translate(12.821 53.648)" fill="#814646"/>
        <rect id="Rectangle_412155" data-name="Rectangle 412155" width="48.97" height="4.652" transform="translate(12.821 39.668)" fill="#834747"/>
        <rect id="Rectangle_412156" data-name="Rectangle 412156" width="48.965" height="4.666" transform="translate(12.823 46.655)" fill="#955353"/>
        <rect id="Rectangle_412157" data-name="Rectangle 412157" width="48.965" height="4.668" transform="translate(12.823 60.659)" fill="#955353"/>
        <rect id="Rectangle_412158" data-name="Rectangle 412158" width="48.97" height="4.652" transform="translate(12.821 67.658)" fill="#834747"/>
        <path id="Path_1261395" data-name="Path 1261395" d="M85.051,197.338l-9.353.053-.01-4.647,7.078.025a8.321,8.321,0,0,0,2.286,4.569" transform="translate(-62.848 -160.047)" fill="#955252"/>
        <path id="Path_1261396" data-name="Path 1261396" d="M323.9,197.313l-8.256.048a8.285,8.285,0,0,0,2.306-4.6l5.917-.028Z" transform="translate(-262.097 -160.036)" fill="#955252"/>
        <path id="Path_1261397" data-name="Path 1261397" d="M12.87,1.2l-.061,29.058a15.457,15.457,0,0,0,2.791.056L23.372,14.78a1.264,1.264,0,0,1,1.221-.788l3.783-.007,2.085-4.038a1.116,1.116,0,0,1,.995-.6,1.189,1.189,0,0,1,1.083.666l2.117,4.156,13.429,3.37a1.166,1.166,0,0,1,.808,1.536l-2.318,5.823a1.187,1.187,0,0,1-.961.75l-10.735.011-.985,11.662,13.928.007a5.85,5.85,0,0,0,5.8-5.937c.031-.436.361-1.009.861-1.013L61.8,30.32,61.742,1.2A1.3,1.3,0,0,1,63.083,0L73.44.014a1.161,1.161,0,0,1,1.168,1.1,1.243,1.243,0,0,1-1.166,1.271,21.212,21.212,0,0,0-2.319,0l0,69.859a11.448,11.448,0,0,0,2.321.029,1.26,1.26,0,0,1,1.163,1.126,1.162,1.162,0,0,1-1.2,1.249H1.21a1.163,1.163,0,0,1-1.205-1.1A1.237,1.237,0,0,1,1.17,72.269a11.831,11.831,0,0,0,2.319-.032V2.42A10.482,10.482,0,0,0,1.17,2.381,1.287,1.287,0,0,1,0,1.253,1.209,1.209,0,0,1,1.34,0L11.53,0A1.29,1.29,0,0,1,12.87,1.2m-2.376,1.17H5.812V72.312h4.682Zm58.306,0H64.118V72.312H68.8ZM33.916,23.333l10.758-.01,1.519-3.854L33.61,16.31c-1.184-.3-1.336-2.2-2.185-3.095l-9.256,18.5A5.776,5.776,0,0,0,27.8,37.309c1.276.046,2.446.024,3.776-.014l1.072-12.864a1.184,1.184,0,0,1,1.271-1.1M20.3,30.248l6.9-13.815a4.524,4.524,0,0,0-2.036-.029L18.25,30.231a4.5,4.5,0,0,0,2.053.017m1.9,7.043a8.321,8.321,0,0,1-2.286-4.569L12.84,32.7l.01,4.647Zm39.6-.013-.033-4.583-5.917.028a8.286,8.286,0,0,1-2.306,4.6Zm-.009,2.39H12.821V44.32h48.97Zm0,6.987H12.823v4.666H61.789Zm0,6.993H12.821v4.678h48.97Zm0,7.011H12.823v4.668H61.789Zm0,7H12.821V72.31h48.97Z" transform="translate(0 0)" fill="#020202"/>
        <path id="Path_1261398" data-name="Path 1261398" d="M124.44,7.069,124.5,36.19l-7.312.055c-.5,0-.83.577-.862,1.013a5.85,5.85,0,0,1-5.8,5.937l-13.928-.007.985-11.662,10.735-.011a1.187,1.187,0,0,0,.961-.75l2.318-5.823a1.167,1.167,0,0,0-.808-1.536l-13.429-3.37-2.118-4.157a1.189,1.189,0,0,0-1.083-.666,1.116,1.116,0,0,0-.995.6l-2.085,4.038-3.783.007a1.264,1.264,0,0,0-1.221.788L78.3,36.183a15.457,15.457,0,0,1-2.791-.056l.061-29.058Z" transform="translate(-62.698 -5.87)" fill="#535b65"/>
        <path id="Path_1261399" data-name="Path 1261399" d="M142.43,88.022a1.184,1.184,0,0,0-1.271,1.1l-1.072,12.864c-1.33.038-2.5.059-3.776.014a5.777,5.777,0,0,1-5.628-5.591l9.256-18.5c.849.9,1,2.8,2.185,3.095l12.583,3.16-1.519,3.854Z" transform="translate(-108.514 -64.689)" fill="#fbcea3"/>
        <path id="Path_1261400" data-name="Path 1261400" d="M109.636,110.047a4.5,4.5,0,0,1-2.053-.017L114.5,96.2a4.524,4.524,0,0,1,2.036.029Z" transform="translate(-89.333 -79.799)" fill="#616873"/>
        <path id="Path_1261401" data-name="Path 1261401" d="M6.895,83.693V13.8a10.482,10.482,0,0,1,2.321.039V83.661a11.831,11.831,0,0,1-2.319.032" transform="translate(-5.725 -11.424)" fill="#804545"/>
        <rect id="Rectangle_412159" data-name="Rectangle 412159" width="4.682" height="69.943" transform="translate(5.812 2.369)" fill="#935151"/>
      </g>
    </g>
  </g>
</svg>
