<svg xmlns="http://www.w3.org/2000/svg" xmlns:xlink="http://www.w3.org/1999/xlink" width="129.063" height="88.885" viewBox="0 0 129.063 88.885">
  <defs>
    <clipPath id="clip-path">
      <rect id="Rectangle_412026" data-name="Rectangle 412026" width="87.544" height="88.885" fill="none"/>
    </clipPath>
  </defs>
  <g id="Group_1201480" data-name="Group 1201480" transform="translate(-788.103 -1970.898)">
    <g id="Group_1201007" data-name="Group 1201007">
      <g id="Rectangle_410589" data-name="Rectangle 410589" transform="translate(788.103 2007.607)" fill="#d3af82" stroke="#93795a" stroke-width="1">
        <rect width="129.063" height="43.021" rx="8" stroke="none"/>
        <rect x="0.5" y="0.5" width="128.063" height="42.021" rx="7.5" fill="none"/>
      </g>
    </g>
    <g id="Group_1213633" data-name="Group 1213633" transform="translate(808.862 1970.898)">
      <g id="Group_1213632" data-name="Group 1213632" clip-path="url(#clip-path)">
        <path id="Path_1260824" data-name="Path 1260824" d="M248.9,243.6l-2.4-3.609a1.435,1.435,0,0,0-1.189-.708,1.361,1.361,0,0,0-1.324.819l-1.672,3.333-3.556.064a1.083,1.083,0,0,0-.98.694l-7.253,14.484a7.387,7.387,0,0,1-2.632-.026,19.431,19.431,0,1,1,20.143,13.944l1.284-17.985,8.021-.026a1.6,1.6,0,0,0,1.783-.986l2.631-5.288a1.514,1.514,0,0,0-.013-1.425,1.623,1.623,0,0,0-1.221-.7Z" transform="translate(-181.22 -186.556)" fill="#85b9f1"/>
        <path id="Path_1260825" data-name="Path 1260825" d="M254.1,291.616l-1.413,19.636a19.394,19.394,0,0,1-16.26-11.066l6.346-.014a1.371,1.371,0,0,0,1.518-.9l8.534-17.051,1.885,2.545,11.141,2.494a31.717,31.717,0,0,1-1.522,3.171l-9.034.015a1.267,1.267,0,0,0-1.2,1.173" transform="translate(-188.665 -225.207)" fill="#945252"/>
        <rect id="Rectangle_412025" data-name="Rectangle 412025" width="14.079" height="0.968" transform="translate(52.453 72.029) rotate(-63.429)" fill="#5d646e"/>
        <path id="Path_1260826" data-name="Path 1260826" d="M51.151,83.777A33.355,33.355,0,0,1,.1,57.076c-.114-2.916-.152-5.791,0-8.744a33.35,33.35,0,0,1,27-31.109,9.751,9.751,0,1,1,12.5-.007A33.343,33.343,0,0,1,66.25,44.473a22.212,22.212,0,1,1-15.1,39.3M36.226,11.132a1.335,1.335,0,0,1,1.262,1.635c-.309,1.453-1.762,1-2.694,1.191a9.829,9.829,0,0,0,.054,2.528,6.949,6.949,0,1,0-2.942,0,12.706,12.706,0,0,0,.073-2.521,8.932,8.932,0,0,0-1.493-.093,1.389,1.389,0,0,1-1.253-1.44,1.343,1.343,0,0,1,1.428-1.322ZM62.061,44.683,63.44,44.5A30.553,30.553,0,1,0,46.086,77.782l-.659-1.226A29.168,29.168,0,1,1,62.061,44.683M31.947,76.3c.287-1.048.854-1.35,1.621-1.3.592.042,1.019.541,1.259,1.295a25.105,25.105,0,0,0,9.507-2.321A22.236,22.236,0,0,1,59.285,45.27a21.71,21.71,0,0,0-2.412-7.205,1.492,1.492,0,0,1-1.9-.692c-.326-.625.071-1.225.429-1.872a24.776,24.776,0,0,0-7.625-7.59,1.544,1.544,0,0,1-2.046.326c-.545-.337-.458-1.089-.536-1.809A24.436,24.436,0,0,0,34.846,23.68c-.321.769-.722,1.311-1.459,1.323-.766.012-1.152-.528-1.475-1.311a24.373,24.373,0,0,0-10.337,2.726c-.05.805-.071,1.545-.651,1.9-.689.426-1.313.014-2.033-.345a24.486,24.486,0,0,0-7.522,7.513c.376.727.777,1.341.359,2.042-.353.592-1.1.578-1.909.647A24.5,24.5,0,0,0,7.072,48.5c.789.342,1.326.746,1.324,1.488s-.546,1.139-1.321,1.479a24.568,24.568,0,0,0,2.75,10.335c.821.026,1.54.042,1.908.646.417.685-.007,1.3-.356,2.026A24.444,24.444,0,0,0,18.9,71.989c.709-.361,1.335-.781,2.014-.353.593.374.641,1.105.65,1.907A24.99,24.99,0,0,0,31.947,76.3m35.73-19.26L79.3,59.627a1.623,1.623,0,0,1,1.22.7,1.514,1.514,0,0,1,.013,1.425L77.9,67.036a1.6,1.6,0,0,1-1.783.986l-8.021.026L66.812,86.034A19.431,19.431,0,1,0,46.669,72.089a7.387,7.387,0,0,0,2.632.026l7.252-14.484a1.083,1.083,0,0,1,.98-.694l3.556-.064,1.672-3.333a1.361,1.361,0,0,1,1.324-.819,1.435,1.435,0,0,1,1.189.708Zm-2.244,9.37a1.267,1.267,0,0,1,1.2-1.172l9.035-.016a31.725,31.725,0,0,0,1.522-3.171L66.043,59.557l-1.884-2.545L55.625,74.062a1.372,1.372,0,0,1-1.519.9l-6.346.014A19.393,19.393,0,0,0,64.02,86.045ZM58.75,59.437l-6.3,12.593.866.433,6.3-12.593ZM7.569,71.677C15.887,85.7,34.762,90.35,48.95,81.808l-1.308-1.69C33.735,86.612,17.873,82.973,7.8,71.493c-.38-.433-.469-1.176-1.257-1.462a4.257,4.257,0,0,0,1.028,1.646" transform="translate(0 0)" fill="#050504"/>
        <path id="Path_1260827" data-name="Path 1260827" d="M59.883,169.841A24.989,24.989,0,0,1,49.5,167.084c-.009-.8-.057-1.533-.65-1.907-.679-.429-1.305-.008-2.014.352a24.442,24.442,0,0,1-7.519-7.511c.349-.724.773-1.341.356-2.026-.368-.6-1.087-.62-1.908-.646a24.565,24.565,0,0,1-2.75-10.335c.775-.34,1.318-.75,1.321-1.479s-.535-1.145-1.324-1.488a24.507,24.507,0,0,1,2.746-10.326c.81-.069,1.557-.055,1.909-.647.418-.7.016-1.315-.359-2.042a24.484,24.484,0,0,1,7.522-7.513c.721.359,1.344.771,2.033.345.58-.359.6-1.1.651-1.9a24.373,24.373,0,0,1,10.337-2.726c.323.783.709,1.324,1.475,1.311.737-.012,1.138-.554,1.458-1.323a24.432,24.432,0,0,1,10.352,2.748c.078.72-.009,1.472.536,1.809a1.544,1.544,0,0,0,2.046-.326,24.778,24.778,0,0,1,7.625,7.59c-.359.647-.756,1.247-.429,1.872a1.492,1.492,0,0,0,1.9.692,21.7,21.7,0,0,1,2.411,7.205,22.236,22.236,0,0,0-14.952,28.707,25.105,25.105,0,0,1-9.507,2.321c-.239-.754-.667-1.253-1.259-1.295-.766-.054-1.334.248-1.621,1.3m2.807-19.418.017-2.949a4.209,4.209,0,0,0-.006-7.9l-.019-14.12a1.368,1.368,0,0,0-2.737.009L59.9,139.587a4.195,4.195,0,0,0-.012,7.867l.051,3.049a1.36,1.36,0,0,0,1.364,1.365,1.389,1.389,0,0,0,1.382-1.445" transform="translate(-27.936 -93.541)" fill="#e4e7eb"/>
        <path id="Path_1260828" data-name="Path 1260828" d="M73.188,121.381a29.161,29.161,0,1,0-16.633,31.873l.659,1.226A30.561,30.561,0,1,1,74.566,121.2Z" transform="translate(-11.127 -76.698)" fill="#f2c350"/>
        <path id="Path_1260829" data-name="Path 1260829" d="M37.469,354.087a.488.488,0,0,1,.228-.184c10.076,11.48,25.938,15.119,39.844,8.625l1.308,1.69c-14.188,8.542-33.063,3.888-41.381-10.131" transform="translate(-29.9 -282.41)" fill="#edb440"/>
        <path id="Path_1260830" data-name="Path 1260830" d="M33.635,348.128a.488.488,0,0,0-.228.184,4.258,4.258,0,0,1-1.028-1.646c.787.286.877,1.029,1.257,1.462" transform="translate(-25.837 -276.635)" fill="#c09233"/>
        <path id="Path_1260831" data-name="Path 1260831" d="M150.2,177.564a1.389,1.389,0,0,1-1.382,1.445,1.36,1.36,0,0,1-1.364-1.365l-.051-3.049a4.195,4.195,0,0,1,.012-7.867l.041-14.124a1.368,1.368,0,0,1,2.737-.009l.019,14.12a4.209,4.209,0,0,1,.006,7.9Zm-.007-6.905a1.375,1.375,0,1,0-1.375,1.375,1.375,1.375,0,0,0,1.375-1.375" transform="translate(-115.443 -120.683)" fill="#030303"/>
        <path id="Path_1260832" data-name="Path 1260832" d="M161.141,241.96a1.375,1.375,0,1,1-1.375-1.375,1.375,1.375,0,0,1,1.375,1.375" transform="translate(-126.393 -191.984)" fill="#606872"/>
      </g>
    </g>
  </g>
</svg>
