<svg xmlns="http://www.w3.org/2000/svg" xmlns:xlink="http://www.w3.org/1999/xlink" width="129.063" height="82.766" viewBox="0 0 129.063 82.766">
  <defs>
    <clipPath id="clip-path">
      <rect id="Rectangle_412023" data-name="Rectangle 412023" width="82.764" height="82.765" fill="none"/>
    </clipPath>
  </defs>
  <g id="Group_1213301" data-name="Group 1213301" transform="translate(-788.103 -1979.528)">
    <g id="Group_1201007" data-name="Group 1201007">
      <g id="Rectangle_410589" data-name="Rectangle 410589" transform="translate(788.103 2007.607)" fill="#d3af82" stroke="#93795a" stroke-width="1">
        <rect width="129.063" height="43.021" rx="8" stroke="none"/>
        <rect x="0.5" y="0.5" width="128.063" height="42.021" rx="7.5" fill="none"/>
      </g>
    </g>
    <g id="Group_1213629" data-name="Group 1213629" transform="translate(811.252 1979.528)">
      <g id="Group_1213628" data-name="Group 1213628" clip-path="url(#clip-path)">
        <path id="Path_1260795" data-name="Path 1260795" d="M77.242,67.529a7.842,7.842,0,0,1,5.43,8.648,7.767,7.767,0,0,1-15.336.111,12.033,12.033,0,0,1-9.059-2.864,36.2,36.2,0,0,1-32.014.852,11.757,11.757,0,0,1-11.057,2.973,7.77,7.77,0,1,1-8.724-9.911,12.071,12.071,0,0,1,2.863-9.055,36.2,36.2,0,0,1-.867-32.03,11.771,11.771,0,0,1-2.96-11.044,7.771,7.771,0,1,1,9.911-8.725,12.039,12.039,0,0,1,9.049,2.859,36.2,36.2,0,0,1,32.029-.86A11.782,11.782,0,0,1,67.559,5.517a7.769,7.769,0,1,1,8.725,9.911A12.084,12.084,0,0,1,73.42,24.48a36.206,36.206,0,0,1,.864,32.027,11.717,11.717,0,0,1,2.958,11.022M12.923,7.755a5.168,5.168,0,1,0-5.168,5.168,5.168,5.168,0,0,0,5.168-5.168m67.254,0a5.168,5.168,0,1,0-5.167,5.168,5.168,5.168,0,0,0,5.167-5.168M52.649,23.433l14.707,3.655c.784.2,1.471.807,1.121,1.705l-2.431,6.228a1.611,1.611,0,0,1-1.719,1.208l-11.386-.013-1.121,20.2c-.187,3.368-1.926,6.032-5.293,6.83l.05,11.336A33.606,33.606,0,1,0,7.852,43.525a10.191,10.191,0,0,1,5.892-2.142l17.788-.048,8.7-17.412a1.165,1.165,0,0,1,1.14-.656l4.394-.05L47.9,18.9a1.355,1.355,0,0,1,1.113-.831,1.2,1.2,0,0,1,1.2.548Zm20.929-8.042a7.817,7.817,0,0,1-6.326-7.248,8.75,8.75,0,0,0-8.2,1.621A36.73,36.73,0,0,1,72.01,22.021a8.575,8.575,0,0,0,1.569-6.63M9.78,23.657a36.813,36.813,0,0,1,12.235-12.9,8.648,8.648,0,0,0-6.606-1.592,7.849,7.849,0,0,1-7.272,6.347A8.574,8.574,0,0,0,9.78,23.657M41.388,62.164l.007,12.809a9.947,9.947,0,0,0,2.575-.118l.022-12.962A1.259,1.259,0,0,1,45.3,60.732a3.9,3.9,0,0,0,3.854-3.94L50.4,35a1.334,1.334,0,0,1,1.457-1.4l11.921-.008a41.4,41.4,0,0,0,1.633-4.282l-14.5-3.647-1.794-3.314L38.76,43.047a1.375,1.375,0,0,1-1.346.931l-23.859.047a7.159,7.159,0,0,0-5.322,2.793A33.7,33.7,0,0,0,17.241,64.75l1.9-3.156a8.96,8.96,0,0,0,1.556-4.6A1.312,1.312,0,0,1,22.072,55.6c2.079.138,1.01,3.517.5,5.108l17.827.082c.654,0,.988.752.988,1.374M36.78,41.212l7.606-15.257a4.422,4.422,0,0,0-2.208-.077L34.49,41.264a4.822,4.822,0,0,0,2.29-.052M67.373,73.565a7.823,7.823,0,0,1,7.248-6.317,8.771,8.771,0,0,0-1.616-8.192A36.868,36.868,0,0,1,60.742,72.008a8.487,8.487,0,0,0,6.631,1.556m-51.84,1.084A8.9,8.9,0,0,0,23.714,73,36.771,36.771,0,0,1,10.759,60.743a8.668,8.668,0,0,0-1.593,6.606,7.893,7.893,0,0,1,6.367,7.3m23.252.239V63.349l-17.658.009-1.913,3.273a33.7,33.7,0,0,0,19.57,8.256m-25.863.121a5.168,5.168,0,1,0-5.168,5.168,5.168,5.168,0,0,0,5.168-5.168m67.253,0a5.167,5.167,0,1,0-5.167,5.167,5.167,5.167,0,0,0,5.167-5.167" transform="translate(0 0)" fill="#040404"/>
        <path id="Path_1260796" data-name="Path 1260796" d="M86.248,56.966l-2.438-4.818a1.2,1.2,0,0,0-1.2-.548,1.355,1.355,0,0,0-1.113.831l-2.132,4.32-4.395.05a1.165,1.165,0,0,0-1.14.656l-8.7,17.412-17.788.049a10.19,10.19,0,0,0-5.892,2.142,33.611,33.611,0,1,1,38.726,31.055l-.05-11.336c3.367-.8,5.106-3.462,5.293-6.83l1.121-20.2,11.386.013a1.611,1.611,0,0,0,1.719-1.208l2.431-6.228c.35-.9-.336-1.51-1.121-1.705Z" transform="translate(-33.599 -33.532)" fill="#86baf2"/>
        <path id="Path_1260797" data-name="Path 1260797" d="M121.706,348.279a33.694,33.694,0,0,1-19.57-8.256l1.913-3.273,17.658-.009Z" transform="translate(-82.922 -273.391)" fill="#86baf2"/>
        <path id="Path_1260798" data-name="Path 1260798" d="M24.086,376.417a5.168,5.168,0,1,1-5.168-5.168,5.168,5.168,0,0,1,5.168,5.168" transform="translate(-11.164 -301.408)" fill="#e6c3b8"/>
        <path id="Path_1260799" data-name="Path 1260799" d="M54.6,336.79a7.893,7.893,0,0,0-6.367-7.3,8.668,8.668,0,0,1,1.593-6.606,36.768,36.768,0,0,0,12.956,12.259A8.894,8.894,0,0,1,54.6,336.79" transform="translate(-39.068 -262.14)" fill="#e85363"/>
        <path id="Path_1260800" data-name="Path 1260800" d="M381.576,376.418a5.167,5.167,0,1,1-5.167-5.167,5.167,5.167,0,0,1,5.167,5.167" transform="translate(-301.402 -301.409)" fill="#e6c3b8"/>
        <path id="Path_1260801" data-name="Path 1260801" d="M329.509,328.427a8.487,8.487,0,0,1-6.631-1.556,36.871,36.871,0,0,0,12.264-12.952,8.771,8.771,0,0,1,1.616,8.192,7.823,7.823,0,0,0-7.249,6.317" transform="translate(-262.136 -254.862)" fill="#9ccf66"/>
        <path id="Path_1260802" data-name="Path 1260802" d="M381.586,18.925a5.168,5.168,0,1,1-5.168-5.168,5.168,5.168,0,0,1,5.168,5.168" transform="translate(-301.409 -11.169)" fill="#e6c3b8"/>
        <path id="Path_1260803" data-name="Path 1260803" d="M328.427,48.84a8.575,8.575,0,0,1-1.569,6.63A36.728,36.728,0,0,0,313.9,43.213a8.749,8.749,0,0,1,8.2-1.621,7.817,7.817,0,0,0,6.326,7.248" transform="translate(-254.849 -33.449)" fill="#e85363"/>
        <path id="Path_1260804" data-name="Path 1260804" d="M24.086,18.922a5.168,5.168,0,1,1-5.168-5.168,5.168,5.168,0,0,1,5.168,5.168" transform="translate(-11.164 -11.167)" fill="#e6c3b8"/>
        <path id="Path_1260805" data-name="Path 1260805" d="M43.244,62.716A8.573,8.573,0,0,1,41.6,54.57a7.849,7.849,0,0,0,7.271-6.347,8.649,8.649,0,0,1,6.606,1.592,36.811,36.811,0,0,0-12.235,12.9" transform="translate(-33.464 -39.059)" fill="#9ccf66"/>
        <path id="Path_1260806" data-name="Path 1260806" d="M76.916,158.614c0-.622-.333-1.371-.988-1.374L58.1,157.157c.509-1.591,1.578-4.969-.5-5.108a1.312,1.312,0,0,0-1.377,1.391,8.962,8.962,0,0,1-1.557,4.6l-1.9,3.156a33.7,33.7,0,0,1-9.009-17.931,7.159,7.159,0,0,1,5.322-2.793l23.859-.047a1.375,1.375,0,0,0,1.346-.931l10.351-20.7,1.794,3.314,14.5,3.647a41.358,41.358,0,0,1-1.633,4.282l-11.921.008a1.334,1.334,0,0,0-1.458,1.4l-1.239,21.794a3.9,3.9,0,0,1-3.854,3.94,1.259,1.259,0,0,0-1.312,1.161L79.5,171.305a9.947,9.947,0,0,1-2.575.118Z" transform="translate(-35.528 -96.45)" fill="#945252"/>
        <path id="Path_1260807" data-name="Path 1260807" d="M185.625,152.454a4.828,4.828,0,0,1-2.29.052l7.688-15.386a4.425,4.425,0,0,1,2.208.077Z" transform="translate(-148.845 -111.241)" fill="#616974"/>
      </g>
    </g>
  </g>
</svg>
