<svg id="Group_1213653" data-name="Group 1213653" xmlns="http://www.w3.org/2000/svg" xmlns:xlink="http://www.w3.org/1999/xlink" width="58.54" height="79.64" viewBox="0 0 58.54 79.64">
  <defs>
    <clipPath id="clip-path">
      <rect id="Rectangle_412046" data-name="Rectangle 412046" width="58.54" height="79.64" fill="none"/>
    </clipPath>
  </defs>
  <g id="Group_1213652" data-name="Group 1213652" clip-path="url(#clip-path)">
    <path id="Path_1260990" data-name="Path 1260990" d="M54.746,76.652a3.028,3.028,0,0,1-3.477,2.967,3.182,3.182,0,0,1-2.732-3.59c.2-2.288-1.235-.954-1.219-2.62.006-.63.409-1.023,1.207-1.274l-.016-20.853A29.255,29.255,0,1,1,35.588.691c12.634,2.769,22.8,13.953,22.842,27.477l.109,32.09c.008,2.2-1.864,3.271-3.7,3.289Zm1.259-47.4A26.754,26.754,0,1,0,29.251,56.005,26.754,26.754,0,0,0,56.005,29.251m-1.212,22.97a1.731,1.731,0,0,0,1.232-.064l-.015-10.907-1.226,2.263Zm-3.737,4.4a10.174,10.174,0,0,1,1.2-.754l0-8.422a9.08,9.08,0,0,0-1.22,1.307Zm4.968-1.865H54.781v1.247h1.243ZM52.278,68.315l-.026-9.757a2.893,2.893,0,0,1-1.186-.742l-.042,10.551a1.6,1.6,0,0,0,1.254-.052m3.714-9.769a2.566,2.566,0,0,0-1.174-.008c.014.847-.364,2.446.594,2.422.936-.024.554-1.544.58-2.414M52.269,70.955H51.028V72.2h1.242Zm-.1,5.871a6.4,6.4,0,0,0,.054-2.134,4.956,4.956,0,0,0-1.145.02,7.494,7.494,0,0,0,.038,2.265c.283.2.935.277,1.053-.152" transform="translate(0 0)" fill="#040404"/>
    <path id="Path_1260991" data-name="Path 1260991" d="M67.3,40.55A26.754,26.754,0,1,1,40.547,13.8,26.754,26.754,0,0,1,67.3,40.55m-1.242,0A25.511,25.511,0,1,0,40.547,66.057,25.511,25.511,0,0,0,66.059,40.546" transform="translate(-11.296 -11.298)" fill="#8e4f4f"/>
    <path id="Path_1260992" data-name="Path 1260992" d="M283.091,329.855a1.6,1.6,0,0,1-1.254.052l.042-10.551a2.893,2.893,0,0,0,1.186.742Z" transform="translate(-230.813 -261.539)" fill="#713b3b"/>
    <path id="Path_1260993" data-name="Path 1260993" d="M302.62,238.831l-.009-8.708,1.226-2.263.015,10.907a1.73,1.73,0,0,1-1.232.064" transform="translate(-247.826 -186.609)" fill="#7f4444"/>
    <path id="Path_1260994" data-name="Path 1260994" d="M281.889,271.268l-.028-7.869a9.077,9.077,0,0,1,1.22-1.307l0,8.422a10.171,10.171,0,0,0-1.2.754" transform="translate(-230.833 -214.643)" fill="#713b3b"/>
    <path id="Path_1260995" data-name="Path 1260995" d="M282.936,414.6c-.119.428-.77.35-1.053.152a7.494,7.494,0,0,1-.038-2.265,4.954,4.954,0,0,1,1.145-.02,6.405,6.405,0,0,1-.054,2.134" transform="translate(-230.765 -337.775)" fill="#eaeaea"/>
    <path id="Path_1260996" data-name="Path 1260996" d="M303.687,323.065c-.026.87.356,2.391-.58,2.414-.959.024-.58-1.575-.594-2.422a2.568,2.568,0,0,1,1.174.008" transform="translate(-247.696 -264.519)" fill="#f5f5f5"/>
    <rect id="Rectangle_412044" data-name="Rectangle 412044" width="1.243" height="1.247" transform="translate(54.781 54.76)" fill="#eaeaea"/>
    <rect id="Rectangle_412045" data-name="Rectangle 412045" width="1.242" height="1.24" transform="translate(51.028 70.956)" fill="#ececec"/>
    <path id="Path_1260997" data-name="Path 1260997" d="M71.681,46.146A25.511,25.511,0,1,1,46.169,20.635,25.512,25.512,0,0,1,71.681,46.146m-6.239-.514c-.028-11.293-9.365-22.012-21.075-22.14C33.691,23.376,25,32.653,23.447,42.472A23.028,23.028,0,0,0,65.475,58.71ZM62.463,30.275c.092.058.247-.02.135-.177a3.079,3.079,0,0,0-1.216-1.075,5.172,5.172,0,0,0,1.08,1.252m5.6,22.979c2.515-7.847.79-17.075-5.4-22.924,3.429,5.258,5.647,10.711,5.224,16.977Z" transform="translate(-16.918 -16.899)" fill="#040303"/>
    <path id="Path_1260998" data-name="Path 1260998" d="M258.107,97.11l-.172-5.947c.422-6.267-1.8-11.719-5.224-16.977,6.186,5.849,7.911,15.077,5.4,22.924" transform="translate(-206.959 -60.755)" fill="#6e3939"/>
    <path id="Path_1260999" data-name="Path 1260999" d="M246.822,68.041c-.131-.06-.138.095-.135.177a5.171,5.171,0,0,1-1.08-1.252,3.078,3.078,0,0,1,1.215,1.075" transform="translate(-201.141 -54.842)" fill="#532c2c"/>
    <path id="Path_1261000" data-name="Path 1261000" d="M251.57,73.02c0-.082,0-.236.135-.177.112.156-.043.234-.135.177" transform="translate(-206.025 -59.645)" fill="#6e3939"/>
  </g>
</svg>
