<svg xmlns="http://www.w3.org/2000/svg" xmlns:xlink="http://www.w3.org/1999/xlink" width="129.063" height="73.648" viewBox="0 0 129.063 73.648">
  <defs>
    <clipPath id="clip-path">
      <rect id="Rectangle_412164" data-name="Rectangle 412164" width="73.648" height="73.648" fill="none"/>
    </clipPath>
  </defs>
  <g id="Group_1213508" data-name="Group 1213508" transform="translate(-788.103 -1992.294)">
    <g id="Group_1201007" data-name="Group 1201007">
      <g id="Rectangle_410589" data-name="Rectangle 410589" transform="translate(788.103 2007.607)" fill="#d3af82" stroke="#93795a" stroke-width="1">
        <rect width="129.063" height="43.021" rx="8" stroke="none"/>
        <rect x="0.5" y="0.5" width="128.063" height="42.021" rx="7.5" fill="none"/>
      </g>
    </g>
    <g id="Group_1213732" data-name="Group 1213732" transform="translate(815.81 1992.294)">
      <g id="Group_1213731" data-name="Group 1213731" clip-path="url(#clip-path)">
        <path id="Path_1261448" data-name="Path 1261448" d="M73.648,36.824A36.824,36.824,0,1,1,36.824,0,36.824,36.824,0,0,1,73.648,36.824m-2.2,0A34.625,34.625,0,1,0,36.825,71.449,34.625,34.625,0,0,0,71.45,36.824" fill="#060405"/>
        <path id="Path_1261449" data-name="Path 1261449" d="M82.4,47.766A34.625,34.625,0,1,1,47.772,13.141,34.625,34.625,0,0,1,82.4,47.766M51.606,18.673a14.865,14.865,0,0,1-2.163-.166,1.066,1.066,0,0,0-1.056-1.1,29.743,29.743,0,0,0-12.058,2.2,1.139,1.139,0,0,0-.658,1.646L63.633,72.32c.435.795,1.257.582,1.855.148A30.4,30.4,0,0,0,52.9,17.817a1.134,1.134,0,0,0-1.3.856M59.834,74.2l-27.8-50.778c-.306-.559-.974-1.037-1.516-.663a30.388,30.388,0,0,0,28.775,53.13,1.14,1.14,0,0,0,.542-1.689" transform="translate(-10.947 -10.942)" fill="#fb5871"/>
        <path id="Path_1261450" data-name="Path 1261450" d="M160.762,39.686a1.143,1.143,0,0,1-1.174,1.081,27.635,27.635,0,0,0-10.1,1.676l7.245,13.149a6.936,6.936,0,0,1,4.349-4.393c3.616-1.156,2.487-4.144,4.411-3.61,1.836.51-.021,4.417-3.576,5.627a4,4,0,0,0-2.762,2.569c4.684-.833,9.321-.689,13.127,2.133a7.483,7.483,0,0,0,1.38-9.064,1.083,1.083,0,0,1,.6-1.428,1.117,1.117,0,0,1,1.415.615,9.619,9.619,0,0,1-1.905,11.486l1.092,1.968A9.606,9.606,0,0,1,185.6,66.368a1.058,1.058,0,0,1-.488,1.4,1.1,1.1,0,0,1-1.47-.465,7.437,7.437,0,0,0-8.3-3.665c.367,4.725-2.139,8.777-5.364,12.175a4.166,4.166,0,0,0,3.723-.956,6.68,6.68,0,0,1,5.722-1.292,1.115,1.115,0,0,1,.931,1.311,1.1,1.1,0,0,1-1.416.839c-4.09-1.016-3.923,3.259-9.96,2.282l7.276,13.319a28.193,28.193,0,0,0-12.366-50.152,1.187,1.187,0,0,1-.96-1.313,1.134,1.134,0,0,1,1.3-.856,30.4,30.4,0,0,1,12.585,54.651c-.6.434-1.42.647-1.855-.148L146.99,42.436a1.139,1.139,0,0,1,.658-1.646,29.743,29.743,0,0,1,12.058-2.2,1.066,1.066,0,0,1,1.056,1.1m5.67,21.578a23.04,23.04,0,0,1,4,10.442c2.483-2.647,4.247-8.837.866-11.465-1.3-2.071-6-2.966-8.53-2.649a35.856,35.856,0,0,1,3.666,3.672m-5.454,2.029a16.064,16.064,0,0,0,1.291,2.445l3.208-1.683c-.25-.823-.91-1.273-1.4-1.944a14.75,14.75,0,0,0-4.509-4.011c-.385-.225-1.005.119-1.344.265Zm5.579,2.7-3.222,1.753,4.063,7.387c2.162-.358-.024-8.011-.84-9.141" transform="translate(-122.266 -32.122)" fill="#060505"/>
        <path id="Path_1261451" data-name="Path 1261451" d="M80.933,121.428a1.14,1.14,0,0,1-.542,1.689,30.388,30.388,0,0,1-28.775-53.13c.542-.374,1.21.1,1.516.663ZM58.992,109.066A1.1,1.1,0,0,1,60,108.083a23.517,23.517,0,0,0,9.906-2.176l-4.377-8.031-13.069,7.11A7.379,7.379,0,0,0,56,107.378a1.38,1.38,0,0,1,.958,1.463c-.86.894-.929.852-2.051.449a8.866,8.866,0,0,1-5.945-9.964c.6-3.634,2.475-6.392,4.868-9.133a3.945,3.945,0,0,0-1.9.533,7.126,7.126,0,0,1-6.718-.215,1.131,1.131,0,0,1-.545-1.434,1.094,1.094,0,0,1,1.565-.5,4.926,4.926,0,0,0,4.679.2,7.313,7.313,0,0,1,5.117-.617l2.613-1.992a4.215,4.215,0,0,0-2.446-.937,7.087,7.087,0,0,1-5.867-3.966,1.039,1.039,0,0,1,.513-1.351,1.169,1.169,0,0,1,1.382.307,5.184,5.184,0,0,0,5.2,2.833L51.721,72.62a28.2,28.2,0,0,0,26.747,48.893L72.107,109.9a20.106,20.106,0,0,1-1.329,1.915,5.089,5.089,0,0,0-.856,4.688,1.1,1.1,0,0,1-.705,1.3,1.079,1.079,0,0,1-1.382-.711,7.137,7.137,0,0,1,1.326-6.758,4.5,4.5,0,0,0,1.069-2.124c-.985.311-1.783.7-2.748.939a7.388,7.388,0,0,1-3.35,4.005c-3.275,1.97-1.581,4.941-3.394,5.073a1.08,1.08,0,0,1-1.169-1.017,7.092,7.092,0,0,1,3.478-5.979,3.437,3.437,0,0,0,1.463-1.329c-1.42.049-5.665,1.215-5.517-.841M51.3,102.36c.015.2-.074.5.175.648l12.965-7.052a16.146,16.146,0,0,0-1.429-2.506c-.829-1.837-1.859-3.553-2.917-5.522-4.447,2.688-10.042,8.89-8.794,14.433" transform="translate(-32.047 -58.166)" fill="#060505"/>
        <path id="Path_1261452" data-name="Path 1261452" d="M268.817,168.051c3.381,2.628,1.617,8.818-.866,11.465a23.039,23.039,0,0,0-4-10.442,24.272,24.272,0,0,1,4.864-1.023" transform="translate(-219.787 -139.932)" fill="#63667c"/>
        <path id="Path_1261453" data-name="Path 1261453" d="M250.574,154.558a24.274,24.274,0,0,0-4.864,1.023,35.874,35.874,0,0,0-3.666-3.672c2.533-.317,7.227.578,8.53,2.649" transform="translate(-201.544 -126.439)" fill="#393c4f"/>
        <path id="Path_1261454" data-name="Path 1261454" d="M126.739,210.868a16.148,16.148,0,0,1,1.429,2.506L115.2,220.426c-.248-.144-.16-.452-.175-.648a33.255,33.255,0,0,1,5.554-5.019,41.862,41.862,0,0,1,6.157-3.892" transform="translate(-95.778 -175.584)" fill="#6ec296"/>
        <path id="Path_1261455" data-name="Path 1261455" d="M176.112,45.375a1.187,1.187,0,0,0,.96,1.313A28.193,28.193,0,0,1,189.438,96.84l-7.276-13.32c6.037.977,5.871-3.3,9.96-2.282a1.1,1.1,0,0,0,1.416-.839,1.115,1.115,0,0,0-.931-1.311,6.679,6.679,0,0,0-5.721,1.292,4.165,4.165,0,0,1-3.723.956c3.225-3.4,5.731-7.449,5.364-12.175a7.437,7.437,0,0,1,8.3,3.666,1.1,1.1,0,0,0,1.469.465,1.059,1.059,0,0,0,.489-1.4,9.605,9.605,0,0,0-10.736-4.874l-1.092-1.968a9.618,9.618,0,0,0,1.905-11.486,1.117,1.117,0,0,0-1.415-.615,1.083,1.083,0,0,0-.6,1.428,7.483,7.483,0,0,1-1.38,9.064c-3.806-2.822-8.443-2.966-13.126-2.133a4,4,0,0,1,2.761-2.569c3.554-1.211,5.412-5.118,3.576-5.627-1.924-.534-.8,2.454-4.411,3.61a6.936,6.936,0,0,0-4.348,4.393l-7.245-13.149a27.631,27.631,0,0,1,10.1-1.676,1.144,1.144,0,0,0,1.175-1.081,14.89,14.89,0,0,0,2.163.166" transform="translate(-135.453 -37.644)" fill="#fbfbfb"/>
        <path id="Path_1261456" data-name="Path 1261456" d="M248.666,202.417c.816,1.13,3,8.783.84,9.141l-4.063-7.387Z" transform="translate(-204.375 -168.547)" fill="#6ec194"/>
        <path id="Path_1261457" data-name="Path 1261457" d="M220.755,158.9l-3.1,1.183-2.754-4.929c.339-.146.959-.489,1.344-.265a14.75,14.75,0,0,1,4.509,4.011" transform="translate(-178.943 -128.906)" fill="#329e98"/>
        <path id="Path_1261458" data-name="Path 1261458" d="M234.459,179.225c.49.671,1.15,1.121,1.4,1.944l-3.208,1.683a16.065,16.065,0,0,1-1.291-2.445Z" transform="translate(-192.647 -149.236)" fill="#6dc195"/>
        <path id="Path_1261459" data-name="Path 1261459" d="M67.854,122.6l2.034.225c-.148,2.056,4.1.89,5.517.841a3.437,3.437,0,0,1-1.463,1.329,7.093,7.093,0,0,0-3.478,5.979,1.081,1.081,0,0,0,1.169,1.017c1.813-.132.119-3.1,3.394-5.073a7.389,7.389,0,0,0,3.35-4.005c.966-.244,1.764-.628,2.748-.939a4.5,4.5,0,0,1-1.068,2.124,7.136,7.136,0,0,0-1.326,6.758,1.079,1.079,0,0,0,1.383.711,1.1,1.1,0,0,0,.705-1.3,5.089,5.089,0,0,1,.856-4.688A20.1,20.1,0,0,0,83,123.664l6.361,11.608A28.2,28.2,0,0,1,62.618,86.379L68.308,96.8a5.184,5.184,0,0,1-5.2-2.833,1.169,1.169,0,0,0-1.382-.307,1.039,1.039,0,0,0-.513,1.351,7.087,7.087,0,0,0,5.867,3.966,4.217,4.217,0,0,1,2.446.938l-2.613,1.992a7.313,7.313,0,0,0-5.117.617,4.926,4.926,0,0,1-4.679-.2,1.094,1.094,0,0,0-1.565.5,1.131,1.131,0,0,0,.545,1.434,7.126,7.126,0,0,0,6.718.215,3.945,3.945,0,0,1,1.9-.533c-2.393,2.74-4.267,5.5-4.868,9.133a8.866,8.866,0,0,0,5.945,9.964c1.122.4,1.191.445,2.051-.449" transform="translate(-42.944 -71.925)" fill="#fbfbfb"/>
        <path id="Path_1261460" data-name="Path 1261460" d="M128.547,248.507l-2.034-.225a1.38,1.38,0,0,0-.959-1.463,7.38,7.38,0,0,1-3.535-2.392l13.069-7.11,4.377,8.031a23.516,23.516,0,0,1-9.905,2.176,1.1,1.1,0,0,0-1.012.983" transform="translate(-101.602 -197.608)" fill="#6fc497"/>
        <path id="Path_1261461" data-name="Path 1261461" d="M125.876,183.388a41.865,41.865,0,0,0-6.157,3.892,33.254,33.254,0,0,0-5.554,5.019c-1.247-5.542,4.348-11.745,8.794-14.433,1.057,1.969,2.088,3.686,2.917,5.522" transform="translate(-94.915 -148.104)" fill="#33a19b"/>
      </g>
    </g>
  </g>
</svg>
