<svg xmlns="http://www.w3.org/2000/svg" xmlns:xlink="http://www.w3.org/1999/xlink" width="129.063" height="84.574" viewBox="0 0 129.063 84.574">
  <defs>
    <clipPath id="clip-path">
      <rect id="Rectangle_412152" data-name="Rectangle 412152" width="84.668" height="84.574" fill="none"/>
    </clipPath>
  </defs>
  <g id="Group_1201389" data-name="Group 1201389" transform="translate(-788.103 -1980.054)">
    <g id="Group_1201007" data-name="Group 1201007">
      <g id="Rectangle_410589" data-name="Rectangle 410589" transform="translate(788.103 2007.607)" fill="#d3af82" stroke="#93795a" stroke-width="1">
        <rect width="129.063" height="43.021" rx="8" stroke="none"/>
        <rect x="0.5" y="0.5" width="128.063" height="42.021" rx="7.5" fill="none"/>
      </g>
    </g>
    <g id="Group_1213722" data-name="Group 1213722" transform="translate(810.3 1980.054)">
      <g id="Group_1213721" data-name="Group 1213721" clip-path="url(#clip-path)">
        <path id="Path_1261358" data-name="Path 1261358" d="M21.173,14.034a.758.758,0,0,1-.317.455,9.1,9.1,0,0,0-3.7,7.805,9.739,9.739,0,0,0,4.2,7.289,7.659,7.659,0,0,1-6.1-3.993,7.777,7.777,0,0,1,.023-7.7c-.418-.211-.636-.573-.925-.691.094-.76,1.326-1.515,1.2-2.064.472.31.659.726,1.151.981a7.38,7.38,0,0,1,4.468-2.085" transform="translate(-11.509 -11.335)" fill="#d9b57c"/>
        <path id="Path_1261359" data-name="Path 1261359" d="M33.518,29.387a9.738,9.738,0,0,1-4.2-7.289,9.1,9.1,0,0,1,3.7-7.805.758.758,0,0,0,.317-.455,7.823,7.823,0,1,1,.178,15.549m-.485-9.029h-2.49v2.49h2.49Zm4.971,0h-2.49V22.85H38Z" transform="translate(-23.675 -11.139)" fill="#e4ca9e"/>
        <path id="Path_1261360" data-name="Path 1261360" d="M108.874,70.386l-4.846-3.162.8-2.452c1.6,1.142,3.237,1.966,4.691,3.189.748.63.044,1.947-.642,2.425" transform="translate(-84.02 -52.314)" fill="#f7f7f7"/>
        <path id="Path_1261361" data-name="Path 1261361" d="M93.824,92.329a1.278,1.278,0,0,1-1.96.572l-4.274-2.795,1.839-1.79,4.766,3.2c.129.207-.27.6-.37.813" transform="translate(-70.742 -71.33)" fill="#f7f7f7"/>
        <rect id="Rectangle_412150" data-name="Rectangle 412150" width="2.49" height="2.491" transform="translate(11.839 9.219)" fill="#fcfcfc"/>
        <rect id="Rectangle_412151" data-name="Rectangle 412151" width="2.49" height="2.49" transform="translate(6.868 9.219)" fill="#fcfcfc"/>
        <path id="Path_1261362" data-name="Path 1261362" d="M84.619,76.466l-51.767,0a19.767,19.767,0,0,1-5.78,5.585l45.813.025a9.827,9.827,0,0,1,.064,2.431L.088,84.574a12.74,12.74,0,0,1-.041-2.526l4.038-.012c1.632,0,3.225.119,5.016-.02a24.2,24.2,0,0,1-4.852-3.977c-.384-.359-.494-1.353-1.185-1.494a22.687,22.687,0,0,0-3.014-.079,18.71,18.71,0,0,1,0-2.459l1.728-.1A18.075,18.075,0,0,1,4,55.734,12.894,12.894,0,0,1,6.272,35.813a12.725,12.725,0,0,1,11.722-.975,13.391,13.391,0,0,1,7.293,7.775,8.173,8.173,0,0,1,8.12,1.55c2.351,2.053,2.785,5.205,2.412,8.018,3.06,2.04,5.6,4.726,6.4,8.471A12.874,12.874,0,0,1,37.471,73.9a26.913,26.913,0,0,0,3.474.069,6.43,6.43,0,0,0,.078-1.141l4.735-3.288.006-18.459L56.3,41.706c-3.259-1.432-6.149-4.911-9.424-5.721-3.143-.778-4.176-2.1-6.312-4.14C36.3,27.773,30.416,25.32,25.7,21.5c-1.2,2.512-3.57,3.643-5.688,2.275L14.357,20.12a10.268,10.268,0,0,1-11.9-3.355A10.126,10.126,0,0,1,1.669,5.321c.466.229.758.375,1.177.546.289.118.508.48.925.691a7.778,7.778,0,0,0-.023,7.7,7.659,7.659,0,0,0,6.1,3.993A7.823,7.823,0,1,0,9.665,2.7,7.381,7.381,0,0,0,5.2,4.784c-.491-.254-.678-.671-1.151-.981L3.471,3A10,10,0,0,1,12.991.466,10.191,10.191,0,0,1,20.879,9.5l5.883,3.938c2.039,1.365,2.023,4.119.226,6.023l15.054,9.963,11.677-3.473a23.574,23.574,0,0,0,3.947-3.522c.422-1.269,0-2.845.939-4.111a5.685,5.685,0,0,1-3.882-5.864A15.864,15.864,0,0,0,54.683,9.9l-7.317-.064a12.271,12.271,0,0,1,.008-2.468l6.831.025L55.906,0,64.47.044l1.652,7.385,6.8.135a7.687,7.687,0,0,1,0,2.4H65.561l-.073,4.564A7.118,7.118,0,0,1,71.843,21.7l-.295,27.161L84.5,57.4a9.585,9.585,0,0,1-1.33,2.071L71.622,51.922a7.328,7.328,0,0,0-.087,2.475l8.832,10.95a3.67,3.67,0,0,1-.59,5.106l-4.209,3.486,9.051.052a18.134,18.134,0,0,1,0,2.475M59.656,7.416l3.873.016L62.514,2.538a17.307,17.307,0,0,0-1.869,0,12.359,12.359,0,0,0-2.773.036L56.771,7.4Zm1.2,8.26,2.107-.926L63,10.028a16.611,16.611,0,0,0-2.8-.075,29.337,29.337,0,0,0-2.966.014c.029,1.192-.1,2.267.012,3.415a2.651,2.651,0,0,0,3.609,2.293m-36,2.4c.686-.477,1.39-1.8.642-2.425-1.454-1.223-3.089-2.047-4.691-3.189l-.8,2.452ZM23.081,21c.1-.213.5-.606.37-.813l-4.766-3.2-1.839,1.79,4.274,2.795A1.278,1.278,0,0,0,23.081,21M69.3,25.428l.063-3.748a4.548,4.548,0,0,0-3.56-4.526A4.361,4.361,0,0,0,60.613,20a3.882,3.882,0,0,1,5.527-.091A3.817,3.817,0,0,1,65.9,25.4a13.188,13.188,0,0,0,3.4.033M50.912,32.1l5.164-1.7c2.941-2.09,5.4-4.695,8.214-6.94a1.293,1.293,0,0,0,.086-1.794,1.188,1.188,0,0,0-1.655-.108l-7.814,6.578c-1.253,1.055-3.3.748-4.792,1.621a8.364,8.364,0,0,0,.8,2.341m.24,24.122a4.687,4.687,0,0,0,1.137.005l.158-.983L62.1,46.068c.275-.717-.035-1.643.037-2.292.087-.778-.053-1.583.1-2.42.092-.147.549-.176.823-.149a7.947,7.947,0,0,1,1.6.121l0,14.962a14.542,14.542,0,0,0,1.554,1.9l3.025-2.412a5.3,5.3,0,0,1-.211-1.03l.243-26.757c-2.09-.034-4.051-.093-6.167.033a1.111,1.111,0,0,0-.681.294l-2.191,1.907L60.12,41.765,48.305,52.125l-.024,4.1a21.3,21.3,0,0,0,2.87-.005M48.4,32.654,47.629,30.4l-3.956,1.178a3.675,3.675,0,0,0,4.728,1.08m9.209,7.02.112-7.127-7.4,2.3ZM11.57,36.486A10.288,10.288,0,0,0,5.65,53.828l2.008-1.536c-3.432-3.213-2.789-7.307-.583-10.78A7.9,7.9,0,0,1,20.6,48.986a15.087,15.087,0,0,0,2.363.583A10.293,10.293,0,0,0,11.57,36.486m6.417,12.387a5.4,5.4,0,0,0-2.528-7,5.358,5.358,0,0,0-5.641,9.051,18.435,18.435,0,0,1,8.169-2.05M25.38,50.52a17.978,17.978,0,0,1,5.61,3.97,5.354,5.354,0,0,0-5.19-9.345,16.444,16.444,0,0,1-.419,5.374M69.707,73.984l1.536-5.555L62.2,57.23l-.1-7.678-7.257,6.814-.011,15.5a7.584,7.584,0,0,1-.176,2.08ZM14.638,51.862c-.141.033-.318.01-.385.175a1.645,1.645,0,0,0-.359.019,14.4,14.4,0,0,0-10.28,9.579,15.27,15.27,0,1,0,29.356,1.948A14.772,14.772,0,0,0,25.9,53.529a15.648,15.648,0,0,0-11.26-1.667M34.889,72.548a10.277,10.277,0,0,0-.337-18.023,20.228,20.228,0,0,1-1.938,1.966,18.318,18.318,0,0,1,2.275,16.056m43.361-4.082a1.26,1.26,0,0,0,.121-1.676l-7.458-9.142a36.836,36.836,0,0,0-3.076,2.6l6.111,7.588-1.357,5.209ZM48.662,73.937c.919-.026,3.68.527,3.679-1.11l-.008-13.954c-.3-.225-.768-.059-1.162-.073a18.059,18.059,0,0,0-2.9.013l-.028,12.05L43.916,73.9Z" transform="translate(0)" fill="#060504"/>
        <path id="Path_1261363" data-name="Path 1261363" d="M327.887,158.572l.045-13.18c2.116-.126,4.078-.066,6.167-.033l-.243,26.757a5.291,5.291,0,0,0,.211,1.029l-3.025,2.413a14.559,14.559,0,0,1-1.553-1.9l-.005-14.962a7.93,7.93,0,0,0-1.6-.121" transform="translate(-264.822 -117.366)" fill="#fc6846"/>
        <path id="Path_1261364" data-name="Path 1261364" d="M265.853,145.714l-.045,13.181c-.274-.027-.731,0-.823.149-.157.837-.017,1.642-.1,2.42l-10.963,9.429-.024,3.014a21.335,21.335,0,0,1-2.87.005l.024-4.1,11.814-10.36.118-11.537,2.191-1.907a1.111,1.111,0,0,1,.681-.294" transform="translate(-202.743 -117.688)" fill="#fa3502"/>
        <path id="Path_1261365" data-name="Path 1261365" d="M235.582,305.483l-.072,12.911c0,.762-2.421,1.675-2.438,2.227l-4.746-.032,4.326-3.043.028-12.05a18.083,18.083,0,0,1,2.9-.013" transform="translate(-184.411 -246.683)" fill="#e7c81c"/>
        <path id="Path_1261366" data-name="Path 1261366" d="M261.354,121.417a8.364,8.364,0,0,1-.8-2.341c1.495-.872,3.539-.566,4.792-1.621l7.814-6.578a1.188,1.188,0,0,1,1.655.108,1.293,1.293,0,0,1-.086,1.794c-2.818,2.245-5.273,4.85-8.214,6.94Z" transform="translate(-210.442 -89.32)" fill="#f7f7f7"/>
        <path id="Path_1261367" data-name="Path 1261367" d="M276.935,227.6c-.073.649.238,1.574-.037,2.292l-9.655,9.173-.158.983a4.687,4.687,0,0,1-1.137-.005l.024-3.014Z" transform="translate(-214.796 -183.825)" fill="#fc6846"/>
        <path id="Path_1261368" data-name="Path 1261368" d="M268.921,176.343l-7.288-4.827,7.4-2.3Z" transform="translate(-211.311 -136.67)" fill="#f7f7f7"/>
        <path id="Path_1261369" data-name="Path 1261369" d="M253,320.655c.017-.551,2.434-1.464,2.438-2.227l.072-12.911c.393.014.864-.152,1.162.073l.008,13.954c0,1.637-2.76,1.085-3.679,1.11" transform="translate(-204.339 -246.718)" fill="#f7dd1c"/>
        <path id="Path_1261370" data-name="Path 1261370" d="M300.4,51.616c-.07,1.3-.448,2.766.029,4.043l.627,1.679a2.651,2.651,0,0,1-3.609-2.293c-.108-1.148.017-2.223-.012-3.415a29.341,29.341,0,0,1,2.966-.014" transform="translate(-240.2 -41.663)" fill="#f5a57f"/>
        <path id="Path_1261371" data-name="Path 1261371" d="M310.163,17.934l.988-4.88a17.306,17.306,0,0,1,1.869,0l1.015,4.894Z" transform="translate(-250.507 -10.518)" fill="#e1c89c"/>
        <path id="Path_1261372" data-name="Path 1261372" d="M299.036,12.912l-.988,4.88-2.885-.017,1.1-4.828a12.357,12.357,0,0,1,2.773-.036" transform="translate(-238.392 -10.376)" fill="#d8b47b"/>
        <path id="Path_1261373" data-name="Path 1261373" d="M312.771,57.38l-.627-1.679c-.477-1.278-.1-2.74-.029-4.043a16.612,16.612,0,0,1,2.8.075l-.036,4.722Z" transform="translate(-251.915 -41.705)" fill="#fbcbb4"/>
        <path id="Path_1261374" data-name="Path 1261374" d="M231.791,160.292a3.675,3.675,0,0,1-4.728-1.08l3.956-1.178Z" transform="translate(-183.39 -127.638)" fill="#fbcbb4"/>
        <path id="Path_1261375" data-name="Path 1261375" d="M323.825,96.986a13.18,13.18,0,0,1-3.4-.033,3.817,3.817,0,0,0,.235-5.487,3.881,3.881,0,0,0-5.527.091,4.361,4.361,0,0,1,5.191-2.845,4.548,4.548,0,0,1,3.56,4.526Z" transform="translate(-254.524 -71.558)" fill="#f7f7f7"/>
        <path id="Path_1261376" data-name="Path 1261376" d="M363.115,310.542l-5.658,4.583,1.357-5.209-6.111-7.588a36.845,36.845,0,0,1,3.076-2.6l7.458,9.142a1.26,1.26,0,0,1-.121,1.676" transform="translate(-284.865 -242.076)" fill="#f7dd1c"/>
        <path id="Path_1261377" data-name="Path 1261377" d="M198.3,397.562l0,5.584-9.129.037-.049,2.415-2.493.008a9.838,9.838,0,0,0-.064-2.431l-45.813-.025a19.766,19.766,0,0,0,5.78-5.585Z" transform="translate(-113.68 -321.096)" fill="#e4ca9e"/>
        <path id="Path_1261378" data-name="Path 1261378" d="M401.419,426.6a15.318,15.318,0,0,1-.023,2.51l-9.155-.059.049-2.415Z" transform="translate(-316.798 -344.546)" fill="#060504"/>
        <path id="Path_1261379" data-name="Path 1261379" d="M4.444,399.058l-.164,4-4.037.012,0-5.582a22.694,22.694,0,0,1,3.014.079c.691.141.8,1.135,1.185,1.494" transform="translate(-0.195 -321.019)" fill="#d9b57c"/>
        <path id="Path_1261380" data-name="Path 1261380" d="M21.233,409.738l.164-4a24.2,24.2,0,0,0,4.852,3.977c-1.791.139-3.384.016-5.016.02" transform="translate(-17.149 -327.701)" fill="#dfc69a"/>
        <path id="Path_1261381" data-name="Path 1261381" d="M46.588,297.567c-.016-.3-.283-.431-.576-.6a17.106,17.106,0,0,1-5.874-5.877.465.465,0,0,1,.042-.511,12.808,12.808,0,1,0,.018-15.624c-.177.151-.239,0-.178-.19a16.318,16.318,0,0,1,5.723-6.023c.264-.165.444-.323.454-.581a1.644,1.644,0,0,1,.359-.019c.156,0,.38.045.385-.175a15.647,15.647,0,0,1,11.26,1.667,14.772,14.772,0,0,1,7.072,10.054,15.229,15.229,0,0,1-18.686,17.881" transform="translate(-32.305 -216.103)" fill="#dfc69a"/>
        <path id="Path_1261382" data-name="Path 1261382" d="M50.39,222.3a18.433,18.433,0,0,0-8.169,2.05,5.358,5.358,0,0,1,5.641-9.051,5.4,5.4,0,0,1,2.528,7" transform="translate(-32.403 -173.423)" fill="#e1c89c"/>
        <path id="Path_1261383" data-name="Path 1261383" d="M25.5,270.651c-.011.258-.19.417-.454.581a16.32,16.32,0,0,0-5.723,6.023c-.061.186,0,.341.178.19a12.808,12.808,0,0,0-.018,15.623.465.465,0,0,0-.042.512,17.1,17.1,0,0,0,5.874,5.876c.293.172.56.3.576.6a15.257,15.257,0,0,1-10.67-19.829,14.4,14.4,0,0,1,10.28-9.579" transform="translate(-11.604 -218.595)" fill="#d8b47b"/>
        <path id="Path_1261384" data-name="Path 1261384" d="M171.842,301.512a18.318,18.318,0,0,0-2.275-16.056,20.229,20.229,0,0,0,1.938-1.966,10.277,10.277,0,0,1,.337,18.023" transform="translate(-136.953 -228.963)" fill="#e1c89c"/>
        <path id="Path_1261385" data-name="Path 1261385" d="M131.956,237.87a16.448,16.448,0,0,0,.419-5.374,5.354,5.354,0,0,1,5.19,9.345,17.979,17.979,0,0,0-5.61-3.97" transform="translate(-106.576 -187.35)" fill="#e1c89c"/>
        <path id="Path_1261386" data-name="Path 1261386" d="M36.785,194.239c1.16-1.825,2.221-3.954,4.495-5.027A10.293,10.293,0,0,1,52.669,202.3a15.094,15.094,0,0,1-2.363-.583,7.9,7.9,0,0,0-13.521-7.474" transform="translate(-29.71 -152.726)" fill="#dfc69a"/>
        <path id="Path_1261387" data-name="Path 1261387" d="M23.106,189.7c-2.274,1.073-3.335,3.2-4.495,5.027-2.207,3.472-2.849,7.566.583,10.78l-2.008,1.536A10.288,10.288,0,0,1,23.106,189.7" transform="translate(-11.536 -153.212)" fill="#d8b47b"/>
        <path id="Path_1261388" data-name="Path 1261388" d="M74.487,269.64c0,.221-.228.178-.385.175.067-.165.244-.142.385-.175" transform="translate(-59.849 -217.778)" fill="#d8b47b"/>
        <path id="Path_1261389" data-name="Path 1261389" d="M52.788,292.868a12.808,12.808,0,1,0-12.808,12.808,12.808,12.808,0,0,0,12.808-12.808m-2.484,0a10.323,10.323,0,1,0-10.323,10.323A10.323,10.323,0,0,0,50.3,292.864" transform="translate(-21.947 -226.194)" fill="#060504"/>
        <path id="Path_1261390" data-name="Path 1261390" d="M60.742,303.28a10.323,10.323,0,1,1-10.323-10.323A10.323,10.323,0,0,1,60.742,303.28m-2.48,0a7.844,7.844,0,1,0-7.844,7.844,7.844,7.844,0,0,0,7.844-7.844" transform="translate(-32.384 -236.61)" fill="#dfc69a"/>
        <path id="Path_1261391" data-name="Path 1261391" d="M68.666,313.715a7.844,7.844,0,1,1-7.844-7.844,7.844,7.844,0,0,1,7.844,7.844m-7.939,5.359a5.362,5.362,0,1,0-5.267-5.36,5.362,5.362,0,0,0,5.267,5.36" transform="translate(-42.788 -247.041)" fill="#060504"/>
        <path id="Path_1261392" data-name="Path 1261392" d="M83.292,329.486c.02-.3-.209-.463-.449-.7a6.6,6.6,0,0,1,.079-9.4c.209-.2.365-.348.367-.623a5.362,5.362,0,1,1,0,10.723" transform="translate(-65.354 -257.452)" fill="#e4ca9e"/>
        <path id="Path_1261393" data-name="Path 1261393" d="M71.145,318.767c0,.275-.158.42-.367.623a6.6,6.6,0,0,0-.079,9.4c.241.241.469.4.45.7a5.362,5.362,0,0,1,0-10.723" transform="translate(-53.21 -257.456)" fill="#d9b57c"/>
      </g>
    </g>
  </g>
</svg>
