<svg id="Group_1213601" data-name="Group 1213601" xmlns="http://www.w3.org/2000/svg" xmlns:xlink="http://www.w3.org/1999/xlink" width="109.179" height="88.762" viewBox="0 0 109.179 88.762">
  <defs>
    <clipPath id="clip-path">
      <rect id="Rectangle_411998" data-name="Rectangle 411998" width="109.179" height="88.763" fill="none"/>
    </clipPath>
  </defs>
  <g id="Group_1213600" data-name="Group 1213600" clip-path="url(#clip-path)">
    <path id="Path_1260713" data-name="Path 1260713" d="M6.8,73.332,6.8,51.208l8.71,0a1.428,1.428,0,0,0,1.26-.747L30.69,22.646l2.352,4.4L52.258,31.9l-2.27,5.647-16.133.022a1.479,1.479,0,0,0-1.411,1.3L30.776,67.834c-.175,3.04-1.914,5.405-5.127,5.495a1.758,1.758,0,0,0-1.759,1.994l.043,21.807a10.53,10.53,0,0,1-3.414.01l-.01-22.071a1.694,1.694,0,0,0-1.754-1.725Z" transform="translate(-5.109 -17.025)" fill="#945252"/>
    <path id="Path_1260714" data-name="Path 1260714" d="M6.736,266.327l.014-25.565,10.256.007V266.33Z" transform="translate(-5.064 -180.998)" fill="#9fd368"/>
    <path id="Path_1260715" data-name="Path 1260715" d="M28.212,61.6a9.6,9.6,0,0,1-3,0l10.1-20.257a5.934,5.934,0,0,1,2.957.057Z" transform="translate(-18.954 -30.956)" fill="#626a74"/>
    <rect id="Rectangle_411997" data-name="Rectangle 411997" width="3.415" height="1.72" transform="translate(15.404 83.619)" fill="#616873"/>
    <path id="Path_1260716" data-name="Path 1260716" d="M107.471,52.923,28.882,52.9a8.7,8.7,0,0,1-6.7,6.689L22.2,85.344l85.311-.016a1.669,1.669,0,0,1,1.666,1.639,1.714,1.714,0,0,1-1.772,1.8H1.783A1.709,1.709,0,0,1,.016,87.179a1.657,1.657,0,0,1,1.657-1.85l10.271,0V59.771L1.686,59.764a1.773,1.773,0,0,1-1.68-1.621,1.736,1.736,0,0,1,1.681-1.835l11.958.01A1.694,1.694,0,0,1,15.4,58.043l.01,22.071a10.537,10.537,0,0,0,3.414-.01L18.782,58.3A1.758,1.758,0,0,1,20.54,56.3c3.214-.09,4.952-2.455,5.127-5.495l1.669-28.965a1.478,1.478,0,0,1,1.411-1.3l16.133-.022,2.27-5.647L27.934,10.024l-2.352-4.4L11.666,33.432a1.428,1.428,0,0,1-1.26.747l-8.71,0A1.8,1.8,0,0,1,0,32.33c.082-1.17.987-1.712,2.344-1.575L13.731,7.995a1.714,1.714,0,0,1,1.648-1.148l5.787-.05L24.172.787A1.651,1.651,0,0,1,25.67,0a1.591,1.591,0,0,1,1.436.863L30.2,7.054l19.445,4.854a1.747,1.747,0,0,1,1.434,2.424l-3.32,8.362a1.611,1.611,0,0,1-1.617,1.222l-15.474.033L29.166,49.5l18.5,0a18.248,18.248,0,0,0-.017-4.241,2.092,2.092,0,0,1-2.631.342,1.657,1.657,0,0,1-.265-2.4l2.7-2.755a1.539,1.539,0,0,0,.083-1.854,1.963,1.963,0,0,1-2.511.309,1.7,1.7,0,0,1-.277-2.405l3.173-3.279c.673-.7,1.844-1.187,2.626-.413L53.9,36.129a1.828,1.828,0,0,1,.159,2.648,1.912,1.912,0,0,1-2.767-.336c-.135.57-.349,1.437.119,1.909L54,42.965a1.752,1.752,0,0,1,.066,2.52,1.923,1.923,0,0,1-2.8-.358,25.323,25.323,0,0,0-.04,4.366l8.451-.008a28.748,28.748,0,0,0-.037-4.291c-.992.787-1.859,1.025-2.681.406a1.744,1.744,0,0,1-.178-2.5c1.627-1.845,3.612-2.751,2.811-4.582a2.038,2.038,0,0,1-2.621.372,1.716,1.716,0,0,1-.2-2.5l3.073-3.141a2.157,2.157,0,0,1,1.573-.824,2.121,2.121,0,0,1,1.575.822l2.96,3A1.781,1.781,0,0,1,66,38.78c-.779.72-1.821.551-2.738-.272-.209.622-.319,1.415.088,1.83L66.06,43.1a1.72,1.72,0,0,1-.053,2.385c-.774.727-1.791.572-2.8-.292a32.777,32.777,0,0,0-.075,4.25l8.478.054a28.337,28.337,0,0,0-.02-4.363,2,2,0,0,1-2.705.454,1.755,1.755,0,0,1-.056-2.626c1.712-1.794,3.45-2.666,2.719-4.514A1.959,1.959,0,0,1,68.9,38.9a1.773,1.773,0,0,1-.075-2.644l2.949-2.982a2.179,2.179,0,0,1,1.558-.841,2.28,2.28,0,0,1,1.712.927l2.945,3.008a1.726,1.726,0,0,1-.055,2.426,1.879,1.879,0,0,1-2.605-.2,1.687,1.687,0,0,0,.415,2.26l2.131,2.091a1.779,1.779,0,0,1,.064,2.561,2.018,2.018,0,0,1-2.75-.242,24.821,24.821,0,0,0-.08,4.206l8.453.032a28.255,28.255,0,0,0-.02-4.4,1.987,1.987,0,0,1-2.612.572c-3.169-2.373,4.192-4.682,2.546-7.235a1.908,1.908,0,0,1-2.646.441,1.742,1.742,0,0,1-.079-2.606l2.958-2.988a2.194,2.194,0,0,1,1.54-.854,2.292,2.292,0,0,1,1.729.909l3.053,3.147a1.691,1.691,0,0,1-.155,2.317,1.91,1.91,0,0,1-2.638-.24c-1.783,2.33,5.305,4.576,2.632,6.954-.8.708-1.81.476-2.766-.291a35.225,35.225,0,0,0-.055,4.235l8.45.048a29.153,29.153,0,0,0-.031-4.406,1.941,1.941,0,0,1-2.71.475c-2.9-2.3,4.316-4.64,2.638-7.135a1.868,1.868,0,0,1-2.764.316,1.812,1.812,0,0,1,.165-2.607l3.345-3.321a1.893,1.893,0,0,1,2.65.351l3.069,3.137a1.723,1.723,0,0,1,.038,2.413,1.876,1.876,0,0,1-2.765-.245c-.19.45-.4,1.359.029,1.805l2.9,3.024a1.632,1.632,0,0,1-.413,2.34,1.975,1.975,0,0,1-2.589-.518A35.031,35.031,0,0,0,99,49.474l8.476.049a1.641,1.641,0,0,1,1.7,1.678,1.708,1.708,0,0,1-1.7,1.722M9.258,30.639l10.063-20.2a5.937,5.937,0,0,0-2.957-.057L6.259,30.638a9.6,9.6,0,0,0,3,0m9.561,52.981H15.4v1.72h3.415Z" transform="translate(0 0)" fill="#040403"/>
    <path id="Path_1260717" data-name="Path 1260717" d="M174.66,213.133l.04,5.1-62.57.052a11.062,11.062,0,0,0,.246,22.122l62.286.028.036,5.1-85.311.016L89.374,219.8a8.7,8.7,0,0,0,6.7-6.689Z" transform="translate(-67.189 -160.21)" fill="#9dd066"/>
    <path id="Path_1260718" data-name="Path 1260718" d="M221.148,247.7l-.015,15.3-62.727-.035c-4.191,0-7.239-3.872-7.213-7.675A7.57,7.57,0,0,1,158.6,247.7Zm-34.291,6.778a1.709,1.709,0,0,0,1.866-1.655,1.678,1.678,0,0,0-1.664-1.748H164.841a1.677,1.677,0,0,0-1.7,1.723,1.659,1.659,0,0,0,1.659,1.655Zm27.426,5.133A1.681,1.681,0,0,0,216,257.777a1.72,1.72,0,0,0-1.834-1.615l-20.321.018a1.714,1.714,0,0,0,0,3.428Z" transform="translate(-113.662 -186.211)" fill="#5c9ae9"/>
    <path id="Path_1260719" data-name="Path 1260719" d="M210.858,233.747a1.727,1.727,0,0,1,1.664,1.841,1.806,1.806,0,0,1-1.689,1.622l-62.547,0a7.57,7.57,0,0,0-7.408,7.592c-.026,3.8,3.021,7.673,7.213,7.675l62.728.035a1.7,1.7,0,0,1,1.693,1.937,1.781,1.781,0,0,1-1.692,1.5l-62.286-.028a11.062,11.062,0,0,1-.246-22.122Z" transform="translate(-103.347 -175.724)" fill="#020202"/>
    <path id="Path_1260720" data-name="Path 1260720" d="M223.038,264.7l-22.058-.023a1.66,1.66,0,0,1-1.659-1.655,1.677,1.677,0,0,1,1.7-1.723H223.24a1.679,1.679,0,0,1,1.664,1.748,1.709,1.709,0,0,1-1.866,1.655" transform="translate(-149.843 -196.434)" fill="#030609"/>
    <path id="Path_1260721" data-name="Path 1260721" d="M338.322,285.242H317.881a1.714,1.714,0,0,1,0-3.428L338.2,281.8a1.72,1.72,0,0,1,1.834,1.615,1.681,1.681,0,0,1-1.715,1.831" transform="translate(-237.701 -211.846)" fill="#010203"/>
  </g>
</svg>
