<svg xmlns="http://www.w3.org/2000/svg" xmlns:xlink="http://www.w3.org/1999/xlink" width="86.109" height="86.109" viewBox="0 0 86.109 86.109">
  <defs>
    <filter id="Path_896985" x="0" y="0" width="86.109" height="86.109" filterUnits="userSpaceOnUse">
      <feOffset dy="3" input="SourceAlpha"/>
      <feGaussianBlur stdDeviation="3" result="blur"/>
      <feFlood flood-opacity="0.161"/>
      <feComposite operator="in" in2="blur"/>
      <feComposite in="SourceGraphic"/>
    </filter>
    <clipPath id="clip-path">
      <rect id="Rectangle_412147" data-name="Rectangle 412147" width="41.242" height="39.852" fill="none"/>
    </clipPath>
  </defs>
  <g id="Group_1212620" data-name="Group 1212620" transform="translate(-337.525 -1965.836)">
    <g id="Group_1212275" data-name="Group 1212275" transform="translate(1 -14867.25)">
      <g id="Group_1198723" data-name="Group 1198723" transform="translate(139.635 12371.764)">
        <g id="Group_1198139" data-name="Group 1198139" transform="translate(205.891 4467.322)">
          <g id="Group_1111318" data-name="Group 1111318" transform="translate(0)">
            <g id="Group_1109826" data-name="Group 1109826" transform="translate(0 0)">
              <g id="Group_1098742" data-name="Group 1098742" transform="translate(0)">
                <g transform="matrix(1, 0, 0, 1, -9, -6)" filter="url(#Path_896985)">
                  <g id="Path_896985-2" data-name="Path 896985" transform="translate(9 6)" fill="#d3af82" opacity="0.859">
                    <path d="M 34.05470275878906 67.6094970703125 C 29.52462196350098 67.6094970703125 25.13032341003418 66.72238159179688 20.99385261535645 64.97280120849609 C 16.99824333190918 63.28280639648438 13.40971279144287 60.86331558227539 10.32794284820557 57.78155517578125 C 7.246182918548584 54.69978332519531 4.826692581176758 51.11125564575195 3.136692762374878 47.11564636230469 C 1.387112736701965 42.97917556762695 0.5000027418136597 38.58487319946289 0.5000027418136597 34.05479431152344 C 0.5000027418136597 29.52469444274902 1.387112736701965 25.13037490844727 3.136692762374878 20.9938850402832 C 4.826692581176758 16.99826431274414 7.246182918548584 13.40972518920898 10.32794284820557 10.32795429229736 C 13.40971279144287 7.246184825897217 16.99824333190918 4.826694488525391 20.99385261535645 3.136694669723511 C 25.13032341003418 1.387114763259888 29.52462196350098 0.5000047087669373 34.05470275878906 0.5000047087669373 C 38.58478164672852 0.5000047087669373 42.97908401489258 1.387114763259888 47.11555099487305 3.136694669723511 C 51.11116409301758 4.826694488525391 54.69969177246094 7.246174812316895 57.78146362304688 10.3279447555542 C 60.86322402954102 13.4097146987915 63.28271102905273 16.99823379516602 64.97270965576172 20.99384498596191 C 66.7222900390625 25.13031387329102 67.60940551757812 29.52461433410645 67.60940551757812 34.05469512939453 C 67.60940551757812 38.58479309082031 66.7222900390625 42.9791145324707 64.97270965576172 47.11560440063477 C 63.28271102905273 51.11122512817383 60.86322402954102 54.69976425170898 57.78146362304688 57.78153610229492 C 54.69969177246094 60.86330413818359 51.11116409301758 63.28280639648438 47.11555099487305 64.97280120849609 C 42.97908401489258 66.72238159179688 38.58478164672852 67.6094970703125 34.05470275878906 67.6094970703125 Z" stroke="none"/>
                    <path d="M 34.05470275878906 0.9999923706054688 C 29.59190368652344 0.9999923706054688 25.26313400268555 1.873817443847656 21.18863296508789 3.597183227539062 C 17.25262451171875 5.261985778808594 13.71751403808594 7.645496368408203 10.68150329589844 10.68150329589844 C 7.645492553710938 13.71752548217773 5.261981964111328 17.25263595581055 3.597190856933594 21.18866348266602 C 1.873825073242188 25.26318359375 1 29.59197616577148 1 34.05479431152344 C 1 38.51759338378906 1.873825073242188 42.84636688232422 3.597190856933594 46.92086410522461 C 5.261981964111328 50.85687255859375 7.645492553710938 54.39198303222656 10.68150329589844 57.42799377441406 C 13.71751403808594 60.46399307250977 17.25262451171875 62.84750366210938 21.18863296508789 64.51229858398438 C 25.26313400268555 66.23566436767578 29.59190368652344 67.10948181152344 34.05470275878906 67.10948181152344 C 38.51750183105469 67.10948181152344 42.84627532958984 66.23566436767578 46.92077255249023 64.51229858398438 C 50.85679244995117 62.84749603271484 54.39189147949219 60.46399307250977 57.42790222167969 57.42798614501953 C 60.46391296386719 54.39196395874023 62.8474235534668 50.85684204101562 64.51221466064453 46.92082214355469 C 66.23558044433594 42.84630584716797 67.10940551757812 38.51751708984375 67.10940551757812 34.05469512939453 C 67.10940551757812 29.59189605712891 66.23558044433594 25.26312637329102 64.51221466064453 21.18862533569336 C 62.8474235534668 17.25261306762695 60.46391296386719 13.71750640869141 57.42790222167969 10.68149566650391 C 54.39189147949219 7.645484924316406 50.85678100585938 5.261974334716797 46.92077255249023 3.597183227539062 C 42.84627532958984 1.873817443847656 38.51750183105469 0.9999923706054688 34.05470275878906 0.9999923706054688 M 34.05470275878906 -7.62939453125e-06 C 52.86259460449219 -7.62939453125e-06 68.10940551757812 15.24680328369141 68.10940551757812 34.05469512939453 L 68.10940551757812 34.05479431152344 C 68.10940551757812 52.86268615722656 52.86259460449219 68.10948181152344 34.05470275878906 68.10948181152344 C 15.24681091308594 68.10948181152344 0 52.86268615722656 0 34.05479431152344 L 0 34.05469512939453 C 0 15.24680328369141 15.24681091308594 -7.62939453125e-06 34.05470275878906 -7.62939453125e-06 Z" stroke="none" fill="#fff"/>
                  </g>
                </g>
                <g id="Rectangle_400907" data-name="Rectangle 400907" transform="translate(0)" fill="none" stroke="#fff" stroke-width="1">
                  <rect width="68.109" height="68.109" rx="34.055" stroke="none"/>
                  <rect x="0.5" y="0.5" width="67.109" height="67.109" rx="33.555" fill="none"/>
                </g>
              </g>
            </g>
          </g>
        </g>
      </g>
    </g>
    <g id="Group_1213718" data-name="Group 1213718" transform="translate(359.959 1985.964)">
      <g id="Group_1213717" data-name="Group 1213717" clip-path="url(#clip-path)">
        <path id="Path_1261326" data-name="Path 1261326" d="M70.888,170.622a3.857,3.857,0,0,1,.841,1.888c.221.782.927.455,2.489.825a8.477,8.477,0,0,1,5.98,11.287.858.858,0,0,0,.33.969,16.988,16.988,0,0,1-.917,1.628l-32.793.026a.71.71,0,0,0-.762.646,5.706,5.706,0,0,1-.928.009,1.856,1.856,0,0,0,.9-1.293,5.848,5.848,0,0,1,3.08-4.027,1.5,1.5,0,0,0,.75-1.614,11.16,11.16,0,0,1,1.386-6.369,10.577,10.577,0,0,1,10.178-5.475,11.375,11.375,0,0,1,6.022,2.487,2.019,2.019,0,0,0,2.925-.228c.2-.221.3-.561.517-.758m-15.881,5.425a.79.79,0,0,0,.488-.744,4.029,4.029,0,0,1,3.765-3.589.719.719,0,0,0,.694-.754.707.707,0,0,0-.872-.613,5.43,5.43,0,0,0-4.939,4.585,3.6,3.6,0,0,0-1.543,5.081.668.668,0,0,0,.929.1.708.708,0,0,0,.2-.873,2.285,2.285,0,0,1,1.279-3.193m14.079,6.385a2.856,2.856,0,0,0,2.283-.187c.238.337.612.621,1.044.375a5.165,5.165,0,0,0,2.594-4.307,2.449,2.449,0,0,0-2.53-2.585,5.15,5.15,0,0,0-5,4.5,2.989,2.989,0,0,0,.226,1.74c-.269.739-1.275,2.414-.121,2.682a.714.714,0,0,0,.808-.579,5.648,5.648,0,0,1,.7-1.638m-6.547-1.485c.542-1.834,2.314-.984,2.308-2.127a.643.643,0,0,0-.62-.663c-2.283.124-3.5,2.262-3.134,4.522a.676.676,0,0,0,.836.573c.885-.192.261-1.125.61-2.3" transform="translate(-40.898 -153.232)" fill="#c59982"/>
        <path id="Path_1261327" data-name="Path 1261327" d="M43.579,137.379c-.222.2-.32.537-.517.758a2.019,2.019,0,0,1-2.925.228,11.374,11.374,0,0,0-6.022-2.487,10.577,10.577,0,0,0-10.178,5.475,11.161,11.161,0,0,0-1.386,6.369,1.5,1.5,0,0,1-.75,1.614,5.847,5.847,0,0,0-3.08,4.027,1.856,1.856,0,0,1-.9,1.293l-1.314.049a1.222,1.222,0,0,0-.272-.586,6.056,6.056,0,0,1-1.223-4.066,5.2,5.2,0,0,1,3.45-4.552c.416-.155.7-.421.618-.9a10.412,10.412,0,0,1,.462-5.492,5.6,5.6,0,0,1,1.823,1.645.686.686,0,0,0,.923.048c1.093-.99-2.094-3.016-2.8-3.321a8.228,8.228,0,0,1,1.122-1.792c.282.079.7.242.927-.014a10.121,10.121,0,0,1,14.6-.324.817.817,0,0,0,.912.253,6.147,6.147,0,0,1,3.192-.434,4.347,4.347,0,0,1,3.333,2.209" transform="translate(-13.589 -119.989)" fill="#deb5a1"/>
        <path id="Path_1261328" data-name="Path 1261328" d="M105.618,138.959a.858.858,0,0,1-.33-.969,8.477,8.477,0,0,0-5.98-11.287c-1.561-.371-2.268-.043-2.489-.825a3.856,3.856,0,0,0-.841-1.888,4.347,4.347,0,0,0-3.333-2.209,6.148,6.148,0,0,0-3.192.434.817.817,0,0,1-.912-.253,10.121,10.121,0,0,0-14.6.324c-.23.256-.645.093-.927.014-.125-.271-.335-.646-.072-.943a11.475,11.475,0,0,1,16.372-.585c3.857-1.307,7.592.4,8.733,4.313a14.127,14.127,0,0,1,1.65.28,8.532,8.532,0,0,1,1.1-2.213c-.623-.947-2.185-1.207-1.709-2.109.561-1.062,2.033.5,2.626,1.047a8.672,8.672,0,0,1,1.408-.955.667.667,0,0,1,.84.334.692.692,0,0,1-.3.915,5.684,5.684,0,0,0-2.624,3.424,9.838,9.838,0,0,1,5.433,12.916c-.115.279-.556.235-.852.236" transform="translate(-65.988 -106.6)" fill="#060505"/>
        <path id="Path_1261329" data-name="Path 1261329" d="M283.244,246.532c.061-.226,0-.6.266-.75a3.77,3.77,0,0,0,1.975-3.367,1.022,1.022,0,0,0-.939-1.009,3.377,3.377,0,0,0-2.515.928,3.085,3.085,0,0,0-1.223,2.1c.624-.534,1.769-2.028,2.414-1.122.711,1-1.213,1.082-2.261,3.407a5.648,5.648,0,0,0-.7,1.638.714.714,0,0,1-.808.579c-1.153-.268-.147-1.943.121-2.682a2.988,2.988,0,0,1-.226-1.74,5.15,5.15,0,0,1,5-4.5,2.449,2.449,0,0,1,2.53,2.585,5.165,5.165,0,0,1-2.594,4.307c-.432.247-.807-.037-1.044-.374" transform="translate(-252.774 -217.519)" fill="#050503"/>
        <path id="Path_1261330" data-name="Path 1261330" d="M122.352,188.241a2.285,2.285,0,0,0-1.279,3.193.708.708,0,0,1-.2.873.668.668,0,0,1-.929-.1,3.6,3.6,0,0,1,1.543-5.081,5.43,5.43,0,0,1,4.939-4.585.707.707,0,0,1,.872.613.719.719,0,0,1-.694.754,4.029,4.029,0,0,0-3.765,3.589.79.79,0,0,1-.488.744" transform="translate(-108.244 -165.426)" fill="#050403"/>
        <path id="Path_1261331" data-name="Path 1261331" d="M303.8,262.257a3.77,3.77,0,0,1-1.975,3.367c-.263.15-.2.525-.266.75a2.856,2.856,0,0,1-2.283.187c1.048-2.325,2.973-2.409,2.261-3.407-.645-.906-1.789.588-2.414,1.122a3.085,3.085,0,0,1,1.223-2.1c.617.268,1.436-.526,2.751-.177.263.07.457.272.7.258" transform="translate(-271.09 -237.362)" fill="#baf48e"/>
        <path id="Path_1261332" data-name="Path 1261332" d="M216.3,268.723c-.349,1.18.275,2.113-.61,2.3a.676.676,0,0,1-.836-.573c-.364-2.26.851-4.4,3.134-4.522a.643.643,0,0,1,.62.663c.006,1.143-1.766.293-2.308,2.127" transform="translate(-194.663 -241.008)" fill="#060404"/>
        <path id="Path_1261333" data-name="Path 1261333" d="M315.623,255.79c-.246.014-.44-.188-.7-.258-1.315-.349-2.134.444-2.751.177a3.378,3.378,0,0,1,2.515-.928,1.022,1.022,0,0,1,.939,1.009" transform="translate(-282.911 -230.894)" fill="#d1f6b7"/>
        <path id="Path_1261334" data-name="Path 1261334" d="M271.653,60.567a.64.64,0,0,1-.9.014.669.669,0,0,1-.105-.931c1.356-1.622-1.211-3.381.039-4a.712.712,0,0,1,.989.4,7.908,7.908,0,0,1,.7,1.93,2.968,2.968,0,0,1-.723,2.595" transform="translate(-244.999 -50.36)" fill="#080808"/>
        <path id="Path_1261335" data-name="Path 1261335" d="M116.972,23.383c-1.631.749.8,2.468-.4,3.1-.909.48-1.346-1.111-1.509-1.817a2.237,2.237,0,0,1,1.236-2.509.741.741,0,0,1,1.037.161.723.723,0,0,1-.359,1.061" transform="translate(-104.222 -19.962)" fill="#070707"/>
        <path id="Path_1261336" data-name="Path 1261336" d="M201.908,54.852a.687.687,0,1,1-.9-1.034c1.2-1.082-.908-2.871.231-3.359a.707.707,0,0,1,.937.318c.616,1.34,1.069,2.942-.263,4.074" transform="translate(-181.948 -45.672)" fill="#070707"/>
        <path id="Path_1261337" data-name="Path 1261337" d="M192.266,1.185c-1.153.907.01,2.051-1.093,2.231-.482.079-.762-.246-.822-.7a2.59,2.59,0,0,1,1.1-2.61.7.7,0,0,1,.915.151.721.721,0,0,1-.1.929" transform="translate(-172.485 0)" fill="#080808"/>
        <path id="Path_1261338" data-name="Path 1261338" d="M274.408,23.317a.765.765,0,0,1-1.109-.135.838.838,0,0,1,1.41-.87.724.724,0,0,1-.3,1" transform="translate(-247.579 -19.932)" fill="#0a0a0a"/>
        <path id="Path_1261339" data-name="Path 1261339" d="M129.827,78.969a.707.707,0,1,1-.707-.707.707.707,0,0,1,.707.707" transform="translate(-116.379 -70.927)" fill="#0a0a0a"/>
        <path id="Path_1261340" data-name="Path 1261340" d="M5.9,181.557c.7.306,3.889,2.331,2.8,3.321a.686.686,0,0,1-.923-.048,5.6,5.6,0,0,0-1.823-1.645,10.413,10.413,0,0,0-.462,5.492c.083.48-.2.747-.618.9A5.2,5.2,0,0,0,1.42,194.13,6.056,6.056,0,0,0,2.643,198.2a1.222,1.222,0,0,1,.272.585c-.2,1.141-1.536.211-1.53,1.417l.009,1.683c0,.87,1.17.647,1.687.647l36.071.019a.647.647,0,0,0,.662-.508,9.084,9.084,0,0,0,0-2.037.636.636,0,0,0-.667-.551H5.92a.722.722,0,0,1-.762-.726.71.71,0,0,1,.762-.646l32.793-.026c1.247,0,2.432.52,2.509,1.98.031.58.022,1.231.007,1.864a2.026,2.026,0,0,1-1.982,2.011l-37.078.011A2.04,2.04,0,0,1,0,201.881v-1.775a2.063,2.063,0,0,1,1.037-1.772,6.828,6.828,0,0,1,3.007-9.922,12.154,12.154,0,0,1,.59-5.748,6.153,6.153,0,0,0-2.02-.213.722.722,0,0,1-.778-.686c-.057-1.462,3.853-.3,4.059-.208" transform="translate(0 -164.066)" fill="#070606"/>
        <path id="Path_1261341" data-name="Path 1261341" d="M18.554,369.794a.722.722,0,0,0,.762.726h33.23a.636.636,0,0,1,.667.551l-.472.21-34.918.007a1.406,1.406,0,0,0-1.338,1.459l-.009.849c-.517,0-1.682.223-1.687-.647l-.009-1.683c-.006-1.206,1.333-.276,1.53-1.417l1.314-.048a5.7,5.7,0,0,0,.928-.009" transform="translate(-13.396 -335.135)" fill="#fee9d1"/>
        <path id="Path_1261342" data-name="Path 1261342" d="M69.607,383.437a9.088,9.088,0,0,1,0,2.037.647.647,0,0,1-.662.508l-36.071-.019.009-.849a1.406,1.406,0,0,1,1.338-1.459l34.918-.008Z" transform="translate(-29.789 -347.5)" fill="#fcd7ab"/>
      </g>
    </g>
  </g>
</svg>
