<svg xmlns="http://www.w3.org/2000/svg" xmlns:xlink="http://www.w3.org/1999/xlink" width="86.109" height="86.109" viewBox="0 0 86.109 86.109">
  <defs>
    <filter id="Path_896985" x="0" y="0" width="86.109" height="86.109" filterUnits="userSpaceOnUse">
      <feOffset dy="3" input="SourceAlpha"/>
      <feGaussianBlur stdDeviation="3" result="blur"/>
      <feFlood flood-opacity="0.161"/>
      <feComposite operator="in" in2="blur"/>
      <feComposite in="SourceGraphic"/>
    </filter>
    <clipPath id="clip-path">
      <rect id="Rectangle_412149" data-name="Rectangle 412149" width="44.111" height="46.109" fill="none"/>
    </clipPath>
  </defs>
  <g id="Group_1212622" data-name="Group 1212622" transform="translate(-548.42 -1965.836)">
    <g id="Group_1212276" data-name="Group 1212276" transform="translate(211.895 -14867.25)">
      <g id="Group_1198723" data-name="Group 1198723" transform="translate(139.635 12371.764)">
        <g id="Group_1198139" data-name="Group 1198139" transform="translate(205.891 4467.322)">
          <g id="Group_1111318" data-name="Group 1111318" transform="translate(0)">
            <g id="Group_1109826" data-name="Group 1109826" transform="translate(0 0)">
              <g id="Group_1098742" data-name="Group 1098742" transform="translate(0)">
                <g transform="matrix(1, 0, 0, 1, -9, -6)" filter="url(#Path_896985)">
                  <g id="Path_896985-2" data-name="Path 896985" transform="translate(9 6)" fill="#d6b58c" opacity="0.859">
                    <path d="M 34.05470275878906 67.6094970703125 C 29.52462196350098 67.6094970703125 25.13032341003418 66.72238159179688 20.99385261535645 64.97280120849609 C 16.99824333190918 63.28280639648438 13.40971279144287 60.86331558227539 10.32794284820557 57.78155517578125 C 7.246182918548584 54.69978332519531 4.826692581176758 51.11125564575195 3.136692762374878 47.11564636230469 C 1.387112736701965 42.97917556762695 0.5000027418136597 38.58487319946289 0.5000027418136597 34.05479431152344 C 0.5000027418136597 29.52469444274902 1.387112736701965 25.13037490844727 3.136692762374878 20.9938850402832 C 4.826692581176758 16.99826431274414 7.246182918548584 13.40972518920898 10.32794284820557 10.32795429229736 C 13.40971279144287 7.246184825897217 16.99824333190918 4.826694488525391 20.99385261535645 3.136694669723511 C 25.13032341003418 1.387114763259888 29.52462196350098 0.5000047087669373 34.05470275878906 0.5000047087669373 C 38.58478164672852 0.5000047087669373 42.97908401489258 1.387114763259888 47.11555099487305 3.136694669723511 C 51.11116409301758 4.826694488525391 54.69969177246094 7.246174812316895 57.78146362304688 10.3279447555542 C 60.86322402954102 13.4097146987915 63.28271102905273 16.99823379516602 64.97270965576172 20.99384498596191 C 66.7222900390625 25.13031387329102 67.60940551757812 29.52461433410645 67.60940551757812 34.05469512939453 C 67.60940551757812 38.58479309082031 66.7222900390625 42.9791145324707 64.97270965576172 47.11560440063477 C 63.28271102905273 51.11122512817383 60.86322402954102 54.69976425170898 57.78146362304688 57.78153610229492 C 54.69969177246094 60.86330413818359 51.11116409301758 63.28280639648438 47.11555099487305 64.97280120849609 C 42.97908401489258 66.72238159179688 38.58478164672852 67.6094970703125 34.05470275878906 67.6094970703125 Z" stroke="none"/>
                    <path d="M 34.05470275878906 0.9999923706054688 C 29.59190368652344 0.9999923706054688 25.26313400268555 1.873817443847656 21.18863296508789 3.597183227539062 C 17.25262451171875 5.261985778808594 13.71751403808594 7.645496368408203 10.68150329589844 10.68150329589844 C 7.645492553710938 13.71752548217773 5.261981964111328 17.25263595581055 3.597190856933594 21.18866348266602 C 1.873825073242188 25.26318359375 1 29.59197616577148 1 34.05479431152344 C 1 38.51759338378906 1.873825073242188 42.84636688232422 3.597190856933594 46.92086410522461 C 5.261981964111328 50.85687255859375 7.645492553710938 54.39198303222656 10.68150329589844 57.42799377441406 C 13.71751403808594 60.46399307250977 17.25262451171875 62.84750366210938 21.18863296508789 64.51229858398438 C 25.26313400268555 66.23566436767578 29.59190368652344 67.10948181152344 34.05470275878906 67.10948181152344 C 38.51750183105469 67.10948181152344 42.84627532958984 66.23566436767578 46.92077255249023 64.51229858398438 C 50.85679244995117 62.84749603271484 54.39189147949219 60.46399307250977 57.42790222167969 57.42798614501953 C 60.46391296386719 54.39196395874023 62.8474235534668 50.85684204101562 64.51221466064453 46.92082214355469 C 66.23558044433594 42.84630584716797 67.10940551757812 38.51751708984375 67.10940551757812 34.05469512939453 C 67.10940551757812 29.59189605712891 66.23558044433594 25.26312637329102 64.51221466064453 21.18862533569336 C 62.8474235534668 17.25261306762695 60.46391296386719 13.71750640869141 57.42790222167969 10.68149566650391 C 54.39189147949219 7.645484924316406 50.85678100585938 5.261974334716797 46.92077255249023 3.597183227539062 C 42.84627532958984 1.873817443847656 38.51750183105469 0.9999923706054688 34.05470275878906 0.9999923706054688 M 34.05470275878906 -7.62939453125e-06 C 52.86259460449219 -7.62939453125e-06 68.10940551757812 15.24680328369141 68.10940551757812 34.05469512939453 L 68.10940551757812 34.05479431152344 C 68.10940551757812 52.86268615722656 52.86259460449219 68.10948181152344 34.05470275878906 68.10948181152344 C 15.24681091308594 68.10948181152344 0 52.86268615722656 0 34.05479431152344 L 0 34.05469512939453 C 0 15.24680328369141 15.24681091308594 -7.62939453125e-06 34.05470275878906 -7.62939453125e-06 Z" stroke="none" fill="#fff"/>
                  </g>
                </g>
                <g id="Rectangle_400907" data-name="Rectangle 400907" transform="translate(0)" fill="none" stroke="#fff" stroke-width="1">
                  <rect width="68.109" height="68.109" rx="34.055" stroke="none"/>
                  <rect x="0.5" y="0.5" width="67.109" height="67.109" rx="33.555" fill="none"/>
                </g>
              </g>
            </g>
          </g>
        </g>
      </g>
    </g>
    <g id="Group_1213720" data-name="Group 1213720" transform="translate(569.419 1982.836)">
      <g id="Group_1213719" data-name="Group 1213719" clip-path="url(#clip-path)">
        <path id="Path_1261343" data-name="Path 1261343" d="M50.051,125.671a24.087,24.087,0,0,0-3.96,3.049,7.266,7.266,0,0,0-4.946-7.428,7.158,7.158,0,1,0,2.281,12.4,15.072,15.072,0,0,0,.02,7.935l-12.931-.031a3.148,3.148,0,0,1-3.122-3.292l.272-7.171a82.568,82.568,0,0,0,.039-8.787l-.246-5.374H50.4Z" transform="translate(-24.224 -103.443)" fill="#baa8a2"/>
        <path id="Path_1261344" data-name="Path 1261344" d="M25.828,22.229l.35-8.7H3.234L3.48,18.9a82.568,82.568,0,0,1-.039,8.787l-.272,7.171a3.148,3.148,0,0,0,3.122,3.292l12.931.031a9.881,9.881,0,0,1,.594,1.581L6.043,39.7a4.736,4.736,0,0,1-4.467-5.111l.168-4.721.233-6.934-.347-9.313a1.074,1.074,0,0,0-.685-.089A.841.841,0,0,1,0,12.658L.012,7.1c0-1.024,1.425-.63,1.905-.77C3.32,3.7,5.459,2.926,8.375,3.49,9.94,1.442,11.622.094,14.347.007a11.858,11.858,0,0,1,8.24,2.78l1.082.108c2.748.275,3.247,2.915,4.081,3.387.543.307,2.435-.354,2.435.829v5.652c0,1.188-1.782.575-2.4.824l-.353,7.924ZM11.389,6.362l10.143,0c-.674-.654-2.025-.075-2.06-1.17a.793.793,0,0,1,.709-.808,3.93,3.93,0,0,1,3.525,1.985l2-.041c-1.269-2.678-3.35-1.61-3.866-2.087a8.545,8.545,0,0,0-2.448-1.707,11.492,11.492,0,0,0-4.922-.952C12.093,1.657,10.681,3,9.409,4.807c-.581.824-1.542-.144-3.356.138A3.115,3.115,0,0,0,3.825,6.337a7.382,7.382,0,0,0,1.8-.018c.188-.237.3-.676.56-.9a.8.8,0,0,1,1.01-.106A.954.954,0,0,1,7.5,6.344a21.182,21.182,0,0,0,2.169.008c.178-.923,1.511-3.145,2.428-2.113.784.882-.656,1.349-.7,2.123M28.605,7.951H1.589v3.984H28.605Z" transform="translate(0 -0.001)" fill="#040403"/>
        <rect id="Rectangle_412148" data-name="Rectangle 412148" width="27.016" height="3.984" transform="translate(1.589 7.951)" fill="#7b625a"/>
        <path id="Path_1261345" data-name="Path 1261345" d="M40.644,18.44c.049-.774,1.489-1.241.705-2.123-.917-1.032-2.25,1.19-2.428,2.113a21.15,21.15,0,0,1-2.169-.008.954.954,0,0,0-.307-1.035.8.8,0,0,0-1.01.106c-.259.228-.372.667-.56.9a7.376,7.376,0,0,1-1.8.018,3.114,3.114,0,0,1,2.228-1.393c1.814-.281,2.775.687,3.356-.138,1.272-1.8,2.684-3.15,5.061-3.222a11.491,11.491,0,0,1,4.921.952A8.54,8.54,0,0,1,51.1,16.323c.516.477,2.6-.59,3.866,2.087l-2,.041a3.93,3.93,0,0,0-3.525-1.985.793.793,0,0,0-.709.807c.035,1.1,1.386.516,2.06,1.17Zm3.715-2.655a.81.81,0,0,0-.229-1.222.843.843,0,0,0-1.1.331,2.256,2.256,0,0,0,.029,2.766.822.822,0,0,0,1.16.237c.96-.685-.492-1.321.136-2.113M47.878,17.6a2.2,2.2,0,0,0-.055-2.745.811.811,0,0,0-1.117-.254.8.8,0,0,0-.169,1.176.766.766,0,0,1-.024,1,.79.79,0,0,0,.243,1.177.854.854,0,0,0,1.122-.354" transform="translate(-29.255 -12.079)" fill="#969522"/>
        <path id="Path_1261346" data-name="Path 1261346" d="M116.983,21.989c-.628.792.824,1.428-.136,2.113a.822.822,0,0,1-1.16-.237,2.256,2.256,0,0,1-.029-2.766.843.843,0,0,1,1.1-.331.81.81,0,0,1,.229,1.222" transform="translate(-101.879 -18.282)" fill="#050501"/>
        <path id="Path_1261347" data-name="Path 1261347" d="M149.376,23.8a.854.854,0,0,1-1.122.354.79.79,0,0,1-.243-1.177.766.766,0,0,0,.024-1A.8.8,0,0,1,148.2,20.8a.811.811,0,0,1,1.117.254,2.2,2.2,0,0,1,.055,2.745" transform="translate(-130.753 -18.282)" fill="#050501"/>
        <path id="Path_1261348" data-name="Path 1261348" d="M79.583,159.13c-.011.189-2.071,2.909-2.666,4.968a7.146,7.146,0,1,1,2.666-4.968m-1.61-.63a5.557,5.557,0,1,0-5.557,5.557,5.557,5.557,0,0,0,5.557-5.557" transform="translate(-57.715 -133.853)" fill="#040404"/>
        <path id="Path_1261349" data-name="Path 1261349" d="M90.2,170.668a5.557,5.557,0,1,1-5.557-5.557,5.557,5.557,0,0,1,5.557,5.557m-4.507,4.46c.039-.243-.136-.611.025-.8a7.074,7.074,0,0,0,1.418-2.319,5.288,5.288,0,0,0-1.513-5.763.923.923,0,0,0-1.282-.133c-2.306,1.644-3.649,4.132-2.069,6.82a15.171,15.171,0,0,0,1.764,1.952c.261.311.174.877.705.9.394.015.855-.063.952-.658" transform="translate(-69.944 -146.021)" fill="#7a625a"/>
        <path id="Path_1261350" data-name="Path 1261350" d="M104.812,181.277c-.1.6-.557.673-.952.658-.531-.021-.444-.587-.706-.9a15.164,15.164,0,0,1-1.764-1.952c-1.58-2.687-.237-5.176,2.069-6.82a.923.923,0,0,1,1.282.133,5.288,5.288,0,0,1,1.513,5.763,7.071,7.071,0,0,1-1.418,2.319c-.161.185.015.553-.025.8m-.412-2.909a3.645,3.645,0,0,0-.417-4.463c-1.288.85-2.25,2.723-1.3,4.118l.327-1.834a.749.749,0,0,1,1.009-.5c1.076.344.112,1.823.38,2.683" transform="translate(-89.062 -152.17)" fill="#020202"/>
        <path id="Path_1261351" data-name="Path 1261351" d="M116.6,192.452c-.269-.86.7-2.339-.38-2.683a.749.749,0,0,0-1.009.5l-.327,1.834c-.951-1.395.011-3.268,1.3-4.118a3.645,3.645,0,0,1,.417,4.463" transform="translate(-101.26 -166.254)" fill="#50822c"/>
        <path id="Path_1261352" data-name="Path 1261352" d="M199.119,204.475A11.923,11.923,0,1,1,187.2,192.552a11.923,11.923,0,0,1,11.923,11.923m-1.593,0A10.329,10.329,0,1,0,187.2,214.805a10.329,10.329,0,0,0,10.329-10.329" transform="translate(-155.008 -170.289)" fill="#060605"/>
        <path id="Path_1261353" data-name="Path 1261353" d="M209.725,216.673A10.329,10.329,0,1,1,199.4,206.344a10.329,10.329,0,0,1,10.329,10.329m-2.475,4.731a13.028,13.028,0,0,0-3.669-5.131,2.9,2.9,0,0,0-3.345-.424,3.525,3.525,0,0,1,0-1.338c2.51-.6,3.235-1.466,3.516-4.119a.767.767,0,0,0-.7-.858c-1.013.02-3.041.467-3.6,1.632-.524-1.251-2.716-1.678-3.743-1.624-.575.03-.754.629-.67,1.122.436,2.555.657,3.233,3.492,3.86a13.123,13.123,0,0,1,.037,2.375,2.386,2.386,0,0,0-3.293,1.782,3.172,3.172,0,0,1-.99.171,2.074,2.074,0,0,0-2.014,1.707c-.1.474-1.1.8-.763,1.58a.818.818,0,0,0,.812.5l14.085,0a.867.867,0,0,0,.772-.343.91.91,0,0,0,.07-.9" transform="translate(-167.207 -182.487)" fill="#fcc97e"/>
        <path id="Path_1261354" data-name="Path 1261354" d="M225.434,245.8a.91.91,0,0,1-.07.9.867.867,0,0,1-.772.343l-14.085,0a.817.817,0,0,1-.812-.5c-.335-.78.663-1.105.763-1.58a2.073,2.073,0,0,1,2.014-1.707,3.169,3.169,0,0,0,.99-.171,2.386,2.386,0,0,1,3.293-1.782,13.134,13.134,0,0,0-.037-2.375c-2.835-.627-3.056-1.306-3.492-3.86-.084-.492.1-1.092.67-1.122,1.027-.053,3.219.373,3.743,1.624.554-1.166,2.583-1.613,3.6-1.632a.767.767,0,0,1,.7.858c-.281,2.653-1.006,3.518-3.516,4.119a3.525,3.525,0,0,0,0,1.338,2.9,2.9,0,0,1,3.345.424,13.027,13.027,0,0,1,3.669,5.131m-8.939-8.6a2.5,2.5,0,0,0-.485-1.2,1.961,1.961,0,0,0-1.013-.279,1.984,1.984,0,0,0,.3,1.005,2.243,2.243,0,0,0,1.2.476m3.613-1.389a1.257,1.257,0,0,0-1.327,1.272,1.346,1.346,0,0,0,1.327-1.272m-8,9.636,11.394-.008a11.486,11.486,0,0,0-2.8-3.6,1.452,1.452,0,0,0-1.877,0c-.753.437-1.525,2.185-2.438,1.179a.745.745,0,0,0-.875-.254c-.854.394-.112,1.417-1.27,1.807-1.288.433-2.5.1-2.131.879" transform="translate(-185.391 -206.885)" fill="#040302"/>
        <path id="Path_1261355" data-name="Path 1261355" d="M230.6,303.26c-.369-.782.843-.446,2.131-.879,1.158-.389.416-1.413,1.27-1.807a.745.745,0,0,1,.875.254c.913,1.006,1.685-.742,2.438-1.179a1.452,1.452,0,0,1,1.877,0,11.487,11.487,0,0,1,2.8,3.6Z" transform="translate(-203.882 -264.7)" fill="#775447"/>
        <path id="Path_1261356" data-name="Path 1261356" d="M257.568,250.843a2.243,2.243,0,0,1-1.2-.476,1.984,1.984,0,0,1-.3-1.005,1.96,1.96,0,0,1,1.013.278,2.5,2.5,0,0,1,.485,1.2" transform="translate(-226.464 -220.531)" fill="#348438"/>
        <path id="Path_1261357" data-name="Path 1261357" d="M290.13,250.114a1.346,1.346,0,0,1-1.327,1.272,1.257,1.257,0,0,1,1.327-1.272" transform="translate(-255.412 -221.19)" fill="#2e5f1b"/>
      </g>
    </g>
  </g>
</svg>
