<svg xmlns="http://www.w3.org/2000/svg" xmlns:xlink="http://www.w3.org/1999/xlink" width="129.063" height="80.211" viewBox="0 0 129.063 80.211">
  <defs>
    <clipPath id="clip-path">
      <rect id="Rectangle_412022" data-name="Rectangle 412022" width="87.476" height="80.211" fill="none"/>
    </clipPath>
  </defs>
  <g id="Group_1213300" data-name="Group 1213300" transform="translate(-788.103 -1977.502)">
    <g id="Group_1201007" data-name="Group 1201007">
      <g id="Rectangle_410589" data-name="Rectangle 410589" transform="translate(788.103 2007.607)" fill="#d3af82" stroke="#93795a" stroke-width="1">
        <rect width="129.063" height="43.021" rx="8" stroke="none"/>
        <rect x="0.5" y="0.5" width="128.063" height="42.021" rx="7.5" fill="none"/>
      </g>
    </g>
    <g id="Group_1213627" data-name="Group 1213627" transform="translate(808.896 1977.502)">
      <g id="Group_1213626" data-name="Group 1213626" clip-path="url(#clip-path)">
        <path id="Path_1260789" data-name="Path 1260789" d="M90.087,30.521c.339-.84.229-1.858-.736-2.1L73.468,24.43l-2.342-4.678a1.563,1.563,0,0,0-1.047-.964,1.339,1.339,0,0,0-1.488.639L66.175,24.2l-4.695.026a1.33,1.33,0,0,0-1.064.623L51.145,43.374l-26.617.016a11,11,0,0,0-8.43,4.086A23.452,23.452,0,0,1,53.8,20.654a1.348,1.348,0,0,0,1.935-.068,23.457,23.457,0,0,1,33.446.354c9.159,9.542,8.385,24.282-1.044,33.647L67.074,75.507l-.017-9.017a7.02,7.02,0,0,0,5.481-6.753l1.237-21.8,11.975.013c.787,0,1.475-.178,1.734-.991Z" transform="translate(-10.99 -11.013)" fill="#aa91ea"/>
        <path id="Path_1260790" data-name="Path 1260790" d="M37.58,185.422a22.622,22.622,0,0,1-4.248-4.838,8.219,8.219,0,0,1,7.931-3.951,11.5,11.5,0,0,0-3.683,8.79" transform="translate(-26.704 -141.475)" fill="#626a74"/>
        <path id="Path_1260791" data-name="Path 1260791" d="M44.884,79.642a1.42,1.42,0,0,1-2.225.059L7.533,44.577a26.189,26.189,0,0,1,36.2-37.822A26.192,26.192,0,0,1,79.644,44.881ZM79.1,19.508l-2.6,6.439c-.259.813-.947.992-1.734.991l-11.975-.013-1.237,21.8a7.02,7.02,0,0,1-5.481,6.753l.017,9.018,21.064-20.92c9.43-9.365,10.2-24.105,1.044-33.647a23.457,23.457,0,0,0-33.446-.354,1.348,1.348,0,0,1-1.935.068,23.452,23.452,0,0,0-37.7,26.822,11,11,0,0,1,8.43-4.086l26.616-.016,9.271-18.528a1.331,1.331,0,0,1,1.064-.623l4.695-.026L57.6,8.413a1.339,1.339,0,0,1,1.488-.639,1.563,1.563,0,0,1,1.047.964l2.342,4.678,15.883,3.991c.965.242,1.075,1.261.736,2.1M50.567,54.329l.028,15.584a22.188,22.188,0,0,0,2.7-2.619L53.28,54.428a1.472,1.472,0,0,1,1.581-1.594,4.146,4.146,0,0,0,3.951-4.209L60.107,25.6a1.339,1.339,0,0,1,1.333-1.413l12.817-.031,1.756-4.507L60.593,15.776l-1.869-3.44L47.909,33.951c-.368.736-.7,1.187-1.6,1.186L22.091,35.11a8.246,8.246,0,0,0-8.412,8.581c.032,1.072-.07,2.053.038,3.163L24.63,57.78l2.539-4.192A8.935,8.935,0,0,0,28.7,48.861a1.377,1.377,0,0,1,1.222-1.406A1.283,1.283,0,0,1,31.4,48.667a12.884,12.884,0,0,1-.66,4.188H49.1a1.347,1.347,0,0,1,1.472,1.474m-4.874-22.08,8.05-16.142a4.628,4.628,0,0,0-2.4,0L43.279,32.272a5.9,5.9,0,0,0,2.414-.023m-34.817,11.7a11.5,11.5,0,0,1,3.683-8.79,8.219,8.219,0,0,0-7.931,3.951,22.627,22.627,0,0,0,4.248,4.838M47.853,72.81l-.024-17.2-18.648,0-2.506,4.236L43.695,76.886Z" transform="translate(0 0)" fill="#040404"/>
        <path id="Path_1260792" data-name="Path 1260792" d="M105.629,104.03a1.347,1.347,0,0,0-1.472-1.474H85.805a12.884,12.884,0,0,0,.66-4.188,1.283,1.283,0,0,0-1.486-1.212,1.377,1.377,0,0,0-1.222,1.406,8.935,8.935,0,0,1-1.527,4.727l-2.539,4.192L68.779,96.554c-.108-1.11-.005-2.091-.038-3.163a8.246,8.246,0,0,1,8.412-8.581l24.217.027c.9,0,1.233-.45,1.6-1.186l10.814-21.615,1.869,3.44,15.419,3.872-1.756,4.507-12.817.031a1.339,1.339,0,0,0-1.333,1.413l-1.295,23.027a4.146,4.146,0,0,1-3.951,4.209,1.472,1.472,0,0,0-1.581,1.594L108.353,117a22.173,22.173,0,0,1-2.7,2.619Z" transform="translate(-55.061 -49.701)" fill="#945252"/>
        <path id="Path_1260793" data-name="Path 1260793" d="M155.319,296.849l-4.158,4.076L134.14,283.887l2.506-4.236,18.648,0Z" transform="translate(-107.466 -224.038)" fill="#a990e8"/>
        <path id="Path_1260794" data-name="Path 1260794" d="M220.057,96.511a5.9,5.9,0,0,1-2.414.023l8.069-16.163a4.626,4.626,0,0,1,2.4,0Z" transform="translate(-174.364 -64.261)" fill="#626a74"/>
      </g>
    </g>
  </g>
</svg>
