<svg id="Group_1213655" data-name="Group 1213655" xmlns="http://www.w3.org/2000/svg" xmlns:xlink="http://www.w3.org/1999/xlink" width="67.157" height="67.136" viewBox="0 0 67.157 67.136">
  <defs>
    <clipPath id="clip-path">
      <rect id="Rectangle_412047" data-name="Rectangle 412047" width="67.157" height="67.136" fill="none"/>
    </clipPath>
  </defs>
  <g id="Group_1213654" data-name="Group 1213654" clip-path="url(#clip-path)">
    <path id="Path_1261001" data-name="Path 1261001" d="M39.9,67.136a1,1,0,0,0,1.009-1.049l.037-4.077a30.6,30.6,0,0,0,7.559-3.1l2.931,2.9a1,1,0,0,0,1.324.062L61.74,52.9a1.031,1.031,0,0,0,.064-1.488l-2.883-2.983a29.733,29.733,0,0,0,3.111-7.5l3.911-.025a1.09,1.09,0,0,0,1.215-1.093l-.015-12.642a1,1,0,0,0-1.042-.937l-4.073-.03a31.143,31.143,0,0,0-3.112-7.568l2.892-2.921a1.01,1.01,0,0,0,0-1.41L52.914,5.4a1.031,1.031,0,0,0-1.486-.064L48.443,8.221a29.611,29.611,0,0,0-7.5-3.106l-.038-4.071A1,1,0,0,0,39.971,0H27.188a1,1,0,0,0-.939,1.042l-.036,4.074a31.309,31.309,0,0,0-7.56,3.114L15.886,5.469A1.082,1.082,0,0,0,14.32,5.34L5.352,14.306a1.017,1.017,0,0,0,0,1.408C6.3,16.752,7.33,17.6,8.235,18.7a29.652,29.652,0,0,0-3.114,7.5l-4.208.047a.951.951,0,0,0-.9.919L0,39.816A1.038,1.038,0,0,0,1.064,40.9l4.068.038a31.1,31.1,0,0,0,3.111,7.562L5.419,51.331a1.09,1.09,0,0,0,.07,1.646L14.4,61.866a.993.993,0,0,0,1.329-.074c1.046-.937,1.875-1.98,2.991-2.881a29.515,29.515,0,0,0,7.492,3.1l.056,4.217a.956.956,0,0,0,.919.9Z" transform="translate(0)" fill="#fefefe"/>
    <path id="Path_1261002" data-name="Path 1261002" d="M61.118,68.459a1.107,1.107,0,0,0-1.423-.105,27,27,0,0,1-8.42,3.47.97.97,0,0,0-.725.87L50.5,76.673l-10.424,0-.035-3.836a1.057,1.057,0,0,0-.86-1.046,27.023,27.023,0,0,1-8.3-3.435,1.107,1.107,0,0,0-1.423.108c-.937.874-1.73,1.833-2.759,2.67L19.362,63.8c.84-1.032,1.8-1.816,2.673-2.762a1.075,1.075,0,0,0,.156-1.327A27.038,27.038,0,0,1,18.7,51.314a1.056,1.056,0,0,0-1.046-.863l-3.841-.034V39.994l3.845-.032a1.039,1.039,0,0,0,1.01-.779A27.269,27.269,0,0,1,22.141,30.8a1.144,1.144,0,0,0-.175-1.5c-.866-.9-1.784-1.68-2.6-2.679L26.7,19.28l2.921,2.8c.387.371.937.174,1.348-.08a27.374,27.374,0,0,1,8.189-3.371,1.136,1.136,0,0,0,.9-1.2l.02-3.7H50.5l.036,3.846a1.027,1.027,0,0,0,.745,1A27.505,27.505,0,0,1,59.607,22a1.115,1.115,0,0,0,1.431.024l2.794-2.764,7.4,7.4-2.313,2.308L57.543,26.44l-1.849-3.734a1.08,1.08,0,0,0-1.927.016l-1.362,2.726a21,21,0,1,0,12.132,11.39l2.881-.033a.947.947,0,0,0,.868-.627c.443-1.142.718-2.274,1.244-3.415A25.425,25.425,0,0,1,71.874,39.1a1.007,1.007,0,0,0,.905.843l3.977.048V50.42l-3.837.029a1.106,1.106,0,0,0-1.084.984,26.825,26.825,0,0,1-3.45,8.275,1.041,1.041,0,0,0,.092,1.246c.881.986,1.88,1.778,2.737,2.843l-7.335,7.335c-1.029-.841-1.821-1.8-2.759-2.672" transform="translate(-11.708 -11.639)" fill="#e4e7eb"/>
    <path id="Path_1261003" data-name="Path 1261003" d="M39.9,67.137l-12.713,0a.956.956,0,0,1-.919-.9l-.056-4.217a29.515,29.515,0,0,1-7.492-3.1c-1.116.9-1.944,1.944-2.991,2.881a.993.993,0,0,1-1.329.074L5.489,52.978a1.09,1.09,0,0,1-.07-1.646L8.243,48.5a31.1,31.1,0,0,1-3.111-7.562L1.064,40.9A1.038,1.038,0,0,1,0,39.817L.014,27.174a.952.952,0,0,1,.9-.919l4.208-.047a29.656,29.656,0,0,1,3.114-7.5c-.9-1.1-1.939-1.952-2.885-2.989a1.017,1.017,0,0,1,0-1.408L14.32,5.341a1.082,1.082,0,0,1,1.566.129l2.766,2.762a31.309,31.309,0,0,1,7.56-3.114l.036-4.074A1,1,0,0,1,27.188,0H39.97a1,1,0,0,1,.938,1.044l.038,4.071a29.616,29.616,0,0,1,7.5,3.106l2.985-2.881a1.031,1.031,0,0,1,1.486.065l8.892,8.9a1.01,1.01,0,0,1,0,1.41l-2.892,2.921a31.144,31.144,0,0,1,3.112,7.568l4.073.031a1,1,0,0,1,1.042.937l.015,12.642a1.09,1.09,0,0,1-1.215,1.093l-3.911.026a29.73,29.73,0,0,1-3.11,7.5L61.8,51.413A1.031,1.031,0,0,1,61.74,52.9l-8.982,8.968a1,1,0,0,1-1.324-.062l-2.931-2.9a30.6,30.6,0,0,1-7.559,3.1l-.037,4.077A1,1,0,0,1,39.9,67.137M49.41,56.82c.938.872,1.73,1.831,2.759,2.672L59.5,52.158c-.857-1.064-1.855-1.856-2.737-2.843a1.041,1.041,0,0,1-.092-1.246,26.824,26.824,0,0,0,3.45-8.275,1.106,1.106,0,0,1,1.084-.984l3.837-.029V28.356l-3.977-.048a1.008,1.008,0,0,1-.905-.843,25.42,25.42,0,0,0-2.343-6.342c-.526,1.142-.8,2.274-1.244,3.415a.946.946,0,0,1-.868.627l-2.881.033A20.968,20.968,0,1,1,40.7,13.81l1.362-2.726a1.08,1.08,0,0,1,1.927-.016L45.835,14.8l11.376,2.526,2.313-2.308-7.4-7.4-2.794,2.764a1.115,1.115,0,0,1-1.431-.024,27.508,27.508,0,0,0-8.326-3.413,1.026,1.026,0,0,1-.745-1L38.791,2.1H28.365l-.02,3.7a1.137,1.137,0,0,1-.9,1.2,27.37,27.37,0,0,0-8.189,3.371c-.41.254-.961.451-1.348.08l-2.921-2.8L7.654,14.976c.82,1,1.738,1.783,2.6,2.679a1.144,1.144,0,0,1,.175,1.5,27.273,27.273,0,0,0-3.469,8.384,1.039,1.039,0,0,1-1.01.779l-3.845.032V38.778l3.841.034A1.056,1.056,0,0,1,7,39.676a27.039,27.039,0,0,0,3.486,8.392,1.075,1.075,0,0,1-.156,1.327c-.876.946-1.833,1.73-2.673,2.762l7.334,7.333c1.03-.837,1.823-1.8,2.76-2.67a1.107,1.107,0,0,1,1.423-.108,27.023,27.023,0,0,0,8.3,3.435,1.057,1.057,0,0,1,.86,1.046l.035,3.836,10.424,0,.052-3.979a.97.97,0,0,1,.725-.87,27,27,0,0,0,8.42-3.47,1.107,1.107,0,0,1,1.423.105M38.825,46.083a.96.96,0,0,1,.954-.958,3.2,3.2,0,0,0,3.242-3.036l1.071-18.117a.934.934,0,0,1,.94-.891l9.837-.023,1.3-3.8L45.5,16.9c-.411-.091-.961-.1-1.165-.479L43,13.949,34.493,30.956a.986.986,0,0,1-.932.509l-18.758.02a19.105,19.105,0,0,0,3.865,13.646l17.191.011a.948.948,0,0,1,.875.943l.012,6.006a6.658,6.658,0,0,0,2.046-.417ZM28.775,29.33l7.206-14.5a18.894,18.894,0,0,0-20.8,14.523ZM33,29.248l6.726-13.479A2.9,2.9,0,0,0,38.1,15.34L31.158,29.249a3.006,3.006,0,0,0,1.839,0m8.027,21.66A18.877,18.877,0,0,0,50.5,25.179l-4.39.014L45.169,41.8A5.482,5.482,0,0,1,40.9,47.128a29.8,29.8,0,0,0,.122,3.78M34.6,47.194l-13.985.049a18.889,18.889,0,0,0,14.017,5.178Z" transform="translate(0 -0.001)" fill="#050505"/>
    <path id="Path_1261004" data-name="Path 1261004" d="M120.459,123.516l-.033,5.592a6.658,6.658,0,0,1-2.046.417l-.012-6.006a.948.948,0,0,0-.875-.943l-17.191-.011a19.106,19.106,0,0,1-3.865-13.646l18.758-.02a.986.986,0,0,0,.932-.509l8.508-17.007,1.329,2.47c.2.379.754.389,1.165.48l10.67,2.361-1.3,3.8-9.837.023a.934.934,0,0,0-.94.891l-1.071,18.117a3.2,3.2,0,0,1-3.242,3.036.96.96,0,0,0-.954.958" transform="translate(-81.634 -77.434)" fill="#945252"/>
    <path id="Path_1261005" data-name="Path 1261005" d="M113.065,110.819l-13.593.025a18.894,18.894,0,0,1,20.8-14.523Z" transform="translate(-84.289 -81.49)" fill="#86baf2"/>
    <path id="Path_1261006" data-name="Path 1261006" d="M268.079,190.689a29.8,29.8,0,0,1-.122-3.78,5.482,5.482,0,0,0,4.267-5.324l.938-16.611,4.39-.014a18.877,18.877,0,0,1-9.473,25.728" transform="translate(-227.055 -139.783)" fill="#85b9f0"/>
    <path id="Path_1261007" data-name="Path 1261007" d="M149.051,309.2l.032,5.228a18.889,18.889,0,0,1-14.017-5.178Z" transform="translate(-114.451 -262.006)" fill="#83b7ee"/>
    <path id="Path_1261008" data-name="Path 1261008" d="M205.978,114.4a3.006,3.006,0,0,1-1.839,0l6.946-13.91a2.9,2.9,0,0,1,1.619.429Z" transform="translate(-172.981 -85.149)" fill="#626a74"/>
  </g>
</svg>
