<svg xmlns="http://www.w3.org/2000/svg" xmlns:xlink="http://www.w3.org/1999/xlink" width="129.063" height="78.522" viewBox="0 0 129.063 78.522">
  <defs>
    <clipPath id="clip-path">
      <rect id="Rectangle_412161" data-name="Rectangle 412161" width="46.626" height="78.522" fill="none"/>
    </clipPath>
  </defs>
  <g id="Group_1213509" data-name="Group 1213509" transform="translate(-788.103 -1989.856)">
    <g id="Group_1201007" data-name="Group 1201007">
      <g id="Rectangle_410589" data-name="Rectangle 410589" transform="translate(788.103 2007.607)" fill="#d3af82" stroke="#93795a" stroke-width="1">
        <rect width="129.063" height="43.021" rx="8" stroke="none"/>
        <rect x="0.5" y="0.5" width="128.063" height="42.021" rx="7.5" fill="none"/>
      </g>
    </g>
    <g id="Group_1213726" data-name="Group 1213726" transform="translate(829.321 1989.856)">
      <g id="Group_1213725" data-name="Group 1213725" clip-path="url(#clip-path)">
        <path id="Path_1261402" data-name="Path 1261402" d="M2.484,1.228,6.118,40.136,16.8,59.109a1.424,1.424,0,0,1,.143,1.8l-3.456,6.93L27.845,63.1,19.672,49.481,13.493,1.2A1.266,1.266,0,0,1,14.672,0a1.333,1.333,0,0,1,1.344,1.225l6.029,47.435,9.83,16.345,5.782-1.9L29.491,49.48,23.315,1.194A1.258,1.258,0,0,1,24.333.021a1.217,1.217,0,0,1,1.441,1.1l6.1,47.555L46.612,73.21a4.9,4.9,0,0,1-4.743,5.313l-26.024,0a1.015,1.015,0,0,1-.853-.448l-4.765-7.148a1.383,1.383,0,0,1-.107-1.894l4.434-8.89L3.727,40.954.008,1.44a1.215,1.215,0,0,1,1.1-1.43A1.245,1.245,0,0,1,2.484,1.228M32.007,76.05c.969.048,2.629-1.163,2.181-2.123l-5.045-8.66L13,70.607l3.6,5.441ZM36.257,76l5.508.067c.854.01,2.72-1.072,2.231-2.139-1.41-3.076-3.434-5.737-5.021-8.666l-5.764,1.962,3.532,5.881a4.7,4.7,0,0,1-.486,2.9" transform="translate(0 0)" fill="#040303"/>
        <path id="Path_1261403" data-name="Path 1261403" d="M91.83,376.405l-15.412,0-3.595-5.441,16.143-5.34,5.045,8.66c.448.96-1.211,2.171-2.181,2.123" transform="translate(-59.824 -300.356)" fill="#646c77"/>
        <path id="Path_1261404" data-name="Path 1261404" d="M189.1,376.341a4.7,4.7,0,0,0,.486-2.9l-3.532-5.881,5.764-1.962c1.587,2.929,3.61,5.589,5.021,8.666.489,1.068-1.376,2.15-2.231,2.139Z" transform="translate(-152.841 -300.341)" fill="#535b64"/>
        <path id="Path_1261405" data-name="Path 1261405" d="M97.017,6.688l6.176,48.286,8.165,13.63-5.782,1.9-9.83-16.345L89.717,6.72Z" transform="translate(-73.702 -5.494)" fill="#824646"/>
        <path id="Path_1261406" data-name="Path 1261406" d="M24.924,6.7,31.1,54.984l8.173,13.623L24.916,73.338l3.456-6.93a1.424,1.424,0,0,0-.143-1.8L17.549,45.639,13.916,6.731Z" transform="translate(-11.432 -5.503)" fill="#945252"/>
      </g>
    </g>
  </g>
</svg>
