<svg id="Group_1213649" data-name="Group 1213649" xmlns="http://www.w3.org/2000/svg" xmlns:xlink="http://www.w3.org/1999/xlink" width="67.097" height="74.058" viewBox="0 0 67.097 74.058">
  <defs>
    <clipPath id="clip-path">
      <rect id="Rectangle_412041" data-name="Rectangle 412041" width="67.097" height="74.058" fill="none"/>
    </clipPath>
  </defs>
  <g id="Group_1213648" data-name="Group 1213648" clip-path="url(#clip-path)">
    <path id="Path_1260950" data-name="Path 1260950" d="M50.924,17.377A17.376,17.376,0,1,0,33.548,34.753,17.376,17.376,0,0,0,50.924,17.377M67.1,42.867c0-1.849-2.5-.953-3.433-1.264l-.019-3.411a1.135,1.135,0,0,0-1.159-1.157l-24.7.036A5.817,5.817,0,0,0,33.551,39.3a5.84,5.84,0,0,0-4.232-2.231L4.783,37.028c-.673,0-1.3.333-1.306,1.013L3.433,41.6C2.285,41.911,0,41.019,0,42.944L.007,72.851a1.154,1.154,0,0,0,1.265,1.207H65.829a1.163,1.163,0,0,0,1.266-1.207Z" transform="translate(0 -0.001)" fill="#fdfdfd"/>
    <path id="Path_1260951" data-name="Path 1260951" d="M130.831,17.377A17.376,17.376,0,1,1,113.455,0a17.376,17.376,0,0,1,17.376,17.376M115.4,10.551l10.133,2.3c.845.191.716,1.277.417,1.863l-2.262,4.447a1.111,1.111,0,0,1-.97.524l-7.016.027-.969,12.67A15.054,15.054,0,1,0,99.371,22.69a.875.875,0,0,0,.214.372c.1.079.414.142.514-.058l5.823-11.68c.786-1.576,1.919-.6,3.938-.952l1.389-2.783a1.145,1.145,0,0,1,1.107-.662c1.115.005,2.048,2.645,3.048,3.624M113.491,18.3a1.055,1.055,0,0,1,1.134-.939l7.38-.032,1.282-2.6-9.368-2.171-1.494-2.08-7.084,14.184a1.217,1.217,0,0,1-1.315.784,30.443,30.443,0,0,0-3.221.093,14.973,14.973,0,0,0,11.579,6.841ZM107.918,12.5,102.68,22.981l.721.361,5.238-10.476Z" transform="translate(-79.908 -0.001)" fill="#040405"/>
    <path id="Path_1260952" data-name="Path 1260952" d="M126.873,22.005c-1-.979-1.933-3.619-3.048-3.624a1.145,1.145,0,0,0-1.107.662l-1.389,2.783c-2.019.35-3.153-.624-3.938.952l-5.823,11.68c-.1.2-.412.138-.514.058a.872.872,0,0,1-.214-.372,15.054,15.054,0,1,1,15.367,9.687l.969-12.67,7.016-.027a1.111,1.111,0,0,0,.97-.524l2.262-4.447c.3-.586.428-1.672-.417-1.863Z" transform="translate(-91.377 -11.455)" fill="#85b9f0"/>
    <path id="Path_1260953" data-name="Path 1260953" d="M136.847,70.075,135.741,84.16a14.973,14.973,0,0,1-11.579-6.841,30.4,30.4,0,0,1,3.221-.093,1.217,1.217,0,0,0,1.314-.784l7.084-14.184,1.494,2.08,9.367,2.171-1.282,2.6-7.38.032a1.055,1.055,0,0,0-1.134.939" transform="translate(-103.264 -51.779)" fill="#945252"/>
    <rect id="Rectangle_412040" data-name="Rectangle 412040" width="11.712" height="0.806" transform="translate(22.772 22.98) rotate(-63.429)" fill="#5e656f"/>
    <path id="Path_1260954" data-name="Path 1260954" d="M67.1,225.829l0,29.984a1.163,1.163,0,0,1-1.266,1.207H1.271a1.154,1.154,0,0,1-1.265-1.207L0,225.907c0-1.925,2.285-1.033,3.433-1.341L3.477,221c.008-.679.633-1.014,1.306-1.013l24.535.043a5.841,5.841,0,0,1,4.232,2.23,5.817,5.817,0,0,1,4.232-2.231l24.7-.036a1.135,1.135,0,0,1,1.159,1.157l.019,3.411c.934.311,3.433-.585,3.433,1.264M32.378,251.124l0-25.395a3.454,3.454,0,0,0-3.562-3.412l-23.042,0v27.751l23.707.026a8.01,8.01,0,0,1,2.893,1.027m6.245-1.035,22.7-.017V222.32h-22.7a3.5,3.5,0,0,0-3.907,3.42l.022,25.435a6.326,6.326,0,0,1,3.885-1.084M4.446,252.381c-.735,0-.992-.726-.992-1.262l.005-24.042a1.038,1.038,0,0,0-1.154.012V254.7l29.822,0a3.3,3.3,0,0,0-3.314-2.3Zm30.59,2.313H64.8l0-27.671a1.3,1.3,0,0,0-1.151.047l.006,24.044c0,.646-.341,1.273-1.045,1.274l-24.316.009a3.137,3.137,0,0,0-3.25,2.3" transform="translate(0 -182.964)" fill="#020203"/>
    <path id="Path_1260955" data-name="Path 1260955" d="M60.929,262.621a8.013,8.013,0,0,0-2.893-1.027l-23.707-.026V233.817l23.042,0a3.454,3.454,0,0,1,3.562,3.412ZM49.393,239.573a1.1,1.1,0,0,0,1.112-1.251,1.115,1.115,0,0,0-1.063-1.033l-10.559,0a1.1,1.1,0,0,0-1.054,1.186,1.075,1.075,0,0,0,1.045,1.1Zm6.826.011a1.15,1.15,0,0,0,1.248-1.1,1.136,1.136,0,0,0-1.091-1.2l-2.355-.009a1.161,1.161,0,1,0,.164,2.311Zm-15.652,2.457a3.566,3.566,0,0,0-2.083.007,1.136,1.136,0,0,0-.545,1.571c.386.879,2.806.895,3.2-.014a1.116,1.116,0,0,0-.572-1.563m15.722,2.186a1.148,1.148,0,0,0,1.176-1.217,1.165,1.165,0,0,0-1.256-1.095l-12.607.011a1.149,1.149,0,0,0-.158,2.288Zm-9.338,4.617a1.153,1.153,0,1,0,.162-2.3l-8.2.007a1.121,1.121,0,0,0-1.087,1.179,1.067,1.067,0,0,0,1.053,1.1Zm9.261,0a1.151,1.151,0,1,0,.16-2.3l-4.7,0a1.155,1.155,0,1,0,.153,2.3Zm-5.643,4.637a1.109,1.109,0,0,0,1.088-1.205,1.045,1.045,0,0,0-1.014-1.071l-11.6-.019a1.136,1.136,0,0,0-1.219,1.259,1.149,1.149,0,0,0,1.22,1.054Zm5.884-.008a1.141,1.141,0,0,0,1-1.326c-.2-1.344-2.42-1-2.838-.823a1.086,1.086,0,0,0-.564,1.262c.173.991,1.316,1.011,2.4.887m-13.038,4.64c.758,0,1.3-.373,1.32-1.119a1.169,1.169,0,0,0-1.157-1.19l-4.673.011a1.147,1.147,0,1,0,.133,2.291Zm12.891-.012a1.119,1.119,0,0,0,1.155-1.233,1.143,1.143,0,0,0-1.119-1.058l-8.177,0a1.15,1.15,0,1,0,.133,2.3Z" transform="translate(-28.551 -194.46)" fill="#f2f4f7"/>
    <path id="Path_1260956" data-name="Path 1260956" d="M15.833,286.556l24.368.018a3.3,3.3,0,0,1,3.314,2.3l-29.822,0V261.263a1.038,1.038,0,0,1,1.154-.012l-.005,24.042c0,.536.257,1.262.992,1.262" transform="translate(-11.387 -217.138)" fill="#636a75"/>
    <path id="Path_1260957" data-name="Path 1260957" d="M208.159,288.911a3.137,3.137,0,0,1,3.25-2.3l24.316-.009c.7,0,1.045-.627,1.045-1.274l-.006-24.044a1.3,1.3,0,0,1,1.151-.047l0,27.671Z" transform="translate(-173.123 -217.18)" fill="#636a75"/>
    <path id="Path_1260958" data-name="Path 1260958" d="M96.369,284.26l-12.846-.013a1.149,1.149,0,0,1,.158-2.288l12.607-.01a1.165,1.165,0,0,1,1.256,1.094,1.148,1.148,0,0,1-1.175,1.217" transform="translate(-68.631 -234.493)" fill="#070707"/>
    <path id="Path_1260959" data-name="Path 1260959" d="M67.829,339.308l-11.525.018a1.149,1.149,0,0,1-1.22-1.054,1.136,1.136,0,0,1,1.219-1.259l11.6.019a1.045,1.045,0,0,1,1.014,1.071,1.109,1.109,0,0,1-1.088,1.205" transform="translate(-45.809 -280.289)" fill="#080808"/>
    <path id="Path_1260960" data-name="Path 1260960" d="M66.681,256.735H56.161a1.075,1.075,0,0,1-1.045-1.1,1.1,1.1,0,0,1,1.054-1.186l10.559,0a1.115,1.115,0,0,1,1.063,1.033,1.1,1.1,0,0,1-1.112,1.251" transform="translate(-45.839 -211.622)" fill="#080808"/>
    <path id="Path_1260961" data-name="Path 1260961" d="M64.211,311.748l-8.077-.017a1.067,1.067,0,0,1-1.053-1.1,1.121,1.121,0,0,1,1.087-1.179l8.2-.006a1.153,1.153,0,1,1-.162,2.3" transform="translate(-45.81 -257.364)" fill="#080808"/>
    <path id="Path_1260962" data-name="Path 1260962" d="M119.3,366.774l-8.008.007a1.15,1.15,0,1,1-.133-2.3l8.177,0a1.143,1.143,0,0,1,1.119,1.058,1.119,1.119,0,0,1-1.155,1.233" transform="translate(-91.547 -303.136)" fill="#080808"/>
    <path id="Path_1260963" data-name="Path 1260963" d="M136.293,311.744l-4.389,0a1.155,1.155,0,1,1-.153-2.3l4.7,0a1.151,1.151,0,1,1-.16,2.295" transform="translate(-108.631 -257.362)" fill="#080808"/>
    <path id="Path_1260964" data-name="Path 1260964" d="M60.669,366.762l-4.376-.007a1.148,1.148,0,1,1-.133-2.291l4.673-.01a1.168,1.168,0,0,1,1.156,1.19c-.02.746-.563,1.12-1.32,1.119" transform="translate(-45.803 -303.111)" fill="#090909"/>
    <path id="Path_1260965" data-name="Path 1260965" d="M147.785,256.7l-2.035,0a1.161,1.161,0,1,1-.164-2.311l2.355.009a1.136,1.136,0,0,1,1.091,1.2,1.15,1.15,0,0,1-1.248,1.1" transform="translate(-120.117 -211.576)" fill="#090909"/>
    <path id="Path_1260966" data-name="Path 1260966" d="M153.812,339.128c-1.083.125-2.226.1-2.4-.887a1.086,1.086,0,0,1,.564-1.262c.419-.175,2.637-.521,2.838.823a1.141,1.141,0,0,1-1,1.325" transform="translate(-125.908 -280.117)" fill="#0b0b0b"/>
    <path id="Path_1260967" data-name="Path 1260967" d="M57.843,281.944a1.116,1.116,0,0,1,.572,1.563c-.394.909-2.813.894-3.2.015a1.136,1.136,0,0,1,.545-1.571,3.565,3.565,0,0,1,2.083-.007" transform="translate(-45.826 -234.363)" fill="#0b0b0b"/>
    <path id="Path_1260968" data-name="Path 1260968" d="M210.162,261.543a6.326,6.326,0,0,0-3.885,1.084l-.022-25.435a3.5,3.5,0,0,1,3.907-3.42h22.7v27.753Zm3.1-22.035a1.076,1.076,0,0,0,1.08-1.236,1.127,1.127,0,0,0-1.026-1.028c-1.5-.073-3.653-.358-3.581,1.187a1.149,1.149,0,0,0,1.235,1.092Zm14.978.011a1.105,1.105,0,0,0,1.15-1.221,1.166,1.166,0,0,0-1.242-1.08l-10.253.006a1.157,1.157,0,0,0-1.19,1.042,1.07,1.07,0,0,0,1.016,1.241Zm-4.434,4.627c.751,0,1.017-.889.95-1.314a1.1,1.1,0,0,0-1.166-.952l-12.6-.009a1.162,1.162,0,0,0-1.247,1.247,1.191,1.191,0,0,0,1.236,1.077Zm4.848-.059a1.1,1.1,0,0,0,.738-1.093,1.027,1.027,0,0,0-.654-.995,3.674,3.674,0,0,0-2.178.017,1.061,1.061,0,0,0-.573,1.273c.208,1.1,1.841,1.023,2.667.8m-13.05,4.675a1.081,1.081,0,0,0,1.061-1.221,1.149,1.149,0,0,0-1.145-1.05l-4.546-.01a1.184,1.184,0,0,0-1.236,1.08,1.106,1.106,0,0,0,.913,1.191c1.637.06,3.221.038,4.953.009m12.8-.008a1.074,1.074,0,0,0,.968-1.311,1.161,1.161,0,0,0-1.226-.964h-7.914a1.184,1.184,0,0,0-1.241,1.084c-.042.432.3,1.2.917,1.2Zm-15.9,2.5a3.51,3.51,0,0,0-2.109.011,1.109,1.109,0,0,0-.571,1.482c.473,1.057,2.85.939,3.234.056a1.113,1.113,0,0,0-.555-1.549m15.718,2.187a1.158,1.158,0,1,0-.093-2.311l-11.253-.005c-.72,0-1.235.308-1.326.962-.059.428.2,1.323.886,1.325Zm-9.256,4.6a1.114,1.114,0,0,0,1.16-1.23,1.167,1.167,0,0,0-1.239-1.075l-7.917,0a1.185,1.185,0,0,0-1.237,1.078,1.125,1.125,0,0,0,1.065,1.225Zm9.261,0a1.107,1.107,0,0,0,1.157-1.218,1.169,1.169,0,0,0-1.237-1.085l-4.545.013a1.155,1.155,0,1,0,.159,2.3Z" transform="translate(-171.539 -194.417)" fill="#e3e6ea"/>
    <path id="Path_1260969" data-name="Path 1260969" d="M241.035,284.212l-12.825.048a1.191,1.191,0,0,1-1.236-1.077,1.162,1.162,0,0,1,1.247-1.247l12.6.009a1.1,1.1,0,0,1,1.166.952c.067.425-.2,1.311-.95,1.314" transform="translate(-188.768 -234.482)" fill="#070707"/>
    <path id="Path_1260970" data-name="Path 1260970" d="M274.155,339.241l-11.785-.03c-.682,0-.945-.9-.886-1.325.091-.654.606-.962,1.326-.962l11.253.005a1.158,1.158,0,1,1,.093,2.311" transform="translate(-217.466 -280.216)" fill="#070707"/>
    <path id="Path_1260971" data-name="Path 1260971" d="M279.848,256.6l-10.521-.012a1.07,1.07,0,0,1-1.016-1.241,1.156,1.156,0,0,1,1.19-1.042l10.253-.006a1.166,1.166,0,0,1,1.242,1.08,1.105,1.105,0,0,1-1.15,1.221" transform="translate(-223.147 -211.495)" fill="#070707"/>
    <path id="Path_1260972" data-name="Path 1260972" d="M291.336,311.591l-8.5.006c-.619,0-.959-.764-.917-1.2a1.184,1.184,0,0,1,1.241-1.084h7.914a1.161,1.161,0,0,1,1.226.964,1.074,1.074,0,0,1-.968,1.311" transform="translate(-234.468 -257.254)" fill="#070707"/>
    <path id="Path_1260973" data-name="Path 1260973" d="M236.172,366.646H228a1.125,1.125,0,0,1-1.065-1.225,1.185,1.185,0,0,1,1.237-1.078l7.917,0a1.166,1.166,0,0,1,1.239,1.075,1.114,1.114,0,0,1-1.16,1.231" transform="translate(-188.739 -303.017)" fill="#070707"/>
    <path id="Path_1260974" data-name="Path 1260974" d="M308.365,366.644l-4.466.011a1.155,1.155,0,1,1-.159-2.3l4.545-.013a1.169,1.169,0,0,1,1.237,1.085,1.107,1.107,0,0,1-1.157,1.218" transform="translate(-251.671 -303.017)" fill="#080808"/>
    <path id="Path_1260975" data-name="Path 1260975" d="M232.8,311.611c-1.732.029-3.316.05-4.953-.009a1.106,1.106,0,0,1-.914-1.191,1.184,1.184,0,0,1,1.236-1.08l4.546.009a1.149,1.149,0,0,1,1.145,1.05,1.082,1.082,0,0,1-1.061,1.221" transform="translate(-188.733 -257.266)" fill="#070707"/>
    <path id="Path_1260976" data-name="Path 1260976" d="M230.452,256.377l-2.292.014a1.149,1.149,0,0,1-1.235-1.092c-.072-1.544,2.078-1.259,3.581-1.187a1.127,1.127,0,0,1,1.026,1.028,1.076,1.076,0,0,1-1.08,1.236" transform="translate(-188.729 -211.286)" fill="#080808"/>
    <path id="Path_1260977" data-name="Path 1260977" d="M229.726,336.922a1.113,1.113,0,0,1,.555,1.549c-.385.883-2.762,1-3.234-.056a1.109,1.109,0,0,1,.571-1.482,3.51,3.51,0,0,1,2.109-.011" transform="translate(-188.755 -280.083)" fill="#090909"/>
    <path id="Path_1260978" data-name="Path 1260978" d="M326.023,284.019c-.826.226-2.46.3-2.667-.8a1.061,1.061,0,0,1,.573-1.273,3.676,3.676,0,0,1,2.179-.017,1.027,1.027,0,0,1,.654.995,1.1,1.1,0,0,1-.738,1.093" transform="translate(-268.908 -234.348)" fill="#090909"/>
  </g>
</svg>
