<svg id="Group_1213651" data-name="Group 1213651" xmlns="http://www.w3.org/2000/svg" xmlns:xlink="http://www.w3.org/1999/xlink" width="62.894" height="70.614" viewBox="0 0 62.894 70.614">
  <defs>
    <clipPath id="clip-path">
      <rect id="Rectangle_412043" data-name="Rectangle 412043" width="62.894" height="70.614" fill="none"/>
    </clipPath>
  </defs>
  <g id="Group_1213650" data-name="Group 1213650" clip-path="url(#clip-path)">
    <path id="Path_1260980" data-name="Path 1260980" d="M41.937,69.42a1.125,1.125,0,0,1-1.169,1.189l-9.79,0A1.114,1.114,0,0,1,29.819,69.5l.011-7.391a5.961,5.961,0,0,1,3.254-5.169l.009-5.062-21.535-.085A11.788,11.788,0,0,1,.066,40.118L0,12.065c0-1.531,2.474-.845,3.316-1.054a13.235,13.235,0,0,0-.008-2.153L2.246,2.1C2.16,1.56,3.845.142,4.024.074a1.435,1.435,0,0,1,1.3.251l15.916,8.49,7.16.011L36.585,3.7a1.43,1.43,0,0,1,1.3-.3c2.179.526,4.2,1.649,6.428,2,2.5.395,5.015-.058,7.529.152.406.034.712.036.942.444L62.894,23.947l-.006,9.578A18.345,18.345,0,0,1,44.931,51.832l-6.276.038.012,5.068A5.961,5.961,0,0,1,41.92,62.1ZM24.715,11.126l-4.009-.089L4.537,2.445l.9,5.613,14.378,6.149Zm10.371,3.228a7.771,7.771,0,0,0,7.905-6.938L37.68,5.639,23.841,14.3Zm9,35.289a16.4,16.4,0,0,0,16.582-16.1l.017-8.994L51.217,7.729l-5.307.029,9.378,19.567A18.8,18.8,0,0,1,38.676,46.218l-.018,3.411Zm-6.995-5.517a14.768,14.768,0,0,0,3.728-.581l.058-21.856a7.606,7.606,0,0,1,5.806-7.149L44.6,10.282a10.128,10.128,0,0,1-8.8,6.277L21,32.236l-.007,3.887a7.675,7.675,0,0,0,7.578,8ZM18.763,17.669a6.715,6.715,0,0,0-.01-1.493L5.605,10.538c-.687,3.6,1.715,7.088,5.313,7.1ZM17.3,36.15a1.072,1.072,0,0,1-1.448.011l-2.97-2.973a1.037,1.037,0,0,1-.022-1.409l5.919-6.288,0-5.6-8.174-.058a7.612,7.612,0,0,1-7.2-6.468,1.255,1.255,0,0,0-1.168,0L2.25,39.787a9.893,9.893,0,0,0,9.969,9.86l20.859,0,.008-3.277-4.349-.013a9.953,9.953,0,0,1-9.944-10.562,2.422,2.422,0,0,0-.1-1.1Zm9.9-19.557-6.223-.009.073,6.488ZM16.587,33.687,32.717,16.6a14.678,14.678,0,0,0-2.423-.041L15.323,32.4a5.325,5.325,0,0,0,1.264,1.286m36.472-5.871L47.7,16.631a5.5,5.5,0,0,0-4.671,5.375l.015,20.782a16.532,16.532,0,0,0,10.01-14.971M36.436,46.351H35.313v9.929h1.123ZM39.72,65.084l.021-2.669a3.865,3.865,0,1,0-7.729,0,24.825,24.825,0,0,0,.052,2.683Zm.02,2.208H32.009v1.1H39.74Z" transform="translate(0 0)" fill="#030202"/>
    <path id="Path_1260981" data-name="Path 1260981" d="M29.017,105.344l1.387-1.456a2.422,2.422,0,0,1,.1,1.1,9.953,9.953,0,0,0,9.944,10.562l4.349.012-.008,3.277-20.859,0a9.893,9.893,0,0,1-9.969-9.86l-.011-26.418a1.256,1.256,0,0,1,1.168,0,7.611,7.611,0,0,0,7.2,6.468l8.174.058,0,5.6-5.918,6.288a1.037,1.037,0,0,0,.022,1.409l2.97,2.973a1.072,1.072,0,0,0,1.448-.011" transform="translate(-11.716 -69.193)" fill="#763e3e"/>
    <path id="Path_1260982" data-name="Path 1260982" d="M146.92,97.923H138.4a7.675,7.675,0,0,1-7.578-8l.007-3.887,14.8-15.677a10.129,10.129,0,0,0,8.8-6.277l2.085,4.258a7.606,7.606,0,0,0-5.806,7.149l-.058,21.856a14.768,14.768,0,0,1-3.728.581" transform="translate(-109.829 -53.797)" fill="#955252"/>
    <path id="Path_1260983" data-name="Path 1260983" d="M246.352,90.083l-5.428-.014.018-3.411a18.8,18.8,0,0,0,16.613-18.893L248.177,48.2l5.307-.029,9.467,16.816-.017,8.994a16.4,16.4,0,0,1-16.582,16.1" transform="translate(-202.266 -40.44)" fill="#763d3d"/>
    <path id="Path_1260984" data-name="Path 1260984" d="M278.218,114.832a16.533,16.533,0,0,1-10.01,14.971l-.016-20.782a5.5,5.5,0,0,1,4.671-5.375Z" transform="translate(-225.158 -87.015)" fill="#824646"/>
    <path id="Path_1260985" data-name="Path 1260985" d="M159.825,43.859,148.58,43.8l13.839-8.658,5.312,1.778a7.771,7.771,0,0,1-7.905,6.938" transform="translate(-124.739 -29.505)" fill="#646b76"/>
    <path id="Path_1260986" data-name="Path 1260986" d="M48.451,23.92,43.552,27,29.174,20.852l-.9-5.613,16.169,8.592Z" transform="translate(-23.736 -12.794)" fill="#525a64"/>
    <path id="Path_1260987" data-name="Path 1260987" d="M47.478,72.806l-7.844-.03c-3.6-.014-6-3.5-5.313-7.1l13.148,5.639a6.705,6.705,0,0,1,.01,1.493" transform="translate(-28.715 -55.136)" fill="#525a64"/>
    <path id="Path_1260988" data-name="Path 1260988" d="M96.761,120.161a5.325,5.325,0,0,1-1.264-1.286l14.971-15.842a14.676,14.676,0,0,1,2.423.041Z" transform="translate(-80.174 -86.474)" fill="#515962"/>
    <path id="Path_1260989" data-name="Path 1260989" d="M136.975,103.363l-6.15,6.479-.073-6.488Z" transform="translate(-109.772 -86.77)" fill="#935151"/>
    <rect id="Rectangle_412042" data-name="Rectangle 412042" width="1.123" height="9.929" transform="translate(35.313 46.352)" fill="#535b65"/>
  </g>
</svg>
