<svg xmlns="http://www.w3.org/2000/svg" xmlns:xlink="http://www.w3.org/1999/xlink" width="129.063" height="84.269" viewBox="0 0 129.063 84.269">
  <defs>
    <clipPath id="clip-path">
      <rect id="Rectangle_412163" data-name="Rectangle 412163" width="84.268" height="84.269" fill="none"/>
    </clipPath>
  </defs>
  <g id="Group_1213511" data-name="Group 1213511" transform="translate(-788.103 -1986.983)">
    <g id="Group_1201007" data-name="Group 1201007">
      <g id="Rectangle_410589" data-name="Rectangle 410589" transform="translate(788.103 2007.607)" fill="#d3af82" stroke="#93795a" stroke-width="1">
        <rect width="129.063" height="43.021" rx="8" stroke="none"/>
        <rect x="0.5" y="0.5" width="128.063" height="42.021" rx="7.5" fill="none"/>
      </g>
    </g>
    <g id="Group_1213730" data-name="Group 1213730" transform="translate(810.5 1986.983)">
      <g id="Group_1213729" data-name="Group 1213729" clip-path="url(#clip-path)">
        <path id="Path_1261423" data-name="Path 1261423" d="M21.061,10.531A10.531,10.531,0,1,0,10.531,21.061,10.531,10.531,0,0,0,21.061,10.531m63.207,0a10.53,10.53,0,1,0-10.53,10.53,10.53,10.53,0,0,0,10.53-10.53m-25.03,1.321a1.27,1.27,0,0,0,1.307-1.408,1.285,1.285,0,0,0-1.389-1.236H25.115a1.328,1.328,0,1,0,0,2.652Zm9.231,30.281A26.336,26.336,0,1,0,42.133,68.468,26.336,26.336,0,0,0,68.469,42.132M11.863,59.049l0-33.934a1.328,1.328,0,1,0-2.654,0V59.155a1.3,1.3,0,0,0,1.416,1.392,1.318,1.318,0,0,0,1.242-1.5m63.207,0,0-33.934a1.328,1.328,0,1,0-2.654,0V59.155a1.3,1.3,0,0,0,1.415,1.392,1.318,1.318,0,0,0,1.242-1.5M21.061,73.738A10.531,10.531,0,1,0,10.531,84.269,10.531,10.531,0,0,0,21.061,73.738m63.207,0A10.531,10.531,0,1,0,73.738,84.269,10.531,10.531,0,0,0,84.268,73.738m-25.03,1.321a1.27,1.27,0,0,0,1.307-1.408,1.285,1.285,0,0,0-1.389-1.236H25.115a1.328,1.328,0,1,0,0,2.652Z" transform="translate(0 0)" fill="#fdfdfd"/>
        <path id="Path_1261424" data-name="Path 1261424" d="M159.363,50.715l-34.12.008a1.328,1.328,0,1,1,0-2.652h34.041a1.285,1.285,0,0,1,1.389,1.236,1.27,1.27,0,0,1-1.307,1.408" transform="translate(-100.126 -38.864)" fill="#030303"/>
        <path id="Path_1261425" data-name="Path 1261425" d="M159.364,380.715l-34.12.008a1.328,1.328,0,1,1,0-2.652h34.041a1.285,1.285,0,0,1,1.389,1.236,1.27,1.27,0,0,1-1.307,1.408" transform="translate(-100.127 -305.656)" fill="#030303"/>
        <path id="Path_1261426" data-name="Path 1261426" d="M123.55,108.308c-.959-1.6-1.623-3.212-2.478-4.835a1.219,1.219,0,0,0-1.247-.637,1.285,1.285,0,0,0-1.135.762l-2.218,4.456-4.593.037a1.2,1.2,0,0,0-1.085.8l-8.8,17.6-4.845-.015a23.7,23.7,0,1,1,25.507,16.974l1.153-22.171,11.821-.021a1.346,1.346,0,0,0,1.42-1.053l2.551-6.444a1.266,1.266,0,0,0-.758-1.641Z" transform="translate(-77.782 -77.803)" fill="#86baf1"/>
        <path id="Path_1261427" data-name="Path 1261427" d="M135.147,108.805a26.336,26.336,0,1,1-26.336-26.336,26.336,26.336,0,0,1,26.336,26.336m-22.7-11.627L127.733,101a1.266,1.266,0,0,1,.757,1.641l-2.551,6.444a1.346,1.346,0,0,1-1.42,1.053l-11.82.021-1.153,22.171A23.688,23.688,0,1,0,86.04,115.353l4.845.015,8.8-17.6a1.2,1.2,0,0,1,1.085-.8l4.593-.037,2.218-4.456a1.285,1.285,0,0,1,1.135-.762,1.219,1.219,0,0,1,1.247.637c.855,1.623,1.519,3.235,2.478,4.835m-2.323,11.767c.048-.9.425-1.359,1.2-1.454l12.39-.016a42.077,42.077,0,0,0,1.667-4.343L110.587,99.4l-1.8-3.363L98.028,117.53a1.525,1.525,0,0,1-.745.475L87,118.076a23.821,23.821,0,0,0,21.881,14.463Zm-13.909,6.31L103.971,99.7a6.812,6.812,0,0,0-2.263-.053l-7.8,15.611a4.256,4.256,0,0,0,2.3-.007" transform="translate(-66.678 -66.673)" fill="#040405"/>
        <path id="Path_1261428" data-name="Path 1261428" d="M129.209,166.22l-1.244,23.593a23.821,23.821,0,0,1-21.881-14.462l10.286-.07a1.527,1.527,0,0,0,.745-.475l10.755-21.492,1.8,3.363,14.789,3.73a42.116,42.116,0,0,1-1.667,4.344l-12.39.016c-.772.1-1.149.552-1.2,1.454" transform="translate(-85.765 -123.948)" fill="#945252"/>
        <path id="Path_1261429" data-name="Path 1261429" d="M144.49,187.5a4.256,4.256,0,0,1-2.3.007l7.8-15.611a6.812,6.812,0,0,1,2.263.053Z" transform="translate(-114.954 -138.914)" fill="#626a74"/>
        <path id="Path_1261430" data-name="Path 1261430" d="M21.061,340.533A10.531,10.531,0,1,1,10.531,330a10.531,10.531,0,0,1,10.531,10.531m-7.208,2.2a7.259,7.259,0,0,1,2.681,2.891,7.883,7.883,0,1,0-12.007,0,7.733,7.733,0,0,1,2.69-2.921,3.964,3.964,0,0,1,.768-5.183,3.905,3.905,0,0,1,5.1,0,4.009,4.009,0,0,1,.772,5.213m-2.017-2.206a1.306,1.306,0,1,0-1.306,1.306,1.305,1.305,0,0,0,1.306-1.306M14.37,347.4a3.969,3.969,0,0,0-4.116-2.889,3.815,3.815,0,0,0-3.515,2.96,7.835,7.835,0,0,0,7.63-.071" transform="translate(0 -266.794)" fill="#040404"/>
        <path id="Path_1261431" data-name="Path 1261431" d="M24.984,353.9a4.009,4.009,0,0,0-.772-5.213,3.905,3.905,0,0,0-5.1,0,3.964,3.964,0,0,0-.768,5.182,7.734,7.734,0,0,0-2.69,2.921,7.88,7.88,0,1,1,12.006,0,7.257,7.257,0,0,0-2.681-2.891" transform="translate(-11.131 -277.956)" fill="#636b75"/>
        <path id="Path_1261432" data-name="Path 1261432" d="M42.821,408.63a7.835,7.835,0,0,1-7.63.071,3.815,3.815,0,0,1,3.515-2.96,3.969,3.969,0,0,1,4.116,2.889" transform="translate(-28.451 -328.02)" fill="#46c9a8"/>
        <path id="Path_1261433" data-name="Path 1261433" d="M50.778,379.465a1.306,1.306,0,1,1-1.306-1.306,1.306,1.306,0,0,1,1.306,1.306" transform="translate(-38.941 -305.727)" fill="#e1beb3"/>
        <path id="Path_1261434" data-name="Path 1261434" d="M50.716,159.195a1.318,1.318,0,0,1-1.242,1.5,1.3,1.3,0,0,1-1.415-1.392V125.259a1.328,1.328,0,1,1,2.654,0Z" transform="translate(-38.853 -100.146)" fill="#030303"/>
        <path id="Path_1261435" data-name="Path 1261435" d="M21.061,10.532A10.531,10.531,0,1,1,10.531,0,10.531,10.531,0,0,1,21.061,10.532m-7.208,2.2a7.26,7.26,0,0,1,2.681,2.891,7.882,7.882,0,1,0-12.007,0A7.74,7.74,0,0,1,7.218,12.7,3.964,3.964,0,0,1,7.985,7.52a3.906,3.906,0,0,1,5.1,0,4.01,4.01,0,0,1,.772,5.213m-2.017-2.206a1.306,1.306,0,1,0-1.306,1.306,1.306,1.306,0,0,0,1.306-1.306M14.369,17.4a3.994,3.994,0,0,0-4.117-2.9,3.846,3.846,0,0,0-3.51,2.969,7.81,7.81,0,0,0,7.627-.073" transform="translate(0 -0.001)" fill="#040404"/>
        <path id="Path_1261436" data-name="Path 1261436" d="M24.985,23.9a4.009,4.009,0,0,0-.772-5.213,3.906,3.906,0,0,0-5.1,0,3.965,3.965,0,0,0-.768,5.183,7.737,7.737,0,0,0-2.69,2.921,7.88,7.88,0,1,1,12.007,0A7.262,7.262,0,0,0,24.985,23.9" transform="translate(-11.132 -11.164)" fill="#636b75"/>
        <path id="Path_1261437" data-name="Path 1261437" d="M42.823,78.566a7.81,7.81,0,0,1-7.627.073,3.846,3.846,0,0,1,3.51-2.969,3.994,3.994,0,0,1,4.117,2.9" transform="translate(-28.455 -61.17)" fill="#5a97e5"/>
        <path id="Path_1261438" data-name="Path 1261438" d="M50.777,49.465a1.306,1.306,0,1,1-1.306-1.306,1.305,1.305,0,0,1,1.306,1.306" transform="translate(-38.94 -38.935)" fill="#e1beb3"/>
        <path id="Path_1261439" data-name="Path 1261439" d="M351.063,10.531A10.53,10.53,0,1,1,340.532,0a10.53,10.53,0,0,1,10.53,10.53m-7.208,2.2a7.258,7.258,0,0,1,2.681,2.891,7.883,7.883,0,1,0-12.007,0,7.749,7.749,0,0,1,2.691-2.92,3.964,3.964,0,0,1,.768-5.183,3.905,3.905,0,0,1,5.1,0,4.009,4.009,0,0,1,.772,5.213m-2.017-2.206a1.306,1.306,0,1,0-1.306,1.306,1.306,1.306,0,0,0,1.306-1.306m2.534,6.872a3.969,3.969,0,0,0-4.116-2.889,3.815,3.815,0,0,0-3.515,2.96,7.835,7.835,0,0,0,7.63-.071" transform="translate(-266.794 -0.001)" fill="#040404"/>
        <path id="Path_1261440" data-name="Path 1261440" d="M354.985,23.9a4.009,4.009,0,0,0-.772-5.213,3.906,3.906,0,0,0-5.1,0,3.964,3.964,0,0,0-.768,5.183,7.752,7.752,0,0,0-2.691,2.92,7.881,7.881,0,1,1,12.007,0,7.256,7.256,0,0,0-2.681-2.891" transform="translate(-277.924 -11.163)" fill="#636b75"/>
        <path id="Path_1261441" data-name="Path 1261441" d="M372.82,78.629a7.835,7.835,0,0,1-7.63.071,3.815,3.815,0,0,1,3.515-2.96,3.969,3.969,0,0,1,4.116,2.889" transform="translate(-295.242 -61.227)" fill="#46c9a8"/>
        <path id="Path_1261442" data-name="Path 1261442" d="M380.778,49.465a1.305,1.305,0,1,1-1.305-1.306,1.306,1.306,0,0,1,1.305,1.306" transform="translate(-305.734 -38.935)" fill="#e1beb3"/>
        <path id="Path_1261443" data-name="Path 1261443" d="M380.716,159.195a1.318,1.318,0,0,1-1.242,1.5,1.3,1.3,0,0,1-1.415-1.392V125.259a1.328,1.328,0,1,1,2.654,0Z" transform="translate(-305.646 -100.146)" fill="#030303"/>
        <path id="Path_1261444" data-name="Path 1261444" d="M351.061,340.532A10.531,10.531,0,1,1,340.531,330a10.53,10.53,0,0,1,10.531,10.531m-7.208,2.2a7.258,7.258,0,0,1,2.681,2.891,7.882,7.882,0,1,0-12.006,0,7.722,7.722,0,0,1,2.69-2.922,3.965,3.965,0,0,1,.768-5.183,3.905,3.905,0,0,1,5.1,0,4.009,4.009,0,0,1,.772,5.213m-2.016-2.206a1.306,1.306,0,1,0-1.306,1.306,1.306,1.306,0,0,0,1.306-1.306m2.532,6.866a3.994,3.994,0,0,0-4.117-2.9,3.847,3.847,0,0,0-3.51,2.969,7.811,7.811,0,0,0,7.627-.073" transform="translate(-266.793 -266.794)" fill="#040404"/>
        <path id="Path_1261445" data-name="Path 1261445" d="M354.985,353.9a4.009,4.009,0,0,0-.772-5.213,3.905,3.905,0,0,0-5.1,0,3.964,3.964,0,0,0-.768,5.182,7.725,7.725,0,0,0-2.69,2.922,7.88,7.88,0,1,1,12.006,0,7.257,7.257,0,0,0-2.681-2.891" transform="translate(-277.924 -277.956)" fill="#636b75"/>
        <path id="Path_1261446" data-name="Path 1261446" d="M372.822,408.565a7.811,7.811,0,0,1-7.627.073,3.847,3.847,0,0,1,3.51-2.969,3.994,3.994,0,0,1,4.117,2.9" transform="translate(-295.246 -327.962)" fill="#5a97e5"/>
        <path id="Path_1261447" data-name="Path 1261447" d="M380.776,379.464a1.306,1.306,0,1,1-1.306-1.306,1.306,1.306,0,0,1,1.306,1.306" transform="translate(-305.732 -305.727)" fill="#e1beb3"/>
      </g>
    </g>
  </g>
</svg>
