<svg xmlns="http://www.w3.org/2000/svg" xmlns:xlink="http://www.w3.org/1999/xlink" width="129.063" height="85.408" viewBox="0 0 129.063 85.408">
  <defs>
    <clipPath id="clip-path">
      <rect id="Rectangle_411940" data-name="Rectangle 411940" width="85.408" height="85.408" fill="none"/>
    </clipPath>
  </defs>
  <g id="Group_1213505" data-name="Group 1213505" transform="translate(-787.781 -2569.105)">
    <g id="Group_1201005" data-name="Group 1201005" transform="translate(0 26)">
      <g id="Rectangle_410589" data-name="Rectangle 410589" transform="translate(787.781 2575.623)" fill="#70d9c1" stroke="#4d9686" stroke-width="1">
        <rect width="129.063" height="43.021" rx="8" stroke="none"/>
        <rect x="0.5" y="0.5" width="128.063" height="42.021" rx="7.5" fill="none"/>
      </g>
    </g>
    <g id="Group_1213565" data-name="Group 1213565" transform="translate(809.608 2569.105)">
      <rect id="Rectangle_411939" data-name="Rectangle 411939" width="18.704" height="2.659" transform="translate(17.335 80.071)" fill="#d2d2d2"/>
      <g id="Group_1213564" data-name="Group 1213564">
        <g id="Group_1213563" data-name="Group 1213563" clip-path="url(#clip-path)">
          <path id="Path_1260521" data-name="Path 1260521" d="M124.709,370.961c.315,1.871.5,3.567.684,5.364l-7.616-.031.7-5.346Z" transform="translate(-94.907 -298.917)" fill="#f0f0f0"/>
          <path id="Path_1260522" data-name="Path 1260522" d="M127.6,360.034l-6.236-.013a12.565,12.565,0,0,1,.37-2.633l5.491,0a12.044,12.044,0,0,1,.376,2.644" transform="translate(-97.794 -287.99)" fill="#d2d2d2"/>
          <path id="Path_1260523" data-name="Path 1260523" d="M331.928,343.714l0,2.554a1.462,1.462,0,0,0-1.29,1.331l-.054,9.354-9.171.081a.788.788,0,0,1-.59-.283,24.588,24.588,0,0,0,1.723-4.722,1.387,1.387,0,0,0-.392-1.36,2.423,2.423,0,0,0-1.57-.358c.047-1.053,1.616-3.42-.3-3.928a1.337,1.337,0,0,0-1.567.783l-1.288,3.78a1.617,1.617,0,0,0,.165,1.59c.4.475.981.491,1.764.511-.186,1.419-1.387,2.63-.232,3.72a.869.869,0,0,1-.594.262l-9.24-.063-.035-13.29Z" transform="translate(-249.207 -276.941)" fill="#e8f0fd"/>
          <path id="Path_1260524" data-name="Path 1260524" d="M320.771,411.008a.787.787,0,0,0,.59.283l9.171-.081a12.171,12.171,0,0,1-.038,2.728l-21.232,0a18.761,18.761,0,0,1-.017-2.713l9.24.063a.868.868,0,0,0,.593-.262,1.6,1.6,0,0,0,1.693-.016" transform="translate(-249.158 -331.198)" fill="#bfcef2"/>
          <path id="Path_1260525" data-name="Path 1260525" d="M325.556,318.8l-2.563.043a2.93,2.93,0,0,1,.023-1.815,1.3,1.3,0,0,1,1.3-.842c1.146.052,1.423,1.252,1.241,2.614" transform="translate(-260.166 -254.791)" fill="#5c75a0"/>
          <path id="Path_1260526" data-name="Path 1260526" d="M394.462,318.768a19.982,19.982,0,0,1-2.612.037,5.825,5.825,0,0,1,.006-1.506,1.292,1.292,0,0,1,1.243-1.148,1.317,1.317,0,0,1,1.349,1.178,6.9,6.9,0,0,1,.013,1.439" transform="translate(-315.724 -254.76)" fill="#5c75a0"/>
          <path id="Path_1260527" data-name="Path 1260527" d="M354.2,367.825a1.6,1.6,0,0,1-1.693.016c-1.155-1.091.046-2.3.232-3.72-.784-.02-1.367-.035-1.765-.511a1.617,1.617,0,0,1-.164-1.59l1.288-3.78a1.337,1.337,0,0,1,1.567-.783c1.912.508.343,2.875.3,3.928a2.425,2.425,0,0,1,1.57.358,1.386,1.386,0,0,1,.392,1.36,24.584,24.584,0,0,1-1.723,4.722" transform="translate(-282.583 -288.015)" fill="#060707"/>
          <path id="Path_1260528" data-name="Path 1260528" d="M310.04,51.807a10.679,10.679,0,1,1-10.679-10.679A10.679,10.679,0,0,1,310.04,51.807m-18.5,1.688a8,8,0,1,0,3.287-8.277,8,8,0,0,0-3.287,8.277" transform="translate(-232.625 -33.142)" fill="#060505"/>
          <path id="Path_1260529" data-name="Path 1260529" d="M392.7,30.1a1.369,1.369,0,0,1-1.952.134,1.345,1.345,0,0,1,0-1.991l1.83-1.832a1.346,1.346,0,0,1,1.9,1.9Z" transform="translate(-314.518 -20.969)" fill="#090909"/>
          <path id="Path_1260530" data-name="Path 1260530" d="M275.808,26.4c1.232,1.205,3.278,2.664,1.859,3.89a1.333,1.333,0,0,1-1.813-.081l-1.83-1.824a1.334,1.334,0,0,1,1.783-1.984" transform="translate(-220.458 -20.999)" fill="#090909"/>
          <path id="Path_1260531" data-name="Path 1260531" d="M394.694,145.28a1.3,1.3,0,0,1-.162,1.855,1.334,1.334,0,0,1-1.862-.121l-1.734-1.731a1.368,1.368,0,0,1-.059-1.984,1.415,1.415,0,0,1,2.056.166Z" transform="translate(-314.655 -115.173)" fill="#090909"/>
          <path id="Path_1260532" data-name="Path 1260532" d="M339.248,3.969a1.315,1.315,0,0,1-1.376,1.346c-1.608-.079-1.4-2.365-1.25-4.173A1.253,1.253,0,0,1,338.05.005a1.318,1.318,0,0,1,1.2,1.318Z" transform="translate(-271.176 0)" fill="#090909"/>
          <path id="Path_1260533" data-name="Path 1260533" d="M251.523,91.879c-1.859.14-4.035.322-4.086-1.253a1.3,1.3,0,0,1,1.266-1.368l2.728-.013a1.318,1.318,0,0,1,1.317,1.2,1.263,1.263,0,0,1-1.225,1.433" transform="translate(-199.389 -71.914)" fill="#090909"/>
          <path id="Path_1260534" data-name="Path 1260534" d="M416.523,91.878c-1.86.14-4.035.322-4.086-1.253a1.3,1.3,0,0,1,1.266-1.368l2.728-.014a1.318,1.318,0,0,1,1.317,1.2,1.264,1.264,0,0,1-1.225,1.433" transform="translate(-332.349 -71.914)" fill="#090909"/>
          <path id="Path_1260535" data-name="Path 1260535" d="M339.248,168.97a1.315,1.315,0,0,1-1.376,1.346c-1.608-.079-1.4-2.364-1.25-4.173a1.253,1.253,0,0,1,1.428-1.136,1.318,1.318,0,0,1,1.2,1.318Z" transform="translate(-271.176 -132.961)" fill="#090909"/>
          <path id="Path_1260536" data-name="Path 1260536" d="M275.963,146.921a1.381,1.381,0,0,1-2.15,0c-1.033-1.227.789-2.373,1.836-3.516a1.4,1.4,0,0,1,1.976-.152,1.43,1.43,0,0,1-.067,2.061Z" transform="translate(-220.397 -115.161)" fill="#060707"/>
          <path id="Path_1260537" data-name="Path 1260537" d="M318.339,64.442a.742.742,0,0,0-.608.375,9.305,9.305,0,0,1-14.257.277c-.237-.269-.415-.491-.811-.464a8,8,0,1,1,15.677-.187" transform="translate(-243.746 -44.276)" fill="#e7a447"/>
          <path id="Path_1260538" data-name="Path 1260538" d="M319.086,103.853a8,8,0,0,1-15.677.187c.4-.026.575.2.811.464a9.305,9.305,0,0,0,14.257-.277.742.742,0,0,1,.608-.375" transform="translate(-244.493 -83.687)" fill="#cb853f"/>
          <path id="Path_1260539" data-name="Path 1260539" d="M82.722,194.066l-22.669-.037.035,13.289a18.8,18.8,0,0,0,.017,2.713l21.232,0a12.176,12.176,0,0,0,.038-2.728l.054-9.354a1.462,1.462,0,0,1,1.29-1.331,1.363,1.363,0,0,1,1.318,1.156l.062,12.19c.752.211,1.287.658,1.305,1.309a1.26,1.26,0,0,1-1.169,1.422l-26.936,0a1.291,1.291,0,0,1-1.221-1.417c.022-.66.533-1.121,1.287-1.31a22.635,22.635,0,0,0,.02-2.494c-2.027-.246-4.15.217-5.94-1.553a4.342,4.342,0,0,0-3.5-1.247,3.971,3.971,0,0,0-2.98.982c-2,2.033-3.925,1.585-6.253,1.819l-.025,3.884a1.281,1.281,0,0,1-1.243,1.336H15.933a1.284,1.284,0,0,1-1.243-1.339l-.01-5.26a1.3,1.3,0,0,1,1.212-1.374l4.263-.039.991-7.972-19.785-.023a1.3,1.3,0,0,1-1.341-1.471l2.171-11.991a1.524,1.524,0,0,1,1.656-1.26l12.275.048,1.022-9.335-10.224-.017-1.026,5.371a1.487,1.487,0,0,1-1.642,1.315c-.475-.216-1.186-.67-1.055-1.382l3.465-18.809a1.4,1.4,0,0,1,1.509-1.2H45.2a1.394,1.394,0,0,1,1.511,1.211l6.636,35.842a1.416,1.416,0,0,1-.36,1.268,1.441,1.441,0,0,1-1.171.406L32.26,196.7l.954,8,7.735.008a3.59,3.59,0,0,0,2.043-.833A6.3,6.3,0,0,1,47.949,202c6.161-.02,3.634,3.359,9.44,2.652l.005-10.55a1.5,1.5,0,0,1-1.316-1.312,1.285,1.285,0,0,1,1.2-1.418c.9-.1,1.8.075,2.684-.07a1.642,1.642,0,0,0,.1-.929,4.026,4.026,0,1,1,8.022,0,2.235,2.235,0,0,0,.089.979l5.2-.005c.077-.58.005-1.031.043-1.555a4.033,4.033,0,0,1,4.158-3.781c2.675.105,4.146,2.43,3.884,5.291,1.277.281,3.876-.594,3.953,1.319a1.354,1.354,0,0,1-1.344,1.4ZM17.468,169.957l1.019-9.3-9.375.01-1.728,9.307Zm15.737.016-1.063-9.316-10.95.012L20.164,170Zm12.783-.014-1.723-9.3-9.394.048,1.048,9.273ZM34.545,182,33.5,172.678H19.869l-1.041,9.338Zm13.667-.012-1.736-9.329-10.262.069,1.034,9.289ZM3.477,191.345a18.348,18.348,0,0,0-.52,2.669L14.8,194l.286-2.65.727-6.61-11.108-.077Zm14.371,0a10.85,10.85,0,0,0-.305,2.677l18.3-.02a14.344,14.344,0,0,0-.322-2.657l-.677-6.635-16.29-.037Zm20.437,0a23.572,23.572,0,0,0,.333,2.672l11.8-.016a18.43,18.43,0,0,0-.52-2.665L48.729,184.7l-11.151-.007Zm27.1-.047c.181-1.362-.095-2.561-1.241-2.614a1.3,1.3,0,0,0-1.3.842,2.929,2.929,0,0,0-.023,1.815Zm13.349-.005a6.9,6.9,0,0,0-.013-1.439,1.317,1.317,0,0,0-1.349-1.178,1.292,1.292,0,0,0-1.243,1.148,5.833,5.833,0,0,0-.006,1.505,19.94,19.94,0,0,0,2.612-.037m-55.173,8.023-.7,5.346,7.616.031c-.182-1.8-.37-3.493-.684-5.364a12.043,12.043,0,0,0-.376-2.644l-5.491,0a12.553,12.553,0,0,0-.37,2.633m12.473,8.04h-18.7v2.659h18.7Z" transform="translate(0 -127.293)" fill="#030404"/>
          <path id="Path_1260540" data-name="Path 1260540" d="M19.811,242.977l.406-2.617a1.487,1.487,0,0,0,1.642-1.315l1.026-5.371,10.223.017-1.021,9.335Z" transform="translate(-15.964 -188.299)" fill="#a6ebfa"/>
          <path id="Path_1260541" data-name="Path 1260541" d="M112.676,243.049l-15.717.017L98,233.728h13.629Z" transform="translate(-78.131 -188.342)" fill="#a6ebfa"/>
          <path id="Path_1260542" data-name="Path 1260542" d="M109.59,302.194H91.913l.709-6.671,16.29.036Z" transform="translate(-74.066 -238.138)" fill="#a7ebfb"/>
          <path id="Path_1260543" data-name="Path 1260543" d="M116.879,181.139l-13.041.023,1.028-9.327,10.95-.011Z" transform="translate(-83.674 -138.458)" fill="#a6ebfa"/>
          <path id="Path_1260544" data-name="Path 1260544" d="M198.491,242.954l-10.964.029-1.034-9.289,10.262-.069Z" transform="translate(-150.279 -188.26)" fill="#a6eafa"/>
          <path id="Path_1260545" data-name="Path 1260545" d="M190.7,181.143l-10.068.023-1.048-9.273,9.393-.048Z" transform="translate(-144.709 -138.476)" fill="#a6eafa"/>
          <path id="Path_1260546" data-name="Path 1260546" d="M48.108,181.136l-10.084.021,1.728-9.307,9.375-.01Z" transform="translate(-30.64 -138.472)" fill="#a6eafa"/>
          <path id="Path_1260547" data-name="Path 1260547" d="M205.84,302.239l-11.613.008-.707-6.664,11.151.007Z" transform="translate(-155.942 -238.187)" fill="#a7ebfb"/>
          <path id="Path_1260548" data-name="Path 1260548" d="M29.516,302.148l-11.61-.008,1.229-6.68,11.108.077Z" transform="translate(-14.429 -238.087)" fill="#a7ebfb"/>
          <path id="Path_1260549" data-name="Path 1260549" d="M108.321,329.88a14.343,14.343,0,0,1,.322,2.658l-18.3.02a10.861,10.861,0,0,1,.3-2.677Z" transform="translate(-72.798 -265.823)" fill="#87cfd8"/>
          <path id="Path_1260550" data-name="Path 1260550" d="M27.358,329.867l-.286,2.65-11.844.011a18.375,18.375,0,0,1,.52-2.669Z" transform="translate(-12.271 -265.807)" fill="#87cfd8"/>
          <path id="Path_1260551" data-name="Path 1260551" d="M208.773,329.859a18.4,18.4,0,0,1,.519,2.665l-11.8.016a23.57,23.57,0,0,1-.333-2.672Z" transform="translate(-158.875 -265.807)" fill="#87cfd8"/>
        </g>
      </g>
    </g>
  </g>
</svg>
