<svg xmlns="http://www.w3.org/2000/svg" xmlns:xlink="http://www.w3.org/1999/xlink" width="129.063" height="74.378" viewBox="0 0 129.063 74.378">
  <defs>
    <clipPath id="clip-path">
      <rect id="Rectangle_412055" data-name="Rectangle 412055" width="74.319" height="74.378" fill="none"/>
    </clipPath>
  </defs>
  <g id="Group_1213504" data-name="Group 1213504" transform="translate(-787.781 -2577.087)">
    <g id="Group_1201005" data-name="Group 1201005" transform="translate(0 26)">
      <g id="Rectangle_410589" data-name="Rectangle 410589" transform="translate(787.781 2575.623)" fill="#70d9c1" stroke="#4d9686" stroke-width="1">
        <rect width="129.063" height="43.021" rx="8" stroke="none"/>
        <rect x="0.5" y="0.5" width="128.063" height="42.021" rx="7.5" fill="none"/>
      </g>
    </g>
    <g id="Group_1213661" data-name="Group 1213661" transform="translate(815.153 2577.087)">
      <g id="Group_1213660" data-name="Group 1213660" clip-path="url(#clip-path)">
        <path id="Path_1261035" data-name="Path 1261035" d="M113.845,208.239a1.159,1.159,0,1,1-2.128-.916,18.773,18.773,0,0,0,.935-4.943c.124-2.06-.635-3.717-1.343-5.57-1.25-3.273-.767-6.928.309-10.193a1.214,1.214,0,0,1,1.5-.825,1.153,1.153,0,0,1,.7,1.611c-2.819,8.988,1.75,9.175,1.133,15.66a18.921,18.921,0,0,1-1.108,5.176" transform="translate(-91.878 -154.346)" fill="#070707"/>
        <path id="Path_1261036" data-name="Path 1261036" d="M306.287,208.041a1.188,1.188,0,0,1-1.556.824c-.712-.251-.873-.9-.628-1.677,2.748-8.743-1.656-9.031-1.169-15.349a19.653,19.653,0,0,1,1.074-5.314,1.171,1.171,0,0,1,1.4-.764,1.138,1.138,0,0,1,.795,1.509c-1.093,3.519-1.491,6.639.183,10.033,1.469,2.977,1.015,7.514-.1,10.739" transform="translate(-251.699 -154.33)" fill="#070707"/>
        <path id="Path_1261037" data-name="Path 1261037" d="M79.57,208.027a1.182,1.182,0,1,1-2.195-.836,13.223,13.223,0,0,0,.452-8.175,33.6,33.6,0,0,1-1.352-3.755,16.92,16.92,0,0,1,.723-8.483c.232-.712.715-1.17,1.366-1.06a1.149,1.149,0,0,1,.933,1.54c-1.046,3.329-1.512,6.523.065,9.771,1.564,3.223,1.216,7.569.007,11" transform="translate(-63.336 -154.313)" fill="#070707"/>
        <path id="Path_1261038" data-name="Path 1261038" d="M45.182,208.141a1.161,1.161,0,0,1-1.5.741,1.121,1.121,0,0,1-.715-1.4,17.3,17.3,0,0,0,.961-5.458,11.033,11.033,0,0,0-1.151-4.755c-1.425-3.195-1.016-7.547.185-10.751a1.172,1.172,0,0,1,1.436-.734,1.138,1.138,0,0,1,.761,1.47,16.527,16.527,0,0,0-.936,5.971,11.2,11.2,0,0,0,1.149,4.232c1.371,3.135,1.038,7.428-.187,10.688" transform="translate(-34.793 -154.34)" fill="#070707"/>
        <path id="Path_1261039" data-name="Path 1261039" d="M375.176,208.139a1.161,1.161,0,0,1-1.5.743,1.12,1.12,0,0,1-.716-1.4,17.3,17.3,0,0,0,.961-5.457,11.019,11.019,0,0,0-1.15-4.755c-1.428-3.2-1.013-7.541.184-10.752a1.174,1.174,0,0,1,1.438-.734,1.138,1.138,0,0,1,.759,1.469,16.883,16.883,0,0,0-.949,5.633,11.129,11.129,0,0,0,1.161,4.575c1.386,3.136,1.022,7.4-.186,10.682" transform="translate(-309.009 -154.339)" fill="#060606"/>
        <path id="Path_1261040" data-name="Path 1261040" d="M340.729,208.36a1.17,1.17,0,0,1-1.474.537,1.14,1.14,0,0,1-.639-1.428c1.029-3.346,1.543-6.49-.041-9.773s-1.23-7.687-.007-11.048a1.167,1.167,0,1,1,2.217.717c-1.035,2.916-1.439,6.584-.051,9.45,1.694,3.5,1.427,7.935-.005,11.546" transform="translate(-280.464 -154.372)" fill="#060606"/>
        <path id="Path_1261041" data-name="Path 1261041" d="M136.742,336.694l-42.421,0,21.227-18.206Zm-20.025-9.277a1.159,1.159,0,1,0-1.159,1.158,1.158,1.158,0,0,0,1.159-1.158m-9.294,5.815a1.161,1.161,0,1,0-1.161,1.161,1.161,1.161,0,0,0,1.161-1.161m16.258,0a1.159,1.159,0,1,0-1.159,1.159,1.159,1.159,0,0,0,1.159-1.159" transform="translate(-78.378 -264.66)" fill="#fdd0a4"/>
        <path id="Path_1261042" data-name="Path 1261042" d="M160.418,399.989a1.161,1.161,0,1,1-1.161-1.161,1.161,1.161,0,0,1,1.161,1.161" transform="translate(-131.373 -331.416)" fill="#0c0a08"/>
        <path id="Path_1261043" data-name="Path 1261043" d="M215.431,365.6a1.158,1.158,0,1,1-1.158-1.159,1.159,1.159,0,0,1,1.158,1.159" transform="translate(-177.092 -302.839)" fill="#0d0a08"/>
        <path id="Path_1261044" data-name="Path 1261044" d="M256.631,400a1.158,1.158,0,1,1-1.158-1.159A1.159,1.159,0,0,1,256.631,400" transform="translate(-211.329 -331.429)" fill="#0b0907"/>
        <path id="Path_1261045" data-name="Path 1261045" d="M73.348,74.371l-72.314.006A1.1,1.1,0,0,1,0,73.123a1.149,1.149,0,0,1,1.168-1.067l11.163-.014L18.6,66.673c-1.233-.693-2.566-1.062-3.862-1.636a1.167,1.167,0,1,1,.73-2.217l5.185,2.07,8.37-7.147.042-12.614a3.481,3.481,0,0,1,3.855-3.3,2.7,2.7,0,0,0,1.347-.107V1.226a1.135,1.135,0,0,1,1.2-1.208c1.2,0,2.356-.051,3.545.022a1.1,1.1,0,0,1,1.044,1.186V41.721a3.1,3.1,0,0,0,1.333.121,3.5,3.5,0,0,1,3.89,3.458L45.3,57.744l9.967,8.516,1.711-3.847a1.16,1.16,0,0,1,1.48-.75,1.129,1.129,0,0,1,.713,1.456l-1.989,4.8,4.828,4.127,11.148.006a1.147,1.147,0,0,1,1.143.931c.077.437-.078,1.389-.953,1.389M37.738,2.346H36.585V41.839h1.153ZM33.687,53.7l-.037-9.5a4.413,4.413,0,0,0-1.341-.012,1.134,1.134,0,0,0-.947,1.108l.018,10.351A20.294,20.294,0,0,0,33.687,53.7M38.321,51.6l0-7.41a11.6,11.6,0,0,0-2.341.04l.056,7.453c1.249-1.05,1.515-.352,2.283-.082m4.645-6.214c0-1.3-1.364-1.338-2.3-1.178l-.015,9.539a25.7,25.7,0,0,0,2.29,1.9Zm15.4,26.651-21.194-18.2L15.942,72.039Z" transform="translate(0 0)" fill="#050404"/>
        <rect id="Rectangle_412054" data-name="Rectangle 412054" width="1.153" height="39.493" transform="translate(36.586 2.346)" fill="#955353"/>
      </g>
    </g>
  </g>
</svg>
