<svg xmlns="http://www.w3.org/2000/svg" xmlns:xlink="http://www.w3.org/1999/xlink" width="145.631" height="100.307" viewBox="0 0 145.631 100.307">
  <defs>
    <clipPath id="clip-path">
      <rect id="Rectangle_412031" data-name="Rectangle 412031" width="86.191" height="100.307" fill="none"/>
    </clipPath>
  </defs>
  <g id="Group_1213359" data-name="Group 1213359" transform="translate(-312.781 -3857.003)">
    <g id="Group_1201016" data-name="Group 1201016">
      <g id="Rectangle_410589" data-name="Rectangle 410589" transform="translate(312.781 3886.804)" fill="#93795a" stroke="#695640" stroke-width="1">
        <rect width="145.631" height="48.544" rx="8" stroke="none"/>
        <rect x="0.5" y="0.5" width="144.631" height="47.544" rx="7.5" fill="none"/>
      </g>
    </g>
    <g id="Group_1213637" data-name="Group 1213637" transform="translate(342.501 3857.003)">
      <g id="Group_1213636" data-name="Group 1213636" clip-path="url(#clip-path)">
        <path id="Path_1260845" data-name="Path 1260845" d="M208.39,258.459l-2.8-4.171a1.594,1.594,0,0,0-1.451-.716c-1.639.063-2.09,3.066-3.237,4.68-2.446.388-4.312-.78-5.261,1.126L187.8,275.154a.76.76,0,0,1-.331.343.477.477,0,0,1-.571-.2,20.392,20.392,0,1,1,20.646,12.679l1.311-17.1,9.527-.026a1.511,1.511,0,0,0,1.286-.711l3.126-6.185a1.874,1.874,0,0,0,.166-1.618,1.764,1.764,0,0,0-1.39-.964Z" transform="translate(-143.151 -190.907)" fill="#85b9f1"/>
        <path id="Path_1260846" data-name="Path 1260846" d="M216.992,306.384l-1.478,18.984a20.321,20.321,0,0,1-15.652-9.219c3.484-.623,4.976,1.03,6.285-1.593l9.425-18.882,2.043,2.9,12.647,2.892-1.73,3.6-10.176.005a1.386,1.386,0,0,0-1.364,1.306" transform="translate(-154.3 -228.27)" fill="#935252"/>
        <rect id="Rectangle_412030" data-name="Rectangle 412030" width="15.978" height="1.092" transform="matrix(0.447, -0.894, 0.894, 0.447, 48.052, 84.414)" fill="#5d656f"/>
        <path id="Path_1260847" data-name="Path 1260847" d="M39.172,78.372,1.633,78.345A1.591,1.591,0,0,1,0,76.556L0,1.648A1.466,1.466,0,0,1,1.419.011L62.653,0a1.552,1.552,0,0,1,1.6,1.636l0,51.641A23.542,23.542,0,1,1,39.172,78.372M4.692,71.861V6.205a1.4,1.4,0,0,1,1.463-1.5l13.9-.039a3.1,3.1,0,0,0-.724-1.541l-16.2.011,0,72.051,35.845.016a1.535,1.535,0,0,0,.154-1.571L6.193,73.615c-.908,0-1.5-.666-1.5-1.754M39.725,6.244a16.928,16.928,0,0,0,1.434-3.081l-18.181.016a19.215,19.215,0,0,0,1.6,3.082Zm19.808,47.04a2.414,2.414,0,0,0,1.558-.073L61.1,3.134l-15.964.018c-.583,0-.963,1.06-.828,1.51l13.735.028a1.451,1.451,0,0,1,1.483,1.5Zm-17.1-45.5a1.861,1.861,0,0,1-2.1,1.6L23.056,9.357c-.722-.225-1.032-.789-1.32-1.554L7.811,7.8V70.456l32.148.021A23.6,23.6,0,0,1,56.4,54.076L56.394,7.785Zm22.8,59.764,13.175,2.908a1.764,1.764,0,0,1,1.39.964,1.875,1.875,0,0,1-.166,1.618l-3.127,6.185a1.511,1.511,0,0,1-1.286.711l-9.527.026-1.311,17.1A20.379,20.379,0,1,0,43.743,84.387a.477.477,0,0,0,.571.2.76.76,0,0,0,.331-.343l7.849-15.776c.948-1.906,2.815-.738,5.261-1.126,1.147-1.614,1.6-4.617,3.237-4.68a1.593,1.593,0,0,1,1.451.716ZM62.692,78.114a1.386,1.386,0,0,1,1.364-1.306L74.232,76.8l1.73-3.6L63.315,70.307l-2.043-2.9L51.847,86.286c-1.309,2.623-2.8.97-6.285,1.593A20.321,20.321,0,0,0,61.214,97.1ZM55.2,70.124l-7.147,14.29.977.489,7.147-14.29Z" transform="translate(0)" fill="#040404"/>
        <path id="Path_1260848" data-name="Path 1260848" d="M15.275,82.457c0,1.088.593,1.753,1.5,1.754l32.934.022a1.535,1.535,0,0,1-.154,1.571l-35.845-.016,0-72.051,16.2-.011a3.094,3.094,0,0,1,.724,1.541l-13.9.039a1.4,1.4,0,0,0-1.462,1.5Z" transform="translate(-10.583 -10.596)" fill="#5f6771"/>
        <path id="Path_1260849" data-name="Path 1260849" d="M209.5,63.9l0-47.093a1.451,1.451,0,0,0-1.483-1.5l-13.735-.028c-.136-.451.245-1.51.828-1.511l15.964-.018-.012,50.078a2.413,2.413,0,0,1-1.558.073" transform="translate(-149.968 -10.614)" fill="#616974"/>
        <path id="Path_1260850" data-name="Path 1260850" d="M117.541,16.953,102.4,16.97a19.222,19.222,0,0,1-1.6-3.082l18.181-.017a16.914,16.914,0,0,1-1.434,3.081" transform="translate(-77.816 -10.71)" fill="#fccc53"/>
        <path id="Path_1260851" data-name="Path 1260851" d="M68.889,34.151l13.957,0,.009,46.291a23.6,23.6,0,0,0-16.443,16.4l-32.147-.021V34.164l13.925,0c.289.765.6,1.329,1.32,1.554l17.284.028a1.861,1.861,0,0,0,2.1-1.6M42.425,50.833a1.712,1.712,0,0,0,2.668-.134l4.49-4.589a1.563,1.563,0,0,0-.2-2.162,1.516,1.516,0,0,0-1.977-.01l-3.76,3.574a1.7,1.7,0,0,0-2.356-.5,1.567,1.567,0,0,0-.324,2.258c.406.54.967,1,1.459,1.564m34.283-4.166A1.5,1.5,0,0,0,78.139,45a1.524,1.524,0,0,0-1.546-1.39L56.32,43.6a1.511,1.511,0,0,0-1.646,1.567,1.484,1.484,0,0,0,1.443,1.514ZM64.062,51.4A1.559,1.559,0,0,0,65.6,49.75a1.589,1.589,0,0,0-1.541-1.477l-7.747-.011a1.567,1.567,0,0,0-1.637,1.472A1.483,1.483,0,0,0,56.093,51.4ZM42.55,63.5a1.634,1.634,0,0,0,2.424-.147l4.615-4.7a1.587,1.587,0,0,0-.122-2.083,1.553,1.553,0,0,0-2.06-.09L43.648,60.06a1.706,1.706,0,0,0-2.356-.506,1.543,1.543,0,0,0-.319,2.252c.467.57,1,1.105,1.577,1.7M76.6,59.246a1.546,1.546,0,1,0-.01-3.091l-20.033-.017c-1.112,0-1.9.508-1.887,1.565a1.57,1.57,0,0,0,1.663,1.556Zm-12.435,4.68A1.516,1.516,0,0,0,65.6,62.294a1.56,1.56,0,0,0-1.533-1.457l-7.754-.013a1.543,1.543,0,0,0-1.639,1.68,1.571,1.571,0,0,0,1.641,1.461Zm-21.733,12a1.659,1.659,0,0,0,2.541-.037l4.612-4.7a1.566,1.566,0,0,0-.21-2.163,1.506,1.506,0,0,0-1.968-.008l-3.761,3.572a1.72,1.72,0,0,0-2.36-.511,1.573,1.573,0,0,0-.323,2.267c.408.545.959.988,1.469,1.579m34.281-4.181a1.491,1.491,0,0,0,1.424-1.673,1.544,1.544,0,0,0-1.546-1.387l-20.272-.009a1.508,1.508,0,0,0-1.646,1.565,1.48,1.48,0,0,0,1.445,1.513Zm-12.65,4.731A1.552,1.552,0,0,0,65.6,74.827a1.587,1.587,0,0,0-1.538-1.472l-7.748-.014a1.563,1.563,0,0,0-1.641,1.694,1.539,1.539,0,0,0,1.643,1.454ZM42.425,88.448a1.711,1.711,0,0,0,2.668-.134l4.49-4.589a1.563,1.563,0,0,0-.2-2.161,1.515,1.515,0,0,0-1.976-.01l-3.76,3.576a1.7,1.7,0,0,0-2.358-.506,1.56,1.56,0,0,0-.321,2.263c.4.539.967,1,1.458,1.562m28.13-4.182c.977,0,1.36-1.05,1.292-1.692a1.436,1.436,0,0,0-1.382-1.343l-14.152-.021a1.515,1.515,0,0,0-1.639,1.568,1.489,1.489,0,0,0,1.438,1.514Zm-6.492,4.746A1.559,1.559,0,0,0,65.6,87.365a1.59,1.59,0,0,0-1.54-1.477l-7.747-.011a1.567,1.567,0,0,0-1.637,1.472,1.482,1.482,0,0,0,1.416,1.661Z" transform="translate(-26.453 -26.363)" fill="#e2e5e9"/>
        <path id="Path_1260852" data-name="Path 1260852" d="M145.826,78.662l-20.59.01a1.484,1.484,0,0,1-1.443-1.514,1.511,1.511,0,0,1,1.646-1.567l20.273.014a1.524,1.524,0,0,1,1.546,1.391,1.5,1.5,0,0,1-1.431,1.667" transform="translate(-95.571 -58.358)" fill="#020202"/>
        <path id="Path_1260853" data-name="Path 1260853" d="M145.709,133.717l-20.266.013a1.57,1.57,0,0,1-1.663-1.556c-.017-1.058.776-1.566,1.887-1.565l20.033.017a1.546,1.546,0,1,1,.01,3.091" transform="translate(-95.561 -100.834)" fill="#020202"/>
        <path id="Path_1260854" data-name="Path 1260854" d="M145.833,188.679l-20.6.01a1.48,1.48,0,0,1-1.445-1.513,1.508,1.508,0,0,1,1.646-1.565l20.272.009a1.544,1.544,0,0,1,1.546,1.387,1.491,1.491,0,0,1-1.424,1.673" transform="translate(-95.572 -143.298)" fill="#020202"/>
        <path id="Path_1260855" data-name="Path 1260855" d="M139.669,243.643l-14.445.027a1.49,1.49,0,0,1-1.437-1.515,1.515,1.515,0,0,1,1.639-1.568l14.153.021a1.436,1.436,0,0,1,1.382,1.343c.069.642-.314,1.69-1.291,1.692" transform="translate(-95.567 -185.741)" fill="#030303"/>
        <path id="Path_1260856" data-name="Path 1260856" d="M63.964,82.761c-.492-.562-1.053-1.024-1.459-1.564a1.567,1.567,0,0,1,.324-2.259,1.7,1.7,0,0,1,2.356.5l3.76-3.574a1.516,1.516,0,0,1,1.977.01,1.563,1.563,0,0,1,.2,2.162l-4.49,4.589a1.712,1.712,0,0,1-2.668.134" transform="translate(-47.992 -58.291)" fill="#080909"/>
        <path id="Path_1260857" data-name="Path 1260857" d="M63.959,192.787c-.51-.591-1.062-1.033-1.469-1.579a1.574,1.574,0,0,1,.323-2.267,1.721,1.721,0,0,1,2.36.511l3.761-3.572a1.506,1.506,0,0,1,1.968.008,1.566,1.566,0,0,1,.21,2.163l-4.612,4.7a1.659,1.659,0,0,1-2.541.037" transform="translate(-47.979 -143.225)" fill="#080809"/>
        <path id="Path_1260858" data-name="Path 1260858" d="M63.949,247.761c-.491-.561-1.053-1.023-1.458-1.562a1.56,1.56,0,0,1,.321-2.263,1.7,1.7,0,0,1,2.358.506l3.76-3.576a1.516,1.516,0,0,1,1.976.01,1.563,1.563,0,0,1,.2,2.161l-4.49,4.589a1.711,1.711,0,0,1-2.668.134" transform="translate(-47.978 -185.677)" fill="#080909"/>
        <path id="Path_1260859" data-name="Path 1260859" d="M64.07,137.956c-.576-.592-1.111-1.127-1.577-1.7a1.543,1.543,0,0,1,.319-2.252,1.706,1.706,0,0,1,2.356.506l3.759-3.577a1.553,1.553,0,0,1,2.06.09,1.587,1.587,0,0,1,.122,2.083l-4.615,4.7a1.634,1.634,0,0,1-2.424.148" transform="translate(-47.973 -100.817)" fill="#080909"/>
        <path id="Path_1260860" data-name="Path 1260860" d="M133.182,99.2l-7.97,0a1.483,1.483,0,0,1-1.416-1.661,1.567,1.567,0,0,1,1.637-1.472l7.747.011a1.59,1.59,0,0,1,1.541,1.477,1.559,1.559,0,0,1-1.539,1.646" transform="translate(-95.573 -74.163)" fill="#060707"/>
        <path id="Path_1260861" data-name="Path 1260861" d="M133.274,154.266l-7.851.038a1.571,1.571,0,0,1-1.641-1.461,1.543,1.543,0,0,1,1.639-1.68l7.754.013a1.56,1.56,0,0,1,1.534,1.457,1.516,1.516,0,0,1-1.435,1.632" transform="translate(-95.561 -116.703)" fill="#060707"/>
        <path id="Path_1260862" data-name="Path 1260862" d="M133.172,209.206l-7.748.014a1.539,1.539,0,0,1-1.643-1.454,1.563,1.563,0,0,1,1.641-1.695l7.748.014a1.587,1.587,0,0,1,1.538,1.472,1.552,1.552,0,0,1-1.537,1.648" transform="translate(-95.561 -159.094)" fill="#070707"/>
        <path id="Path_1260863" data-name="Path 1260863" d="M133.182,264.2l-7.97,0a1.482,1.482,0,0,1-1.416-1.661,1.567,1.567,0,0,1,1.637-1.471l7.747.011a1.59,1.59,0,0,1,1.54,1.477,1.559,1.559,0,0,1-1.539,1.646" transform="translate(-95.573 -201.549)" fill="#060707"/>
      </g>
    </g>
  </g>
</svg>
