<svg xmlns="http://www.w3.org/2000/svg" xmlns:xlink="http://www.w3.org/1999/xlink" width="189.297" height="130.414" viewBox="0 0 189.297 130.414">
  <defs>
    <filter id="influencer-their-pet-creating-content-online-spaces-social-media" x="0" y="45.431" width="189.297" height="84.982" filterUnits="userSpaceOnUse">
      <feOffset dy="3" input="SourceAlpha"/>
      <feGaussianBlur stdDeviation="3" result="blur"/>
      <feFlood flood-opacity="0.161"/>
      <feComposite operator="in" in2="blur"/>
      <feComposite in="SourceGraphic"/>
    </filter>
    <clipPath id="clip-path">
      <rect id="Rectangle_412039" data-name="Rectangle 412039" width="135.379" height="118.414" fill="none"/>
    </clipPath>
  </defs>
  <g id="Group_1213205" data-name="Group 1213205" transform="translate(9 20.112)">
    <g transform="matrix(1, 0, 0, 1, -9, -20.11)" filter="url(#influencer-their-pet-creating-content-online-spaces-social-media)">
      <path id="influencer-their-pet-creating-content-online-spaces-social-media-2" data-name="influencer-their-pet-creating-content-online-spaces-social-media" d="M0,0H171.3V66.982H0Z" transform="translate(9 51.43)" fill="#695640"/>
    </g>
    <g id="Group_1213647" data-name="Group 1213647" transform="translate(17.959 -20.112)">
      <g id="Group_1213646" data-name="Group 1213646" clip-path="url(#clip-path)">
        <path id="Path_1260937" data-name="Path 1260937" d="M18.686,118.389A18.77,18.77,0,0,1,.078,99.821L0,42.328A2.065,2.065,0,0,1,1.886,40.2l23.494-.031L25.4,2.083A2,2,0,0,1,27.517,0L133.105,0a2.045,2.045,0,0,1,2.273,2.076l-.063,97.718a18.862,18.862,0,0,1-18.762,18.62ZM4.268,44.606,4.25,99.183a14.794,14.794,0,1,0,29.586.292l.025-95.167a21,21,0,0,0-4.23.014l-.059,95.461a10.438,10.438,0,0,1-10.881,10.167A10.6,10.6,0,0,1,8.467,99.176l0-54.664a13.872,13.872,0,0,0-4.2.094m112.744,69.612a14.891,14.891,0,0,0,14.117-15.369L131.1,4.23H38.125l-.03,95.867a19.7,19.7,0,0,1-6.97,14.112ZM25.406,99.028l-.027-54.587-12.681.03V99.722a6.363,6.363,0,0,0,12.708-.694" fill="#030303"/>
        <path id="Path_1260938" data-name="Path 1260938" d="M187.07,123.739l-85.887-.009a19.694,19.694,0,0,0,6.97-14.112l.03-95.867h92.979l.025,94.62a14.891,14.891,0,0,1-14.117,15.369m7.794-105.753H114.48V28.542h80.384Zm.07,14.765H114.48v69.827h80.455Zm-44.43,78.24a2.015,2.015,0,0,0,1.987-2.362,2.041,2.041,0,0,0-2.134-1.81l-33.491-.015a2.119,2.119,0,1,0,0,4.217Zm42.426.027a2.111,2.111,0,0,0,1.935-2.372,2.084,2.084,0,0,0-2.077-1.826l-33.787,0a2.055,2.055,0,0,0-2.119,2.093A2.025,2.025,0,0,0,159,111Zm-59.042,6.255c1.416-.007,1.812-1.569,1.641-2.443a2.19,2.19,0,0,0-2.386-1.719l-16.6.037a2.1,2.1,0,0,0-2.046,2.179,2.158,2.158,0,0,0,2.339,2.026Zm41.871.062a2.1,2.1,0,1,0,.119-4.189L159,113.134a2.082,2.082,0,0,0-2.113,1.935,1.92,1.92,0,0,0,1.8,2.231Z" transform="translate(-70.059 -9.521)" fill="#e2e5e9"/>
        <path id="Path_1260939" data-name="Path 1260939" d="M13.835,54.077a13.874,13.874,0,0,1,4.2-.094v54.664A10.6,10.6,0,0,0,28.258,119.42a10.438,10.438,0,0,0,10.881-10.167L39.2,13.793a21,21,0,0,1,4.23-.014L43.4,108.945a14.794,14.794,0,1,1-29.586-.292Z" transform="translate(-9.567 -9.471)" fill="#c9cdd5"/>
        <path id="Path_1260940" data-name="Path 1260940" d="M53.987,199.063a6.363,6.363,0,0,1-12.708.694V144.506l12.681-.03Z" transform="translate(-28.581 -100.034)" fill="#a8b0bb"/>
        <path id="Path_1260941" data-name="Path 1260941" d="M224.794,38.074H144.41V27.519h80.384Zm-4.219-6.307H148.629v2.1h71.946Z" transform="translate(-99.989 -19.054)" fill="#010102"/>
        <path id="Path_1260942" data-name="Path 1260942" d="M318.3,320.5l-33.926-.013a2.025,2.025,0,0,1-2.122-2.094,2.055,2.055,0,0,1,2.119-2.093l33.787,0a2.084,2.084,0,0,1,2.077,1.826A2.111,2.111,0,0,1,318.3,320.5" transform="translate(-195.432 -219.006)" fill="#010202"/>
        <path id="Path_1260943" data-name="Path 1260943" d="M180.541,320.447l-33.642.03a2.119,2.119,0,1,1,0-4.216l33.491.014a2.041,2.041,0,0,1,2.134,1.81,2.016,2.016,0,0,1-1.987,2.362" transform="translate(-100.095 -218.977)" fill="#010101"/>
        <path id="Path_1260944" data-name="Path 1260944" d="M301.121,341.038,284.046,341a1.92,1.92,0,0,1-1.8-2.231,2.082,2.082,0,0,1,2.113-1.935l16.881.011a2.1,2.1,0,1,1-.119,4.189" transform="translate(-195.422 -233.225)" fill="#070708"/>
        <path id="Path_1260945" data-name="Path 1260945" d="M163.855,340.921,146.8,341a2.158,2.158,0,0,1-2.338-2.026,2.1,2.1,0,0,1,2.046-2.179l16.6-.037a2.19,2.19,0,0,1,2.386,1.719c.17.874-.226,2.437-1.641,2.443" transform="translate(-100.026 -233.169)" fill="#070708"/>
        <path id="Path_1260946" data-name="Path 1260946" d="M226.342,106.436l-24.365-6.081c-1.333-2.4-2.439-4.724-3.621-7.186-.41-.853-.925-1.473-1.684-1.544a2.1,2.1,0,0,0-2.287.966l-3.72,7.381-7.338.059a1.925,1.925,0,0,0-1.758,1.283l-14.153,28.3-9.276,0-.026-40.121,71.964-.006.017,61.278-29.507,0,1.845-29.57,19.327-.02a2.043,2.043,0,0,0,1.7-1.073l4.353-10.963a2.044,2.044,0,0,0-1.476-2.707" transform="translate(-109.478 -61.96)" fill="#86bbf2"/>
        <path id="Path_1260947" data-name="Path 1260947" d="M224.866,145.345H144.411V75.519h80.455Zm-8.012-48.581a2.044,2.044,0,0,1,1.476,2.707l-4.353,10.963a2.044,2.044,0,0,1-1.7,1.073l-19.327.02L191.1,141.1l29.507,0-.017-61.277-71.964.006.026,40.121,9.276,0,14.153-28.3a1.925,1.925,0,0,1,1.758-1.284l7.338-.058,3.72-7.381a2.1,2.1,0,0,1,2.287-.967c.759.071,1.275.691,1.684,1.545,1.182,2.462,2.289,4.791,3.621,7.186Zm-28.028,12.771c.085-1.363.717-2.164,1.948-2.255l19.9-.032,2.756-6.957-21.735-5.436c-.827-.207-1.93-.221-2.341-.987l-2.677-4.995-17.249,34.488a2.3,2.3,0,0,1-2.055.831l-18.741.051.016,16.864,38.219.006Zm-22.309,10.191,12.467-25.039a17.1,17.1,0,0,0-3.659-.048l-12.515,25.091a6.163,6.163,0,0,0,3.707,0" transform="translate(-99.989 -52.289)" fill="#040404"/>
        <path id="Path_1260948" data-name="Path 1260948" d="M198.325,139.6l-1.96,31.579-38.219-.006-.016-16.864,18.741-.051a2.3,2.3,0,0,0,2.055-.831l17.249-34.488,2.677,4.995c.411.766,1.514.78,2.341.986l21.735,5.436-2.756,6.957-19.9.032c-1.231.091-1.864.892-1.948,2.255" transform="translate(-109.488 -82.35)" fill="#955252"/>
        <path id="Path_1260949" data-name="Path 1260949" d="M207.929,162.6a6.163,6.163,0,0,1-3.707,0l12.515-25.091a17.1,17.1,0,0,1,3.659.048Z" transform="translate(-141.402 -95.158)" fill="#626a74"/>
        <rect id="Rectangle_412038" data-name="Rectangle 412038" width="71.946" height="2.105" transform="translate(48.64 12.713)" fill="#5f6771"/>
      </g>
    </g>
  </g>
</svg>
