<svg xmlns="http://www.w3.org/2000/svg" xmlns:xlink="http://www.w3.org/1999/xlink" width="145.631" height="83.927" viewBox="0 0 145.631 83.927">
  <defs>
    <clipPath id="clip-path">
      <rect id="Rectangle_412032" data-name="Rectangle 412032" width="83.981" height="83.927" fill="none"/>
    </clipPath>
  </defs>
  <g id="Group_1213357" data-name="Group 1213357" transform="translate(-312.781 -3862.734)">
    <g id="Group_1201016" data-name="Group 1201016">
      <g id="Rectangle_410589" data-name="Rectangle 410589" transform="translate(312.781 3886.804)" fill="#93795a" stroke="#695640" stroke-width="1">
        <rect width="145.631" height="48.544" rx="8" stroke="none"/>
        <rect x="0.5" y="0.5" width="144.631" height="47.544" rx="7.5" fill="none"/>
      </g>
    </g>
    <g id="Group_1213639" data-name="Group 1213639" transform="translate(343.607 3862.734)">
      <g id="Group_1213638" data-name="Group 1213638" clip-path="url(#clip-path)">
        <path id="Path_1260864" data-name="Path 1260864" d="M57.518.078c1.958.177,3.961-.361,5.738.149C65.408.844,67.2,2.185,69.24,3.08L81.215,33.215l.115,3.774c.431.638,3.6,1.541,2.367,3.115l-2.4,3.059a40.611,40.611,0,0,1-81.22.506c0-3.456-.184-6.95.038-10.4l12-30.242c2.147-.836,3.9-2.269,6.05-2.824,1.775-.458,3.713.05,5.523-.135,2.473-.252.826,12.951,1.12,12.1l-1.9,5.542c4.594-2.657,9.562-4.007,14.538-5.18C39.582,9.256,41.813,5.862,44.8,3.3c.435-.374.652-.687,1.267-.571a1.237,1.237,0,0,1,1.094.908l2.567,14,11.362,6.957c-1.131-4.446-3.577-8.222-4.485-12.544-.734-3.494.166-7.111-.275-10.652C56.26.858,56.886.021,57.518.078M55.864,70.841a31.2,31.2,0,0,0,16.1-24.573,34.839,34.839,0,0,0-3.878-.713,27.493,27.493,0,0,1-54.88-1.3,79.183,79.183,0,0,1,.051-9.1l8.964-23.545.163-8.881c-4.932-.283-4.064.351-8.239,2.261L2.729,33.831c-.157,3.459-.1,6.995-.025,10.355a37.979,37.979,0,0,0,75.762,2.881c-1.654.6-2.227-.19-3.915-.226A33.8,33.8,0,0,1,56.973,73.215a1.31,1.31,0,1,1-1.109-2.374m22.4-38.033L67.163,4.994c-4.15-2.02-3.424-2.52-8.153-2.276V11.63L65,27.025l13.52,8.331a3.282,3.282,0,0,0-.262-2.548M35.094,41.572a1.324,1.324,0,0,1,.358-1.972,1.345,1.345,0,0,1,1.79.423,13.068,13.068,0,0,0,19.107.9,1.264,1.264,0,0,1,1.089-.272l19.395,3.893,3.778-4.8L47.368,19.273,45.019,6.79a35.624,35.624,0,0,0-8.586,15.58,1.646,1.646,0,0,1-1.413,1.615A38.047,38.047,0,0,0,15.794,37.2l-.022,5.554A25.142,25.142,0,0,0,34.837,67.5a24.444,24.444,0,0,0,17.582-2.324,31.549,31.549,0,0,1-6.5-17.954,15.839,15.839,0,0,1-10.822-5.649M24.631,20.88a1.357,1.357,0,0,1-.423,2.07c-2.048.979-1.867-2.765-3.108-1.036l-3.456,9.2A42.019,42.019,0,0,1,33.92,21.564a48.709,48.709,0,0,1,2.019-5.9,21.908,21.908,0,0,0-4.393,1.17,3.408,3.408,0,0,0,.327,1.117,1.328,1.328,0,0,1-.814,1.786c-1.667.52-1.658-1.647-2.224-1.943a36.264,36.264,0,0,0-4.545,2.149c-.194.2.208.739.341.937M65.473,44.938l-7.915-1.55a16.041,16.041,0,0,1-9.008,3.848A28.576,28.576,0,0,0,54.7,63.8,24.912,24.912,0,0,0,65.473,44.938" transform="translate(0 -0.001)" fill="#050405"/>
        <path id="Path_1260865" data-name="Path 1260865" d="M67.031,82.14a1.31,1.31,0,1,0,1.109,2.374A33.8,33.8,0,0,0,85.717,58.14c1.688.037,2.261.824,3.915.226A37.979,37.979,0,0,1,13.87,55.484c-.073-3.36-.132-6.9.025-10.354L25.309,16.285c4.176-1.91,3.307-2.544,8.239-2.262l-.163,8.881L24.421,46.45a79.14,79.14,0,0,0-.051,9.1,27.493,27.493,0,0,0,54.88,1.3,34.768,34.768,0,0,1,3.878.713,31.205,31.205,0,0,1-16.1,24.573M36.713,82.2A30.993,30.993,0,0,1,20.4,55.4l-.055-10.111a1.2,1.2,0,0,0-1.4-1.125,1.3,1.3,0,0,0-1.182,1.326l0,9.334A33.907,33.907,0,0,0,35.453,84.487,1.313,1.313,0,0,0,37.237,84a1.294,1.294,0,0,0-.524-1.8" transform="translate(-11.167 -11.299)" fill="#c9ced6"/>
        <path id="Path_1260866" data-name="Path 1260866" d="M328.869,44.108a3.282,3.282,0,0,1,.262,2.548l-13.52-8.331-5.993-15.4V14.019c4.729-.244,4,.256,8.153,2.276Z" transform="translate(-250.609 -11.301)" fill="#c9ced6"/>
        <path id="Path_1260867" data-name="Path 1260867" d="M99.556,87.4c-.133-.2-.535-.732-.341-.937a36.278,36.278,0,0,1,4.545-2.149c.565.3.557,2.463,2.224,1.943a1.328,1.328,0,0,0,.814-1.786,3.4,3.4,0,0,1-.327-1.117,21.905,21.905,0,0,1,4.393-1.17,48.711,48.711,0,0,0-2.019,5.9,42.018,42.018,0,0,0-16.277,9.553l3.456-9.2c1.241-1.728,1.061,2.015,3.109,1.036a1.357,1.357,0,0,0,.423-2.07" transform="translate(-74.926 -66.522)" fill="#626a75"/>
        <path id="Path_1260868" data-name="Path 1260868" d="M53.529,210.429a1.294,1.294,0,0,1,.524,1.8,1.313,1.313,0,0,1-1.784.489,33.907,33.907,0,0,1-17.694-29.667l0-9.334a1.3,1.3,0,0,1,1.182-1.326,1.2,1.2,0,0,1,1.4,1.125l.055,10.111a30.993,30.993,0,0,0,16.317,26.8" transform="translate(-27.983 -139.533)" fill="#050606"/>
        <path id="Path_1260869" data-name="Path 1260869" d="M102.077,70.4A15.84,15.84,0,0,0,112.9,76.054a31.546,31.546,0,0,0,6.5,17.953,24.444,24.444,0,0,1-17.582,2.324A25.142,25.142,0,0,1,82.756,71.584l.022-5.554A38.047,38.047,0,0,1,102,52.817a1.646,1.646,0,0,0,1.413-1.615A35.624,35.624,0,0,1,112,35.622l2.349,12.483,33.243,20.472-3.778,4.8-19.395-3.893a1.263,1.263,0,0,0-1.089.272,13.068,13.068,0,0,1-19.107-.9,1.345,1.345,0,0,0-1.79-.423,1.324,1.324,0,0,0-.358,1.973m14.754-12.657a1.3,1.3,0,1,0-1.3,1.3,1.3,1.3,0,0,0,1.3-1.3" transform="translate(-66.984 -28.833)" fill="#955252"/>
        <path id="Path_1260870" data-name="Path 1260870" d="M250.473,146.175a1.3,1.3,0,1,1-1.3-1.3,1.3,1.3,0,0,1,1.3,1.3" transform="translate(-200.626 -117.261)" fill="#060303"/>
      </g>
    </g>
  </g>
</svg>
