<svg xmlns="http://www.w3.org/2000/svg" xmlns:xlink="http://www.w3.org/1999/xlink" width="189.297" height="117.831" viewBox="0 0 189.297 117.831">
  <defs>
    <filter id="influencer-their-pet-creating-content-online-spaces-social-media" x="0" y="32.849" width="189.297" height="84.982" filterUnits="userSpaceOnUse">
      <feOffset dy="3" input="SourceAlpha"/>
      <feGaussianBlur stdDeviation="3" result="blur"/>
      <feFlood flood-opacity="0.161"/>
      <feComposite operator="in" in2="blur"/>
      <feComposite in="SourceGraphic"/>
    </filter>
    <clipPath id="clip-path">
      <rect id="Rectangle_412037" data-name="Rectangle 412037" width="117.847" height="115.963" fill="none"/>
    </clipPath>
  </defs>
  <g id="Group_1213364" data-name="Group 1213364" transform="translate(9 7.53)">
    <g transform="matrix(1, 0, 0, 1, -9, -7.53)" filter="url(#influencer-their-pet-creating-content-online-spaces-social-media)">
      <path id="influencer-their-pet-creating-content-online-spaces-social-media-2" data-name="influencer-their-pet-creating-content-online-spaces-social-media" d="M0,0H171.3V66.982H0Z" transform="translate(9 38.85)" fill="#d3af82"/>
    </g>
    <g id="Group_1213645" data-name="Group 1213645" transform="translate(33.128 -2.53)">
      <g id="Group_1213644" data-name="Group 1213644" transform="translate(-7 -5)" clip-path="url(#clip-path)">
        <path id="Path_1260906" data-name="Path 1260906" d="M115.995,115.957l-114.048.006a1.831,1.831,0,0,1-1.929-1.807L0,5.818A5.637,5.637,0,0,1,6.764.086l104.594,0a5.506,5.506,0,0,1,6.451,5.226l.037,108.593a1.838,1.838,0,0,1-1.852,2.057M6.729,7.3A2.008,2.008,0,0,1,5.59,5.637a2,2,0,0,1,.937-1.774,1.966,1.966,0,0,0-2.64.935,3.468,3.468,0,0,0-.035,2.444A5.277,5.277,0,0,0,6.729,7.3m5.63,0a1.894,1.894,0,0,1-1.269-1.662,2.423,2.423,0,0,1,.966-1.847,38.283,38.283,0,0,0-4.3-.078A1.948,1.948,0,0,1,9.207,5.624c-.01.76-.465,1.223-1.217,1.7a17.858,17.858,0,0,0,4.368-.025m1.372-.2c-.262-.022-.874.142-.789.442.112.4.591-.119.832-.186,1.212.062,2.423.08,3.826.032l.306.2a.559.559,0,0,0,.451.052c.242-.125.034-.2,0-.281-.124-.272-.419-.117-.743-.24a1.729,1.729,0,0,1-.972-1.513,2.241,2.241,0,0,1,.966-1.8,21.167,21.167,0,0,0-4.132-.062A2.134,2.134,0,0,1,14.71,5.2a1.706,1.706,0,0,1-.98,1.9m100.4-1.486A1.843,1.843,0,0,0,112.148,3.7l-93.155.008a2.018,2.018,0,0,1,1.273,1.917c.035.839-.645,1.2-1.215,1.781l94.914.008a3.174,3.174,0,0,0,.161-1.8M7.507,7.509a.134.134,0,1,0-.134.134.134.134,0,0,0,.134-.134m106.646,3.554H3.707V112.288H114.153Z" transform="translate(0 0)" fill="#030303"/>
        <path id="Path_1260907" data-name="Path 1260907" d="M124.288,142.537H13.842V41.312H124.288ZM17.515,107.556H120.694V45.012H17.515Zm22.113,11.989a6.436,6.436,0,1,0-6.436,6.436,6.436,6.436,0,0,0,6.436-6.436m35.9,0a6.434,6.434,0,1,0-6.434,6.434,6.434,6.434,0,0,0,6.434-6.434m35.9,0A6.434,6.434,0,1,0,105,125.98a6.433,6.433,0,0,0,6.433-6.434m-66.49,13.79a1.842,1.842,0,1,0,.005-3.669l-23.53.012a1.818,1.818,0,0,0-1.992,1.8,1.786,1.786,0,0,0,1.969,1.86Zm36.014-.011a1.78,1.78,0,0,0,1.864-2.086,1.838,1.838,0,0,0-1.992-1.571L57.05,129.7A1.775,1.775,0,0,0,55.3,131.73a1.818,1.818,0,0,0,1.981,1.608ZM117.1,133.3a1.739,1.739,0,0,0,1.659-2,1.8,1.8,0,0,0-1.778-1.614l-23.8,0a1.811,1.811,0,0,0-1.955,1.81,1.777,1.777,0,0,0,1.943,1.846Zm-77.363,5.557a1.85,1.85,0,0,0,1.717-1.979,1.883,1.883,0,0,0-1.863-1.7l-12.836.007A1.821,1.821,0,0,0,24.94,137.1a1.8,1.8,0,0,0,1.8,1.748Zm35.883,0a1.819,1.819,0,0,0,1.734-1.986,1.894,1.894,0,0,0-1.876-1.7l-12.836.007a1.87,1.87,0,0,0-1.875,1.929,1.83,1.83,0,0,0,1.856,1.736Zm36.137-.067c1.2-.005,1.628-1.355,1.447-2.167a1.871,1.871,0,0,0-1.845-1.451l-12.837.011a1.848,1.848,0,0,0-1.81,1.915,1.822,1.822,0,0,0,1.794,1.748Z" transform="translate(-10.135 -30.249)" fill="#e2e5e9"/>
        <path id="Path_1260908" data-name="Path 1260908" d="M166.053,15.718a3.174,3.174,0,0,1-.161,1.8l-94.914-.008c.57-.577,1.25-.942,1.215-1.781a2.018,2.018,0,0,0-1.273-1.917l93.155-.008a1.842,1.842,0,0,1,1.978,1.913" transform="translate(-51.928 -10.108)" fill="#c7ccd4"/>
        <path id="Path_1260909" data-name="Path 1260909" d="M33.573,17.369a17.861,17.861,0,0,1-4.368.025c.752-.473,1.208-.935,1.217-1.7a1.947,1.947,0,0,0-1.448-1.917,38.348,38.348,0,0,1,4.3.078,2.423,2.423,0,0,0-.966,1.847,1.894,1.894,0,0,0,1.269,1.662" transform="translate(-21.215 -10.075)" fill="#bdc2c9"/>
        <path id="Path_1260910" data-name="Path 1260910" d="M54.433,17.168l-.009.264c-1.4.048-2.614.031-3.826-.032l-.042-.256a1.706,1.706,0,0,0,.98-1.9A2.134,2.134,0,0,0,50.295,13.8a21.15,21.15,0,0,1,4.132.062,2.241,2.241,0,0,0-.966,1.8,1.729,1.729,0,0,0,.972,1.513" transform="translate(-36.826 -10.049)" fill="#bdc2c9"/>
        <path id="Path_1260911" data-name="Path 1260911" d="M16.688,17.408a5.277,5.277,0,0,1-2.876-.056,3.468,3.468,0,0,1,.035-2.444,1.966,1.966,0,0,1,2.64-.935,1.943,1.943,0,0,0,.2,3.434" transform="translate(-9.96 -10.111)" fill="#bdc2c9"/>
        <path id="Path_1260912" data-name="Path 1260912" d="M49.09,26.492l.042.256c-.241.067-.719.586-.832.186-.084-.3.528-.464.789-.442" transform="translate(-35.36 -19.396)" fill="#131414"/>
        <path id="Path_1260913" data-name="Path 1260913" d="M65.713,26.849l.009-.264c.324.124.619-.031.743.24.038.084.246.156,0,.281a.561.561,0,0,1-.451-.052Z" transform="translate(-48.115 -19.466)" fill="#131414"/>
        <path id="Path_1260914" data-name="Path 1260914" d="M27.3,27.674a.134.134,0,1,1-.134-.134.134.134,0,0,1,.134.134" transform="translate(-19.792 -20.165)" fill="#131414"/>
        <path id="Path_1260915" data-name="Path 1260915" d="M328.68,374.918l-23.934.035a1.777,1.777,0,0,1-1.943-1.846,1.811,1.811,0,0,1,1.955-1.81l23.8,0a1.8,1.8,0,0,1,1.778,1.614,1.74,1.74,0,0,1-1.659,2" transform="translate(-221.711 -271.863)" fill="#010101"/>
        <path id="Path_1260916" data-name="Path 1260916" d="M60.209,374.912H36.661a1.786,1.786,0,0,1-1.969-1.86,1.817,1.817,0,0,1,1.992-1.8l23.53-.012a1.842,1.842,0,1,1-.005,3.669" transform="translate(-25.401 -271.824)" fill="#010101"/>
        <path id="Path_1260917" data-name="Path 1260917" d="M194.263,374.9l-23.677.012a1.818,1.818,0,0,1-1.981-1.608,1.775,1.775,0,0,1,1.751-2.034l23.778-.028a1.838,1.838,0,0,1,1.992,1.571,1.78,1.78,0,0,1-1.864,2.086" transform="translate(-123.441 -271.824)" fill="#010101"/>
        <path id="Path_1260918" data-name="Path 1260918" d="M203.924,395.489l-13-.012a1.831,1.831,0,0,1-1.856-1.736,1.87,1.87,0,0,1,1.876-1.928l12.835-.008a1.894,1.894,0,0,1,1.876,1.7,1.819,1.819,0,0,1-1.734,1.986" transform="translate(-138.435 -286.879)" fill="#060606"/>
        <path id="Path_1260919" data-name="Path 1260919" d="M338.343,395.422l-13.252.055a1.822,1.822,0,0,1-1.794-1.748,1.848,1.848,0,0,1,1.81-1.915l12.837-.011a1.871,1.871,0,0,1,1.845,1.451c.181.811-.246,2.162-1.447,2.167" transform="translate(-236.717 -286.878)" fill="#060606"/>
        <path id="Path_1260920" data-name="Path 1260920" d="M70.08,395.5l-13-.018a1.8,1.8,0,0,1-1.8-1.748,1.821,1.821,0,0,1,1.818-1.911l12.836-.007a1.883,1.883,0,0,1,1.863,1.7A1.85,1.85,0,0,1,70.08,395.5" transform="translate(-40.475 -286.886)" fill="#060606"/>
        <path id="Path_1260921" data-name="Path 1260921" d="M343.078,315.858a6.434,6.434,0,1,1-6.434-6.434,6.434,6.434,0,0,1,6.434,6.434m-3.7,0a2.745,2.745,0,1,0-2.745,2.745,2.745,2.745,0,0,0,2.745-2.745" transform="translate(-241.78 -226.56)" fill="#050506"/>
        <path id="Path_1260922" data-name="Path 1260922" d="M349.45,325.947a2.745,2.745,0,1,1-2.745-2.745,2.745,2.745,0,0,1,2.745,2.745" transform="translate(-251.848 -236.648)" fill="#5a96e4"/>
        <path id="Path_1260923" data-name="Path 1260923" d="M74.934,315.843a6.436,6.436,0,1,1-6.436-6.437,6.436,6.436,0,0,1,6.436,6.437m-3.692,0a2.75,2.75,0,1,0-2.75,2.75,2.75,2.75,0,0,0,2.75-2.75" transform="translate(-45.441 -226.547)" fill="#050506"/>
        <path id="Path_1260924" data-name="Path 1260924" d="M81.308,325.927a2.75,2.75,0,1,1-2.75-2.75,2.75,2.75,0,0,1,2.75,2.75" transform="translate(-55.507 -236.63)" fill="#5a96e4"/>
        <path id="Path_1260925" data-name="Path 1260925" d="M209,315.845a6.434,6.434,0,1,1-6.434-6.434A6.434,6.434,0,0,1,209,315.845m-3.692,0a2.747,2.747,0,1,0-2.747,2.747,2.747,2.747,0,0,0,2.747-2.747" transform="translate(-143.611 -226.55)" fill="#050506"/>
        <path id="Path_1260926" data-name="Path 1260926" d="M215.378,325.94a2.747,2.747,0,1,1-2.747-2.747,2.747,2.747,0,0,1,2.747,2.747" transform="translate(-153.677 -236.642)" fill="#5a96e4"/>
        <path id="Path_1260927" data-name="Path 1260927" d="M27.558,55.131H130.737v62.543H27.558ZM87.04,75.44a1.751,1.751,0,0,1,1.2,2.313l-3.578,9.059A1.846,1.846,0,0,1,82.84,88.25l-16.7.008L64.523,114l62.5-.013L127,58.829l-95.73-.009-.015,36.735a22.848,22.848,0,0,0,4.417.029L47.961,70.959A1.951,1.951,0,0,1,49.909,69.8l5.967,0,3.151-6.257a1.865,1.865,0,0,1,1.736-1.071,1.728,1.728,0,0,1,1.6.984l3.295,6.63ZM62.594,85.991c.071-1.1,1.291-1.5,2.037-1.432l16.9-.026,2.418-6.048L64.071,73.518c-1.893-.473-1.962-3.26-3.421-4.923L45.641,98.6A2.028,2.028,0,0,1,44,99.377H31.255l.035,14.628,29.485-.017ZM43.1,95.444,53.982,73.651a9.5,9.5,0,0,0-3.2-.054L39.852,95.469a5.408,5.408,0,0,0,3.252-.025" transform="translate(-20.178 -40.367)" fill="#030304"/>
        <path id="Path_1260928" data-name="Path 1260928" d="M72.7,122.8l-1.818,28-29.485.017-.036-14.628H54.108a2.029,2.029,0,0,0,1.641-.772l15.009-30.01c1.458,1.664,1.528,4.45,3.421,4.923L94.057,115.3l-2.418,6.048-16.9.025c-.746-.063-1.965.335-2.037,1.433" transform="translate(-30.285 -77.179)" fill="#945252"/>
        <path id="Path_1260929" data-name="Path 1260929" d="M76.719,145.636a5.408,5.408,0,0,1-3.252.025L84.4,123.789a9.5,9.5,0,0,1,3.2.054Z" transform="translate(-53.792 -90.559)" fill="#616974"/>
        <path id="Path_1260930" data-name="Path 1260930" d="M97.144,85.526,75.758,80.177l-3.295-6.63a1.727,1.727,0,0,0-1.6-.984,1.864,1.864,0,0,0-1.736,1.071L65.979,79.89l-5.967,0a1.951,1.951,0,0,0-1.948,1.157L45.774,105.67a22.826,22.826,0,0,1-4.417-.029l.015-36.735,95.729.009.026,55.16-62.5.013,1.619-25.744,16.7-.008A1.846,1.846,0,0,0,94.767,96.9l3.577-9.059a1.751,1.751,0,0,0-1.2-2.313m32.481,1.815a1.855,1.855,0,1,0-.006-3.708l-25.658.012a1.838,1.838,0,0,0-1.83,1.9,1.88,1.88,0,0,0,1.823,1.793Zm.13,5.521a1.814,1.814,0,0,0,1.766-1.933,1.687,1.687,0,0,0-1.635-1.734l-25.945-.015a1.817,1.817,0,0,0-1.8,1.97,1.882,1.882,0,0,0,1.827,1.722Zm-.01,5.487a1.76,1.76,0,0,0,1.775-1.823c0-.579-.413-1.761-1.363-1.762l-26.464-.011a1.766,1.766,0,0,0-1.552,1.973,1.847,1.847,0,0,0,1.8,1.628Zm-14.7,5.537a1.758,1.758,0,0,0,1.746-2,1.85,1.85,0,0,0-1.887-1.661l-10.955.014a1.831,1.831,0,0,0-.044,3.661Zm1.391,6.585a1.751,1.751,0,0,0-.76-2.7,6.4,6.4,0,0,0-3.349,0c-1.2.4-1.286,2.011-.663,2.889,1,1.4-1.03,1.544-.176,3.25.69,1.378,3.3,1.175,4.182.88,2.442-.814,0-3.259.765-4.314m-8.863,2.6a1.81,1.81,0,0,0,1.865-2.021c-.282-2.218-2.668-1.477-5.244-1.605a1.813,1.813,0,0,0-2.055,1.829c-.028,2.268,2.945,1.888,5.434,1.8" transform="translate(-30.282 -50.453)" fill="#85b9f0"/>
        <path id="Path_1260931" data-name="Path 1260931" d="M295.926,148.292l-25.789.011a1.883,1.883,0,0,1-1.827-1.723,1.817,1.817,0,0,1,1.8-1.97l25.945.015a1.686,1.686,0,0,1,1.635,1.733,1.814,1.814,0,0,1-1.766,1.933" transform="translate(-196.452 -105.883)" fill="#050709"/>
        <path id="Path_1260932" data-name="Path 1260932" d="M295.786,127.6l-25.67-.007a1.88,1.88,0,0,1-1.823-1.793,1.838,1.838,0,0,1,1.83-1.9l25.658-.012a1.855,1.855,0,1,1,.006,3.709" transform="translate(-196.443 -90.715)" fill="#040507"/>
        <path id="Path_1260933" data-name="Path 1260933" d="M295.905,169.017l-25.8.006a1.847,1.847,0,0,1-1.8-1.629,1.767,1.767,0,0,1,1.552-1.973l26.464.012c.95,0,1.36,1.182,1.363,1.762a1.76,1.76,0,0,1-1.775,1.822" transform="translate(-196.442 -121.122)" fill="#010101"/>
        <path id="Path_1260934" data-name="Path 1260934" d="M281.2,189.508l-11.141.011a1.831,1.831,0,0,1,.045-3.661l10.955-.014a1.849,1.849,0,0,1,1.887,1.661,1.758,1.758,0,0,1-1.746,2" transform="translate(-196.439 -136.075)" fill="#040507"/>
        <path id="Path_1260935" data-name="Path 1260935" d="M307.593,216.108c-.767,1.056,1.677,3.5-.765,4.314-.885.295-3.492.5-4.182-.88-.855-1.706,1.171-1.849.176-3.25-.623-.878-.537-2.491.663-2.889a6.394,6.394,0,0,1,3.349,0,1.751,1.751,0,0,1,.76,2.7" transform="translate(-221.438 -156.09)" fill="#040507"/>
        <path id="Path_1260936" data-name="Path 1260936" d="M273.754,223.85c-2.489.09-5.463.47-5.434-1.8a1.813,1.813,0,0,1,2.055-1.829c2.576.128,4.962-.612,5.244,1.605a1.81,1.81,0,0,1-1.865,2.021" transform="translate(-196.463 -161.232)" fill="#030304"/>
      </g>
    </g>
  </g>
</svg>
