<svg xmlns="http://www.w3.org/2000/svg" xmlns:xlink="http://www.w3.org/1999/xlink" width="145.631" height="95.276" viewBox="0 0 145.631 95.276">
  <defs>
    <clipPath id="clip-path">
      <rect id="Rectangle_412035" data-name="Rectangle 412035" width="117.183" height="95.276" fill="none"/>
    </clipPath>
  </defs>
  <g id="Group_1201401" data-name="Group 1201401" transform="translate(-312.781 -3850.965)">
    <g id="Group_1201016" data-name="Group 1201016">
      <g id="Rectangle_410589" data-name="Rectangle 410589" transform="translate(312.781 3886.804)" fill="#93795a" stroke="#695640" stroke-width="1">
        <rect width="145.631" height="48.544" rx="8" stroke="none"/>
        <rect x="0.5" y="0.5" width="144.631" height="47.544" rx="7.5" fill="none"/>
      </g>
    </g>
    <g id="Group_1213641" data-name="Group 1213641" transform="translate(327.005 3850.965)">
      <g id="Group_1213640" data-name="Group 1213640" clip-path="url(#clip-path)">
        <path id="Path_1260871" data-name="Path 1260871" d="M1.983,91.6l27.294-.01-.032-25.573c0-.617-1.435-.767-1.714-.8a7.986,7.986,0,0,0-.1,1.877A16.531,16.531,0,0,1,11.151,84.3a1.844,1.844,0,0,1-2.032-1.654c-.3-2.995,3.652-1.069,3.652-3.871l.005-31.39A14.661,14.661,0,0,1,27.439,33l35.5-.008,12.4-24.8A1.684,1.684,0,0,1,76.7,7.354l6.393-.023L86.276.957A1.788,1.788,0,0,1,88.025,0,1.866,1.866,0,0,1,89.617,1.12l3.214,6.467L113.5,12.753c.7.174,1.223.316,1.506.766a2,2,0,0,1,.25,1.834l-3.725,9.322a1.628,1.628,0,0,1-1.527.992L93.3,25.7,91.557,55.617a9.255,9.255,0,0,1-7.326,8.345l0,27.628,30.831,0c1.24,0,2.087.611,2.121,1.754a1.832,1.832,0,0,1-1.9,1.927H1.9A1.818,1.818,0,0,1,.009,93.6a1.781,1.781,0,0,1,1.974-2m48.354-31.15,24.77.011A1.781,1.781,0,0,1,76.922,62.3l0,23.7A11.272,11.272,0,0,0,80.553,86L80.58,62.07a1.735,1.735,0,0,1,1.734-1.6A5.532,5.532,0,0,0,87.9,55.076L89.743,23.7a1.626,1.626,0,0,1,1.626-1.655l17.244-.019,2.393-6.056-19.828-5C89.4,10.527,89.284,7.82,87.834,6.12L72.947,35.848a1.661,1.661,0,0,1-1.583.815l-33.8.139c-5.757.024-10.1,5.286-10.1,10.786l-.007,10.99a3.745,3.745,0,0,0,3.706,3.738,1.768,1.768,0,0,1,1.8,1.849l0,21.827a12.493,12.493,0,0,0,3.606.03l.05-9.5L45.336,61.79c1.308-2.212,2.355-4.309,2.316-6.99a1.736,1.736,0,0,1,1.989-1.6c2.923.235,1.135,5.246.7,7.255M70.361,32.862l10.8-21.676a8.207,8.207,0,0,0-3.155-.1L67.132,32.835a7.527,7.527,0,0,0,3.229.027M23.791,67.246l-.045-18.8a15.693,15.693,0,0,1,4.838-11.713,10.937,10.937,0,0,0-12.1,10.936l.034,31.643a12.837,12.837,0,0,0,7.271-12.067M73.25,91.584V64.148l-25.033.006L40.264,77.546,40.318,91.6ZM36.622,89.765H32.959V91.6h3.663Zm43.943,0H76.921V91.6h3.645Z" transform="translate(0 0)" fill="#040303"/>
        <path id="Path_1260872" data-name="Path 1260872" d="M125.909,77.3c.44-2.008,2.227-7.019-.7-7.255a1.735,1.735,0,0,0-1.989,1.6c.039,2.681-1.008,4.778-2.316,6.99l-8.717,14.735-.05,9.5a12.485,12.485,0,0,1-3.606-.03l0-21.827a1.768,1.768,0,0,0-1.8-1.849,3.745,3.745,0,0,1-3.706-3.738l.007-10.99c0-5.5,4.344-10.762,10.1-10.786l33.8-.139a1.661,1.661,0,0,0,1.583-.815l14.887-29.728c1.45,1.7,1.571,4.407,3.344,4.854l19.828,5-2.393,6.057-17.244.019a1.626,1.626,0,0,0-1.627,1.655l-1.841,31.371a5.532,5.532,0,0,1-5.587,5.393,1.736,1.736,0,0,0-1.734,1.6l-.027,23.934a11.272,11.272,0,0,1-3.627-.007l0-23.7a1.781,1.781,0,0,0-1.815-1.838Z" transform="translate(-75.572 -16.847)" fill="#955252"/>
        <path id="Path_1260873" data-name="Path 1260873" d="M69.172,168.224A12.837,12.837,0,0,1,61.9,180.292l-.034-31.643a10.937,10.937,0,0,1,12.1-10.936,15.693,15.693,0,0,0-4.838,11.714Z" transform="translate(-45.381 -100.978)" fill="#646c77"/>
        <path id="Path_1260874" data-name="Path 1260874" d="M255.154,63.083a7.527,7.527,0,0,1-3.229-.027L262.8,41.3a8.207,8.207,0,0,1,3.155.1Z" transform="translate(-184.793 -30.221)" fill="#616873"/>
        <rect id="Rectangle_412033" data-name="Rectangle 412033" width="3.663" height="1.832" transform="translate(32.959 89.765)" fill="#606772"/>
        <rect id="Rectangle_412034" data-name="Rectangle 412034" width="3.645" height="1.834" transform="translate(76.921 89.762)" fill="#636b75"/>
      </g>
    </g>
  </g>
</svg>
