<svg xmlns="http://www.w3.org/2000/svg" xmlns:xlink="http://www.w3.org/1999/xlink" width="70" height="70" viewBox="0 0 70 70">
  <defs>
    <clipPath id="clip-path">
      <rect id="Rectangle_412174" data-name="Rectangle 412174" width="56.765" height="42.998" fill="none"/>
    </clipPath>
  </defs>
  <g id="Group_1213737" data-name="Group 1213737" transform="translate(-621.835 -3716)">
    <path id="Path_1259061" data-name="Path 1259061" d="M35,0A35,35,0,1,1,0,35,35,35,0,0,1,35,0Z" transform="translate(621.835 3716)" fill="#70d9c1"/>
    <g id="Group_1213744" data-name="Group 1213744" transform="translate(628.735 3729.501)">
      <g id="Group_1213743" data-name="Group 1213743" transform="translate(-1)" clip-path="url(#clip-path)">
        <path id="Path_1261483" data-name="Path 1261483" d="M5.988,53.223.7,49.711A1.646,1.646,0,0,1,0,48.573,1.551,1.551,0,0,1,.6,47.35l5.436-3.609a1.334,1.334,0,0,1,1.949.736c.079.49.1.9.141,1.454l4.125-.027A16.353,16.353,0,0,1,24.734,32.579a.891.891,0,0,1,1,.58.858.858,0,0,1-.669,1.048,14.738,14.738,0,0,0-11.2,12.181,1.4,1.4,0,0,1-1.373,1.221l-4.51.012a1.747,1.747,0,0,1-1.208-.5,3.527,3.527,0,0,1-.38-1.627l-4.5,3,4.532,3.013c-.018-1.007.2-2.071,1.165-2.08l4.969-.044a3.041,3.041,0,0,0,3.057-2.5,12.952,12.952,0,0,1,15.3-11.042l.426-1.718-2.5-.309a.921.921,0,0,1-.866-.747c-.206-1.348,2.51-.776,3.419-.62a1.974,1.974,0,0,1,1.57,2.164A14.719,14.719,0,0,1,42.8,46.069c.316-.03.754-.121,1.053-.123l4.792-.034a11.219,11.219,0,0,1,.132-1.421A1.346,1.346,0,0,1,50.83,43.8l5.334,3.555a1.625,1.625,0,0,1,.6,1.066,1.568,1.568,0,0,1-.6,1.223l-5.442,3.623a1.739,1.739,0,0,1-1.254.057,1.459,1.459,0,0,1-.74-.905l-.088-1.341-4.132.016A16.351,16.351,0,0,1,25.645,64.6a2.012,2.012,0,0,1-1.837-2.232,14.714,14.714,0,0,1-9.862-11.489,10.148,10.148,0,0,1-1.682.2l-4.136.006c-.042.53-.064.956-.143,1.428a1.333,1.333,0,0,1-2,.712m43.117-3.8c1.053,0,1.252,1.069,1.236,2.094L54.875,48.5l-4.5-3.006a3.521,3.521,0,0,1-.379,1.625,1.774,1.774,0,0,1-1.345.5l-4.637.011a3.02,3.02,0,0,0-2.9,2.628,12.781,12.781,0,0,1-3.644,7.327.856.856,0,0,1-1.284-.042.926.926,0,0,1,.1-1.126A10.77,10.77,0,0,0,39.4,50.333a5.252,5.252,0,0,1,1.835-3.42,13.005,13.005,0,0,0-8.688-10.675,2.049,2.049,0,0,1-2.265,1.2A11.218,11.218,0,0,0,17.329,46.8a4.924,4.924,0,0,1-1.792,3.256,12.959,12.959,0,0,0,8.7,10.705c1.334-2.73,3.55.426,8.948-2.13a.9.9,0,0,1,1.12.316.925.925,0,0,1-.428,1.2,13.069,13.069,0,0,1-8.029,1.018l-.378,1.706A14.7,14.7,0,0,0,42.828,51.006c.134-.766.41-1.613,1.357-1.608Z" transform="translate(0 -27.003)"/>
        <path id="Path_1261484" data-name="Path 1261484" d="M245.143,34.729a4.978,4.978,0,0,0-5.8-.094c-.706.474-2.43,1.653-2.874.538a.86.86,0,0,1,.4-1.044l1.961-1.12a6.8,6.8,0,0,1,7.357.4,5,5,0,0,0,5.867-.058.973.973,0,0,1,1.145.229.923.923,0,0,1-.239,1.153,6.685,6.685,0,0,1-7.81,0" transform="translate(-198.287 -26.937)"/>
        <path id="Path_1261485" data-name="Path 1261485" d="M27.717,211.273c.411.959-.884,1.182-1.773,1.808a6.741,6.741,0,0,1-7.846,0,5.046,5.046,0,0,0-5.975.014.951.951,0,0,1-1.137-.237.916.916,0,0,1,.241-1.153,6.716,6.716,0,0,1,7.862.032,4.956,4.956,0,0,0,5.75.065c.751-.506,2.4-1.642,2.879-.532" transform="translate(-9.125 -176.515)"/>
        <path id="Path_1261486" data-name="Path 1261486" d="M22.838,245.383c.14,1.7-3.164.779-4.64-.274a5.1,5.1,0,0,0-6.07-.025.988.988,0,0,1-1.067-.154.913.913,0,0,1,.061-1.146,6.626,6.626,0,0,1,7.971-.065c2.069,1.489,3.641.41,3.744,1.663" transform="translate(-9.133 -203.327)"/>
        <path id="Path_1261487" data-name="Path 1261487" d="M278.587,2.609a6.647,6.647,0,0,1-7.88-.016c-2.091-1.5-3.608-.384-3.751-1.667-.177-1.585,2.99-.9,4.646.28a5.1,5.1,0,0,0,6.067.027.919.919,0,0,1,1.134.243.918.918,0,0,1-.216,1.133" transform="translate(-223.901 0)"/>
        <path id="Path_1261488" data-name="Path 1261488" d="M17.645,179.691c-.388,1.471-2.617-.788-5.526,1.345a.927.927,0,0,1-1.125-.247.917.917,0,0,1,.228-1.149,6.651,6.651,0,0,1,5.857-.983.877.877,0,0,1,.566,1.034" transform="translate(-9.13 -149.606)"/>
        <path id="Path_1261489" data-name="Path 1261489" d="M305.568,72.505c-2.7,2.082-6.986,1.58-6.518.035.443-1.464,2.624.806,5.523-1.343a1.032,1.032,0,0,1,1.054.152.909.909,0,0,1-.058,1.156" transform="translate(-250.795 -59.643)"/>
        <path id="Path_1261490" data-name="Path 1261490" d="M229.12,8.19c-1.686,1.322-4.926,2.076-4.863.533a.906.906,0,0,1,.915-.829c2.606-.01,3.115-1.848,4.025-.776a.906.906,0,0,1-.076,1.073" transform="translate(-188.093 -5.688)"/>
        <path id="Path_1261491" data-name="Path 1261491" d="M101.289,243.145c.223,1.476-1.671.372-3.784,1.915a1.165,1.165,0,0,1-1.071-.086.886.886,0,0,1-.076-1.085c1.491-1.29,4.715-2.17,4.93-.743" transform="translate(-80.691 -203.321)"/>
        <path id="Path_1261492" data-name="Path 1261492" d="M260.986,65.978c-2.476-.438-3.516.54-3.821-.6a.91.91,0,0,1,.62-1c1.085-.256,4.621-.522,4.3,1-.117.561-.562.7-1.1.607" transform="translate(-215.679 -53.825)"/>
        <path id="Path_1261493" data-name="Path 1261493" d="M65.227,191.094c2.487.427,3.536-.531,3.824.605a.914.914,0,0,1-.618,1c-1.136.281-4.611.514-4.305-1,.109-.54.569-.693,1.1-.6" transform="translate(-53.771 -160.258)"/>
        <path id="Path_1261495" data-name="Path 1261495" d="M129.488,87.873c.375,2.758,1.7,3.458.586,4.872a2.541,2.541,0,0,1-2.186.722,4.321,4.321,0,0,1-3.255-.923c-2.493-2.338-.216-4.885-.833-5.661-.558-.7-2.7.139-3.507.507a2.007,2.007,0,0,1-1.9-.076,2.029,2.029,0,0,1-.91-1.593l.01-1.648a3.568,3.568,0,0,1,4.412-3.442l1.477.357a1,1,0,0,0,.675-.093c.692-.539-.13-2.688-.5-3.486a2.272,2.272,0,0,1-.013-1.77c.649-1.277,2.267-1.148,3.712-1.01A3.542,3.542,0,0,1,130.307,79l-.354,1.464a1.047,1.047,0,0,0,.086.69c.523.709,2.709-.141,3.484-.495a1.925,1.925,0,0,1,2.831,1.657v1.641A3.578,3.578,0,0,1,135,86.726a3.63,3.63,0,0,1-3.222.651L130.212,87c-.347-.083-.776.485-.724.87m-.776-9.451a1.817,1.817,0,0,0-1.356-2.077,7.747,7.747,0,0,0-2.386.005,30.265,30.265,0,0,1,1.091,3.457,8.435,8.435,0,0,1,2.321.132Zm.817,5.6a2.61,2.61,0,1,0-2.609,2.61,2.61,2.61,0,0,0,2.609-2.61m2.677,1.76a2.047,2.047,0,0,0,1.89-.459c.781-.73.646-2.169.489-3.253a24.36,24.36,0,0,1-3.437,1.071,11.055,11.055,0,0,1-.14,2.321Zm-9.514-.893a10.425,10.425,0,0,1,.144-2.317l-1.426-.349a2.021,2.021,0,0,0-1.666.5c-.785.734-.644,2.173-.491,3.251a30.37,30.37,0,0,1,3.438-1.081m6.154,6.763a32.734,32.734,0,0,1-1.069-3.423,8.217,8.217,0,0,1-2.308-.129l-.346,1.426a1.978,1.978,0,0,0,.578,1.752,3.826,3.826,0,0,0,3.146.373" transform="translate(-98.537 -62.523)"/>
      </g>
    </g>
  </g>
</svg>
