<svg xmlns="http://www.w3.org/2000/svg" xmlns:xlink="http://www.w3.org/1999/xlink" width="70" height="70" viewBox="0 0 70 70">
  <defs>
    <clipPath id="clip-path">
      <rect id="Rectangle_412176" data-name="Rectangle 412176" width="55.952" height="50.922" fill="none"/>
    </clipPath>
  </defs>
  <g id="Group_1213739" data-name="Group 1213739" transform="translate(-621.835 -3716)">
    <path id="Path_1259061" data-name="Path 1259061" d="M35,0A35,35,0,1,1,0,35,35,35,0,0,1,35,0Z" transform="translate(621.835 3716)" fill="#70d9c1"/>
    <g id="Group_1213748" data-name="Group 1213748" transform="translate(628.548 3725.539)">
      <g id="Group_1213747" data-name="Group 1213747" clip-path="url(#clip-path)">
        <path id="Path_1261510" data-name="Path 1261510" d="M160.693,24.926a1.031,1.031,0,0,1-.778,1.058,1,1,0,0,1-1.09-.832L158.8,22.72a1.1,1.1,0,0,1,.851-.913c.368-.061,1,.321,1.008.75Z" transform="translate(-131.794 -18.093)"/>
        <path id="Path_1261511" data-name="Path 1261511" d="M94.442,42.237a1,1,0,0,1-.418,1.257,1.037,1.037,0,0,1-1.213-.361l-1.141-2.007a1.062,1.062,0,0,1,.244-1.243A.986.986,0,0,1,93.3,40.2Z" transform="translate(-75.992 -32.967)"/>
        <path id="Path_1261512" data-name="Path 1261512" d="M221.571,43.122a1.041,1.041,0,0,1-1.242.414,1.027,1.027,0,0,1-.456-1.2l1.189-2.13a1.023,1.023,0,0,1,1.258-.351.961.961,0,0,1,.365,1.292Z" transform="translate(-182.423 -33.002)"/>
        <path id="Path_1261513" data-name="Path 1261513" d="M267.814,94.408a.93.93,0,0,1-.86-1.649l1.979-1.128a.941.941,0,1,1,.938,1.632Z" transform="translate(-221.154 -75.957)"/>
        <path id="Path_1261514" data-name="Path 1261514" d="M25.2,160.83l-2.478.01a1.017,1.017,0,0,1-.86-.889.961.961,0,0,1,1.024-.986h2.09a.939.939,0,1,1,.224,1.865" transform="translate(-18.144 -131.929)"/>
        <path id="Path_1261515" data-name="Path 1261515" d="M285.69,160.85l-2.48-.012c-.334,0-.782-.581-.789-.894a1.009,1.009,0,0,1,.914-.963l2.276,0a.938.938,0,1,1,.079,1.874" transform="translate(-234.388 -131.938)"/>
        <path id="Path_1261516" data-name="Path 1261516" d="M43.106,92.735a1.044,1.044,0,0,1,.367,1.3,1,1,0,0,1-1.273.339l-1.972-1.1a1.026,1.026,0,0,1-.394-1.3,1,1,0,0,1,1.3-.351Z" transform="translate(-32.984 -75.947)"/>
        <path id="Path_1261517" data-name="Path 1261517" d="M269.027,222.8l-2.083-1.17a.932.932,0,0,1,.908-1.629l2.019,1.128a1.084,1.084,0,0,1,.381,1.249,1,1,0,0,1-1.225.423" transform="translate(-221.156 -182.502)"/>
        <path id="Path_1261518" data-name="Path 1261518" d="M41.135,222.829a1.1,1.1,0,0,1-1.28-.22.978.978,0,0,1,.325-1.4l1.907-1.087a1.077,1.077,0,0,1,1.266.191,1.015,1.015,0,0,1-.253,1.39Z" transform="translate(-32.94 -182.588)"/>
        <path id="Path_1261519" data-name="Path 1261519" d="M22.37,83.064l-1.336-.738a1.043,1.043,0,0,1-.37-1.178A.991.991,0,0,1,21.9,80.67l1.351.759a1.09,1.09,0,0,1,.352,1.144.968.968,0,0,1-1.235.491" transform="translate(-17.097 -66.881)"/>
        <path id="Path_1261520" data-name="Path 1261520" d="M291.748,83.123a1.02,1.02,0,0,1-1.3-.292,1,1,0,0,1,.321-1.3l1.211-.695a1.044,1.044,0,0,1,1.219.236,1,1,0,0,1-.252,1.369Z" transform="translate(-240.949 -67.001)"/>
        <path id="Path_1261521" data-name="Path 1261521" d="M2.414,160.831l-1.443.015a1.2,1.2,0,0,1-.924-.589c-.138-.364.035-1.11.453-1.188a6.071,6.071,0,0,1,2.245-.008c.3.049.564.746.5,1.029a1.19,1.19,0,0,1-.826.741" transform="translate(0 -131.925)"/>
        <path id="Path_1261522" data-name="Path 1261522" d="M312.434,160.808l-1.527.05a1.206,1.206,0,0,1-.939-.6c-.134-.364.033-1.118.466-1.2a6.194,6.194,0,0,1,2.224.006c.259.048.508.639.506.891,0,.283-.408.839-.73.85" transform="translate(-257.212 -131.928)"/>
        <path id="Path_1261523" data-name="Path 1261523" d="M21.945,235.7a1.031,1.031,0,0,1-1.23-.371A1,1,0,0,1,21,234.1l1.456-.8a1,1,0,0,1,1.158.506,1.1,1.1,0,0,1-.338,1.145Z" transform="translate(-17.109 -193.575)"/>
        <path id="Path_1261524" data-name="Path 1261524" d="M160.715,2.691a1.478,1.478,0,0,1-1.067.551,1.064,1.064,0,0,1-.828-.919l.005-1.45a1.093,1.093,0,0,1,.786-.867c.313-.052,1.022.245,1.033.56Z" transform="translate(-131.809 0)"/>
        <path id="Path_1261525" data-name="Path 1261525" d="M235.144,23.127a1.044,1.044,0,0,1-1.371.456,1.021,1.021,0,0,1-.34-1.272l.7-1.22a1.039,1.039,0,0,1,1.2-.392,1.021,1.021,0,0,1,.491,1.159Z" transform="translate(-193.65 -17.129)"/>
        <path id="Path_1261526" data-name="Path 1261526" d="M51.369,160.884l-1.662-.03c-.319-.006-.732-.566-.754-.854s.327-.91.633-.937a8.868,8.868,0,0,1,2.129.034c.33.043.578.752.508,1.072a1.131,1.131,0,0,1-.854.716" transform="translate(-40.627 -131.97)"/>
        <path id="Path_1261527" data-name="Path 1261527" d="M292.079,235.753l-1.329-.737a1.079,1.079,0,0,1-.363-1.168,1.012,1.012,0,0,1,1.169-.494l1.367.728a1.064,1.064,0,0,1,.371,1.277,1.043,1.043,0,0,1-1.215.394" transform="translate(-240.959 -193.619)"/>
        <path id="Path_1261528" data-name="Path 1261528" d="M160.712,51.845a1.49,1.49,0,0,1-1.065.553,1.144,1.144,0,0,1-.793-.81l-.014-1.619a1.14,1.14,0,0,1,.8-.834,1.318,1.318,0,0,1,1.056.554Z" transform="translate(-131.825 -40.776)"/>
        <path id="Path_1261529" data-name="Path 1261529" d="M107.384,65.291a1.14,1.14,0,0,1-.336,1.1,1.053,1.053,0,0,1-1.26-.178l-.825-1.461a1.044,1.044,0,0,1,.437-1.2,1.059,1.059,0,0,1,1.224.36Z" transform="translate(-87.058 -52.69)"/>
        <path id="Path_1261530" data-name="Path 1261530" d="M210.788,65.969a1.075,1.075,0,0,1-1.182.519.962.962,0,0,1-.555-1.239l.753-1.363a1.051,1.051,0,0,1,1.209-.34.975.975,0,0,1,.4,1.316Z" transform="translate(-173.431 -52.679)"/>
        <path id="Path_1261531" data-name="Path 1261531" d="M248.916,107.327a.935.935,0,1,1-.981-1.592l1.135-.66a.987.987,0,0,1,1.34.263.954.954,0,0,1-.323,1.315Z" transform="translate(-205.405 -87.077)"/>
        <path id="Path_1261532" data-name="Path 1261532" d="M263.092,160.879l-1.545.012a1.142,1.142,0,0,1-.861-.716c-.072-.319.183-1.046.508-1.082a9.826,9.826,0,0,1,2.109-.026c.327.027.644.636.624.942a1.062,1.062,0,0,1-.834.87" transform="translate(-216.339 -131.976)"/>
        <path id="Path_1261533" data-name="Path 1261533" d="M249.228,211.51l-1.318-.739a1.079,1.079,0,0,1-.374-1.136,1.025,1.025,0,0,1,1.186-.519l1.369.738a1.027,1.027,0,0,1,.39,1.2,1,1,0,0,1-1.252.456" transform="translate(-205.399 -173.502)"/>
        <path id="Path_1261534" data-name="Path 1261534" d="M64.832,211.5a1.058,1.058,0,0,1-1.221-.289.99.99,0,0,1,.326-1.356l1.374-.738a1.071,1.071,0,0,1,1.141.467,1.109,1.109,0,0,1-.339,1.193Z" transform="translate(-52.675 -173.512)"/>
        <path id="Path_1261535" data-name="Path 1261535" d="M65.246,107.346l-1.323-.776a1.012,1.012,0,0,1-.387-1.219.984.984,0,0,1,1.181-.462l1.387.767a1.093,1.093,0,0,1,.344,1.181,1.146,1.146,0,0,1-1.2.509" transform="translate(-52.668 -86.992)"/>
        <path id="Path_1261536" data-name="Path 1261536" d="M96.675,117.717c-1.878.039-2.269-1.421-3.333-2.265-1.14-.905-2.952-1.075-2.946-3.262l.016-5.562a13.809,13.809,0,1,1,12.515-.024l-.038,5.744c-.014,2.079-1.844,2.3-3.023,3.07-.959.828-1.415,2.263-3.191,2.3M98.727,94.17a2.443,2.443,0,0,1,2.1-2.962,2.346,2.346,0,0,1,2.631,2.2,2.571,2.571,0,0,1-.757,2.029,2.821,2.821,0,0,1-2.249.639l-.575,9.019,1.877-.007a11.949,11.949,0,1,0-10.185-.021,3.959,3.959,0,0,0,1.756-.054l-.55-8.92a2.673,2.673,0,0,1-2.66-1.16,2.537,2.537,0,0,1,.071-2.731,2.366,2.366,0,0,1,3.039-.751,2.833,2.833,0,0,1,1.335,2.772Zm-6.075-.216c-.056-.4-.107-.747-.227-.811a.887.887,0,0,0-.612.037.716.716,0,0,0,0,.9c.236.177.879.138.842-.128m8.079.225c.346.027.834-.091.819-.255l-.064-.692c-.015-.164-.553-.142-.7-.063-.231.126-.315.99-.056,1.01M98,105.1l.557-9.017-3.909,0,.556,8.995Zm1.953,8.195a1.235,1.235,0,0,0,1.071-1.187l-.009-5.124-8.725,0-.016,5.124a1.207,1.207,0,0,0,1.161,1.187ZM97.6,115.189l-2.011.009a1.145,1.145,0,0,0,2.011-.009" transform="translate(-68.768 -66.795)"/>
        <path id="Path_1261537" data-name="Path 1261537" d="M83.121,22.314a1.11,1.11,0,0,1-.238,1.217,1.056,1.056,0,0,1-1.361-.235l-.754-1.379a1.036,1.036,0,0,1,.466-1.213,1.061,1.061,0,0,1,1.19.378Z" transform="translate(-66.977 -17.137)"/>
      </g>
    </g>
  </g>
</svg>
