<svg xmlns="http://www.w3.org/2000/svg" xmlns:xlink="http://www.w3.org/1999/xlink" width="70" height="70" viewBox="0 0 70 70">
  <defs>
    <clipPath id="clip-path">
      <rect id="Rectangle_412177" data-name="Rectangle 412177" width="43.799" height="43.806" fill="none"/>
    </clipPath>
  </defs>
  <g id="Group_1213740" data-name="Group 1213740" transform="translate(-621.835 -3716)">
    <path id="Path_1259061" data-name="Path 1259061" d="M35,0A35,35,0,1,1,0,35,35,35,0,0,1,35,0Z" transform="translate(621.835 3716)" fill="#70d9c1"/>
    <g id="Group_1213750" data-name="Group 1213750" transform="translate(634.935 3731.887)">
      <g id="Group_1213749" data-name="Group 1213749" clip-path="url(#clip-path)">
        <path id="Path_1261538" data-name="Path 1261538" d="M24.34,24.844l.011-1.707c0-.326-.436-.572-.751-.535a.717.717,0,0,0-.553.663L23.042,24.6a.779.779,0,0,0,.577.707c.21.036.719-.21.72-.462m-4.9,1.263-.987-.985a.663.663,0,0,0-.983.882l1.13,1.124a.662.662,0,0,0,.84-1.021M28.8,27.149l1.17-1.167a.824.824,0,0,0-.111-.875.8.8,0,0,0-.879.006l-1,.987a.816.816,0,0,0-.07.94.825.825,0,0,0,.891.109M17.116,31.985c.288,0,.6-.437.6-.691-.007-.23-.355-.645-.588-.644l-1.552,0a.748.748,0,0,0-.6.655.773.773,0,0,0,.6.677Zm14.838-.025c.28,0,.538-.555.481-.775-.051-.2-.371-.534-.573-.534l-1.547,0a.768.768,0,0,0-.617.665.776.776,0,0,0,.625.673ZM18.494,37.473l1.023-1.049a.735.735,0,0,0-.079-.892.712.712,0,0,0-.9.018l-.993.989a.737.737,0,0,0,.026.983.834.834,0,0,0,.925-.049m11.38-.93-.97-.974a.748.748,0,0,0-.914-.055.715.715,0,0,0-.078.938l1.123,1.111a.662.662,0,0,0,.839-1.02m-5.513,2.74V38a.655.655,0,0,0-1.305-.117l0,1.573a.751.751,0,0,0,.672.586.705.705,0,0,0,.635-.761" transform="translate(-13.055 -19.702)" fill="#fff"/>
        <path id="Path_1261539" data-name="Path 1261539" d="M40.414,43.792l-5.706.013a.724.724,0,0,1-.618-.575.647.647,0,0,1,.622-.7l5.489,0a2.225,2.225,0,0,0,2.336-2.349l0-17.625H22.556V42.53l9.553,0a.639.639,0,1,1-.022,1.272L3.5,43.8A3.438,3.438,0,0,1,0,40.3V3.5A3.441,3.441,0,0,1,3.478,0L7.357,0A.719.719,0,0,1,8,.559a.645.645,0,0,1-.637.716H3.483A2.216,2.216,0,0,0,1.271,3.622l0,17.629H21.248l.005-19.974-11.172,0A.648.648,0,0,1,9.307.688.641.641,0,0,1,9.979,0H40.31A3.416,3.416,0,0,1,43.8,3.378V40.427a3.4,3.4,0,0,1-3.385,3.365M42.535,3.327a2.212,2.212,0,0,0-2.229-2.053l-17.751,0V21.248h19.98Zm-21.283,39.2,0-19.97-19.979,0,0,17.87a2.187,2.187,0,0,0,2.114,2.1Z" transform="translate(0 0)"/>
        <path id="Path_1261541" data-name="Path 1261541" d="M199.62,26.39l10.614,0a.717.717,0,0,0,.791-.769c-.015-1.03-1.234-.4-1.386-1.3a.727.727,0,0,1,.533-.739,2.067,2.067,0,0,1,.3,4.124l-10.752.027a.729.729,0,0,1-.738-.6.686.686,0,0,1,.641-.739" transform="translate(-173.472 -20.556)"/>
        <path id="Path_1261542" data-name="Path 1261542" d="M209.148,92.427l-9.409-.073a.715.715,0,0,1-.739-.622.675.675,0,0,1,.739-.7l9.317.063a.81.81,0,0,1,.656.529c.067.227-.168.81-.564.807" transform="translate(-173.494 -79.361)"/>
        <path id="Path_1261543" data-name="Path 1261543" d="M201.4,115.634c-.259-1.139,1.332-.493,1.384-1.557a.776.776,0,0,0-.75-.786h-2.315a.666.666,0,1,1,0-1.327l2.332.011a2.072,2.072,0,0,1,.116,4.139.736.736,0,0,1-.771-.481" transform="translate(-173.488 -97.615)"/>
        <path id="Path_1261544" data-name="Path 1261544" d="M204.384,70.693l-4.808-.03a.76.76,0,0,1-.62-.669.707.707,0,0,1,.74-.672l4.645.038a.732.732,0,0,1,.639.622c.024.226-.249.713-.6.71" transform="translate(-173.456 -60.437)"/>
        <path id="Path_1261545" data-name="Path 1261545" d="M261.945,70.757l-4.72-.031a.785.785,0,0,1-.649-.557c-.045-.322.208-.777.571-.776l4.72.021a.673.673,0,1,1,.078,1.343" transform="translate(-223.686 -60.499)"/>
        <path id="Path_1261546" data-name="Path 1261546" d="M202.564,223.455l-9.531.022a3.611,3.611,0,0,1-3.448-3.024,3.661,3.661,0,0,1,2.377-4.064,3.821,3.821,0,0,1,7.348-1.963,3.1,3.1,0,0,1,3.651,3,3.088,3.088,0,0,1,2.367,3.2,2.956,2.956,0,0,1-2.765,2.831m-.985-5.6a1.733,1.733,0,0,0-.664-1.813,1.752,1.752,0,0,0-1.787-.164.671.671,0,0,1-.934-.492,2.5,2.5,0,1,0-4.793,1.314.69.69,0,0,1-.547.833,2.323,2.323,0,0,0,.311,4.623l9.191,0a1.727,1.727,0,0,0,1.665-1.8c-.133-2.309-2.709-1.041-2.443-2.5" transform="translate(-165.24 -184.779)"/>
        <path id="Path_1261548" data-name="Path 1261548" d="M38.313,244.676a4.5,4.5,0,0,1-1.381,5.4,4.447,4.447,0,0,1-5.447-.061,4.514,4.514,0,0,1-1.294-5.357,20.5,20.5,0,0,1,2.734-4.551,1.532,1.532,0,0,1,2.631-.021,20.384,20.384,0,0,1,2.757,4.595M34.258,240.6a18.66,18.66,0,0,0-2.8,4.43,3.218,3.218,0,0,0,.752,3.862,3.1,3.1,0,0,0,3.84.184c3.073-2.214-.028-6.152-1.793-8.476" transform="translate(-25.992 -208.67)"/>
        <path id="Path_1261549" data-name="Path 1261549" d="M93.4,198.958c1.558,2.111,3.7,5.228,1.058,7.4a3.377,3.377,0,0,1-4.2.059,3.442,3.442,0,0,1-1-4.169,16.142,16.142,0,0,1,1.973-3.268,1.445,1.445,0,0,1,1.09-.6,1.431,1.431,0,0,1,1.085.577m-1.088.8c-1.106,1.532-3.193,4.141-1.251,5.613a2.043,2.043,0,0,0,2.587-.058c1.829-1.529-.265-4.1-1.336-5.555" transform="translate(-77.537 -172.955)"/>
        <path id="Path_1261552" data-name="Path 1261552" d="M57.3,60.317a4.448,4.448,0,1,1-4.448-4.448A4.448,4.448,0,0,1,57.3,60.317m-1.32,0a3.127,3.127,0,1,0-3.127,3.127,3.127,3.127,0,0,0,3.127-3.127" transform="translate(-42.2 -48.708)"/>
        <path id="Path_1261553" data-name="Path 1261553" d="M17.115,86.746H15.578a.773.773,0,0,1-.6-.678.749.749,0,0,1,.6-.655l1.552,0c.233,0,.581.415.588.644.007.255-.31.692-.6.691" transform="translate(-13.054 -74.463)"/>
        <path id="Path_1261554" data-name="Path 1261554" d="M132.108,86.722l-1.631.027a.776.776,0,0,1-.625-.673.768.768,0,0,1,.616-.665l1.547,0c.2,0,.523.338.573.534.057.22-.2.77-.481.775" transform="translate(-113.209 -74.464)"/>
        <path id="Path_1261555" data-name="Path 1261555" d="M115.964,43.338a.825.825,0,0,1-.891-.109.816.816,0,0,1,.07-.94l1-.987a.8.8,0,0,1,.879-.006.824.824,0,0,1,.111.875Z" transform="translate(-100.222 -35.892)"/>
        <path id="Path_1261556" data-name="Path 1261556" d="M34.782,124.42a.834.834,0,0,1-.925.049.737.737,0,0,1-.026-.983l.993-.989a.712.712,0,0,1,.9-.018.735.735,0,0,1,.079.892Z" transform="translate(-29.342 -106.649)"/>
        <path id="Path_1261557" data-name="Path 1261557" d="M116.925,123.509a.662.662,0,0,1-.839,1.02l-1.123-1.111a.715.715,0,0,1,.078-.938.748.748,0,0,1,.914.055Z" transform="translate(-100.105 -106.669)"/>
        <path id="Path_1261558" data-name="Path 1261558" d="M35.716,42.276a.662.662,0,0,1-.84,1.021l-1.13-1.124a.662.662,0,0,1,.983-.882Z" transform="translate(-29.333 -35.872)"/>
        <path id="Path_1261559" data-name="Path 1261559" d="M79.322,139.331a.705.705,0,0,1-.635.761.751.751,0,0,1-.672-.586l0-1.573a.655.655,0,0,1,1.305.117Z" transform="translate(-68.016 -119.75)"/>
        <path id="Path_1261560" data-name="Path 1261560" d="M79.221,24.843c0,.252-.511.5-.72.462a.779.779,0,0,1-.577-.707l.006-1.333a.717.717,0,0,1,.553-.663c.315-.037.753.209.751.535Z" transform="translate(-67.936 -19.702)"/>
      </g>
    </g>
  </g>
</svg>
