<svg xmlns="http://www.w3.org/2000/svg" xmlns:xlink="http://www.w3.org/1999/xlink" width="70" height="70" viewBox="0 0 70 70">
  <defs>
    <clipPath id="clip-path">
      <rect id="Rectangle_412175" data-name="Rectangle 412175" width="46.878" height="46.972" fill="none"/>
    </clipPath>
  </defs>
  <g id="Group_1213738" data-name="Group 1213738" transform="translate(-621.835 -3716)">
    <path id="Path_1259061" data-name="Path 1259061" d="M35,0A35,35,0,1,1,0,35,35,35,0,0,1,35,0Z" transform="translate(621.835 3716)" fill="#70d9c1"/>
    <g id="Group_1213746" data-name="Group 1213746" transform="translate(630.482 3727.436)">
      <g id="Group_1213745" data-name="Group 1213745" transform="translate(5 2)" clip-path="url(#clip-path)">
        <path id="Path_1261496" data-name="Path 1261496" d="M16.166,3.186a.779.779,0,0,0-.825.651c-.04.285.17.829.594.828l15.826-.018a2.233,2.233,0,0,0,1.95-2.027A2.329,2.329,0,0,0,32.337.207,2.276,2.276,0,0,0,29.6.852a.793.793,0,0,0,.253,1.024.951.951,0,0,0,.9-.111.867.867,0,0,1,1.384.162c.215.329.1,1.245-.5,1.246ZM.919,7.083a.739.739,0,0,0-.757.8.748.748,0,0,0,.8.687l36.338,0a3.214,3.214,0,0,0,3.208-2.308,3.18,3.18,0,0,0-5.538-2.851.781.781,0,0,0,.063,1.117c.976.83,1.35-1.523,3.187-.627A1.67,1.67,0,0,1,39.1,5.8a1.7,1.7,0,0,1-1.678,1.277ZM12.709,4.67a.735.735,0,0,0,.729-.841.805.805,0,0,0-.783-.646l-5.423,0a.77.77,0,0,0-.783.769.754.754,0,0,0,.787.721Zm6.843,6.668a.762.762,0,0,0-.8.739.809.809,0,0,0,.8.748l24.4-.012a3.174,3.174,0,1,0-2.645-5.076.8.8,0,0,0,.145,1.051c1.119.686,1.364-1.586,3.191-.634a1.7,1.7,0,0,1-.826,3.183ZM9.333,12.812c.428,0,.679-.615.62-.877a.834.834,0,0,0-.81-.6l-6.369,0A.74.74,0,0,0,2,12.069a.8.8,0,0,0,.785.759ZM37.564,18.6a.809.809,0,0,0,.069.969,2.36,2.36,0,0,0,2.961.473,2.392,2.392,0,0,0-1.11-4.474l-12.363-.006a.746.746,0,1,0-.024,1.489H39.36a.969.969,0,0,1,.949.727.99.99,0,0,1-.558,1.034c-.878.412-1.4-1.17-2.186-.212" transform="translate(-0.139 0.001)" fill="#fff"/>
        <path id="Path_1261497" data-name="Path 1261497" d="M205.083,118.292c.79-.958,1.308.624,2.186.212a.99.99,0,0,0,.558-1.034.969.969,0,0,0-.949-.727H194.616a.746.746,0,1,1,.024-1.489L207,115.26a2.392,2.392,0,0,1,1.11,4.474,2.36,2.36,0,0,1-2.961-.473.809.809,0,0,1-.069-.969" transform="translate(-167.658 -99.688)"/>
        <path id="Path_1261498" data-name="Path 1261498" d="M21.085,85.4l-6.551.016a.8.8,0,0,1-.786-.759.74.74,0,0,1,.778-.732l6.369,0a.835.835,0,0,1,.81.6c.059.262-.192.875-.62.877" transform="translate(-11.892 -72.59)"/>
        <path id="Path_1261499" data-name="Path 1261499" d="M.919,21.349h36.5A1.7,1.7,0,0,0,39.1,20.07a1.671,1.671,0,0,0-.871-1.9c-1.837-.9-2.211,1.458-3.187.627a.781.781,0,0,1-.063-1.117,3.177,3.177,0,1,1,2.33,5.159l-36.338,0a.748.748,0,0,1-.8-.687.739.739,0,0,1,.757-.8" transform="translate(-0.139 -14.265)"/>
        <path id="Path_1261500" data-name="Path 1261500" d="M138.592,52.707l24.269,0a1.7,1.7,0,0,0,.826-3.183c-1.827-.952-2.071,1.32-3.19.634a.8.8,0,0,1-.145-1.051A3.17,3.17,0,1,1,163,54.181l-24.4.012a.808.808,0,0,1-.8-.748.762.762,0,0,1,.8-.739" transform="translate(-119.179 -41.369)"/>
        <path id="Path_1261501" data-name="Path 1261501" d="M113.346,3.186l15.468-.014c.592,0,.712-.916.5-1.246a.867.867,0,0,0-1.384-.162.951.951,0,0,1-.9.111.793.793,0,0,1-.253-1.024,2.276,2.276,0,0,1,2.74-.645,2.329,2.329,0,0,1,1.374,2.414,2.233,2.233,0,0,1-1.95,2.027l-15.826.018c-.424,0-.634-.543-.594-.828a.779.779,0,0,1,.825-.651" transform="translate(-97.319 0)"/>
        <path id="Path_1261502" data-name="Path 1261502" d="M52.977,25.058l-5.473,0a.754.754,0,0,1-.787-.721.771.771,0,0,1,.783-.769l5.423,0a.805.805,0,0,1,.783.646.735.735,0,0,1-.729.841" transform="translate(-40.408 -20.388)"/>
        <path id="Path_1261503" data-name="Path 1261503" d="M16.4,108.713a4.576,4.576,0,0,1-4.137.024L9.648,116.08a1.336,1.336,0,0,1-.516.519.98.98,0,0,1-.78-.244l-2.538-3.06-4.122.355c-.366.032-.853-.542-.672-.927L4.511,105.3c-3.221-2.913.128-4.82-2.655-6.923a4.226,4.226,0,0,1,.007-7c2.592-1.8-.239-4.01,2.271-6.574a4.158,4.158,0,0,1,3.782-1.236,2.81,2.81,0,0,0,2.917-1.159,4.206,4.206,0,0,1,7-.02c1.845,2.658,4.017-.344,6.711,2.409,2.515,2.57-.286,4.81,2.273,6.578a4.218,4.218,0,0,1-.015,7.02c-2.7,2.041.567,4.039-2.635,6.906l3.45,7.31a1.1,1.1,0,0,1-.072.734.976.976,0,0,1-.7.308l-3.953-.371-2.566,3.074a.992.992,0,0,1-.7.263,1.318,1.318,0,0,1-.564-.47Zm.219-2.208a4.239,4.239,0,0,1,4.4-1.783,2.651,2.651,0,0,0,2.455-.8,2.756,2.756,0,0,0,.7-2.469,4.207,4.207,0,0,1,1.8-4.3,2.7,2.7,0,0,0,1.221-2.32,2.755,2.755,0,0,0-1.276-2.279,4.184,4.184,0,0,1-1.743-4.248,2.75,2.75,0,0,0-.69-2.462A2.682,2.682,0,0,0,21,85.029a4.236,4.236,0,0,1-4.4-1.8,2.719,2.719,0,0,0-4.54.014,4.245,4.245,0,0,1-4.411,1.783,2.683,2.683,0,0,0-2.543.911A2.829,2.829,0,0,0,4.522,88.4a4.182,4.182,0,0,1-1.769,4.159,2.721,2.721,0,0,0-1.262,2.281,2.672,2.672,0,0,0,1.2,2.3,4.213,4.213,0,0,1,1.828,4.232,2.8,2.8,0,0,0,.673,2.533,2.712,2.712,0,0,0,2.554.806,4.213,4.213,0,0,1,4.327,1.808,2.727,2.727,0,0,0,4.549-.018m-7.946,7.847,2.38-6.635c-1.615-2.591-3-1.041-5.268-1.633l-2.8,5.944,2.909-.263a1.176,1.176,0,0,1,.795.276Zm17-2.354-2.813-5.956c-2.172.718-3.6-.987-5.243,1.684l2.391,6.651,1.971-2.339c.538-.638,2.49.108,3.694-.04" transform="translate(0 -69.65)"/>
        <path id="Path_1261507" data-name="Path 1261507" d="M59.419,131.375a8.652,8.652,0,1,1-8.652-8.652,8.652,8.652,0,0,1,8.652,8.652m-1.486,0a7.166,7.166,0,1,0-7.166,7.166,7.166,7.166,0,0,0,7.166-7.166" transform="translate(-36.427 -106.148)"/>
        <path id="Path_1261509" data-name="Path 1261509" d="M76.821,162.262a2.963,2.963,0,0,1-.18-1.569,4.716,4.716,0,0,1,2.781-4.12l2.86-1.307c2.091-.955,1.538-2.583,2.392-2.728a.925.925,0,0,1,.877.428,8.467,8.467,0,0,1,1.162,4.869,5.886,5.886,0,0,1-4.716,5.4,7.393,7.393,0,0,1-5.176-.972m4.72-4.063a.75.75,0,0,1,1.087.053.836.836,0,0,1-.086,1.052,22.989,22.989,0,0,1-3.2,2.369,4.486,4.486,0,0,0,5.6-2.669,5.481,5.481,0,0,0-.08-3.9,7.281,7.281,0,0,1-2.579,1.814l-2.49,1.1a2.969,2.969,0,0,0-1.561,2.514,15.429,15.429,0,0,0,3.313-2.337" transform="translate(-66.271 -131.929)"/>
      </g>
    </g>
  </g>
</svg>
