<svg xmlns="http://www.w3.org/2000/svg" xmlns:xlink="http://www.w3.org/1999/xlink" width="75.5" height="104.317" viewBox="0 0 75.5 104.317">
  <defs>
    <filter id="Rectangle_410591" x="0" y="0" width="65.91" height="104.317" filterUnits="userSpaceOnUse">
      <feOffset dy="3" input="SourceAlpha"/>
      <feGaussianBlur stdDeviation="3" result="blur"/>
      <feFlood flood-opacity="0.161"/>
      <feComposite operator="in" in2="blur"/>
      <feComposite in="SourceGraphic"/>
    </filter>
  </defs>
  <g id="Group_1201410" data-name="Group 1201410" transform="translate(-242.85 -5760.451)">
    <g transform="matrix(1, 0, 0, 1, 242.85, 5760.45)" filter="url(#Rectangle_410591)">
      <path id="Rectangle_410591-2" data-name="Rectangle 410591" d="M10,0H37.91a10,10,0,0,1,10,10V86.317a0,0,0,0,1,0,0H0a0,0,0,0,1,0,0V10A10,10,0,0,1,10,0Z" transform="translate(9 6)" fill="#695640"/>
    </g>
    <g id="horse_5705631" transform="translate(257.053 5775.184)">
      <g id="Group_1201408" data-name="Group 1201408" transform="translate(1.149 1.151)">
        <path id="Path_1247377" data-name="Path 1247377" d="M83.529,69.757S75.781,80,73.9,89.592a36.591,36.591,0,0,1-5.3,13.242,1.036,1.036,0,0,0,.863,1.612h2.819s-5.879,14.6-8.49,19.666a1.037,1.037,0,0,0,.92,1.514h4.32s-4.45,9.038-5.537,10.749h20.04V69.757Z" transform="translate(-63.489 -60.219)" fill="#fccd7f"/>
        <path id="Path_1247378" data-name="Path 1247378" d="M83.534,69.755v66.618H63.494c1.086-1.711,5.537-10.749,5.537-10.749h-4.32a1.037,1.037,0,0,1-.92-1.515c2.612-5.067,8.489-19.664,8.489-19.664H69.461a1.037,1.037,0,0,1-.863-1.612,36.584,36.584,0,0,0,5.3-13.241A35.324,35.324,0,0,1,76.009,82.9a68.268,68.268,0,0,1,7.524-13.143Z" transform="translate(-63.493 -60.217)" fill="#fccd7f"/>
        <path id="Path_1247379" data-name="Path 1247379" d="M128.117,69.755v66.618H116.145s6.151-24.818,6.14-41.157c-1.544-1.873-2.8-3.815-2.622-5.879.12-1.39.485-3.787.93-6.438a68.268,68.268,0,0,1,7.524-13.143Z" transform="translate(-108.076 -60.217)" fill="#f4b869"/>
        <path id="Path_1247380" data-name="Path 1247380" d="M195.392,275.491H149.586s1.422-5.737,2.9-13.512c1.611-8.489,3.285-19.405,3.242-27.931h33.528C189.17,250.381,195.392,275.491,195.392,275.491Z" transform="translate(-136.393 -199.335)" fill="#d86f56"/>
        <path id="Path_1247381" data-name="Path 1247381" d="M186.353,234.048v34.744h-7.64a11.685,11.685,0,0,1-8.767-3.964,6.474,6.474,0,0,1-1.452-2.848c1.611-8.489,3.285-19.405,3.242-27.931Z" transform="translate(-152.404 -199.335)" fill="#d1654b"/>
        <path id="Path_1247382" data-name="Path 1247382" d="M349.632,234.045H338.987c-.083,16.333,6.139,41.444,6.139,41.444h10.644S349.548,250.378,349.632,234.045Z" transform="translate(-296.772 -199.333)" fill="#d1654b"/>
        <path id="Path_1247383" data-name="Path 1247383" d="M198.332,40.554C197.94,36.05,195,20.973,195,20.973a9.927,9.927,0,0,0,5.678-8.55s-8.082-1.568-11.09,2.739H168.3c-3.008-4.308-11.09-2.739-11.09-2.739a9.927,9.927,0,0,0,5.678,8.55s-2.937,15.077-3.329,19.581,6.048,8.42,7.419,12.336c1.007,2.877-.97,13.169-2.09,18.43a6.454,6.454,0,0,0,1.469,5.607,11.678,11.678,0,0,0,8.767,3.964h7.641a11.678,11.678,0,0,0,8.767-3.964A6.454,6.454,0,0,0,193,71.319c-1.12-5.261-3.1-15.553-2.09-18.43C192.284,48.974,198.723,45.057,198.332,40.554Z" transform="translate(-142.851 -11.435)" fill="#dd7f66"/>
        <g id="Group_1201406" data-name="Group 1201406" transform="translate(35.007 0.711)">
          <path id="Path_1247384" data-name="Path 1247384" d="M312.42,40.556c-.392-4.5-3.329-19.581-3.329-19.581a9.927,9.927,0,0,0,5.678-8.55,19.228,19.228,0,0,0-5.68-.117c.484.061.77.117.77.117a9.927,9.927,0,0,1-5.678,8.55s2.937,15.077,3.329,19.581-6.048,8.42-7.419,12.336c-1.007,2.877.97,13.169,2.09,18.43a6.454,6.454,0,0,1-1.469,5.607,11.678,11.678,0,0,1-8.767,3.964h4.91a11.678,11.678,0,0,0,8.767-3.964,6.454,6.454,0,0,0,1.469-5.607c-1.12-5.261-3.1-15.553-2.09-18.43C306.372,48.976,312.811,45.06,312.42,40.556Z" transform="translate(-291.945 -12.148)" fill="#d86f56"/>
        </g>
        <path id="Path_1247385" data-name="Path 1247385" d="M229.589,11.238s6.739,9.049,12.967,10.778a1.541,1.541,0,0,0,1.949-1.489V17.77l5.983,4.006a1,1,0,0,0,1.541-.945l-1.151-9.594c-2.549-3.218-12.48-6.466-21.289,0Z" transform="translate(-204.137 -7.509)" fill="#fccd7f"/>
        <g id="Group_1201407" data-name="Group 1201407" transform="translate(34.111 0.001)">
          <path id="Path_1247386" data-name="Path 1247386" d="M299.881,20.835l-1.151-9.594c-1.72-2.171-6.8-4.355-12.629-3.561,3.631.5,6.508,2.032,7.72,3.561l.98,8.168,3.54,2.37A.994.994,0,0,0,299.881,20.835Z" transform="translate(-286.1 -7.514)" fill="#f4b869"/>
        </g>
      </g>
      <g id="Group_1201409" data-name="Group 1201409" transform="translate(0 0)">
        <path id="Path_1247387" data-name="Path 1247387" d="M145.405,440.4a1.149,1.149,0,0,0-1.358.892c-1.059,5.119-1.919,8.6-1.928,8.634a1.149,1.149,0,1,0,2.231.553c.009-.035.878-3.555,1.948-8.721a1.149,1.149,0,0,0-.893-1.358Z" transform="translate(-128.893 -372.896)"/>
        <path id="Path_1247388" data-name="Path 1247388" d="M117.255,77.029c-.061-.245-6.014-24.456-6.105-40.471,1.578-1.963,2.822-4.034,2.617-6.389-.24-2.764-1.4-9.336-2.334-14.362a1.149,1.149,0,1,0-2.26.419c.923,4.976,2.072,11.469,2.3,14.142.189,2.176-1.805,4.446-3.734,6.642a17.41,17.41,0,0,0-3.625,5.215c-1.031,2.945.546,11.984,2.051,19.049a5.328,5.328,0,0,1-1.208,4.609,10.53,10.53,0,0,1-7.9,3.574H89.417a10.53,10.53,0,0,1-7.9-3.574A5.328,5.328,0,0,1,80.3,61.273c1.5-7.065,3.081-16.1,2.051-19.049A17.411,17.411,0,0,0,78.73,37.01c-.462-.526-.928-1.057-1.367-1.59l-.006-.007c-1.389-1.687-2.5-3.393-2.361-5.045.382-4.392,3.283-19.31,3.312-19.461a1.182,1.182,0,0,0-.675-1.276A8.773,8.773,0,0,1,72.74,3.125c2.115-.23,6.943-.406,8.91,2.411l.011.014.01.015c.285.382,7.049,9.385,13.582,11.2a2.7,2.7,0,0,0,.723.1,2.7,2.7,0,0,0,2.682-2.7v-.6l4.194,2.808a2.144,2.144,0,0,0,3.321-2.037l-1.095-9.126c2.1-2.475,6.627-2.3,8.655-2.084a8.773,8.773,0,0,1-4.894,6.507,1.149,1.149,0,0,0,.9,2.114,11.009,11.009,0,0,0,6.377-9.571,1.149,1.149,0,0,0-.93-1.164c-.332-.064-7.571-1.415-11.363,2.179A15.466,15.466,0,0,0,95.7.1,19.454,19.454,0,0,0,82.8,3.336C79.048-.441,71.62.944,71.284,1.009a1.149,1.149,0,0,0-.93,1.164,10.8,10.8,0,0,0,5.136,8.89C73.444,13.972,68,22.271,66.423,30.3a35.537,35.537,0,0,1-5.131,12.823,2.185,2.185,0,0,0,1.817,3.4h1.113c-1.594,3.91-5.753,14.008-7.8,17.99a2.186,2.186,0,0,0,1.942,3.19h2.469c-1.629,3.277-3.954,7.877-4.656,8.983a1.149,1.149,0,1,0,1.94,1.233c.947-1.491,4.235-8.1,5.281-10.216h2.882a1.149,1.149,0,1,0,0-2.3H58.542c2.332-4.581,6.947-15.887,8.161-18.881h2.788a1.149,1.149,0,1,0,0-2.3H63.319a38.037,38.037,0,0,0,5.36-13.483c1.043-5.32,4-10.919,6.321-14.72-.889,4.8-2.052,11.371-2.293,14.145-.2,2.354,1.038,4.425,2.616,6.387C75.274,44.964,73.6,55.589,72.2,63.078a1.149,1.149,0,1,0,2.259.424A180.15,180.15,0,0,0,77.56,39.162a13.374,13.374,0,0,1,2.625,3.821c.243.693.806,4.026-2.129,17.811a7.636,7.636,0,0,0,1.73,6.606,12.83,12.83,0,0,0,9.63,4.354h7.641a12.829,12.829,0,0,0,9.63-4.354,7.637,7.637,0,0,0,1.73-6.606c-2.936-13.784-2.372-17.117-2.129-17.811a13.368,13.368,0,0,1,2.624-3.82c.641,16.171,6.054,38.183,6.112,38.417a1.149,1.149,0,0,0,2.231-.552ZM95.465,2.389c3.506.365,6.174,1.752,7.317,2.972l1.069,8.913-9.226-6.26A1.149,1.149,0,1,0,93.316,9.9l3.043,2.108v2.155a.391.391,0,0,1-.157.316.377.377,0,0,1-.335.065c-4.632-1.286-9.741-7.119-11.614-9.42A17.172,17.172,0,0,1,95.465,2.389Z" transform="translate(-55.992 0.002)"/>
      </g>
    </g>
  </g>
</svg>
