<svg xmlns="http://www.w3.org/2000/svg" xmlns:xlink="http://www.w3.org/1999/xlink" width="70" height="70" viewBox="0 0 70 70">
  <defs>
    <clipPath id="clip-path">
      <rect id="Rectangle_412021" data-name="Rectangle 412021" width="44.615" height="44.571" fill="none"/>
    </clipPath>
  </defs>
  <g id="Group_1202266" data-name="Group 1202266" transform="translate(-621.835 -3716)">
    <path id="Path_1259061" data-name="Path 1259061" d="M35,0A35,35,0,1,1,0,35,35,35,0,0,1,35,0Z" transform="translate(621.835 3716)" fill="#70d9c1"/>
    <g id="Group_1213625" data-name="Group 1213625" transform="translate(634.527 3728.714)">
      <g id="Group_1213624" data-name="Group 1213624" clip-path="url(#clip-path)">
        <path id="Path_1260781" data-name="Path 1260781" d="M137.582,126.257a11.152,11.152,0,1,1-11.152-11.146,11.149,11.149,0,0,1,11.152,11.146m-1.59,0a9.561,9.561,0,1,0-9.561,9.556,9.559,9.559,0,0,0,9.561-9.556" transform="translate(-92.967 -92.831)" fill="#060606"/>
        <path id="Path_1260787" data-name="Path 1260787" d="M152.059,170.135l-11.179.023a.8.8,0,0,1-.867-.735.759.759,0,0,1,.734-.858l11.124-.011a.8.8,0,0,1,.849.609c.078.354-.093.97-.66.971" transform="translate(-112.912 -135.931)" fill="#0b0b0b"/>
        <path id="Path_1260788" data-name="Path 1260788" d="M23.829,16.319l-8.866,8.854a3.2,3.2,0,0,1-.109,3.522l2.064,2.06,3.072-.79a.752.752,0,0,1,.948.52.785.785,0,0,1-.57,1.01l-1.416.391c.5.456,2.094.409,1.7,1.572-.43,1.267-2.956-.427-3.85-.783l-2.573,2.513a4.662,4.662,0,0,1-5.841.452,4.823,4.823,0,0,1-6.421.679,4.762,4.762,0,0,1-1.33-6.225L8.828,15.873a10.412,10.412,0,0,1,4.433-7.526L10.744,3.9a.788.788,0,0,1,.266-1.023C19.344-1.975,30.947-.95,36.07,7.931l8.1,14.052a5.785,5.785,0,0,1-.7,2.211c-.189.334-.711.326-1.017.172a.765.765,0,0,1-.393-.893l.42-1.238L34.454,8.418a14.331,14.331,0,0,0-13.337-6.8L24.8,5.347a10.472,10.472,0,0,1,6.175,4.923l5.445,9.456a.772.772,0,0,1-.33,1.038.827.827,0,0,1-1.135-.4l-5.558-9.6-4.217,4.19,1.794,6.879a.79.79,0,0,1-.569.94.768.768,0,0,1-.915-.467ZM18.43,5.31,18.4,1.877a18.5,18.5,0,0,0-5.849,1.981L14.7,7.488Zm5.832,8.279L28.424,9.45A8.687,8.687,0,0,0,24,6.773l-3.93-3.855c-.122.981-.018,1.89-.068,2.86-.049.939-1.313,1.01-1.913,1.669ZM10.442,24.271a3.191,3.191,0,0,1,3.348-.185l9.341-9.335-6.5-6.5-1.748.973a8.845,8.845,0,0,0-4.527,7.209L7.526,21.4Zm2.758,9.7,2.3-2.288L13.6,29.747a3.108,3.108,0,0,1-3.6-.626,3.237,3.237,0,0,1-.644-3.633L6.672,22.823l-4.752,8.3A3.07,3.07,0,0,0,3.29,35.27a3.158,3.158,0,0,0,4.2-1.15.831.831,0,0,1,1.315-.214,3.1,3.1,0,0,0,4.393.064m.643-7.091a1.592,1.592,0,1,0-1.592,1.591,1.592,1.592,0,0,0,1.592-1.591" transform="translate(0 0)" fill="#060606"/>
      </g>
    </g>
  </g>
</svg>
