<svg id="Group_1213681" data-name="Group 1213681" xmlns="http://www.w3.org/2000/svg" xmlns:xlink="http://www.w3.org/1999/xlink" width="90" height="89.942" viewBox="0 0 90 89.942">
  <defs>
    <clipPath id="clip-path">
      <rect id="Rectangle_412074" data-name="Rectangle 412074" width="90" height="89.942" fill="none"/>
    </clipPath>
  </defs>
  <g id="Group_1213680" data-name="Group 1213680" clip-path="url(#clip-path)">
    <path id="Path_1261131" data-name="Path 1261131" d="M61.641.083c2.1.189,4.245-.386,6.149.16C70.1.9,72.013,2.342,74.2,3.3L87.036,35.6l.124,4.045c.462.684,3.861,1.652,2.536,3.338L87.12,46.257A43.522,43.522,0,0,1,.079,46.8c-.005-3.7-.2-7.448.04-11.147L12.976,3.243c2.3-.9,4.179-2.432,6.484-3.027,1.9-.491,3.979.053,5.919-.144,2.65-.27.885,13.879,1.2,12.963l-2.04,5.94c4.924-2.848,10.247-4.294,15.58-5.551,2.3-3.5,4.692-7.142,7.89-9.89.466-.4.7-.736,1.358-.612a1.326,1.326,0,0,1,1.173.973L53.29,18.9l12.176,7.456c-1.212-4.765-3.833-8.812-4.806-13.443-.787-3.744.178-7.62-.3-11.415-.072-.58.6-1.477,1.276-1.416M59.869,75.918A33.441,33.441,0,0,0,77.12,49.584a37.335,37.335,0,0,0-4.156-.764,29.464,29.464,0,0,1-58.814-1.4,84.858,84.858,0,0,1,.055-9.755l9.606-25.232.175-9.518c-5.285-.3-4.355.376-8.83,2.423L2.925,36.256c-.168,3.707-.1,7.5-.027,11.1A40.7,40.7,0,0,0,84.09,50.441c-1.773.64-2.386-.2-4.2-.243A36.221,36.221,0,0,1,61.057,78.462a1.4,1.4,0,1,1-1.189-2.544m24-40.759L71.977,5.352c-4.448-2.165-3.67-2.7-8.737-2.439v9.55l6.422,16.5L84.151,37.89a3.517,3.517,0,0,0-.281-2.73M37.609,44.552a1.419,1.419,0,0,1,.383-2.114,1.441,1.441,0,0,1,1.919.453,14,14,0,0,0,20.477.968,1.355,1.355,0,0,1,1.167-.292L82.34,47.739l4.049-5.146L50.763,20.655,48.246,7.276a38.178,38.178,0,0,0-9.2,16.7A1.764,1.764,0,0,1,37.53,25.7a40.774,40.774,0,0,0-20.6,14.16L16.9,45.816a26.944,26.944,0,0,0,20.43,26.521,26.2,26.2,0,0,0,18.842-2.491,33.81,33.81,0,0,1-6.969-19.24,16.974,16.974,0,0,1-11.6-6.054M26.4,22.376a1.454,1.454,0,0,1-.454,2.219c-2.195,1.049-2-2.963-3.331-1.11l-3.7,9.863A45.03,45.03,0,0,1,36.351,23.11a52.2,52.2,0,0,1,2.164-6.323,23.478,23.478,0,0,0-4.708,1.254,3.653,3.653,0,0,0,.351,1.2,1.423,1.423,0,0,1-.873,1.914c-1.786.557-1.777-1.765-2.383-2.083a38.864,38.864,0,0,0-4.871,2.3c-.208.219.223.792.366,1m43.77,25.783L61.685,46.5a17.191,17.191,0,0,1-9.653,4.124,30.624,30.624,0,0,0,6.589,17.755A26.7,26.7,0,0,0,70.166,48.159" transform="translate(0 -0.001)" fill="#050405"/>
    <path id="Path_1261132" data-name="Path 1261132" d="M70.846,87.027a1.4,1.4,0,1,0,1.189,2.544A36.221,36.221,0,0,0,90.872,61.306c1.809.039,2.423.883,4.2.243a40.7,40.7,0,0,1-81.193-3.088c-.078-3.6-.141-7.39.027-11.1L26.134,16.452c4.475-2.047,3.545-2.726,8.83-2.424l-.175,9.518L25.183,48.779a84.812,84.812,0,0,0-.055,9.755,29.464,29.464,0,0,0,58.814,1.4,37.259,37.259,0,0,1,4.156.764A33.442,33.442,0,0,1,70.846,87.027m-32.491.061A33.215,33.215,0,0,1,20.869,58.365L20.81,47.53a1.284,1.284,0,0,0-1.5-1.205,1.394,1.394,0,0,0-1.266,1.421l0,10A36.337,36.337,0,0,0,37.005,89.542a1.408,1.408,0,0,0,1.912-.524,1.387,1.387,0,0,0-.561-1.93" transform="translate(-10.978 -11.109)" fill="#c9ced6"/>
    <path id="Path_1261133" data-name="Path 1261133" d="M330.249,46.269A3.517,3.517,0,0,1,330.53,49l-14.489-8.928-6.422-16.5v-9.55c5.068-.261,4.29.275,8.738,2.439Z" transform="translate(-246.379 -11.11)" fill="#c9ced6"/>
    <path id="Path_1261134" data-name="Path 1261134" d="M100.057,87.775c-.142-.212-.574-.785-.366-1a38.878,38.878,0,0,1,4.871-2.3c.606.318.6,2.64,2.383,2.083a1.423,1.423,0,0,0,.873-1.914,3.647,3.647,0,0,1-.35-1.2,23.474,23.474,0,0,1,4.708-1.254,52.2,52.2,0,0,0-2.164,6.323A45.03,45.03,0,0,0,92.568,98.747l3.7-9.863c1.33-1.852,1.137,2.16,3.331,1.11a1.454,1.454,0,0,0,.454-2.219" transform="translate(-73.661 -65.4)" fill="#626a75"/>
    <path id="Path_1261135" data-name="Path 1261135" d="M54.888,213.156a1.387,1.387,0,0,1,.561,1.93,1.408,1.408,0,0,1-1.912.525,36.337,36.337,0,0,1-18.962-31.794l0-10a1.394,1.394,0,0,1,1.266-1.421,1.284,1.284,0,0,1,1.5,1.205l.059,10.835a33.215,33.215,0,0,0,17.487,28.722" transform="translate(-27.511 -137.178)" fill="#050606"/>
    <path id="Path_1261136" data-name="Path 1261136" d="M103.462,72.9a16.975,16.975,0,0,0,11.6,6.054,33.808,33.808,0,0,0,6.969,19.24,26.2,26.2,0,0,1-18.843,2.491,26.944,26.944,0,0,1-20.43-26.521l.023-5.952a40.774,40.774,0,0,1,20.6-14.16,1.764,1.764,0,0,0,1.514-1.731,38.177,38.177,0,0,1,9.2-16.7L116.616,49l35.626,21.939-4.049,5.146-20.785-4.172a1.354,1.354,0,0,0-1.167.292,14,14,0,0,1-20.477-.968,1.441,1.441,0,0,0-1.919-.453,1.419,1.419,0,0,0-.383,2.114m15.811-13.565a1.4,1.4,0,1,0-1.4,1.4,1.4,1.4,0,0,0,1.4-1.4" transform="translate(-65.853 -28.346)" fill="#955252"/>
    <path id="Path_1261137" data-name="Path 1261137" d="M250.66,146.269a1.4,1.4,0,1,1-1.4-1.4,1.4,1.4,0,0,1,1.4,1.4" transform="translate(-197.24 -115.282)" fill="#060303"/>
  </g>
</svg>
