<svg xmlns="http://www.w3.org/2000/svg" xmlns:xlink="http://www.w3.org/1999/xlink" width="57.332" height="82.296" viewBox="0 0 57.332 82.296">
  <defs>
    <filter id="Rectangle_410591" x="1.823" y="0" width="53.687" height="82.296" filterUnits="userSpaceOnUse">
      <feOffset dy="3" input="SourceAlpha"/>
      <feGaussianBlur stdDeviation="3" result="blur"/>
      <feFlood flood-opacity="0.161"/>
      <feComposite operator="in" in2="blur"/>
      <feComposite in="SourceGraphic"/>
    </filter>
    <clipPath id="clip-path">
      <rect id="Rectangle_412166" data-name="Rectangle 412166" width="57.332" height="57.327" fill="none"/>
    </clipPath>
  </defs>
  <g id="Group_1201410" data-name="Group 1201410" transform="translate(10.823 6)">
    <g transform="matrix(1, 0, 0, 1, -10.82, -6)" filter="url(#Rectangle_410591)">
      <path id="Rectangle_410591-2" data-name="Rectangle 410591" d="M10,0H25.687a10,10,0,0,1,10,10V64.3a0,0,0,0,1,0,0H0a0,0,0,0,1,0,0V10A10,10,0,0,1,10,0Z" transform="translate(10.82 6)" fill="#695640"/>
    </g>
    <g id="Group_1213735" data-name="Group 1213735" transform="translate(-10.823 10.149)">
      <rect id="Rectangle_412165" data-name="Rectangle 412165" width="1.792" height="5.134" transform="matrix(0.707, -0.707, 0.707, 0.707, 37.567, 38.849)" fill="#c6cbd3"/>
      <g id="Group_1213734" data-name="Group 1213734">
        <g id="Group_1213733" data-name="Group 1213733" clip-path="url(#clip-path)">
          <path id="Path_1261462" data-name="Path 1261462" d="M56.127,49.842a4.423,4.423,0,0,1-.274,6.325,4.541,4.541,0,0,1-6.345-.284L39.559,45.91c-.3-.3-.542-.485-.531-.9.024-.878,1.046-1.086.808-1.326L36.2,40.013a22.387,22.387,0,1,1,3.8-3.79l3.818,3.711c.259-.54,1.133-1.273,1.616-.79ZM42.983,22.385a20.6,20.6,0,1,0-20.6,20.6,20.6,20.6,0,0,0,20.6-20.6m-4.149,15.2-1.267,1.267,3.631,3.63,1.267-1.267ZM50.827,54.636a2.734,2.734,0,0,0,3.994.013,2.767,2.767,0,0,0-.349-3.974L45,41.247l-3.78,3.76Z" transform="translate(0 0)" fill="#050505"/>
          <path id="Path_1261463" data-name="Path 1261463" d="M54.887,34.3a20.6,20.6,0,1,1-20.6-20.6,20.6,20.6,0,0,1,20.6,20.6m-.9,0A19.7,19.7,0,1,0,34.286,54a19.7,19.7,0,0,0,19.7-19.7" transform="translate(-11.903 -11.911)" fill="#d9dce0"/>
          <path id="Path_1261464" data-name="Path 1261464" d="M325.863,329.831l-9.6-9.63,3.78-3.76,9.469,9.427a2.767,2.767,0,0,1,.349,3.974,2.734,2.734,0,0,1-3.994-.013" transform="translate(-275.035 -275.195)" fill="#636b76"/>
          <path id="Path_1261465" data-name="Path 1261465" d="M65.744,42.365,55.587,39.827l-1.671-3.283a.9.9,0,0,0-1.553.018l-1.581,3.123-3.087.024a.788.788,0,0,0-.734.487L40.936,52.245l-6.575.017A17.906,17.906,0,1,1,51.366,70.123l0-2.74a4.638,4.638,0,0,0,3.613-4.572l.8-14.148,8.224-.012a.77.77,0,0,0,.7-.5L66.464,43.8a1.064,1.064,0,0,0,.052-.9,1.01,1.01,0,0,0-.772-.537" transform="translate(-29.882 -29.856)" fill="#85baf1"/>
          <path id="Path_1261466" data-name="Path 1261466" d="M103.64,288.626a4.938,4.938,0,0,1,0,1.5,13.48,13.48,0,0,1-2.926-1.43Z" transform="translate(-87.584 -251.005)" fill="#80b3e8"/>
          <path id="Path_1261467" data-name="Path 1261467" d="M59.974,40.3a19.7,19.7,0,1,1-19.7-19.7,19.7,19.7,0,0,1,19.7,19.7m-6.222-9.877a1.01,1.01,0,0,1,.772.537,1.064,1.064,0,0,1-.051.9l-1.755,4.357a.769.769,0,0,1-.7.5l-8.224.012-.8,14.147a4.638,4.638,0,0,1-3.613,4.572l0,2.74A17.907,17.907,0,1,0,22.369,40.315l6.575-.017L34.97,28.249a.788.788,0,0,1,.734-.487l3.087-.024,1.581-3.123a.9.9,0,0,1,1.553-.018L43.6,27.88ZM37.569,54.576a.853.853,0,0,1,.859-.828,2.807,2.807,0,0,0,2.763-2.888l.857-15.125a.786.786,0,0,1,.7-.773l8.552-.033,1.159-2.963L42.347,29.4l-1.21-2.28L34.024,41.338a1.037,1.037,0,0,1-1.051.778l-10.524.006a17.924,17.924,0,0,0,5.993,11.614l6.5.015a.844.844,0,0,1,.839.782l.038,3.092a4.808,4.808,0,0,0,1.736.315ZM32.58,40.214l5.292-10.607a4.053,4.053,0,0,0-1.56-.014L31,40.232a3.118,3.118,0,0,0,1.584-.018m1.367,15.317-2.929.072a13.479,13.479,0,0,0,2.926,1.43,4.938,4.938,0,0,0,0-1.5" transform="translate(-17.891 -17.91)" fill="#040404"/>
          <path id="Path_1261468" data-name="Path 1261468" d="M50.095,98.15l-.016,3.364a4.808,4.808,0,0,1-1.736-.315L48.3,98.106a.845.845,0,0,0-.84-.782l-6.5-.015A17.923,17.923,0,0,1,34.975,85.7L45.5,85.69a1.037,1.037,0,0,0,1.051-.778L53.663,70.7l1.21,2.28,10.11,2.561L63.823,78.5l-8.552.033a.786.786,0,0,0-.7.773l-.857,15.125a2.807,2.807,0,0,1-2.763,2.888.853.853,0,0,0-.859.829" transform="translate(-30.416 -61.484)" fill="#945252"/>
          <path id="Path_1261469" data-name="Path 1261469" d="M102.126,99.791a3.117,3.117,0,0,1-1.584.018l5.317-10.639a4.05,4.05,0,0,1,1.56.014Z" transform="translate(-87.437 -77.487)" fill="#626974"/>
        </g>
      </g>
    </g>
  </g>
</svg>
