<svg xmlns="http://www.w3.org/2000/svg" width="129.063" height="79.494" viewBox="0 0 129.063 79.494">
  <g id="Group_1213752" data-name="Group 1213752" transform="translate(2220.883 9707.898)">
    <g id="Group_1213451" data-name="Group 1213451" transform="translate(-3008.986 -11689.27)">
      <g id="Group_1201007" data-name="Group 1201007">
        <g id="Rectangle_410589" data-name="Rectangle 410589" transform="translate(788.103 2007.607)" fill="#d3af82" stroke="#93795a" stroke-width="1">
          <rect width="129.063" height="43.021" rx="8" stroke="none"/>
          <rect x="0.5" y="0.5" width="128.063" height="42.021" rx="7.5" fill="none"/>
        </g>
      </g>
    </g>
    <g id="horse_3689331" transform="translate(-2205.275 -9713.9)">
      <g id="Group_1201400" data-name="Group 1201400" transform="translate(1.533 13.643)">
        <path id="Path_1247275" data-name="Path 1247275" d="M14.441,25H23.63a10.7,10.7,0,0,0-10.7,10.7V52.5A12.215,12.215,0,0,1,1,64.734,3.053,3.053,0,0,0,3.74,61.692V35.7A10.7,10.7,0,0,1,14.439,25Z" transform="translate(-1.003 -3.596)" fill="#656d78"/>
        <path id="Path_1247276" data-name="Path 1247276" d="M46.595,11.046,35.908,32.4H29.793L40.495,11H46.5Z" transform="translate(14.222 -11)" fill="#656d78"/>
        <path id="Path_1247277" data-name="Path 1247277" d="M35.793,54h6.115v4.587H35.793Z" transform="translate(17.395 11.74)" fill="#656d78"/>
      </g>
      <path id="Path_1247278" data-name="Path 1247278" d="M67.139,44.99,64.081,63.351H51.851L48.793,44.99Z" transform="translate(25.803 20.618)" fill="#da4453"/>
      <path id="Path_1247279" data-name="Path 1247279" d="M64.081,36.068a3.067,3.067,0,0,0,3.058-3.058v4.556a3.067,3.067,0,0,1-3.058,3.058H51.851a3.067,3.067,0,0,1-3.058-3.058V33.01a3.067,3.067,0,0,0,3.058,3.058Z" transform="translate(25.803 14.283)" fill="#f6bb42"/>
      <path id="Path_1247280" data-name="Path 1247280" d="M67.139,33.561v1.575a3.067,3.067,0,0,1-3.058,3.058H51.851a3.067,3.067,0,0,1-3.058-3.058V32.048a3.067,3.067,0,0,1,3.058-3.058H64.081a3.067,3.067,0,0,1,3.058,3.058Z" transform="translate(25.803 12.157)" fill="#ffce54"/>
      <path id="Path_1247281" data-name="Path 1247281" d="M47.793,42H69.2v4.571h-21.4Z" transform="translate(25.275 19.037)" fill="#ed5565"/>
      <path id="Path_1247282" data-name="Path 1247282" d="M11.793,54h6.131v4.587H11.793Z" transform="translate(6.237 25.383)" fill="#656d78"/>
      <path id="Path_1247283" data-name="Path 1247283" d="M22.562,34.519H47.008L57.7,13.161,60.768,7l3.058,6.115L82.172,17.7l-3.058,7.644H63.81L62.3,51.336a6.114,6.114,0,0,1-6.115,6.115v21.4H50.066v-21.4H26.751L19.489,69.728l.015,9.127H13.374V58.98A4.577,4.577,0,0,1,8.8,54.394V45.221a10.7,10.7,0,0,1,10.7-10.7Z" transform="translate(4.655 0.528)" fill="#965353"/>
      <path id="Path_1247284" data-name="Path 1247284" d="M9.536,37.762a1.528,1.528,0,0,1-1.529-1.529A12.245,12.245,0,0,1,20.238,24a1.529,1.529,0,0,1,0,3.058,9.183,9.183,0,0,0-9.173,9.173,1.528,1.528,0,0,1-1.529,1.529Z" transform="translate(4.234 9.519)"/>
      <path id="Path_1247285" data-name="Path 1247285" d="M21.283,44.17a1.529,1.529,0,0,1-1.254-2.4,9.12,9.12,0,0,0,1.639-5.233,1.529,1.529,0,0,1,3.058,0,12.165,12.165,0,0,1-2.186,6.98A1.528,1.528,0,0,1,21.283,44.17Z" transform="translate(10.447 15.338)"/>
      <path id="Path_1247286" data-name="Path 1247286" d="M3.53,37.762A1.528,1.528,0,0,1,2,36.233,12.245,12.245,0,0,1,14.232,24a1.529,1.529,0,0,1,0,3.058,9.183,9.183,0,0,0-9.173,9.173A1.528,1.528,0,0,1,3.53,37.762Z" transform="translate(1.058 9.519)"/>
      <path id="Path_1247287" data-name="Path 1247287" d="M3.534,60.044A1.528,1.528,0,0,1,2,58.516V32.53a1.529,1.529,0,0,1,3.058,0V58.516a1.528,1.528,0,0,1-1.529,1.529Z" transform="translate(1.06 13.221)"/>
      <path id="Path_1247288" data-name="Path 1247288" d="M9.536,50.863a1.528,1.528,0,0,1-1.529-1.529V32.529a1.529,1.529,0,1,1,3.058,0V49.334a1.528,1.528,0,0,1-1.529,1.529Z" transform="translate(4.234 13.22)"/>
      <path id="Path_1247289" data-name="Path 1247289" d="M22.767,27.06H10.534a1.529,1.529,0,1,1,0-3.058H22.767a1.529,1.529,0,0,1,0,3.058Z" transform="translate(4.762 9.519)"/>
      <path id="Path_1247290" data-name="Path 1247290" d="M1.532,57.287a1.529,1.529,0,1,1,0-3.058A10.719,10.719,0,0,0,12.24,43.521a1.529,1.529,0,1,1,3.058,0A13.781,13.781,0,0,1,1.532,57.287Z" transform="translate(0.002 19.033)"/>
      <path id="Path_1247291" data-name="Path 1247291" d="M1.532,54.116a1.529,1.529,0,1,1,0-3.058,1.533,1.533,0,0,0,1.532-1.532,1.529,1.529,0,0,1,3.058,0,4.6,4.6,0,0,1-4.589,4.59Z" transform="translate(0.002 22.209)"/>
      <path id="Path_1247292" data-name="Path 1247292" d="M16.545,68.04a1.53,1.53,0,0,1-1.529-1.527L15,52.81a1.522,1.522,0,0,1,.214-.779l7.265-12.28a1.528,1.528,0,0,1,2.631,1.556l-7.051,11.92.013,13.283a1.528,1.528,0,0,1-1.527,1.53Z" transform="translate(7.934 17.451)"/>
      <path id="Path_1247293" data-name="Path 1247293" d="M12.534,67.512A1.528,1.528,0,0,1,11,65.983L11,41.53A1.529,1.529,0,0,1,12.526,40h0a1.529,1.529,0,0,1,1.529,1.528l.006,24.455a1.528,1.528,0,0,1-1.529,1.529Z" transform="translate(5.817 17.98)"/>
      <path id="Path_1247294" data-name="Path 1247294" d="M18.661,56.053H12.532a1.529,1.529,0,1,1,0-3.058h6.129a1.529,1.529,0,1,1,0,3.058Z" transform="translate(5.819 24.852)"/>
      <path id="Path_1247295" data-name="Path 1247295" d="M42.981,27.06H18.536a1.529,1.529,0,0,1,0-3.058H42.981a1.529,1.529,0,0,1,0,3.058Z" transform="translate(8.994 9.519)"/>
      <path id="Path_1247296" data-name="Path 1247296" d="M34.524,36.579a1.529,1.529,0,0,1-1.366-2.213L46.92,6.847a1.529,1.529,0,0,1,2.735,1.368L35.893,35.734A1.529,1.529,0,0,1,34.524,36.579Z" transform="translate(17.449 0)"/>
      <path id="Path_1247297" data-name="Path 1247297" d="M30.526,34.464a1.529,1.529,0,0,1-1.366-2.213l10.7-21.4A1.529,1.529,0,1,1,42.6,12.215l-10.7,21.4a1.529,1.529,0,0,1-1.369.845Z" transform="translate(15.335 2.115)"/>
      <path id="Path_1247298" data-name="Path 1247298" d="M46.582,15.175a1.526,1.526,0,0,1-1.369-.847L42.159,8.213a1.528,1.528,0,0,1,2.735-1.365l3.053,6.115a1.529,1.529,0,0,1-1.366,2.211Z" transform="translate(22.21 0)"/>
      <path id="Path_1247299" data-name="Path 1247299" d="M63.874,17.651A1.53,1.53,0,0,1,63.5,17.6L45.152,13.013a1.528,1.528,0,0,1,.744-2.965l18.349,4.591a1.529,1.529,0,0,1-.37,3.011Z" transform="translate(23.266 2.116)"/>
      <path id="Path_1247300" data-name="Path 1247300" d="M55.527,23.707a1.529,1.529,0,0,1-1.42-2.1l3.056-7.644A1.529,1.529,0,0,1,60,15.1l-3.056,7.644a1.528,1.528,0,0,1-1.42.961Z" transform="translate(28.556 3.703)"/>
      <path id="Path_1247301" data-name="Path 1247301" d="M60.817,21.063H45.523a1.529,1.529,0,1,1,0-3.058H60.817a1.529,1.529,0,0,1,0,3.058Z" transform="translate(23.266 6.348)"/>
      <path id="Path_1247302" data-name="Path 1247302" d="M44.531,47.046c-.03,0-.06,0-.091,0A1.528,1.528,0,0,1,43,45.427l1.518-25.983a1.512,1.512,0,0,1,1.615-1.436,1.528,1.528,0,0,1,1.436,1.615L46.055,45.606a1.529,1.529,0,0,1-1.524,1.439Z" transform="translate(22.741 6.347)"/>
      <path id="Path_1247303" data-name="Path 1247303" d="M40.53,44.173a1.529,1.529,0,0,1,0-3.058,4.592,4.592,0,0,0,4.587-4.587,1.529,1.529,0,0,1,3.058,0,7.653,7.653,0,0,1-7.644,7.644Z" transform="translate(20.625 15.335)"/>
      <path id="Path_1247304" data-name="Path 1247304" d="M40.527,68.045A1.528,1.528,0,0,1,39,66.516V40.529a1.529,1.529,0,1,1,3.058,0V66.516a1.528,1.528,0,0,1-1.529,1.529Z" transform="translate(20.624 17.451)"/>
      <path id="Path_1247305" data-name="Path 1247305" d="M36.526,68.045A1.528,1.528,0,0,1,35,66.516V40.529a1.529,1.529,0,1,1,3.058,0V66.516a1.528,1.528,0,0,1-1.529,1.529Z" transform="translate(18.508 17.451)"/>
      <path id="Path_1247306" data-name="Path 1247306" d="M42.643,56.055H36.526a1.529,1.529,0,1,1,0-3.058h6.117a1.529,1.529,0,1,1,0,3.058Z" transform="translate(18.508 24.853)"/>
      <path id="Path_1247307" data-name="Path 1247307" d="M44.587,42.058h-23.3a1.529,1.529,0,1,1,0-3.058h23.3a1.529,1.529,0,1,1,0,3.058Z" transform="translate(10.447 17.451)"/>
      <path id="Path_1247308" data-name="Path 1247308" d="M43.535,13.06H37.529a1.529,1.529,0,1,1,0-3.058h6.006a1.529,1.529,0,1,1,0,3.058Z" transform="translate(19.038 2.116)"/>
      <path id="Path_1247309" data-name="Path 1247309" d="M14.118,44.643a6.118,6.118,0,0,1-6.111-6.111,1.529,1.529,0,0,1,3.058,0,3.056,3.056,0,0,0,3.053,3.053,1.529,1.529,0,1,1,0,3.058Z" transform="translate(4.234 16.395)"/>
      <path id="Path_1247310" data-name="Path 1247310" d="M96.317,59.053H1.529a1.529,1.529,0,0,1,0-3.058H96.317a1.529,1.529,0,0,1,0,3.058Z" transform="translate(0 26.438)"/>
      <path id="Path_1247311" data-name="Path 1247311" d="M64.818,65.4H52.587a1.528,1.528,0,0,1-1.508-1.278L48.022,45.774a1.529,1.529,0,0,1,1.508-1.78H67.876a1.529,1.529,0,0,1,1.508,1.78L66.326,64.126A1.528,1.528,0,0,1,64.818,65.4ZM53.883,62.346h9.639l2.549-15.294H51.335Z" transform="translate(25.385 20.092)"/>
      <path id="Path_1247312" data-name="Path 1247312" d="M69.934,48.634H48.53A1.528,1.528,0,0,1,47,47.1V42.532A1.528,1.528,0,0,1,48.53,41h21.4a1.528,1.528,0,0,1,1.529,1.529V47.1a1.528,1.528,0,0,1-1.529,1.529ZM50.059,45.576H68.4V44.061H50.059Z" transform="translate(24.856 18.51)"/>
      <path id="Path_1247313" data-name="Path 1247313" d="M64.818,40.243H52.588A4.592,4.592,0,0,1,48,35.656V32.581a4.592,4.592,0,0,1,4.587-4.586H64.818A4.592,4.592,0,0,1,69.4,32.581v3.076A4.592,4.592,0,0,1,64.818,40.243ZM52.588,31.052a1.53,1.53,0,0,0-1.529,1.529v3.076a1.53,1.53,0,0,0,1.529,1.529H64.818a1.53,1.53,0,0,0,1.529-1.529V32.581a1.53,1.53,0,0,0-1.529-1.529Z" transform="translate(25.385 11.63)"/>
      <path id="Path_1247314" data-name="Path 1247314" d="M64.818,43.231H52.588A4.592,4.592,0,0,1,48,38.644V32.511a1.529,1.529,0,0,1,3.058,0v6.133a1.53,1.53,0,0,0,1.529,1.529H64.818a1.53,1.53,0,0,0,1.529-1.529V32.511a1.529,1.529,0,0,1,3.058,0v6.133A4.592,4.592,0,0,1,64.818,43.231Z" transform="translate(25.385 13.211)"/>
      <path id="Path_1247315" data-name="Path 1247315" d="M22.552,47.052a1.529,1.529,0,1,1-.015-3.058h.015a1.529,1.529,0,0,1,0,3.058Z" transform="translate(11.114 20.092)"/>
      <path id="Path_1247316" data-name="Path 1247316" d="M27.552,23.052a1.529,1.529,0,1,1-.015-3.058h.015a1.529,1.529,0,1,1,0,3.058Z" transform="translate(13.758 7.4)"/>
      <path id="Path_1247317" data-name="Path 1247317" d="M15.552,14.052a1.529,1.529,0,1,1-.015-3.058h.015a1.529,1.529,0,0,1,0,3.058Z" transform="translate(7.412 2.64)"/>
      <path id="Path_1247318" data-name="Path 1247318" d="M33.552,47.052a1.529,1.529,0,0,1-.015-3.058h.015a1.529,1.529,0,0,1,0,3.058Z" transform="translate(16.931 20.092)"/>
      <path id="Path_1247319" data-name="Path 1247319" d="M27.53,56.167A1.528,1.528,0,0,1,26,54.638V48.523a1.529,1.529,0,1,1,3.058,0v6.115a1.528,1.528,0,0,1-1.529,1.529Z" transform="translate(13.75 21.678)"/>
      <path id="Path_1247320" data-name="Path 1247320" d="M29.588,52.052H26.53a1.529,1.529,0,1,1,0-3.058h3.058a1.529,1.529,0,0,1,0,3.058Z" transform="translate(13.221 22.736)"/>
      <path id="Path_1247321" data-name="Path 1247321" d="M11.53,25.174A1.528,1.528,0,0,1,10,23.645V17.53a1.529,1.529,0,0,1,3.058,0v6.115a1.528,1.528,0,0,1-1.529,1.529Z" transform="translate(5.289 5.288)"/>
      <path id="Path_1247322" data-name="Path 1247322" d="M13.588,21.059H10.53a1.529,1.529,0,0,1,0-3.058h3.058a1.529,1.529,0,1,1,0,3.058Z" transform="translate(4.76 6.346)"/>
      <path id="Path_1247323" data-name="Path 1247323" d="M23.53,19.167A1.528,1.528,0,0,1,22,17.638V11.523a1.529,1.529,0,0,1,3.058,0v6.115a1.528,1.528,0,0,1-1.529,1.529Z" transform="translate(11.635 2.111)"/>
      <path id="Path_1247324" data-name="Path 1247324" d="M25.588,15.052H22.53a1.529,1.529,0,1,1,0-3.058h3.058a1.529,1.529,0,1,1,0,3.058Z" transform="translate(11.106 3.169)"/>
    </g>
  </g>
</svg>
