<svg xmlns="http://www.w3.org/2000/svg" xmlns:xlink="http://www.w3.org/1999/xlink" width="129.063" height="84" viewBox="0 0 129.063 84">
  <defs>
    <clipPath id="clip-path">
      <rect id="Rectangle_412056" data-name="Rectangle 412056" width="94" height="84" transform="translate(0 0.326)" fill="none"/>
    </clipPath>
  </defs>
  <g id="Group_1201480" data-name="Group 1201480" transform="translate(-788.103 -1978.277)">
    <g id="Group_1201007" data-name="Group 1201007">
      <g id="Rectangle_410589" data-name="Rectangle 410589" transform="translate(788.103 2007.607)" fill="#d3af82" stroke="#93795a" stroke-width="1">
        <rect width="129.063" height="43.021" rx="8" stroke="none"/>
        <rect x="0.5" y="0.5" width="128.063" height="42.021" rx="7.5" fill="none"/>
      </g>
    </g>
    <g id="Group_1213663" data-name="Group 1213663" transform="translate(805.986 1977.993)">
      <g id="Group_1213662" data-name="Group 1213662" transform="translate(0 -0.042)" clip-path="url(#clip-path)">
        <path id="Path_1261047" data-name="Path 1261047" d="M221.558,127.5l-15.818-3.963-2.36-4.7c-.259-.515-.568-.9-1.05-.966a1.343,1.343,0,0,0-1.48.648l-2.4,4.789-4.73.049c-.8.008-1.056.566-1.375,1.2l-8.957,17.924-10.1.044a27.39,27.39,0,1,1,26.044,25.986,19.258,19.258,0,0,1,.029-2.866,6.861,6.861,0,0,0,5.4-6.392l1.29-22.165,12.379-.02a1.336,1.336,0,0,0,1.239-.715l2.874-7.235a1.3,1.3,0,0,0-.981-1.627" transform="translate(-138.729 -91.038)" fill="#86baf1"/>
        <path id="Path_1261048" data-name="Path 1261048" d="M197.835,199.459l-.015,3.7a10.086,10.086,0,0,1-2.649-.592l-.074-3.205a1.294,1.294,0,0,0-1.091-1.328L185.5,198a27.3,27.3,0,0,1-10.62-17.75l16.346-.022c.652,0,1-.648,1.217-1.186l10.832-21.626a31.686,31.686,0,0,1,1.853,3.411l15.463,3.923-1.739,4.535-12.871.01a1.325,1.325,0,0,0-1.308,1.412l-1.328,23.258a4.134,4.134,0,0,1-4.144,4.051,1.382,1.382,0,0,0-1.366,1.441" transform="translate(-140.038 -126.005)" fill="#955252"/>
        <path id="Path_1261049" data-name="Path 1261049" d="M242.226,191.818a4.831,4.831,0,0,1-2.435.043l8.093-16.2a5.275,5.275,0,0,1,2.4.008Z" transform="translate(-192.016 -140.505)" fill="#626a74"/>
        <path id="Path_1261050" data-name="Path 1261050" d="M254.458,374.976c.248.1.077.659,0,.846a10.683,10.683,0,0,1-1.916-.823,2.979,2.979,0,0,1,1.911-.024" transform="translate(-202.231 -300.097)" fill="#76a4d4"/>
        <path id="Path_1261051" data-name="Path 1261051" d="M92.472,91.253a30.124,30.124,0,0,1-42.319-34L23.4,57.243a1.361,1.361,0,0,1-1.419-1.417l.016-37a1.364,1.364,0,0,1,1.454-1.33l49.243,0a1.311,1.311,0,0,1,1.32,1.3L74.06,34.44A30.119,30.119,0,0,1,92.472,91.253M27.167,20.3a11.2,11.2,0,0,0-2.4-.028,5.665,5.665,0,0,0,.13,2.406A3.932,3.932,0,0,0,27.167,20.3M58.873,42.137a29.888,29.888,0,0,1,12.42-7.08l-.035-9.473a6.921,6.921,0,0,1-5.306-5.356l-35.882,0a6.942,6.942,0,0,1-5.321,5.354L24.73,36.809a6.922,6.922,0,0,1,5.338,5.336ZM71.239,20.273a11.47,11.47,0,0,0-2.4.027,3.715,3.715,0,0,0,2.387,2.373,8.686,8.686,0,0,0,.014-2.4m29.19,30.146a1.3,1.3,0,0,1,.981,1.627l-2.874,7.235A1.337,1.337,0,0,1,97.3,60l-12.379.02-1.29,22.165a6.861,6.861,0,0,1-5.4,6.392,19.209,19.209,0,0,0-.029,2.866A27.4,27.4,0,1,0,52.152,65.453l10.1-.044,8.957-17.924c.319-.639.571-1.2,1.375-1.2l4.73-.049,2.4-4.788a1.343,1.343,0,0,1,1.48-.648c.482.065.791.451,1.05.966l2.36,4.7Zm-73.25-8.4A4.125,4.125,0,0,0,24.8,39.709a9.555,9.555,0,0,0-.028,2.4,5.938,5.938,0,0,0,2.4-.087m28.028,4.264c.38-.686.757-.842.917-1.366l-31.293,0a1.791,1.791,0,0,0,.025,1.374ZM75.4,87.416a1.382,1.382,0,0,1,1.366-1.441,4.134,4.134,0,0,0,4.144-4.051l1.328-23.258a1.325,1.325,0,0,1,1.308-1.413l12.871-.01,1.739-4.535L82.691,48.785a31.709,31.709,0,0,0-1.853-3.411L70.005,67c-.212.538-.565,1.185-1.217,1.186l-16.346.022a27.3,27.3,0,0,0,10.62,17.75l8.506.033a1.294,1.294,0,0,1,1.091,1.328l.074,3.205a10.085,10.085,0,0,0,2.649.592Zm-22.793-37a2.965,2.965,0,0,0,.645-1.371l-28.42.007a1.911,1.911,0,0,0,.022,1.384ZM67.81,65.275l8.058-16.15a5.278,5.278,0,0,0-2.4-.009l-8.093,16.2a4.831,4.831,0,0,0,2.435-.043M50.857,54.491a2.44,2.44,0,0,0,.462-1.368l-26.487,0a1.839,1.839,0,0,0,.013,1.365Zm18.97,34.351a2.979,2.979,0,0,0-1.911.024,10.682,10.682,0,0,0,1.916.823c.072-.187.243-.742,0-.846" transform="translate(-17.6 -13.962)" fill="#030303"/>
        <path id="Path_1261052" data-name="Path 1261052" d="M69.932,53.112l-28.8.007a6.921,6.921,0,0,0-5.338-5.336l.018-11.221a6.941,6.941,0,0,0,5.321-5.354l35.882,0a6.922,6.922,0,0,0,5.307,5.356l.035,9.473a29.884,29.884,0,0,0-12.42,7.08M65.912,42.167a6.846,6.846,0,1,0-6.846,6.846,6.846,6.846,0,0,0,6.846-6.846" transform="translate(-28.659 -24.937)" fill="#9ed267"/>
        <path id="Path_1261053" data-name="Path 1261053" d="M66.166,156.489l-30.351.012a1.791,1.791,0,0,1-.025-1.374l31.293,0c-.16.524-.538.68-.917,1.366" transform="translate(-28.56 -124.167)" fill="#89bd50"/>
        <path id="Path_1261054" data-name="Path 1261054" d="M63.577,177.2l-27.754.021a1.912,1.912,0,0,1-.022-1.385l28.42-.007a2.965,2.965,0,0,1-.645,1.371" transform="translate(-28.574 -140.749)" fill="#82b34c"/>
        <path id="Path_1261055" data-name="Path 1261055" d="M61.821,197.666l-26.013-.005A1.839,1.839,0,0,1,35.8,196.3l26.487,0a2.437,2.437,0,0,1-.462,1.368" transform="translate(-28.564 -157.137)" fill="#86b94f"/>
        <path id="Path_1261056" data-name="Path 1261056" d="M259.576,31.224a8.676,8.676,0,0,1-.014,2.4,3.715,3.715,0,0,1-2.387-2.372,11.47,11.47,0,0,1,2.4-.027" transform="translate(-205.938 -24.912)" fill="#7dac49"/>
        <path id="Path_1261057" data-name="Path 1261057" d="M38.129,31.268a3.932,3.932,0,0,1-2.266,2.378,5.661,5.661,0,0,1-.131-2.406,11.187,11.187,0,0,1,2.4.028" transform="translate(-28.562 -24.925)" fill="#84b64d"/>
        <path id="Path_1261058" data-name="Path 1261058" d="M38.176,131.289a5.938,5.938,0,0,1-2.4.087,9.555,9.555,0,0,1,.028-2.4,4.125,4.125,0,0,1,2.373,2.311" transform="translate(-28.597 -103.231)" fill="#88bb4f"/>
        <path id="Path_1261059" data-name="Path 1261059" d="M131.951,58.718a6.846,6.846,0,1,1-6.846-6.846,6.846,6.846,0,0,1,6.846,6.846m-2.743,0a4.1,4.1,0,1,0-4.1,4.1,4.1,4.1,0,0,0,4.1-4.1" transform="translate(-94.698 -41.488)" fill="#040502"/>
        <path id="Path_1261060" data-name="Path 1261060" d="M140.275,69.774a4.1,4.1,0,1,1-4.1-4.1,4.1,4.1,0,0,1,4.1,4.1" transform="translate(-105.764 -52.541)" fill="#89bd50"/>
      </g>
    </g>
  </g>
</svg>
