<svg xmlns="http://www.w3.org/2000/svg" xmlns:xlink="http://www.w3.org/1999/xlink" width="129.063" height="84.523" viewBox="0 0 129.063 84.523">
  <defs>
    <clipPath id="clip-path">
      <rect id="Rectangle_412064" data-name="Rectangle 412064" width="84.486" height="84.524" fill="none"/>
    </clipPath>
  </defs>
  <g id="Group_1213453" data-name="Group 1213453" transform="translate(-788.103 -1971.046)">
    <g id="Group_1201007" data-name="Group 1201007">
      <g id="Rectangle_410589" data-name="Rectangle 410589" transform="translate(788.103 2007.607)" fill="#d3af82" stroke="#93795a" stroke-width="1">
        <rect width="129.063" height="43.021" rx="8" stroke="none"/>
        <rect x="0.5" y="0.5" width="128.063" height="42.021" rx="7.5" fill="none"/>
      </g>
    </g>
    <g id="Group_1213665" data-name="Group 1213665" transform="translate(810.391 1971.046)">
      <g id="Group_1213664" data-name="Group 1213664" clip-path="url(#clip-path)">
        <path id="Path_1261061" data-name="Path 1261061" d="M421.884,13.805V92.944a12.948,12.948,0,0,1-2.628-.033l0-79.106a24.068,24.068,0,0,1,2.625,0" transform="translate(-338.721 -11.11)" fill="#804545"/>
        <rect id="Rectangle_412057" data-name="Rectangle 412057" width="5.301" height="79.2" transform="translate(72.604 2.683)" fill="#935151"/>
        <rect id="Rectangle_412058" data-name="Rectangle 412058" width="55.452" height="5.297" transform="translate(14.518 60.748)" fill="#814646"/>
        <rect id="Rectangle_412059" data-name="Rectangle 412059" width="55.452" height="5.268" transform="translate(14.518 44.918)" fill="#834747"/>
        <rect id="Rectangle_412060" data-name="Rectangle 412060" width="55.446" height="5.283" transform="translate(14.52 52.83)" fill="#955353"/>
        <rect id="Rectangle_412061" data-name="Rectangle 412061" width="55.446" height="5.286" transform="translate(14.52 68.687)" fill="#955353"/>
        <rect id="Rectangle_412062" data-name="Rectangle 412062" width="55.452" height="5.268" transform="translate(14.518 76.613)" fill="#834747"/>
        <path id="Path_1261062" data-name="Path 1261062" d="M86.29,197.946l-10.591.06-.011-5.262,8.014.029a9.422,9.422,0,0,0,2.588,5.173" transform="translate(-61.149 -155.72)" fill="#955252"/>
        <path id="Path_1261063" data-name="Path 1261063" d="M324.99,197.92l-9.348.055a9.382,9.382,0,0,0,2.612-5.212l6.7-.032Z" transform="translate(-255.01 -155.708)" fill="#955252"/>
        <path id="Path_1261064" data-name="Path 1261064" d="M14.573,1.358l-.069,32.9a17.5,17.5,0,0,0,3.16.064l8.8-17.59a1.431,1.431,0,0,1,1.383-.892l4.284-.008,2.361-4.572a1.264,1.264,0,0,1,1.126-.683,1.346,1.346,0,0,1,1.227.754l2.4,4.707L54.45,19.857a1.321,1.321,0,0,1,.915,1.74L52.74,28.19a1.344,1.344,0,0,1-1.088.85L39.5,29.052,38.381,42.257l15.771.008a6.624,6.624,0,0,0,6.571-6.723c.036-.493.409-1.143.975-1.147l8.279-.062L69.914,1.358A1.478,1.478,0,0,1,71.432,0L83.161.015a1.315,1.315,0,0,1,1.323,1.241A1.407,1.407,0,0,1,83.163,2.7a24.02,24.02,0,0,0-2.625,0l0,79.106a12.963,12.963,0,0,0,2.628.033,1.427,1.427,0,0,1,1.317,1.275,1.316,1.316,0,0,1-1.362,1.414H1.371A1.317,1.317,0,0,1,.006,83.274a1.4,1.4,0,0,1,1.319-1.44A13.4,13.4,0,0,0,3.951,81.8V2.74A11.869,11.869,0,0,0,1.324,2.7,1.458,1.458,0,0,1,0,1.418,1.368,1.368,0,0,1,1.517,0L13.057,0a1.461,1.461,0,0,1,1.517,1.353m-2.69,1.324h-5.3v79.2h5.3Zm66.023,0H72.6v79.2h5.3ZM38.4,26.422l12.182-.011,1.72-4.364L38.058,18.469c-1.341-.337-1.512-2.486-2.474-3.5L25.1,35.916a6.541,6.541,0,0,0,6.373,6.331c1.445.052,2.77.027,4.275-.016l1.214-14.567A1.341,1.341,0,0,1,38.4,26.422m-15.414,7.83L30.8,18.608a5.123,5.123,0,0,0-2.306-.033L20.666,34.233a5.093,5.093,0,0,0,2.325.019m2.15,7.975a9.422,9.422,0,0,1-2.588-5.174l-8.014-.029.012,5.262Zm44.839-.015-.037-5.19-6.7.032a9.382,9.382,0,0,1-2.612,5.212Zm-.01,2.707H14.518v5.268H69.97Zm0,7.912H14.521v5.283H69.967Zm0,7.918H14.518v5.3H69.97Zm0,7.939H14.521v5.286H69.967Zm0,7.925H14.518v5.268H69.97Z" transform="translate(0 0)" fill="#020202"/>
        <path id="Path_1261065" data-name="Path 1261065" d="M130.917,7.069l.064,32.975-8.279.062c-.567,0-.94.654-.976,1.147a6.624,6.624,0,0,1-6.571,6.723l-15.771-.008L100.5,34.763l12.155-.012a1.344,1.344,0,0,0,1.088-.85l2.625-6.593a1.321,1.321,0,0,0-.915-1.74l-15.206-3.815-2.4-4.707a1.346,1.346,0,0,0-1.227-.754,1.264,1.264,0,0,0-1.126.683l-2.361,4.572-4.284.008a1.431,1.431,0,0,0-1.383.892l-8.8,17.59a17.5,17.5,0,0,1-3.16-.063l.069-32.9Z" transform="translate(-61.003 -5.711)" fill="#535b65"/>
        <path id="Path_1261066" data-name="Path 1261066" d="M143.985,89.361a1.341,1.341,0,0,0-1.439,1.243l-1.214,14.567c-1.506.043-2.831.067-4.275.015a6.541,6.541,0,0,1-6.373-6.331L141.164,77.9c.962,1.018,1.133,3.167,2.474,3.5l14.248,3.578-1.72,4.364Z" transform="translate(-105.58 -62.939)" fill="#fbcea3"/>
        <path id="Path_1261067" data-name="Path 1261067" d="M109.908,111.893a5.1,5.1,0,0,1-2.325-.019l7.833-15.657a5.122,5.122,0,0,1,2.305.033Z" transform="translate(-86.917 -77.642)" fill="#616873"/>
        <path id="Path_1261068" data-name="Path 1261068" d="M6.895,92.95V13.811a11.87,11.87,0,0,1,2.628.044V92.913a13.4,13.4,0,0,1-2.626.036" transform="translate(-5.57 -11.115)" fill="#804545"/>
        <rect id="Rectangle_412063" data-name="Rectangle 412063" width="5.301" height="79.2" transform="translate(6.581 2.683)" fill="#935151"/>
      </g>
    </g>
  </g>
</svg>
