<svg id="Group_1213669" data-name="Group 1213669" xmlns="http://www.w3.org/2000/svg" xmlns:xlink="http://www.w3.org/1999/xlink" width="112.151" height="123.786" viewBox="0 0 112.151 123.786">
  <defs>
    <clipPath id="clip-path">
      <rect id="Rectangle_412069" data-name="Rectangle 412069" width="112.151" height="123.786" fill="none"/>
    </clipPath>
  </defs>
  <g id="Group_1213668" data-name="Group 1213668" clip-path="url(#clip-path)">
    <path id="Path_1261081" data-name="Path 1261081" d="M85.118,29.045A29.044,29.044,0,1,0,56.074,58.089,29.044,29.044,0,0,0,85.118,29.045m27.033,42.606c0-3.091-4.177-1.594-5.738-2.113l-.032-5.7a1.9,1.9,0,0,0-1.937-1.934l-41.291.06c-2.917,0-5.2,1.68-7.074,3.729-1.883-2.044-4.161-3.723-7.074-3.729l-41.01-.071c-1.125,0-2.169.557-2.183,1.693l-.073,5.953C3.82,70.052,0,68.562,0,71.779l.012,49.99a1.929,1.929,0,0,0,2.114,2.018H110.032a1.944,1.944,0,0,0,2.116-2.017Z" transform="translate(0 -0.001)" fill="#fdfdfd"/>
    <path id="Path_1261082" data-name="Path 1261082" d="M154.167,29.045A29.044,29.044,0,1,1,125.123,0a29.044,29.044,0,0,1,29.044,29.044M128.38,17.636l16.938,3.836c1.412.32,1.2,2.134.7,3.114l-3.781,7.433a1.857,1.857,0,0,1-1.621.877l-11.728.045-1.619,21.178a25.163,25.163,0,1,0-25.685-16.192,1.462,1.462,0,0,0,.357.622c.17.133.692.238.859-.1l9.733-19.523c1.313-2.634,3.208-1.007,6.583-1.592l2.322-4.651a1.914,1.914,0,0,1,1.85-1.107c1.864.008,3.422,4.421,5.094,6.057m-3.2,12.947a1.763,1.763,0,0,1,1.9-1.569l12.336-.054,2.142-4.338L125.9,20.993l-2.5-3.476-11.84,23.709a2.034,2.034,0,0,1-2.2,1.311,50.886,50.886,0,0,0-5.384.155,25.027,25.027,0,0,0,19.355,11.435ZM115.867,20.9l-8.755,17.51,1.205.6,8.755-17.51Z" transform="translate(-69.049 -0.001)" fill="#040405"/>
    <path id="Path_1261083" data-name="Path 1261083" d="M138.291,27.533c-1.672-1.637-3.23-6.049-5.094-6.057a1.914,1.914,0,0,0-1.85,1.107l-2.322,4.651c-3.375.585-5.27-1.043-6.583,1.592l-9.733,19.523c-.167.335-.689.23-.859.1a1.458,1.458,0,0,1-.357-.622,25.162,25.162,0,1,1,25.685,16.192L138.8,42.838l11.728-.046a1.857,1.857,0,0,0,1.621-.876l3.781-7.433c.5-.98.715-2.794-.7-3.114Z" transform="translate(-78.959 -9.898)" fill="#85b9f0"/>
    <path id="Path_1261084" data-name="Path 1261084" d="M145.365,75.324l-1.848,23.543a25.028,25.028,0,0,1-19.355-11.434,50.816,50.816,0,0,1,5.384-.155,2.035,2.035,0,0,0,2.2-1.311l11.84-23.709,2.5,3.476,15.658,3.629L159.6,73.7l-12.336.054a1.763,1.763,0,0,0-1.9,1.569" transform="translate(-89.231 -44.743)" fill="#945252"/>
    <rect id="Rectangle_412068" data-name="Rectangle 412068" width="19.577" height="1.347" transform="translate(38.063 38.41) rotate(-63.429)" fill="#5e656f"/>
    <path id="Path_1261085" data-name="Path 1261085" d="M112.151,229.75l0,50.119a1.944,1.944,0,0,1-2.116,2.017H2.125a1.929,1.929,0,0,1-2.114-2.018L0,229.879c0-3.218,3.82-1.727,5.739-2.242l.073-5.953c.014-1.135,1.058-1.694,2.183-1.693l41.011.071c2.913.005,5.191,1.685,7.074,3.728,1.877-2.049,4.158-3.725,7.074-3.729L104.444,220a1.9,1.9,0,0,1,1.937,1.934l.031,5.7c1.561.519,5.739-.978,5.739,2.113M54.12,272.03l.006-42.447a5.773,5.773,0,0,0-5.953-5.7l-38.514.005,0,46.386,39.626.043a13.388,13.388,0,0,1,4.836,1.716m10.438-1.73,37.942-.028,0-46.388H64.557a5.853,5.853,0,0,0-6.53,5.716l.037,42.514a10.574,10.574,0,0,1,6.494-1.812m-57.127,3.83c-1.229,0-1.658-1.214-1.658-2.11l.008-40.186a1.735,1.735,0,0,0-1.929.02l0,46.145L53.7,278a5.508,5.508,0,0,0-5.539-3.842ZM58.562,278l49.745,0-.006-46.251a2.168,2.168,0,0,0-1.924.079l.009,40.189c0,1.081-.57,2.128-1.746,2.129L64,274.161c-2.51,0-4.98,1.408-5.433,3.837" transform="translate(0 -158.1)" fill="#020203"/>
    <path id="Path_1261086" data-name="Path 1261086" d="M78.791,281.964a13.393,13.393,0,0,0-4.836-1.716L34.329,280.2l0-46.386,38.514,0a5.773,5.773,0,0,1,5.953,5.7ZM59.508,243.44a1.831,1.831,0,0,0,1.859-2.092,1.864,1.864,0,0,0-1.777-1.726l-17.65,0a1.84,1.84,0,0,0-1.761,1.982,1.8,1.8,0,0,0,1.746,1.839Zm11.41.018A1.922,1.922,0,0,0,73,241.618a1.9,1.9,0,0,0-1.823-2l-3.937-.015a1.941,1.941,0,1,0,.274,3.862Zm-26.162,4.107a5.961,5.961,0,0,0-3.481.012,1.9,1.9,0,0,0-.911,2.625c.645,1.47,4.69,1.5,5.348-.024a1.866,1.866,0,0,0-.955-2.613m26.279,3.654A1.92,1.92,0,0,0,73,249.185a1.948,1.948,0,0,0-2.1-1.83l-21.072.018a1.92,1.92,0,0,0-.264,3.824Zm-15.608,7.717a1.927,1.927,0,1,0,.27-3.844l-13.713.011a1.874,1.874,0,0,0-1.818,1.971,1.784,1.784,0,0,0,1.76,1.834Zm15.48,0a1.923,1.923,0,1,0,.268-3.836l-7.859-.005a1.931,1.931,0,1,0,.255,3.849Zm-9.432,7.75a1.855,1.855,0,0,0,1.818-2.015,1.746,1.746,0,0,0-1.7-1.79l-19.39-.032a1.9,1.9,0,0,0-2.037,2.1,1.921,1.921,0,0,0,2.04,1.762Zm9.835-.013a1.908,1.908,0,0,0,1.678-2.216c-.336-2.247-4.045-1.669-4.744-1.376a1.815,1.815,0,0,0-.943,2.11c.289,1.657,2.2,1.69,4.01,1.482m-21.793,7.756c1.267,0,2.173-.624,2.207-1.87a1.953,1.953,0,0,0-1.933-1.989l-7.811.018a1.918,1.918,0,1,0,.222,3.829Zm21.547-.021A1.87,1.87,0,0,0,73,272.345a1.91,1.91,0,0,0-1.871-1.769l-13.667,0a1.922,1.922,0,1,0,.223,3.837Z" transform="translate(-24.671 -168.034)" fill="#f2f4f7"/>
    <path id="Path_1261087" data-name="Path 1261087" d="M17.271,303.661l40.73.03a5.507,5.507,0,0,1,5.539,3.842l-49.847,0,0-46.145a1.734,1.734,0,0,1,1.929-.02l-.008,40.187c0,.9.429,2.109,1.658,2.11" transform="translate(-9.84 -187.631)" fill="#636a75"/>
    <path id="Path_1261088" data-name="Path 1261088" d="M208.159,307.564c.453-2.428,2.923-3.836,5.433-3.837l40.644-.015c1.176,0,1.747-1.048,1.746-2.129l-.009-40.189a2.168,2.168,0,0,1,1.924-.079l.006,46.251Z" transform="translate(-149.597 -187.666)" fill="#636a75"/>
    <path id="Path_1261089" data-name="Path 1261089" d="M105.669,285.812,84.2,285.791a1.92,1.92,0,0,1,.264-3.824l21.072-.017a1.948,1.948,0,0,1,2.1,1.829,1.92,1.92,0,0,1-1.965,2.034" transform="translate(-59.304 -202.627)" fill="#070707"/>
    <path id="Path_1261090" data-name="Path 1261090" d="M76.39,340.85l-19.264.03a1.921,1.921,0,0,1-2.04-1.762,1.9,1.9,0,0,1,2.037-2.1l19.39.032a1.747,1.747,0,0,1,1.7,1.79,1.854,1.854,0,0,1-1.818,2.015" transform="translate(-39.584 -242.2)" fill="#080808"/>
    <path id="Path_1261091" data-name="Path 1261091" d="M74.446,258.27H56.864a1.8,1.8,0,0,1-1.746-1.839,1.84,1.84,0,0,1,1.761-1.982l17.65,0a1.864,1.864,0,0,1,1.777,1.726,1.83,1.83,0,0,1-1.859,2.092" transform="translate(-39.61 -182.864)" fill="#080808"/>
    <path id="Path_1261092" data-name="Path 1261092" d="M70.341,313.292l-13.5-.028a1.784,1.784,0,0,1-1.76-1.834,1.874,1.874,0,0,1,1.818-1.971l13.713-.011a1.927,1.927,0,1,1-.27,3.844" transform="translate(-39.584 -222.39)" fill="#080808"/>
    <path id="Path_1261093" data-name="Path 1261093" d="M125.5,368.313l-13.385.011a1.922,1.922,0,1,1-.223-3.837l13.668,0a1.911,1.911,0,0,1,1.871,1.769,1.87,1.87,0,0,1-1.931,2.061" transform="translate(-79.106 -261.941)" fill="#080808"/>
    <path id="Path_1261094" data-name="Path 1261094" d="M140.106,313.288l-7.336.007a1.931,1.931,0,1,1-.255-3.849l7.859.006a1.923,1.923,0,1,1-.268,3.836" transform="translate(-93.868 -222.388)" fill="#080808"/>
    <path id="Path_1261095" data-name="Path 1261095" d="M64.427,368.313l-7.315-.012a1.918,1.918,0,1,1-.222-3.83l7.811-.017a1.953,1.953,0,0,1,1.933,1.989c-.034,1.246-.94,1.873-2.207,1.87" transform="translate(-39.579 -261.92)" fill="#090909"/>
    <path id="Path_1261096" data-name="Path 1261096" d="M150.041,258.249l-3.4.007a1.941,1.941,0,1,1-.274-3.862l3.937.015a1.9,1.9,0,0,1,1.823,2,1.922,1.922,0,0,1-2.086,1.841" transform="translate(-103.794 -182.824)" fill="#090909"/>
    <path id="Path_1261097" data-name="Path 1261097" d="M155.439,340.687c-1.811.208-3.721.175-4.01-1.482a1.815,1.815,0,0,1,.943-2.11c.7-.293,4.409-.872,4.744,1.376a1.907,1.907,0,0,1-1.678,2.216" transform="translate(-108.798 -242.051)" fill="#0b0b0b"/>
    <path id="Path_1261098" data-name="Path 1261098" d="M59.684,282.045a1.866,1.866,0,0,1,.955,2.613c-.658,1.52-4.7,1.494-5.348.025a1.9,1.9,0,0,1,.911-2.625,5.959,5.959,0,0,1,3.481-.012" transform="translate(-39.599 -202.514)" fill="#0b0b0b"/>
    <path id="Path_1261099" data-name="Path 1261099" d="M212.786,280.2a10.574,10.574,0,0,0-6.494,1.812l-.037-42.514a5.853,5.853,0,0,1,6.53-5.716h37.942l0,46.388Zm5.181-36.831a1.8,1.8,0,0,0,1.805-2.066,1.884,1.884,0,0,0-1.714-1.719c-2.513-.122-6.105-.6-5.986,1.983a1.921,1.921,0,0,0,2.064,1.825Zm25.035.019a1.847,1.847,0,0,0,1.922-2.041,1.948,1.948,0,0,0-2.077-1.805l-17.138.01a1.933,1.933,0,0,0-1.99,1.742,1.788,1.788,0,0,0,1.7,2.074Zm-7.411,7.734c1.254,0,1.7-1.486,1.588-2.2a1.844,1.844,0,0,0-1.948-1.592l-21.058-.015a1.942,1.942,0,0,0-2.085,2.084,1.991,1.991,0,0,0,2.066,1.8Zm8.1-.1a1.842,1.842,0,0,0,1.233-1.826,1.717,1.717,0,0,0-1.093-1.663,6.141,6.141,0,0,0-3.641.028,1.774,1.774,0,0,0-.957,2.128c.347,1.842,3.077,1.71,4.458,1.333m-21.813,7.813a1.807,1.807,0,0,0,1.773-2.04,1.921,1.921,0,0,0-1.913-1.756l-7.6-.016a1.979,1.979,0,0,0-2.066,1.806,1.848,1.848,0,0,0,1.527,1.991c2.735.1,5.383.063,8.279.015m21.4-.013a1.8,1.8,0,0,0,1.618-2.192,1.941,1.941,0,0,0-2.05-1.611H229.622a1.979,1.979,0,0,0-2.075,1.813c-.07.722.5,2,1.533,2ZM216.711,263a5.867,5.867,0,0,0-3.525.019,1.853,1.853,0,0,0-.955,2.477c.79,1.767,4.763,1.57,5.406.093a1.861,1.861,0,0,0-.927-2.589m26.272,3.656a1.935,1.935,0,1,0-.155-3.864l-18.809-.009c-1.2,0-2.064.515-2.216,1.608-.1.715.341,2.212,1.481,2.214Zm-15.471,7.695a1.862,1.862,0,0,0,1.939-2.057,1.95,1.95,0,0,0-2.071-1.8l-13.234,0a1.98,1.98,0,0,0-2.068,1.8,1.881,1.881,0,0,0,1.781,2.048Zm15.48,0a1.851,1.851,0,0,0,1.934-2.037,1.953,1.953,0,0,0-2.068-1.813l-7.6.021a1.931,1.931,0,1,0,.266,3.848Z" transform="translate(-148.228 -167.997)" fill="#e3e6ea"/>
    <path id="Path_1261100" data-name="Path 1261100" d="M250.48,285.74l-21.437.08a1.991,1.991,0,0,1-2.066-1.8,1.942,1.942,0,0,1,2.085-2.084l21.058.015a1.844,1.844,0,0,1,1.948,1.592c.112.711-.333,2.192-1.588,2.2" transform="translate(-163.116 -202.618)" fill="#070707"/>
    <path id="Path_1261101" data-name="Path 1261101" d="M282.669,340.8l-19.7-.05c-1.14,0-1.58-1.5-1.48-2.214.152-1.093,1.013-1.609,2.216-1.608l18.809.009a1.935,1.935,0,1,1,.155,3.863" transform="translate(-187.914 -242.136)" fill="#070707"/>
    <path id="Path_1261102" data-name="Path 1261102" d="M287.6,258.143l-17.585-.019a1.788,1.788,0,0,1-1.7-2.074,1.933,1.933,0,0,1,1.99-1.742l17.138-.01a1.949,1.949,0,0,1,2.077,1.805,1.848,1.848,0,0,1-1.922,2.041" transform="translate(-192.823 -182.755)" fill="#070707"/>
    <path id="Path_1261103" data-name="Path 1261103" d="M297.66,313.119l-14.2.01c-1.035,0-1.6-1.278-1.533-2A1.979,1.979,0,0,1,284,309.316h13.229a1.941,1.941,0,0,1,2.049,1.611,1.8,1.8,0,0,1-1.618,2.192" transform="translate(-202.606 -222.295)" fill="#070707"/>
    <path id="Path_1261104" data-name="Path 1261104" d="M242.375,368.194l-13.653,0a1.88,1.88,0,0,1-1.781-2.048,1.981,1.981,0,0,1,2.068-1.8l13.234,0a1.95,1.95,0,0,1,2.071,1.8,1.862,1.862,0,0,1-1.939,2.057" transform="translate(-163.091 -261.839)" fill="#070707"/>
    <path id="Path_1261105" data-name="Path 1261105" d="M312.235,368.191l-7.466.019a1.931,1.931,0,1,1-.266-3.848l7.6-.021a1.953,1.953,0,0,1,2.068,1.813,1.851,1.851,0,0,1-1.934,2.037" transform="translate(-217.47 -261.839)" fill="#080808"/>
    <path id="Path_1261106" data-name="Path 1261106" d="M236.739,313.142c-2.9.048-5.543.084-8.279-.015a1.849,1.849,0,0,1-1.527-1.991A1.979,1.979,0,0,1,229,309.33l7.6.016a1.921,1.921,0,0,1,1.914,1.756,1.808,1.808,0,0,1-1.773,2.04" transform="translate(-163.085 -222.305)" fill="#070707"/>
    <path id="Path_1261107" data-name="Path 1261107" d="M232.821,257.943l-3.83.024a1.92,1.92,0,0,1-2.064-1.825c-.12-2.581,3.473-2.105,5.986-1.983a1.884,1.884,0,0,1,1.714,1.719,1.8,1.8,0,0,1-1.805,2.066" transform="translate(-163.082 -182.573)" fill="#080808"/>
    <path id="Path_1261108" data-name="Path 1261108" d="M231.588,337.027a1.861,1.861,0,0,1,.927,2.589c-.643,1.476-4.616,1.673-5.406-.093a1.854,1.854,0,0,1,.955-2.477,5.867,5.867,0,0,1,3.525-.019" transform="translate(-163.104 -242.022)" fill="#090909"/>
    <path id="Path_1261109" data-name="Path 1261109" d="M327.833,285.526c-1.381.377-4.111.51-4.458-1.333a1.774,1.774,0,0,1,.957-2.128,6.144,6.144,0,0,1,3.642-.029,1.717,1.717,0,0,1,1.093,1.663,1.842,1.842,0,0,1-1.233,1.826" transform="translate(-232.365 -202.502)" fill="#090909"/>
  </g>
</svg>
