<svg xmlns="http://www.w3.org/2000/svg" xmlns:xlink="http://www.w3.org/1999/xlink" width="81.065" height="77.91" viewBox="0 0 81.065 77.91">
  <defs>
    <filter id="Rectangle_410591" x="0.57" y="4.125" width="48.963" height="73.785" filterUnits="userSpaceOnUse">
      <feOffset dy="3" input="SourceAlpha"/>
      <feGaussianBlur stdDeviation="3" result="blur"/>
      <feFlood flood-opacity="0.161"/>
      <feComposite operator="in" in2="blur"/>
      <feComposite in="SourceGraphic"/>
    </filter>
    <clipPath id="clip-path">
      <rect id="Rectangle_412087" data-name="Rectangle 412087" width="81.065" height="65.91" fill="none"/>
    </clipPath>
  </defs>
  <g id="Group_1201410" data-name="Group 1201410" transform="translate(11.03 11.67)">
    <g transform="matrix(1, 0, 0, 1, -11.03, -11.67)" filter="url(#Rectangle_410591)">
      <path id="Rectangle_410591-2" data-name="Rectangle 410591" d="M10,0H20.963a10,10,0,0,1,10,10V55.785a0,0,0,0,1,0,0H0a0,0,0,0,1,0,0V10A10,10,0,0,1,10,0Z" transform="translate(9.57 10.13)" fill="#695640"/>
    </g>
    <g id="Group_1213696" data-name="Group 1213696" transform="translate(-11.03 -11.67)">
      <g id="Group_1213695" data-name="Group 1213695" clip-path="url(#clip-path)">
        <path id="Path_1261167" data-name="Path 1261167" d="M1.372,63.369l18.882-.007L20.231,45.67c0-.427-.993-.531-1.185-.552a5.524,5.524,0,0,0-.068,1.3,11.435,11.435,0,0,1-11.264,11.9,1.276,1.276,0,0,1-1.406-1.144C6.1,55.1,8.835,56.435,8.835,54.5l0-21.715a10.142,10.142,0,0,1,10.143-9.953l24.56-.005,8.58-17.156a1.165,1.165,0,0,1,.937-.581l4.423-.016,2.2-4.41A1.237,1.237,0,0,1,60.894,0,1.291,1.291,0,0,1,62,.775l2.223,4.474,14.3,3.573c.482.121.846.219,1.042.53a1.385,1.385,0,0,1,.173,1.268l-2.577,6.449a1.126,1.126,0,0,1-1.057.686l-11.552.025L63.337,38.474a6.4,6.4,0,0,1-5.068,5.773V63.36l21.328,0c.858,0,1.444.423,1.468,1.213A1.267,1.267,0,0,1,79.75,65.91H1.316a1.257,1.257,0,0,1-1.31-1.159,1.232,1.232,0,0,1,1.366-1.382M34.822,41.82l17.135.008A1.232,1.232,0,0,1,53.213,43.1l0,16.392a7.8,7.8,0,0,0,2.509,0l.019-16.557a1.2,1.2,0,0,1,1.2-1.108A3.827,3.827,0,0,0,60.808,38.1l1.274-21.7a1.125,1.125,0,0,1,1.125-1.145l11.929-.013,1.655-4.19L63.075,7.592c-1.226-.309-1.31-2.182-2.313-3.358L50.463,24.8a1.149,1.149,0,0,1-1.095.564l-23.383.1C22,25.475,19,29.116,19,32.92l-.005,7.6a2.591,2.591,0,0,0,2.564,2.586A1.223,1.223,0,0,1,22.8,44.388l0,15.1a8.642,8.642,0,0,0,2.495.02l.034-6.57,6.03-10.193a8.952,8.952,0,0,0,1.6-4.835A1.2,1.2,0,0,1,34.341,36.8c2.022.163.785,3.629.481,5.019M48.674,22.733,56.146,7.738a5.678,5.678,0,0,0-2.182-.073L46.44,22.714a5.207,5.207,0,0,0,2.234.019M16.458,46.52l-.031-13a10.856,10.856,0,0,1,3.347-8.1A7.566,7.566,0,0,0,11.4,32.978l.023,21.89a8.88,8.88,0,0,0,5.03-8.348M50.673,63.356V44.376l-17.318,0-5.5,9.264.038,9.721ZM25.335,62.1H22.8v1.267h2.534Zm30.4,0H53.212v1.269h2.521Z" transform="translate(0 0)" fill="#040303"/>
        <path id="Path_1261168" data-name="Path 1261168" d="M118.856,60.553c.3-1.389,1.541-4.856-.481-5.019A1.2,1.2,0,0,0,117,56.643a8.951,8.951,0,0,1-1.6,4.835l-6.03,10.194-.034,6.57a8.637,8.637,0,0,1-2.495-.02l0-15.1a1.223,1.223,0,0,0-1.246-1.279,2.591,2.591,0,0,1-2.564-2.586l0-7.6c0-3.8,3.005-7.445,6.988-7.461l23.383-.1a1.149,1.149,0,0,0,1.1-.564l10.3-20.565c1,1.176,1.087,3.049,2.313,3.358l13.717,3.459-1.655,4.19-11.929.013a1.125,1.125,0,0,0-1.125,1.145l-1.274,21.7a3.827,3.827,0,0,1-3.865,3.731,1.2,1.2,0,0,0-1.2,1.108l-.019,16.557a7.8,7.8,0,0,1-2.509,0l0-16.392a1.232,1.232,0,0,0-1.256-1.272Z" transform="translate(-84.034 -18.733)" fill="#955252"/>
        <path id="Path_1261169" data-name="Path 1261169" d="M66.92,158.8a8.88,8.88,0,0,1-5.03,8.348l-.023-21.89a7.566,7.566,0,0,1,8.369-7.565,10.856,10.856,0,0,0-3.347,8.1Z" transform="translate(-50.462 -112.284)" fill="#646c77"/>
        <path id="Path_1261170" data-name="Path 1261170" d="M254.159,56.338a5.207,5.207,0,0,1-2.234-.019l7.523-15.049a5.678,5.678,0,0,1,2.182.073Z" transform="translate(-205.485 -33.605)" fill="#616873"/>
        <rect id="Rectangle_412085" data-name="Rectangle 412085" width="2.534" height="1.267" transform="translate(22.8 62.097)" fill="#606772"/>
        <rect id="Rectangle_412086" data-name="Rectangle 412086" width="2.521" height="1.269" transform="translate(53.212 62.096)" fill="#636b75"/>
      </g>
    </g>
  </g>
</svg>
