<svg id="Group_1213673" data-name="Group 1213673" xmlns="http://www.w3.org/2000/svg" xmlns:xlink="http://www.w3.org/1999/xlink" width="122.524" height="107.17" viewBox="0 0 122.524 107.17">
  <defs>
    <clipPath id="clip-path">
      <rect id="Rectangle_412071" data-name="Rectangle 412071" width="122.524" height="107.17" fill="none"/>
    </clipPath>
  </defs>
  <g id="Group_1213672" data-name="Group 1213672" clip-path="url(#clip-path)">
    <path id="Path_1261110" data-name="Path 1261110" d="M16.912,107.147A16.988,16.988,0,0,1,.071,90.342L0,38.309a1.869,1.869,0,0,1,1.707-1.927l21.263-.028.014-34.469A1.814,1.814,0,0,1,24.9,0l95.562,0a1.851,1.851,0,0,1,2.057,1.879l-.057,88.439a17.071,17.071,0,0,1-16.981,16.852ZM3.862,40.37,3.847,89.765a13.389,13.389,0,1,0,26.776.264L30.646,3.9a19,19,0,0,0-3.829.013l-.053,86.4a9.447,9.447,0,0,1-9.847,9.2,9.6,9.6,0,0,1-9.253-9.75V40.286a12.555,12.555,0,0,0-3.8.085m102.039,63a13.477,13.477,0,0,0,12.776-13.909l-.023-85.635H34.5l-.027,86.764a17.825,17.825,0,0,1-6.308,12.772ZM22.994,89.625l-.025-49.4-11.477.027v50a5.759,5.759,0,0,0,11.5-.628" fill="#030303"/>
    <path id="Path_1261111" data-name="Path 1261111" d="M178.915,113.3l-77.732-.008a17.824,17.824,0,0,0,6.308-12.772l.027-86.764h84.15l.023,85.635A13.477,13.477,0,0,1,178.915,113.3m7.054-95.711H113.217v9.553h72.751Zm.063,13.363H113.217v63.2h72.815Zm-40.211,70.811a1.824,1.824,0,0,0,1.8-2.138,1.847,1.847,0,0,0-1.932-1.638l-30.311-.013a1.918,1.918,0,1,0,0,3.816Zm38.4.024a1.911,1.911,0,0,0,1.751-2.147,1.886,1.886,0,0,0-1.88-1.653l-30.579,0a1.86,1.86,0,0,0-1.918,1.894,1.832,1.832,0,0,0,1.92,1.895Zm-53.436,5.661c1.281-.006,1.64-1.42,1.486-2.211a1.982,1.982,0,0,0-2.159-1.556l-15.022.033a1.9,1.9,0,0,0-1.852,1.972,1.953,1.953,0,0,0,2.117,1.834Zm37.895.056a1.9,1.9,0,1,0,.108-3.791l-15.278-.01a1.885,1.885,0,0,0-1.912,1.751,1.737,1.737,0,0,0,1.629,2.019Z" transform="translate(-73.014 -9.923)" fill="#e2e5e9"/>
    <path id="Path_1261112" data-name="Path 1261112" d="M13.833,50.241a12.556,12.556,0,0,1,3.8-.085V99.63a9.6,9.6,0,0,0,9.253,9.75,9.447,9.447,0,0,0,9.847-9.2l.053-86.4a19,19,0,0,1,3.829-.013L40.593,99.9a13.389,13.389,0,1,1-26.776-.264Z" transform="translate(-9.97 -9.871)" fill="#c9cdd5"/>
    <path id="Path_1261113" data-name="Path 1261113" d="M52.78,193.879a5.759,5.759,0,0,1-11.5.628v-50l11.477-.027Z" transform="translate(-29.786 -104.254)" fill="#a8b0bb"/>
    <path id="Path_1261114" data-name="Path 1261114" d="M217.162,37.072H144.41V27.519h72.752Zm-3.819-5.708H148.229v1.9h65.114Z" transform="translate(-104.207 -19.858)" fill="#010102"/>
    <path id="Path_1261115" data-name="Path 1261115" d="M314.88,320.1l-30.7-.012a1.832,1.832,0,0,1-1.92-1.895,1.86,1.86,0,0,1,1.918-1.895l30.579,0a1.886,1.886,0,0,1,1.879,1.653,1.91,1.91,0,0,1-1.751,2.147" transform="translate(-203.676 -228.245)" fill="#010202"/>
    <path id="Path_1261116" data-name="Path 1261116" d="M177.125,320.05l-30.447.027a1.918,1.918,0,1,1,0-3.816l30.311.013a1.847,1.847,0,0,1,1.932,1.638,1.824,1.824,0,0,1-1.8,2.138" transform="translate(-104.318 -228.215)" fill="#010101"/>
    <path id="Path_1261117" data-name="Path 1261117" d="M299.329,340.639l-15.454-.031a1.737,1.737,0,0,1-1.629-2.019,1.885,1.885,0,0,1,1.912-1.751l15.278.01a1.9,1.9,0,1,1-.108,3.791" transform="translate(-203.666 -243.063)" fill="#070708"/>
    <path id="Path_1261118" data-name="Path 1261118" d="M162.014,340.525l-15.431.072a1.953,1.953,0,0,1-2.116-1.834,1.9,1.9,0,0,1,1.852-1.972l15.022-.033a1.983,1.983,0,0,1,2.159,1.556c.154.791-.2,2.205-1.486,2.211" transform="translate(-104.246 -243.006)" fill="#070708"/>
    <path id="Path_1261119" data-name="Path 1261119" d="M219.864,104.826l-22.051-5.5c-1.206-2.168-2.207-4.275-3.277-6.5-.371-.772-.837-1.334-1.525-1.4a1.9,1.9,0,0,0-2.07.875l-3.366,6.68-6.641.053a1.743,1.743,0,0,0-1.591,1.161L166.534,125.8l-8.4,0-.023-36.312,65.131-.005.015,55.459-26.705,0,1.67-26.762,17.492-.018a1.849,1.849,0,0,0,1.543-.971l3.939-9.922a1.85,1.85,0,0,0-1.336-2.45" transform="translate(-114.096 -64.573)" fill="#86bbf2"/>
    <path id="Path_1261120" data-name="Path 1261120" d="M217.226,138.715H144.411v-63.2h72.815Zm-7.251-43.968a1.85,1.85,0,0,1,1.336,2.45l-3.939,9.922a1.85,1.85,0,0,1-1.543.971l-17.492.018-1.67,26.762,26.705,0-.015-55.459-65.131.006.023,36.311,8.4,0,12.809-25.609a1.742,1.742,0,0,1,1.591-1.162l6.641-.053,3.366-6.68a1.9,1.9,0,0,1,2.07-.875c.687.065,1.154.626,1.524,1.4,1.07,2.228,2.071,4.336,3.277,6.5Zm-25.367,11.558c.077-1.234.649-1.959,1.763-2.041l18.009-.029,2.495-6.3L187.2,93.019c-.748-.187-1.747-.2-2.119-.893l-2.423-4.52-15.611,31.213a2.083,2.083,0,0,1-1.86.753l-16.961.046.015,15.263,34.59.006Zm-20.191,9.223L175.7,92.867a15.475,15.475,0,0,0-3.312-.043l-11.327,22.709a5.577,5.577,0,0,0,3.355,0" transform="translate(-104.207 -54.495)" fill="#040404"/>
    <path id="Path_1261121" data-name="Path 1261121" d="M194.508,137.635l-1.774,28.581-34.59-.006-.015-15.263,16.961-.046a2.082,2.082,0,0,0,1.86-.752l15.611-31.213,2.423,4.521c.372.693,1.37.706,2.119.893l19.672,4.92-2.495,6.3-18.009.029c-1.114.083-1.687.807-1.763,2.041" transform="translate(-114.107 -85.824)" fill="#955252"/>
    <path id="Path_1261122" data-name="Path 1261122" d="M207.577,160.206a5.578,5.578,0,0,1-3.355,0L215.549,137.5a15.477,15.477,0,0,1,3.312.043Z" transform="translate(-147.367 -99.172)" fill="#626a74"/>
    <rect id="Rectangle_412070" data-name="Rectangle 412070" width="65.114" height="1.905" transform="translate(44.022 11.506)" fill="#5f6771"/>
  </g>
</svg>
