<svg xmlns="http://www.w3.org/2000/svg" xmlns:xlink="http://www.w3.org/1999/xlink" width="70" height="70" viewBox="0 0 70 70">
  <defs>
    <clipPath id="clip-path">
      <rect id="Rectangle_412020" data-name="Rectangle 412020" width="52.268" height="46.925" fill="none"/>
    </clipPath>
  </defs>
  <g id="Group_1202282" data-name="Group 1202282" transform="translate(-621.835 -3938)">
    <path id="Path_1256080" data-name="Path 1256080" d="M35,0A35,35,0,1,1,0,35,35,35,0,0,1,35,0Z" transform="translate(621.835 3938)" fill="#70d9c1"/>
    <g id="Group_1213623" data-name="Group 1213623" transform="translate(630.701 3949.538)">
      <g id="Group_1213622" data-name="Group 1213622" clip-path="url(#clip-path)">
        <path id="Path_1260779" data-name="Path 1260779" d="M15.865,68.063a1.4,1.4,0,0,1-1.392,1.774l-4.29,0a1.4,1.4,0,0,1-1.4-1.38L8.843,57.44,9.953,54.9a8.306,8.306,0,0,1-1.809-4.634,3.016,3.016,0,0,0-.58,1.855c-.587,3.75-2.614,6.966-6.678,7.3a.8.8,0,0,1-.844-.557c-.4-1.266,2.215-.47,2.35-7.885a.829.829,0,0,1,.8-.824.8.8,0,0,1,.843.8,18.768,18.768,0,0,1-.967,6.032,4.619,4.619,0,0,0,2.116-2.408c1.311-2.749.151-5.052,3.19-6.849a6.541,6.541,0,0,0,.484-1.548c-3.675-.1-3.815,2.817-5.092,2.091A.858.858,0,0,1,3.6,46.986a6.744,6.744,0,0,1,6.5-2.405,7.619,7.619,0,0,1,5.813-1.824c-.847-1.5.05-3.332.608-5.08a.813.813,0,0,1,.989-.528.775.775,0,0,1,.542,1.02l-.831,2.777a.855.855,0,0,0,.274.989L22.216,45.1a.866.866,0,0,1,.328,1.187l-2.461,4.282a.962.962,0,0,0,.376,1.25,1.012,1.012,0,0,0,1.345-.335l3.4-5.757a1.015,1.015,0,0,0-.419-1.315l-3.409-2.276a.846.846,0,0,1-.3-1.006L22.5,36.9a.83.83,0,0,1,1.274-.434l2.894,2.3a.861.861,0,0,0,1.1-.018L30.7,36.43a.787.787,0,0,0,.06-1.052.741.741,0,0,0-1.036-.1l-1.66,1.352a1.022,1.022,0,0,1-1.3.1c-1.231-1.086-2.612-1.956-3.743-3.128-.588-.61-1.139-1.135-2.011-1.018-1.917.256-1.29,2.2-2.617,1.839a.81.81,0,0,1-.509-1.082,3.563,3.563,0,0,1,2.72-2.357A3.855,3.855,0,0,1,24.244,32.5a36.1,36.1,0,0,0,3.1,2.585l1.466-1.16a2.334,2.334,0,0,1,3.111.289,2.433,2.433,0,0,1,.178,3.156,4.981,4.981,0,0,0,1.026,1.2,11.929,11.929,0,0,1,9.271-6.008L43.445,29.6a.821.821,0,0,1,1.21-.428,4.6,4.6,0,0,1,1.719,5.112l5.615,5.638A.845.845,0,0,1,52,41.164L49.546,43.59c-.372.367-.865.125-1.41-.177-1.038,3.18-2.908,5.323-6.573,4.371a12.3,12.3,0,0,1-.835,5.007c-1.1,2.429-4.118,3.973-4.091,6.674a44.59,44.59,0,0,0,.1,6.111c.62.735,1.606,1.452,1.726,2.571a1.422,1.422,0,0,1-1.433,1.688l-4.274,0a1.376,1.376,0,0,1-1.394-1.373l-.01-5.055a.828.828,0,0,1,.737-.851.8.8,0,0,1,.878.838c.016.551-.032,1.025.028,1.6a7.609,7.609,0,0,0,1.969-.005l.033-5.683c.013-2.29,1.781-4.1,3.177-5.629,1.778-1.952,1.8-4.092,1.654-6.631a27.14,27.14,0,0,1-6.386-5.477c-1.876,2.59-3.606,2.779-6.565,2.909a2.94,2.94,0,0,1-.261,2.1l-3.33,5.644A2.651,2.651,0,0,1,19.76,53.3a2.589,2.589,0,0,1-1.113-3.558l2.092-3.687c-.934-.4-1.6-1.352-2.525-1.543a14.234,14.234,0,0,0-4.179-.026A4.611,4.611,0,0,0,9.91,48.5c-.847,4.877,2.72,4.993,1.355,7.63a7.658,7.658,0,0,0-.816,1.652l-.05,7.185a4.94,4.94,0,0,0,1.63,0l.046-3a4.014,4.014,0,0,1,1.675-3.037c3.944-3.045,2.372-5.316,4.587-4.542a20.6,20.6,0,0,0,13.332-.057c.364-.123.583-.212.844-.057a.826.826,0,0,1,.45.759l0,4.431a.814.814,0,0,1-.755.892c-1.511.078-.569-2.984-.926-4.151A23.38,23.38,0,0,1,18.136,56.1a11.469,11.469,0,0,1-3.29,4.045c-1.714,1.341-1.042,3.079-1.128,5.286a3.943,3.943,0,0,1,2.147,2.629m30.148-27.5,2.909,1.351L50.28,40.53l-5.432-5.446c-.722-.723.787-1.993-.307-3.577-.7,1.305-.39,2.54-1.738,2.651a10.271,10.271,0,0,0-8.571,5.8,28.29,28.29,0,0,0,5.714,5.224,23.979,23.979,0,0,0,.373-4.017c.308-2.152,2.131.579,5.695-.6M32.27,40.217l-1.416-1.693a13.73,13.73,0,0,0-2.065,1.51c-2.045,1.576-3.416-.348-5.073-1.519L22.8,41.153c3.61,2.28,1.493,1.427,5.391,1.576a4.307,4.307,0,0,0,4.08-2.512m14.3,2.49a.892.892,0,0,0-.837-.38,11.253,11.253,0,0,1-3.8-.04c-.066,1.258-.256,2.356-.4,3.68a3.108,3.108,0,0,0,3.219-.071,5.363,5.363,0,0,0,1.811-3.189M14.151,68.12a2.31,2.31,0,0,0-1.608-1.39,9.792,9.792,0,0,0-2.1-.01,3.627,3.627,0,0,0,.041,1.484,34.945,34.945,0,0,0,3.669-.084m22.563,0a2.309,2.309,0,0,0-1.607-1.389,9.792,9.792,0,0,0-2.1-.01,3.627,3.627,0,0,0,.041,1.484,34.867,34.867,0,0,0,3.668-.084" transform="translate(0 -22.913)" fill="#060606"/>
        <path id="Path_1260780" data-name="Path 1260780" d="M103.461.687c.2,1.561-2.689.334-2.767,2.844a2,2,0,0,0,1.97,2.038,1.977,1.977,0,0,0,1.961-2.133c-.029-.554.245-.938.717-.974a.792.792,0,0,1,.905.781A3.6,3.6,0,1,1,102.573,0a.8.8,0,0,1,.888.687" transform="translate(-78.179 0)" fill="#070707"/>
      </g>
    </g>
  </g>
</svg>
