<svg xmlns="http://www.w3.org/2000/svg" xmlns:xlink="http://www.w3.org/1999/xlink" width="132.049" height="132.049" viewBox="0 0 132.049 132.049">
  <defs>
    <filter id="Path_874925" x="0" y="0" width="132.049" height="132.049" filterUnits="userSpaceOnUse">
      <feOffset dy="3" input="SourceAlpha"/>
      <feGaussianBlur stdDeviation="3" result="blur"/>
      <feFlood flood-opacity="0.161"/>
      <feComposite operator="in" in2="blur"/>
      <feComposite in="SourceGraphic"/>
    </filter>
    <clipPath id="clip-path">
      <rect id="Rectangle_412084" data-name="Rectangle 412084" width="120.534" height="79.087" fill="none"/>
    </clipPath>
  </defs>
  <g id="Group_1201477" data-name="Group 1201477" transform="translate(-276 -6091.407)">
    <g id="Group_1200946" data-name="Group 1200946" transform="translate(285 6097.407)">
      <g id="Group_1200232" data-name="Group 1200232" transform="translate(0 0)">
        <g id="Group_1187153" data-name="Group 1187153">
          <g id="Group_1182177" data-name="Group 1182177">
            <g id="Group_1181903" data-name="Group 1181903">
              <g id="Group_1181438" data-name="Group 1181438">
                <g id="Group_1111314" data-name="Group 1111314">
                  <g transform="matrix(1, 0, 0, 1, -9, -6)" filter="url(#Path_874925)">
                    <path id="Path_874925-2" data-name="Path 874925" d="M57.024,0a57.024,57.024,0,0,1,57.024,57.024h0A57.024,57.024,0,0,1,0,57.025H0A57.024,57.024,0,0,1,57.024,0Z" transform="translate(9 6)" fill="#f6eee5"/>
                  </g>
                </g>
              </g>
            </g>
          </g>
        </g>
      </g>
    </g>
    <g id="Group_1213694" data-name="Group 1213694" transform="translate(285 6114.889)">
      <g id="Group_1213693" data-name="Group 1213693" clip-path="url(#clip-path)">
        <path id="Path_1261154" data-name="Path 1261154" d="M0,0H58.369V79.087H0ZM51.36,28.3c1.5.5,1.617,1.906,1.02,3.083l-3.346,6.6a2.094,2.094,0,0,1-1.651,1.562l-17.374.009-1.62,24.468,26.222,0L54.6,3.771,3.776,3.752l.086,33.129,7.627-15.11A1.763,1.763,0,0,1,13.146,20.7l6.395-.013,3.072-6.168a2.048,2.048,0,0,1,1.9-1.35,2.02,2.02,0,0,1,1.859,1.385l3.276,6.513Zm-23,7.476,17.553-.032,2.2-4.522L26.957,24.13l-2.539-4.68L3.906,60.431a11.929,11.929,0,0,0-.034,3.582l20.687.012,1.82-26.651a1.8,1.8,0,0,1,1.98-1.6M3.923,51.938l13.667-27.3a7.435,7.435,0,0,0-3.288-.027L3.817,45.549a47.431,47.431,0,0,0,.106,6.389M54.607,67.756H3.779v7.577H54.607Z" fill="#020203"/>
        <path id="Path_1261155" data-name="Path 1261155" d="M61.368,38.239,39.657,31.008l-3.276-6.513a2.02,2.02,0,0,0-1.859-1.385,2.048,2.048,0,0,0-1.9,1.35L29.55,30.627l-6.395.013A1.763,1.763,0,0,0,21.5,31.715l-7.627,15.11-.086-33.129,50.826.02.009,60.237-26.222,0,1.62-24.468,17.374-.009a2.094,2.094,0,0,0,1.651-1.562l3.346-6.6c.6-1.177.483-2.582-1.02-3.083" transform="translate(-10.009 -9.943)" fill="#86baf2"/>
        <path id="Path_1261156" data-name="Path 1261156" d="M64.624,254.916H13.8v-7.577H64.624ZM57.1,253.027a1.882,1.882,0,0,0,0-3.764l-35.816,0a1.882,1.882,0,0,0,.041,3.763Z" transform="translate(-10.017 -179.583)" fill="#dfe2e6"/>
        <path id="Path_1261157" data-name="Path 1261157" d="M72.066,258.127l-35.779,0a1.882,1.882,0,0,1-.041-3.763l35.816,0a1.882,1.882,0,0,1,0,3.764" transform="translate(-24.98 -184.683)" fill="#040404"/>
        <path id="Path_1261158" data-name="Path 1261158" d="M38.308,87.323a1.8,1.8,0,0,0-1.98,1.6l-1.819,26.651-20.687-.012a11.938,11.938,0,0,1,.034-3.582L34.369,71l2.539,4.68,21.153,7.087-2.2,4.522Z" transform="translate(-9.95 -51.551)" fill="#955252"/>
        <path id="Path_1261159" data-name="Path 1261159" d="M13.888,116.7a47.431,47.431,0,0,1-.106-6.389L24.267,89.373a7.435,7.435,0,0,1,3.288.027Z" transform="translate(-9.965 -64.766)" fill="#626a74"/>
        <path id="Path_1261160" data-name="Path 1261160" d="M226.945,0H285.31V79.087H226.945Zm49.244,28.213a1.974,1.974,0,0,1,1.547,2.411l-1.867,9.352a1.879,1.879,0,0,1-1.79,1.463l-17.16.029-1.577,22.546,26.193-.008-.017-60.248L230.7,3.75l.06,33.19,7.327-14.452a2.465,2.465,0,0,1,1.507-1.77l6.875-.038c1.062-1.993,2.053-3.963,3-6.032.4-.864.909-1.44,1.747-1.464a1.784,1.784,0,0,1,1.966,1.254l1.726,6.695ZM255.6,37.629h16.839l1.2-6.281-21.245-7.078c-1.321-.44-.906-2.839-1.728-3.486L230.852,60.427c-.544,1.089.028,2.377-.082,3.565l11.389-.017a11.338,11.338,0,0,1,10.04-9.316l1.018-14.565a2.81,2.81,0,0,1,.535-1.829,2.256,2.256,0,0,1,1.849-.636m-24.741,14.3L244.541,24.6a11.333,11.333,0,0,0-3.3-.042l-10.5,20.961a44.517,44.517,0,0,0,.119,6.406m20.688,12c-.008-2.1.493-3.631.224-5.389a7.472,7.472,0,0,0-5.726,5.38,30.133,30.133,0,0,0,5.5.009m29.983,3.827H230.7v7.577H281.53Z" transform="translate(-164.775)" fill="#030303"/>
        <path id="Path_1261161" data-name="Path 1261161" d="M286.14,38.152l-21.279-7.08-1.726-6.695a1.784,1.784,0,0,0-1.966-1.254c-.837.024-1.349.6-1.747,1.464-.951,2.069-1.943,4.039-3,6.032l-6.875.038a2.464,2.464,0,0,0-1.507,1.77L240.71,46.879l-.06-33.19,50.82.008.016,60.248-26.193.008,1.577-22.546,17.159-.029a1.879,1.879,0,0,0,1.79-1.463l1.867-9.353a1.974,1.974,0,0,0-1.547-2.411" transform="translate(-174.726 -9.939)" fill="#86baf2"/>
        <path id="Path_1261162" data-name="Path 1261162" d="M291.49,254.916H240.662v-7.577H291.49Zm-7.426-1.9a1.875,1.875,0,0,0-.068-3.748l-35.809,0a1.872,1.872,0,0,0-1.868,2.016,1.893,1.893,0,0,0,1.867,1.75Z" transform="translate(-174.735 -179.583)" fill="#dfe2e6"/>
        <path id="Path_1261163" data-name="Path 1261163" d="M265.322,92.714a2.256,2.256,0,0,0-1.85.636,2.81,2.81,0,0,0-.535,1.829l-1.018,14.565a11.338,11.338,0,0,0-10.039,9.316l-11.389.017c.11-1.188-.462-2.476.082-3.565l19.812-39.644c.822.646.407,3.046,1.728,3.486l21.246,7.078-1.2,6.281Z" transform="translate(-174.497 -55.085)" fill="#fccfa4"/>
        <path id="Path_1261164" data-name="Path 1261164" d="M240.765,116.759a44.516,44.516,0,0,1-.119-6.406l10.5-20.961a11.343,11.343,0,0,1,3.3.042Z" transform="translate(-174.681 -64.831)" fill="#905050"/>
        <path id="Path_1261165" data-name="Path 1261165" d="M302.174,219.085a30.133,30.133,0,0,1-5.5-.009,7.472,7.472,0,0,1,5.726-5.38c.269,1.758-.232,3.288-.224,5.389" transform="translate(-215.402 -155.156)" fill="#915050"/>
        <path id="Path_1261166" data-name="Path 1261166" d="M299.037,258.12l-35.879.015a1.893,1.893,0,0,1-1.867-1.75,1.872,1.872,0,0,1,1.868-2.016l35.809,0a1.875,1.875,0,0,1,.068,3.747" transform="translate(-189.708 -184.687)" fill="#040404"/>
      </g>
    </g>
  </g>
</svg>
