<svg xmlns="http://www.w3.org/2000/svg" xmlns:xlink="http://www.w3.org/1999/xlink" width="145.631" height="98.384" viewBox="0 0 145.631 98.384">
  <defs>
    <clipPath id="clip-path">
      <rect id="Rectangle_412112" data-name="Rectangle 412112" width="98.409" height="98.384" fill="none"/>
    </clipPath>
  </defs>
  <g id="Group_1213755" data-name="Group 1213755" transform="translate(-727.051 -7121.627)">
    <g id="Group_1213357" data-name="Group 1213357" transform="translate(414.27 3269.323)">
      <g id="Group_1201016" data-name="Group 1201016">
        <g id="Rectangle_410589" data-name="Rectangle 410589" transform="translate(312.781 3886.804)" fill="#93795a" stroke="#695640" stroke-width="1">
          <rect width="145.631" height="48.544" rx="8" stroke="none"/>
          <rect x="0.5" y="0.5" width="144.631" height="47.544" rx="7.5" fill="none"/>
        </g>
      </g>
    </g>
    <g id="Group_1213700" data-name="Group 1213700" transform="translate(750.796 7121.627)">
      <g id="Group_1213699" data-name="Group 1213699" clip-path="url(#clip-path)">
        <path id="Path_1261200" data-name="Path 1261200" d="M3.138,76.175l.055-28.129a7.9,7.9,0,0,1,5.124-7.184c1.844-.785,1.018-1.1,1.159-4.369A4.723,4.723,0,0,1,4.76,31.85l-.011-6.445a4.732,4.732,0,0,1,4.745-4.793l31.6-.02a4.848,4.848,0,0,1,4.929,5.03l-.01,6.014a4.762,4.762,0,0,1-4.7,4.851c.075,2.715-.677,3.629,1.019,4.316a8.087,8.087,0,0,1,5.272,7.714l-.01,30.789,6.359.018.054-43.971c.005-4.2,3.226-7.354,7.03-8.449l3.995-1.15a30.3,30.3,0,0,0,.023-3.516l-2.723-.094-3.819-11.5L69.13.017,76.876,0,87.521,10.649,83.668,22.18a15.362,15.362,0,0,0-2.69.1l.006,3.423,5,1.515a8.655,8.655,0,0,1,6.05,8.137l.058,50.3,6.281.074a28.207,28.207,0,0,1-.006,3.143L82.624,88.9a25.973,25.973,0,0,0-.119,3.119l-10.7.045-6.3,3.146-40.026.016-.142,3.156-9.428,0-.07-6.288-6.323-.006-.05,6.288L0,98.377V76.249ZM81.767,9.427,75.548,3.163l-5.105.011L64.262,9.451Zm-.377,9.585,2.068-6.332-20.926.048,2.107,6.278ZM79.41,58.683a24.21,24.21,0,0,1,0-3.106l9.467-.088a20.826,20.826,0,0,0-.028-3.083l-12.6-.013a27.394,27.394,0,0,1-.021-3.2l12.6,0a14.19,14.19,0,0,0,.014-3.168l-9.393-.031a12.209,12.209,0,0,1,.006-3.139l9.415-.059a18.31,18.31,0,0,0-.028-3.088l-12.591-.013a27.267,27.267,0,0,1-.02-3.2l12.625,0c.35-3.28-1.876-5.745-4.948-6.606l-6.093-1.708L77.759,22.2l-9.487.021-.027,5.917-7.253,2.147a5.637,5.637,0,0,0-3.859,5.549l0,43.524,8.457.046,6.2,3.109,10.717.042.091,3.135,6.295-.018V71.426l-9.443-.033a12.124,12.124,0,0,1,.006-3.138l9.415-.059a18.31,18.31,0,0,0-.028-3.088l-12.591-.013a27.545,27.545,0,0,1-.021-3.2l12.6-.005a14.134,14.134,0,0,0,.013-3.165ZM30.167,30.07,30.1,23.8l-3.1.006-.071,6.3a19.623,19.623,0,0,1-3.125-.026l-.014-6.287-3.159.043-.075,6.293a16.946,16.946,0,0,1-3.1-.086L17.4,23.8l-3.1,0-.04,6.251a14.1,14.1,0,0,1-3.153.022l-.013-6.271A8.916,8.916,0,0,0,9.484,23.8,1.681,1.681,0,0,0,7.9,25.618l.015,6.02a1.6,1.6,0,0,0,1.615,1.646l31.794-.006a1.536,1.536,0,0,0,1.513-1.62l-.006-6.265a1.535,1.535,0,0,0-1.266-1.554,5.513,5.513,0,0,0-1.855,0L39.635,30.1a19.652,19.652,0,0,1-3.125-.026L36.5,23.791l-3.159.043-.074,6.287a21.594,21.594,0,0,1-3.1-.051M15.961,76.183l9.375.014.14,3.157H44.422l0-31.068a4.847,4.847,0,0,0-2.929-4.363l-3.364-1.7-.057-5.736-25.352-.008-.044,5.75L9.321,43.907a4.912,4.912,0,0,0-2.989,4.429l.006,27.826,3.132.07.051,6.242,6.308-.007ZM6.325,79.357H3.166V95.221H6.325Zm15.868,0H19.026V95.221h3.168ZM69.87,89.381l-.06-4.228-5.176-2.646-39.208,0v9.545l39.212.006Zm-54-3.712H9.492v3.22h6.375Zm63.5,0H73v3.22h6.375Z" fill="#040403"/>
        <path id="Path_1261201" data-name="Path 1261201" d="M269.681,132.632l9.431.043a14.149,14.149,0,0,1-.014,3.165l-12.6.005a27.548,27.548,0,0,0,.021,3.2l12.591.013a18.285,18.285,0,0,1,.028,3.088l-9.414.059a12.123,12.123,0,0,0-.006,3.138l9.443.033v14.249l-6.294.018-.091-3.135-10.717-.042-6.2-3.109-8.457-.046,0-43.524a5.637,5.637,0,0,1,3.859-5.548l7.253-2.147.027-5.917,9.487-.021.056,5.979,6.092,1.708c3.072.861,5.3,3.326,4.948,6.606l-12.625,0a27.222,27.222,0,0,0,.02,3.2l12.591.013a18.285,18.285,0,0,1,.028,3.088l-9.414.059a12.206,12.206,0,0,0-.006,3.138l9.393.031a14.175,14.175,0,0,1-.014,3.168l-12.6,0a27.453,27.453,0,0,0,.021,3.2l12.6.013a20.86,20.86,0,0,1,.028,3.083l-9.468.088a24.212,24.212,0,0,0,0,3.106" transform="translate(-190.271 -73.948)" fill="#ddb08a"/>
        <path id="Path_1261202" data-name="Path 1261202" d="M289.652,61.242,272.9,61.235l-2.107-6.278,20.926-.048Z" transform="translate(-208.261 -42.23)" fill="#cacfd7"/>
        <path id="Path_1261203" data-name="Path 1261203" d="M295.788,19.963l-17.506.023,6.182-6.276,5.105-.011Z" transform="translate(-214.02 -10.536)" fill="#e2e5e9"/>
        <path id="Path_1261204" data-name="Path 1261204" d="M154.551,364.167l-5.232,2.681-39.211-.007V357.3l39.208,0,5.176,2.646Z" transform="translate(-84.681 -274.786)" fill="#85b9f0"/>
        <rect id="Rectangle_412107" data-name="Rectangle 412107" width="3.168" height="15.865" transform="translate(19.026 79.357)" fill="#c6cbd3"/>
        <rect id="Rectangle_412108" data-name="Rectangle 412108" width="3.158" height="15.865" transform="translate(3.166 79.357)" fill="#cbd0d8"/>
        <rect id="Rectangle_412109" data-name="Rectangle 412109" width="6.375" height="3.22" transform="translate(9.492 85.67)" fill="#e0e3e6"/>
        <rect id="Rectangle_412110" data-name="Rectangle 412110" width="6.375" height="3.22" transform="translate(72.996 85.67)" fill="#e0e3e6"/>
        <path id="Path_1261205" data-name="Path 1261205" d="M37.05,197.682l-.132,6.284-6.308.007-.051-6.242-3.132-.07-.006-27.826a4.912,4.912,0,0,1,2.989-4.429l3.352-1.675.044-5.75,25.352.008.057,5.736,3.364,1.7a4.847,4.847,0,0,1,2.929,4.363l0,31.068H46.566l-.14-3.157Zm25.307-28.615H30.581v25.4H62.358Z" transform="translate(-21.089 -121.5)" fill="#fce7a5"/>
        <path id="Path_1261206" data-name="Path 1261206" d="M56.47,109.195a21.6,21.6,0,0,0,3.1.051l.074-6.287,3.159-.043.014,6.287a19.648,19.648,0,0,0,3.125.026l.071-6.269a5.507,5.507,0,0,1,1.855,0,1.534,1.534,0,0,1,1.266,1.554l.006,6.265a1.535,1.535,0,0,1-1.513,1.62l-31.794.006a1.6,1.6,0,0,1-1.615-1.646l-.015-6.02a1.681,1.681,0,0,1,1.586-1.822,8.918,8.918,0,0,1,1.611.013l.013,6.271a14.105,14.105,0,0,0,3.153-.023l.04-6.251,3.1,0,.062,6.238a16.945,16.945,0,0,0,3.1.086l.075-6.293,3.159-.043.014,6.287a19.624,19.624,0,0,0,3.125.026l.071-6.3,3.1-.006Z" transform="translate(-26.303 -79.125)" fill="#e75363"/>
        <path id="Path_1261207" data-name="Path 1261207" d="M72.882,231.39H41.106v-25.4H72.882Zm-3.167-22.181h-25.4v19.027h25.4Z" transform="translate(-31.614 -158.421)" fill="#040402"/>
        <rect id="Rectangle_412111" data-name="Rectangle 412111" width="25.402" height="19.027" transform="translate(12.7 50.788)" fill="#fbd66f"/>
      </g>
    </g>
  </g>
</svg>
