<svg xmlns="http://www.w3.org/2000/svg" xmlns:xlink="http://www.w3.org/1999/xlink" width="145.631" height="91.915" viewBox="0 0 145.631 91.915">
  <defs>
    <clipPath id="clip-path">
      <rect id="Rectangle_412115" data-name="Rectangle 412115" width="91.911" height="91.915" fill="none"/>
    </clipPath>
  </defs>
  <g id="Group_1213754" data-name="Group 1213754" transform="translate(-307.051 -7134.441)">
    <g id="Group_1201401" data-name="Group 1201401" transform="translate(-5.73 3269.323)">
      <g id="Group_1201016" data-name="Group 1201016">
        <g id="Rectangle_410589" data-name="Rectangle 410589" transform="translate(312.781 3886.804)" fill="#93795a" stroke="#695640" stroke-width="1">
          <rect width="145.631" height="48.544" rx="8" stroke="none"/>
          <rect x="0.5" y="0.5" width="144.631" height="47.544" rx="7.5" fill="none"/>
        </g>
      </g>
    </g>
    <g id="Group_1213702" data-name="Group 1213702" transform="translate(334.095 7134.441)">
      <g id="Group_1213701" data-name="Group 1213701" clip-path="url(#clip-path)">
        <path id="Path_1261208" data-name="Path 1261208" d="M91.875,83.787l-2.46-26.724a7.325,7.325,0,0,0-7.823-6.646c-.089-1.45-.058-2.791-.046-4.253a10.439,10.439,0,0,0-8.891-10.483l.016-8.953a4.587,4.587,0,0,0,4.4-4.054l.008-9.751a4.434,4.434,0,0,0-4.393-4.03L51.1,8.871A13.325,13.325,0,0,0,25.993,8.85L4.338,8.9A4.388,4.388,0,0,0,.011,12.943L0,22.013a4.544,4.544,0,0,0,4.421,4.724l.015,56.3,46.128.006a7.225,7.225,0,0,0,6.6,8.87l27.811,0a7.2,7.2,0,0,0,6.893-8.128" transform="translate(0 0)" fill="#fdfdfd"/>
        <path id="Path_1261209" data-name="Path 1261209" d="M91.875,83.786a7.2,7.2,0,0,1-6.893,8.128l-27.811-.005a7.225,7.225,0,0,1-6.6-8.87L4.439,83.033l-.015-56.3A4.544,4.544,0,0,1,0,22.012l.008-9.07A4.387,4.387,0,0,1,4.338,8.9l21.656-.049A13.325,13.325,0,0,1,51.1,8.87l21.584.023a4.434,4.434,0,0,1,4.393,4.03l-.008,9.75a4.587,4.587,0,0,1-4.4,4.054l-.015,8.953a10.439,10.439,0,0,1,8.891,10.483c-.012,1.463-.043,2.8.046,4.253a7.325,7.325,0,0,1,7.823,6.646ZM48.911,13.331A10.37,10.37,0,1,0,38.541,23.7a10.37,10.37,0,0,0,10.37-10.37M25.25,14.8l-.019-2.933-20.865.006c-1.488,0-1.6,1.884-1.3,2.95Zm48.84-1.7a1.429,1.429,0,0,0-1.412-1.229l-20.856,0a20.575,20.575,0,0,1-.022,2.931l22.251.011a4.5,4.5,0,0,0,.039-1.715M30.061,23.718a14.686,14.686,0,0,1-4.083-5.942L3.012,17.769a40.942,40.942,0,0,0,0,4.682c.064.911.908,1.283,1.761,1.282Zm44.031-5.945-23,0a14,14,0,0,1-4.121,5.94l25.7,0c2.293,0,1.255-4.165,1.42-5.941M10.407,38.544l53.5,0a10.537,10.537,0,0,1,5.776-2.877l-.017-8.989L7.4,26.7,7.39,80l5.936.035.018-32.517-2.988-.168ZM71.187,50.385l7.329.017c.11-1.395.023-2.813.05-4.2a7.407,7.407,0,1,0-14.811-.215l.018,4.388ZM60.9,44.459a29.993,29.993,0,0,1,.775-2.953l-48.256,0a10.442,10.442,0,0,0,0,2.957ZM37.067,47.451H16.3v32.59H37.067ZM52.9,57.087A7.387,7.387,0,0,1,60.728,50.4a14.294,14.294,0,0,0,.008-2.933l-20.7-.015V80.032H50.778Zm28.62-.774L78.6,56.257l-.1-2.9-14.71.023-.054,2.869a20.655,20.655,0,0,1-2.912.045L60.8,53.43c-2.754-.362-4.777,1.672-5.026,4.4L53.4,83.886c-.218,2.384,1.1,4.989,3.793,5l27.353.072a4.207,4.207,0,0,0,4.38-4.646L86.442,57.238a4.355,4.355,0,0,0-4.868-3.827Z" transform="translate(0 0)" fill="#030303"/>
        <path id="Path_1261210" data-name="Path 1261210" d="M37.28,135.576l-.051,8.805,2.988.168L40.2,177.065l-5.936-.034.011-53.3,62.268-.016.017,8.989a10.536,10.536,0,0,0-5.776,2.877Z" transform="translate(-26.873 -97.031)" fill="#a8b0bb"/>
        <path id="Path_1261211" data-name="Path 1261211" d="M109.339,195.389l-47.479,0a10.444,10.444,0,0,1,0-2.957l48.256,0a29.99,29.99,0,0,0-.775,2.953" transform="translate(-48.434 -150.93)" fill="#c6cbd2"/>
        <path id="Path_1261212" data-name="Path 1261212" d="M303.023,179.034l.009,11.771-7.414-.016L295.6,186.4a7.283,7.283,0,0,1,7.423-7.368" transform="translate(-231.844 -140.42)" fill="#a7afba"/>
        <path id="Path_1261213" data-name="Path 1261213" d="M330.026,190.806l-.009-11.771a7.308,7.308,0,0,1,7.388,7.583c-.027,1.391.06,2.81-.05,4.2Z" transform="translate(-258.839 -140.421)" fill="#fcfcfc"/>
        <path id="Path_1261214" data-name="Path 1261214" d="M198.475,229.631l-2.124,22.945H185.605V219.992l20.7.015a14.3,14.3,0,0,1-.008,2.933,7.387,7.387,0,0,0-7.827,6.691m-6.948,2.227h-2.979v5.9h2.979Z" transform="translate(-145.574 -172.544)" fill="#85b9f0"/>
        <rect id="Rectangle_412113" data-name="Rectangle 412113" width="2.979" height="5.903" transform="translate(42.975 59.314)" fill="#030303"/>
        <path id="Path_1261215" data-name="Path 1261215" d="M96.355,252.6H75.592v-32.59H96.355ZM93.38,231.871H90.4v5.9H93.38Z" transform="translate(-59.288 -172.557)" fill="#85b9f0"/>
        <rect id="Rectangle_412114" data-name="Rectangle 412114" width="2.979" height="5.903" transform="translate(31.113 59.314)" fill="#030303"/>
        <path id="Path_1261216" data-name="Path 1261216" d="M244.9,82.409c-.165,1.776.873,5.941-1.42,5.941l-25.7,0a14,14,0,0,0,4.121-5.94Z" transform="translate(-170.808 -64.635)" fill="#e75363"/>
        <path id="Path_1261217" data-name="Path 1261217" d="M40.768,88.336l-25.287.014c-.853,0-1.7-.371-1.761-1.282a40.938,40.938,0,0,1,0-4.681l22.966.008a14.686,14.686,0,0,0,4.083,5.942" transform="translate(-10.707 -64.617)" fill="#e75363"/>
        <path id="Path_1261218" data-name="Path 1261218" d="M262.457,56.274a4.5,4.5,0,0,1-.039,1.715l-22.251-.011a20.569,20.569,0,0,0,.022-2.931l20.856,0a1.429,1.429,0,0,1,1.412,1.229" transform="translate(-188.368 -43.173)" fill="#e75363"/>
        <path id="Path_1261219" data-name="Path 1261219" d="M35.918,57.957l-22.182.023c-.3-1.066-.19-2.949,1.3-2.95L35.9,55.024Z" transform="translate(-10.668 -43.156)" fill="#e75363"/>
        <path id="Path_1261220" data-name="Path 1261220" d="M151.354,24.1a10.37,10.37,0,1,1-10.37-10.37,10.37,10.37,0,0,1,10.37,10.37m-5.96,7.386.084-2.91,2.921-.088-.018-8.818-2.928-.1-.1-2.9-8.805.034-.025,2.91-2.965.061.039,8.838,2.876.047.067,2.929Z" transform="translate(-102.442 -10.769)" fill="#e0e3e7"/>
        <path id="Path_1261221" data-name="Path 1261221" d="M156.116,42.19l-8.85.007-.067-2.929-2.876-.047-.039-8.838,2.965-.061.025-2.91,8.805-.034.095,2.9,2.928.1.018,8.818-2.921.088Zm-2.956-3.01.055-2.815,2.906-.129a20.015,20.015,0,0,0-.031-2.864l-2.878-.111-.111-2.895a16.15,16.15,0,0,0-2.825.021l-.077,2.9-2.923.07a21.844,21.844,0,0,0,.034,2.913l2.889.091.078,2.829a13.745,13.745,0,0,0,2.883-.008" transform="translate(-113.165 -21.472)" fill="#040403"/>
        <path id="Path_1261222" data-name="Path 1261222" d="M163.923,49.863a13.745,13.745,0,0,1-2.883.008l-.078-2.829-2.889-.091a21.842,21.842,0,0,1-.034-2.913l2.923-.07.077-2.9a16.151,16.151,0,0,1,2.825-.021l.111,2.895,2.878.111a20.013,20.013,0,0,1,.031,2.864l-2.906.129Z" transform="translate(-123.929 -32.156)" fill="#f8d36e"/>
        <path id="Path_1261223" data-name="Path 1261223" d="M275.618,250.335l.052-2.9a4.355,4.355,0,0,1,4.868,3.827l2.482,27.072a4.207,4.207,0,0,1-4.38,4.646l-27.353-.072c-2.693-.007-4.01-2.612-3.793-5l2.378-26.056c.249-2.729,2.272-4.762,5.026-4.4l.021,2.861a20.654,20.654,0,0,0,2.912-.045l.054-2.869,14.71-.023.1,2.9Zm-13.159,28.056L277.34,266.48A7.408,7.408,0,1,0,267.979,255l-14.605,11.666a7.446,7.446,0,0,0-1.389,10.468,7.364,7.364,0,0,0,10.475,1.262" transform="translate(-194.097 -194.022)" fill="#cc9c74"/>
        <path id="Path_1261224" data-name="Path 1261224" d="M273.223,300.035a7.364,7.364,0,0,1-10.475-1.262,7.446,7.446,0,0,1,1.389-10.468l14.605-11.666a7.409,7.409,0,1,1,9.361,11.485Zm6.785-9.219,6.451-5.177a4.455,4.455,0,0,0-5.96-6.621l-6.067,4.936Zm-2.388,1.853-5.511-6.87-6.329,5.023a4.443,4.443,0,1,0,5.713,6.806Z" transform="translate(-204.86 -215.665)" fill="#050403"/>
        <path id="Path_1261225" data-name="Path 1261225" d="M328.141,301.636l-5.576-6.862,6.067-4.936a4.455,4.455,0,0,1,5.96,6.621Z" transform="translate(-252.994 -226.485)" fill="#f8d36e"/>
        <path id="Path_1261226" data-name="Path 1261226" d="M288.438,332.045,282.312,337A4.443,4.443,0,1,1,276.6,330.2l6.329-5.023Z" transform="translate(-215.679 -255.041)" fill="#e75363"/>
      </g>
    </g>
  </g>
</svg>
