<svg xmlns="http://www.w3.org/2000/svg" xmlns:xlink="http://www.w3.org/1999/xlink" width="145.631" height="94.794" viewBox="0 0 145.631 94.794">
  <defs>
    <clipPath id="clip-path">
      <rect id="Rectangle_412106" data-name="Rectangle 412106" width="100" height="94.794" fill="none"/>
    </clipPath>
  </defs>
  <g id="Group_1213756" data-name="Group 1213756" transform="translate(-1147.051 -7129.703)">
    <g id="Group_1213359" data-name="Group 1213359" transform="translate(834.27 3269.323)">
      <g id="Group_1201016" data-name="Group 1201016">
        <g id="Rectangle_410589" data-name="Rectangle 410589" transform="translate(312.781 3886.804)" fill="#93795a" stroke="#695640" stroke-width="1">
          <rect width="145.631" height="48.544" rx="8" stroke="none"/>
          <rect x="0.5" y="0.5" width="144.631" height="47.544" rx="7.5" fill="none"/>
        </g>
      </g>
    </g>
    <g id="Group_1213698" data-name="Group 1213698" transform="translate(1175.739 7129.703)">
      <g id="Group_1213697" data-name="Group 1213697" clip-path="url(#clip-path)">
        <path id="Path_1261172" data-name="Path 1261172" d="M316.609,274.8l-3-4.278a1.459,1.459,0,0,0-2.208.211l-1.929,3.8-3.8.073c-.756.015-1.036.645-1.34,1.255l-7.421,14.893a.468.468,0,0,1-.47.265.447.447,0,0,1-.389-.288,19.4,19.4,0,1,1,19.7,12.171l1.235-16.363,8.631-.018c1.036.2,1.6-.426,2.009-1.252l2.657-5.356a1.647,1.647,0,0,0,.083-1.508,1.671,1.671,0,0,0-1.235-.851Z" transform="translate(-237.552 -212.965)" fill="#85b9f0"/>
        <path id="Path_1261173" data-name="Path 1261173" d="M327.194,328.561l-1.41,18.044a19.418,19.418,0,0,1-14.888-8.792c1.948-.533,4.841.737,5.757-1.1l9.19-18.387,1.964,2.769,12.037,2.695-1.656,3.388-9.257.041a1.441,1.441,0,0,0-1.736,1.34" transform="translate(-250.629 -256.62)" fill="#945252"/>
        <rect id="Rectangle_412088" data-name="Rectangle 412088" width="15.216" height="1.05" transform="translate(62.587 77.953) rotate(-63.421)" fill="#5e656f"/>
        <path id="Path_1261174" data-name="Path 1261174" d="M76.06,13.745a3.732,3.732,0,0,1,7.451,0,14.72,14.72,0,0,0,.108,2.447l4.8.057a4.368,4.368,0,0,1,4.064,4.6l-.009,35.665A22.4,22.4,0,1,1,74.252,93.769l-55,.007a1.34,1.34,0,0,1-1.341-1.407l0-71.727a4.42,4.42,0,0,1,4.532-4.436c1.5,0,2.862.057,4.344-.025a19.879,19.879,0,0,0,.052-2.311,3.765,3.765,0,0,1,3.548-3.635,3.672,3.672,0,0,1,3.9,3.466l.047,2.48,8.854.031a9.312,9.312,0,0,0,.062-1.9,3.727,3.727,0,1,1,7.424-.664c.074.885-.043,1.676.078,2.555l8.788.013a5.936,5.936,0,0,0,.1-1.905,3.741,3.741,0,1,1,7.456-.636c.085.878-.06,1.677.08,2.539l8.793,0a22.833,22.833,0,0,0,.087-2.463m-44.722,7.4L31.325,14.1a.755.755,0,1,0-1.495,0l0,7.174c0,.571.31.848.771.845.425,0,.739-.333.738-.974m16.387,0L47.713,14.1a.765.765,0,0,0-.828-.858.783.783,0,0,0-.639.862l-.008,7.153c0,.588.342.931.842.877.375-.04.645-.373.644-.99m16.39,0-.009-7.035c0-.522-.3-.9-.737-.877a.787.787,0,0,0-.735.868v7.152c0,.579.233.894.726.894.477,0,.756-.3.755-1m16.439,0-.014-7.039a.759.759,0,0,0-.714-.852c-.453-.015-.764.3-.765.848l-.005,7.157c0,.566.278.906.78.874.4-.026.718-.332.717-.989m-13.464.641a3.732,3.732,0,0,1-7.44-.542,14.416,14.416,0,0,0-.047-2.024l-8.82-.022a15.111,15.111,0,0,0-.083,2.295,3.732,3.732,0,1,1-7.446-.45,6.555,6.555,0,0,0-.085-1.846l-8.81.028a17.3,17.3,0,0,0-.043,2.021,3.75,3.75,0,1,1-7.483-.194,6.989,6.989,0,0,0-.072-1.855c-1.727.237-5.86-.821-5.853,1.409l.023,7.542H89.46V20.623a1.415,1.415,0,0,0-1.452-1.409l-4.429.02a9.46,9.46,0,0,0-.063,1.814,3.75,3.75,0,0,1-3.872,4.08,3.8,3.8,0,0,1-3.611-4.1,6.217,6.217,0,0,0-.092-1.838l-8.753,0c-.176.821.02,1.644-.1,2.6M65.52,66.871a1.412,1.412,0,0,1-1.359-1.393l-.026-5.831a1.635,1.635,0,0,1,1.706-1.72l5.823.034a1.444,1.444,0,0,1,1.4,1.475l.121,5.779A22.694,22.694,0,0,1,89.5,56.494l-.027-25.378L20.9,31.13l0,50.658,47.745.007a16.5,16.5,0,0,0-.112-2.9l-2.911-.07A1.452,1.452,0,0,1,64.161,77.4l-.027-5.823a1.635,1.635,0,0,1,1.7-1.723h4.557l1.563-2.922Zm27.975,3.213,12.52,2.757a1.672,1.672,0,0,1,1.235.851,1.646,1.646,0,0,1-.083,1.508l-2.657,5.356c-.41.825-.973,1.447-2.009,1.252l-8.631.018L92.634,98.189a19.4,19.4,0,1,0-19.7-12.171.447.447,0,0,0,.389.288.468.468,0,0,0,.47-.265l7.421-14.893c.3-.61.583-1.24,1.34-1.255l3.8-.073,1.929-3.8a1.459,1.459,0,0,1,2.208-.211Zm-23.377-9.15H67.149v3.008h2.968ZM91,80.185a1.441,1.441,0,0,1,1.736-1.34L102,78.8l1.656-3.387L91.616,72.722l-1.964-2.769L80.463,88.34c-.916,1.834-3.809.564-5.757,1.1a19.419,19.419,0,0,0,14.888,8.792ZM68.8,75.775l.557-2.841a6.93,6.93,0,0,0-2.168-.011,17.387,17.387,0,0,0,.018,2.9,3.463,3.463,0,0,0,1.594-.044m15.035-3.185L77.024,86.2l.939.47,6.809-13.608ZM69.723,86.336a2.195,2.195,0,0,0-.5-1.54H21.033a1.9,1.9,0,0,0-.027,1.541Zm2.144,4.447c-.118-.391-.332-1.253-.864-1.456l-49.981-.013a2.058,2.058,0,0,0-.01,1.547l28.127-.034Z" transform="translate(-14.437 -8.245)" fill="#040304"/>
        <path id="Path_1261175" data-name="Path 1261175" d="M77.951,153.741l6.438.065-1.563,2.922H78.269a1.635,1.635,0,0,0-1.7,1.723l.027,5.823a1.452,1.452,0,0,0,1.459,1.418l2.911.07a16.5,16.5,0,0,1,.112,2.9l-47.745-.007,0-50.658,68.571-.014.026,25.378a22.694,22.694,0,0,0-16.311,8.719l-.121-5.779a1.444,1.444,0,0,0-1.4-1.475l-5.823-.033a1.635,1.635,0,0,0-1.706,1.72l.026,5.831a1.412,1.412,0,0,0,1.359,1.393M43.693,129.909a1.471,1.471,0,0,0,1.54-1.42l.028-5.831a1.613,1.613,0,0,0-1.683-1.715H37.923a1.524,1.524,0,0,0-1.621,1.547l0,5.948a1.494,1.494,0,0,0,1.618,1.478Zm13.462-.006a1.508,1.508,0,0,0,1.518-1.419l-.013-6a1.543,1.543,0,0,0-1.634-1.542l-5.856.026a1.469,1.469,0,0,0-1.45,1.473l.011,6.042a1.425,1.425,0,0,0,1.435,1.408Zm13.435,0a1.47,1.47,0,0,0,1.49-1.585l-.01-5.876a1.448,1.448,0,0,0-1.421-1.463l-5.822-.041a1.622,1.622,0,0,0-1.706,1.717l.006,5.639a1.568,1.568,0,0,0,1.7,1.625Zm13.349.014a1.449,1.449,0,0,0,1.538-1.419l.033-5.846a1.581,1.581,0,0,0-1.6-1.7l-5.633-.014a1.644,1.644,0,0,0-1.735,1.72l.009,5.646a1.5,1.5,0,0,0,1.515,1.6Zm13.556,0a1.449,1.449,0,0,0,1.4-1.4l.036-5.853a1.582,1.582,0,0,0-1.578-1.709l-5.837.007a1.581,1.581,0,0,0-1.547,1.7l.011,5.663a1.5,1.5,0,0,0,1.521,1.591Zm-53.8,11.923a1.471,1.471,0,0,0,1.54-1.42l.028-5.831a1.613,1.613,0,0,0-1.683-1.715H37.923a1.524,1.524,0,0,0-1.621,1.547l0,5.948a1.494,1.494,0,0,0,1.618,1.478Zm13.462-.006a1.507,1.507,0,0,0,1.518-1.419l-.013-6a1.543,1.543,0,0,0-1.634-1.542l-5.856.025a1.469,1.469,0,0,0-1.45,1.473l.011,6.042a1.425,1.425,0,0,0,1.435,1.408Zm13.435,0a1.47,1.47,0,0,0,1.49-1.585l-.01-5.876a1.448,1.448,0,0,0-1.421-1.463l-5.822-.041a1.622,1.622,0,0,0-1.706,1.717l.006,5.639a1.568,1.568,0,0,0,1.7,1.625Zm13.464,0a1.407,1.407,0,0,0,1.423-1.4l.034-5.852a1.58,1.58,0,0,0-1.6-1.7l-5.633-.014a1.644,1.644,0,0,0-1.735,1.72l.009,5.647a1.5,1.5,0,0,0,1.515,1.6Zm13.441.013a1.449,1.449,0,0,0,1.4-1.4l.036-5.853a1.582,1.582,0,0,0-1.578-1.709l-5.837.007a1.581,1.581,0,0,0-1.547,1.7l.011,5.663a1.5,1.5,0,0,0,1.521,1.591Zm-53.8,11.923a1.471,1.471,0,0,0,1.54-1.42l.028-5.831a1.613,1.613,0,0,0-1.683-1.715H37.923a1.524,1.524,0,0,0-1.621,1.547l0,5.948a1.494,1.494,0,0,0,1.618,1.478Zm13.462-.006a1.508,1.508,0,0,0,1.518-1.419l-.013-6a1.543,1.543,0,0,0-1.634-1.542l-5.856.026a1.469,1.469,0,0,0-1.45,1.473l.011,6.042a1.425,1.425,0,0,0,1.435,1.408Zm13.445,0a1.466,1.466,0,0,0,1.479-1.585L72.07,146.3a1.448,1.448,0,0,0-1.421-1.463l-5.822-.041a1.623,1.623,0,0,0-1.706,1.717l.006,5.639a1.568,1.568,0,0,0,1.7,1.625ZM43.693,165.7a1.471,1.471,0,0,0,1.54-1.42l.028-5.831a1.613,1.613,0,0,0-1.683-1.715H37.923a1.524,1.524,0,0,0-1.621,1.547l0,5.948a1.494,1.494,0,0,0,1.617,1.478Zm13.462-.006a1.508,1.508,0,0,0,1.518-1.419l-.013-6a1.543,1.543,0,0,0-1.634-1.542l-5.856.025a1.469,1.469,0,0,0-1.45,1.473l.011,6.042a1.425,1.425,0,0,0,1.435,1.408Zm13.435,0a1.47,1.47,0,0,0,1.49-1.585l-.01-5.876a1.448,1.448,0,0,0-1.421-1.463l-5.822-.041a1.623,1.623,0,0,0-1.706,1.717l.006,5.639a1.568,1.568,0,0,0,1.7,1.625Z" transform="translate(-26.869 -95.115)" fill="#e1e4e7"/>
        <path id="Path_1261176" data-name="Path 1261176" d="M79.545,58.885c.121-.952-.074-1.775.1-2.6l8.753,0a6.223,6.223,0,0,1,.092,1.838,3.8,3.8,0,0,0,3.61,4.1,3.75,3.75,0,0,0,3.872-4.08,9.46,9.46,0,0,1,.063-1.814l4.429-.02a1.415,1.415,0,0,1,1.451,1.409v7.526H33.384L33.361,57.7c-.007-2.23,4.126-1.171,5.853-1.409a6.989,6.989,0,0,1,.072,1.855,3.75,3.75,0,1,0,7.483.194,17.25,17.25,0,0,1,.043-2.021l8.81-.028a6.556,6.556,0,0,1,.085,1.846,3.732,3.732,0,1,0,7.446.45,15.088,15.088,0,0,1,.083-2.295l8.82.022a14.42,14.42,0,0,1,.047,2.024,3.732,3.732,0,0,0,7.44.542" transform="translate(-26.894 -45.343)" fill="#e75363"/>
        <path id="Path_1261177" data-name="Path 1261177" d="M84.158,419.669l-22.729.043-28.127.034a2.058,2.058,0,0,1,.01-1.547l49.981.013c.532.2.746,1.065.864,1.456" transform="translate(-26.728 -337.131)" fill="#bfc4cb"/>
        <path id="Path_1261178" data-name="Path 1261178" d="M81.979,396.433H33.263a1.9,1.9,0,0,1,.027-1.541H81.481a2.193,2.193,0,0,1,.5,1.54" transform="translate(-26.694 -318.342)" fill="#cbd0d8"/>
        <path id="Path_1261179" data-name="Path 1261179" d="M250.1,33.656c0,.7-.279,1-.755,1-.493,0-.726-.315-.726-.894V26.611a.787.787,0,0,1,.736-.868c.437-.021.736.355.737.877Z" transform="translate(-200.424 -20.752)" fill="#dcdee2"/>
        <path id="Path_1261180" data-name="Path 1261180" d="M334.832,33.735c0,.657-.314.963-.717.989-.5.033-.78-.308-.78-.874l0-7.157c0-.553.312-.863.765-.848a.759.759,0,0,1,.714.852Z" transform="translate(-268.717 -20.834)" fill="#dcdee2"/>
        <path id="Path_1261181" data-name="Path 1261181" d="M80.9,33.695c0,.642-.313.972-.738.974-.461,0-.771-.274-.771-.845l0-7.174a.755.755,0,1,1,1.494,0Z" transform="translate(-64.005 -20.792)" fill="#e1e4e7"/>
        <path id="Path_1261182" data-name="Path 1261182" d="M165.532,33.668c0,.617-.269.95-.644.99-.5.054-.843-.289-.842-.877l.008-7.153a.783.783,0,0,1,.639-.862c.452-.056.828.291.829.858Z" transform="translate(-132.245 -20.767)" fill="#e1e4e7"/>
        <rect id="Rectangle_412089" data-name="Rectangle 412089" width="2.968" height="3.008" transform="translate(52.712 52.689)" fill="#f3f3f3"/>
        <path id="Path_1261183" data-name="Path 1261183" d="M273.505,336.167a3.462,3.462,0,0,1-1.593.044,17.348,17.348,0,0,1-.018-2.9,6.933,6.933,0,0,1,2.168.011Z" transform="translate(-219.145 -268.637)" fill="#f3f3f3"/>
        <path id="Path_1261184" data-name="Path 1261184" d="M56.054,265.293l-5.769.008a1.494,1.494,0,0,1-1.618-1.478l0-5.948a1.524,1.524,0,0,1,1.621-1.547H55.94a1.613,1.613,0,0,1,1.683,1.715l-.028,5.831a1.471,1.471,0,0,1-1.54,1.42m-1.436-5.966H51.636v3.008h2.982Z" transform="translate(-39.23 -206.637)" fill="#060606"/>
        <path id="Path_1261185" data-name="Path 1261185" d="M56.054,142.2l-5.769.008a1.494,1.494,0,0,1-1.618-1.478l0-5.948a1.524,1.524,0,0,1,1.621-1.547H55.94a1.613,1.613,0,0,1,1.683,1.715l-.028,5.831a1.471,1.471,0,0,1-1.54,1.42m-1.436-5.966H51.636v3.008h2.982Z" transform="translate(-39.23 -107.409)" fill="#060606"/>
        <path id="Path_1261186" data-name="Path 1261186" d="M56.055,203.748l-5.769.008a1.493,1.493,0,0,1-1.618-1.478l0-5.948a1.524,1.524,0,0,1,1.621-1.547H55.94a1.613,1.613,0,0,1,1.683,1.715l-.028,5.831a1.471,1.471,0,0,1-1.54,1.42m-1.436-5.966H51.637v3.008h2.982Z" transform="translate(-39.231 -157.023)" fill="#060606"/>
        <path id="Path_1261187" data-name="Path 1261187" d="M125.314,203.753l-5.988-.009a1.425,1.425,0,0,1-1.435-1.408l-.011-6.042a1.469,1.469,0,0,1,1.45-1.473l5.856-.026a1.543,1.543,0,0,1,1.634,1.542l.013,6a1.507,1.507,0,0,1-1.518,1.419m-1.463-5.96h-3.008V200.8h3.008Z" transform="translate(-95.028 -157.035)" fill="#060606"/>
        <path id="Path_1261188" data-name="Path 1261188" d="M125.314,265.3l-5.989-.009a1.425,1.425,0,0,1-1.435-1.408l-.011-6.042a1.469,1.469,0,0,1,1.45-1.473l5.856-.025a1.543,1.543,0,0,1,1.634,1.542l.013,6a1.508,1.508,0,0,1-1.518,1.419m-1.463-5.96h-3.008v3.008h3.008Z" transform="translate(-95.028 -206.649)" fill="#060606"/>
        <path id="Path_1261189" data-name="Path 1261189" d="M125.314,142.208l-5.988-.009a1.425,1.425,0,0,1-1.435-1.408l-.011-6.042a1.469,1.469,0,0,1,1.45-1.473l5.856-.026a1.543,1.543,0,0,1,1.634,1.542l.013,6a1.507,1.507,0,0,1-1.518,1.419m-1.463-5.96h-3.008v3.008h3.008Z" transform="translate(-95.028 -107.421)" fill="#060606"/>
        <path id="Path_1261190" data-name="Path 1261190" d="M333.043,203.785l-5.991-.009a1.5,1.5,0,0,1-1.521-1.591l-.011-5.663a1.581,1.581,0,0,1,1.547-1.7l5.837-.007a1.582,1.582,0,0,1,1.578,1.709l-.036,5.853a1.449,1.449,0,0,1-1.4,1.4m-1.55-5.973h-2.968v3.008h2.968Z" transform="translate(-262.417 -157.053)" fill="#040404"/>
        <path id="Path_1261191" data-name="Path 1261191" d="M333.043,142.241l-5.991-.009a1.5,1.5,0,0,1-1.521-1.591l-.011-5.663a1.581,1.581,0,0,1,1.547-1.7l5.837-.007a1.582,1.582,0,0,1,1.578,1.709l-.036,5.853a1.449,1.449,0,0,1-1.4,1.4m-1.55-5.973h-2.968v3.008h2.968Z" transform="translate(-262.417 -107.439)" fill="#040404"/>
        <path id="Path_1261192" data-name="Path 1261192" d="M194.476,203.716l-5.762.015a1.568,1.568,0,0,1-1.7-1.625l-.006-5.639a1.622,1.622,0,0,1,1.706-1.717l5.822.041a1.448,1.448,0,0,1,1.421,1.463l.01,5.876a1.47,1.47,0,0,1-1.49,1.585M193,197.756h-2.992v3.008H193Z" transform="translate(-150.755 -156.998)" fill="#040404"/>
        <path id="Path_1261193" data-name="Path 1261193" d="M194.486,265.261l-5.772.016a1.568,1.568,0,0,1-1.7-1.625l-.006-5.639a1.623,1.623,0,0,1,1.706-1.717l5.822.041a1.448,1.448,0,0,1,1.421,1.463l.009,5.876a1.466,1.466,0,0,1-1.479,1.585M193,259.3h-2.992v3.008H193Z" transform="translate(-150.755 -206.612)" fill="#040404"/>
        <path id="Path_1261194" data-name="Path 1261194" d="M194.476,326.805l-5.761.016a1.568,1.568,0,0,1-1.7-1.625l-.006-5.639a1.623,1.623,0,0,1,1.706-1.717l5.822.041a1.448,1.448,0,0,1,1.421,1.463l.01,5.876a1.469,1.469,0,0,1-1.49,1.585M193,320.845h-2.992v3.008H193Z" transform="translate(-150.756 -256.226)" fill="#040404"/>
        <path id="Path_1261195" data-name="Path 1261195" d="M194.477,142.171l-5.761.015a1.568,1.568,0,0,1-1.7-1.625l-.006-5.639a1.622,1.622,0,0,1,1.706-1.717l5.822.041a1.448,1.448,0,0,1,1.421,1.463l.01,5.876a1.47,1.47,0,0,1-1.49,1.585M193,136.212h-2.992v3.008H193Z" transform="translate(-150.756 -107.383)" fill="#040404"/>
        <path id="Path_1261196" data-name="Path 1261196" d="M263.738,203.706l-5.99-.005a1.5,1.5,0,0,1-1.515-1.6l-.009-5.647a1.644,1.644,0,0,1,1.735-1.72l5.633.014a1.581,1.581,0,0,1,1.6,1.7l-.034,5.851a1.407,1.407,0,0,1-1.423,1.4m-1.52-5.96h-2.981v3.008h2.981Z" transform="translate(-206.553 -156.987)" fill="#040304"/>
        <path id="Path_1261197" data-name="Path 1261197" d="M263.623,142.175l-5.875-.019a1.5,1.5,0,0,1-1.515-1.6l-.009-5.647a1.644,1.644,0,0,1,1.735-1.72l5.633.014a1.581,1.581,0,0,1,1.6,1.7l-.034,5.846a1.449,1.449,0,0,1-1.538,1.42m-1.4-5.974h-2.981v3.008h2.981Z" transform="translate(-206.553 -107.373)" fill="#040304"/>
        <rect id="Rectangle_412090" data-name="Rectangle 412090" width="2.982" height="3.008" transform="translate(12.405 52.689)" fill="#f5f5f5"/>
        <rect id="Rectangle_412091" data-name="Rectangle 412091" width="2.982" height="3.008" transform="translate(12.405 28.828)" fill="#f5f5f5"/>
        <rect id="Rectangle_412092" data-name="Rectangle 412092" width="2.982" height="3.008" transform="translate(12.405 40.759)" fill="#f5f5f5"/>
        <rect id="Rectangle_412093" data-name="Rectangle 412093" width="3.008" height="3.008" transform="translate(25.815 40.759)" fill="#f6f6f6"/>
        <rect id="Rectangle_412094" data-name="Rectangle 412094" width="3.008" height="3.008" transform="translate(25.815 52.689)" fill="#f6f6f6"/>
        <rect id="Rectangle_412095" data-name="Rectangle 412095" width="3.008" height="3.008" transform="translate(25.815 28.828)" fill="#f6f6f6"/>
        <path id="Path_1261198" data-name="Path 1261198" d="M125.314,326.842l-5.988-.009a1.425,1.425,0,0,1-1.435-1.408l-.011-6.042a1.469,1.469,0,0,1,1.45-1.473l5.856-.026a1.543,1.543,0,0,1,1.634,1.542l.013,6a1.507,1.507,0,0,1-1.518,1.419m-1.463-5.96h-3.008v3.008h3.008Z" transform="translate(-95.029 -256.263)" fill="#060606"/>
        <rect id="Rectangle_412096" data-name="Rectangle 412096" width="3.008" height="3.008" transform="translate(25.815 64.62)" fill="#f6f6f6"/>
        <rect id="Rectangle_412097" data-name="Rectangle 412097" width="2.968" height="3.008" transform="translate(66.108 40.759)" fill="#f6f6f6"/>
        <rect id="Rectangle_412098" data-name="Rectangle 412098" width="2.968" height="3.008" transform="translate(66.108 28.828)" fill="#f6f6f6"/>
        <rect id="Rectangle_412099" data-name="Rectangle 412099" width="2.993" height="3.008" transform="translate(39.25 40.759)" fill="#f5f5f5"/>
        <rect id="Rectangle_412100" data-name="Rectangle 412100" width="2.993" height="3.008" transform="translate(39.25 52.689)" fill="#f5f5f5"/>
        <rect id="Rectangle_412101" data-name="Rectangle 412101" width="2.993" height="3.008" transform="translate(39.25 64.62)" fill="#f5f5f5"/>
        <rect id="Rectangle_412102" data-name="Rectangle 412102" width="2.993" height="3.008" transform="translate(39.25 28.828)" fill="#f5f5f5"/>
        <rect id="Rectangle_412103" data-name="Rectangle 412103" width="2.98" height="3.008" transform="translate(52.684 40.759)" fill="#f3f3f3"/>
        <rect id="Rectangle_412104" data-name="Rectangle 412104" width="2.98" height="3.008" transform="translate(52.684 28.828)" fill="#f3f3f3"/>
        <path id="Path_1261199" data-name="Path 1261199" d="M56.054,326.838l-5.769.008a1.494,1.494,0,0,1-1.618-1.478l0-5.948a1.524,1.524,0,0,1,1.621-1.547H55.94a1.613,1.613,0,0,1,1.683,1.715l-.028,5.831a1.471,1.471,0,0,1-1.54,1.42m-1.436-5.966H51.636v3.008h2.982Z" transform="translate(-39.23 -256.252)" fill="#060606"/>
        <rect id="Rectangle_412105" data-name="Rectangle 412105" width="2.982" height="3.008" transform="translate(12.405 64.62)" fill="#f5f5f5"/>
      </g>
    </g>
  </g>
</svg>
