<svg xmlns="http://www.w3.org/2000/svg" xmlns:xlink="http://www.w3.org/1999/xlink" width="189.297" height="134.901" viewBox="0 0 189.297 134.901">
  <defs>
    <filter id="influencer-their-pet-creating-content-online-spaces-social-media" x="0" y="49.919" width="189.297" height="84.982" filterUnits="userSpaceOnUse">
      <feOffset dy="3" input="SourceAlpha"/>
      <feGaussianBlur stdDeviation="3" result="blur"/>
      <feFlood flood-opacity="0.161"/>
      <feComposite operator="in" in2="blur"/>
      <feComposite in="SourceGraphic"/>
    </filter>
    <filter id="Rectangle_401593" x="36.897" y="18.6" width="70.322" height="116.301" filterUnits="userSpaceOnUse">
      <feOffset dy="3" input="SourceAlpha"/>
      <feGaussianBlur stdDeviation="3" result="blur-2"/>
      <feFlood flood-opacity="0.161"/>
      <feComposite operator="in" in2="blur-2"/>
      <feComposite in="SourceGraphic"/>
    </filter>
    <clipPath id="clip-path">
      <rect id="Rectangle_412018" data-name="Rectangle 412018" width="125.529" height="111.837" fill="none"/>
    </clipPath>
  </defs>
  <g id="Group_1213364" data-name="Group 1213364" transform="translate(9 24.599)">
    <g transform="matrix(1, 0, 0, 1, -9, -24.6)" filter="url(#influencer-their-pet-creating-content-online-spaces-social-media)">
      <path id="influencer-their-pet-creating-content-online-spaces-social-media-2" data-name="influencer-their-pet-creating-content-online-spaces-social-media" d="M0,0H171.3V66.982H0Z" transform="translate(9 55.92)" fill="#376b5f"/>
    </g>
    <g id="Group_1182090" data-name="Group 1182090" transform="translate(36.897 0)">
      <g transform="matrix(1, 0, 0, 1, -45.9, -24.6)" filter="url(#Rectangle_401593)">
        <rect id="Rectangle_401593-2" data-name="Rectangle 401593" width="52.322" height="98.301" rx="8" transform="translate(45.9 24.6)" fill="#fc0"/>
      </g>
    </g>
    <g id="Group_1213619" data-name="Group 1213619" transform="translate(45.768 -24.599)">
      <g id="Group_1213618" data-name="Group 1213618" clip-path="url(#clip-path)">
        <path id="Path_1260758" data-name="Path 1260758" d="M136.212,124.362A143.593,143.593,0,0,1,91.361,113.5l2.629.01a1.976,1.976,0,0,0,2.018-1.983l-.023-7.963c0-1.412-1.1-1.82-2.314-1.82l-23.925-.083-1.738-1.822,25.94-.036a2.012,2.012,0,0,0,2.056-1.959L96,89.824a1.864,1.864,0,0,0-1.809-1.846l-38.459-.1c-.834-1.832-2.957-4.235-3.7-6.289.22-.324.776-.521.988-1.041A57.058,57.058,0,0,1,89.136,47.37c1.622-.5,2.174-.9,2.592-2.59a52.7,52.7,0,0,1,12.736-23.267l3.572,18.663L157.8,70.828l-5.659,7.154L123.863,72.3a2.753,2.753,0,0,0-2.96.8A19.552,19.552,0,0,1,92.74,71.079a1.957,1.957,0,0,0-2.836-.26,1.922,1.922,0,0,0-.185,2.767,23.862,23.862,0,0,0,16.172,8.464c.78,19.4,12.89,35.144,30.321,42.313M111.745,54.625a1.951,1.951,0,1,0-1.951,1.951,1.951,1.951,0,0,0,1.951-1.951" transform="translate(-37.189 -15.376)" fill="#955353"/>
        <path id="Path_1260759" data-name="Path 1260759" d="M118.6,108.987c-17.431-7.168-29.542-22.909-30.321-42.313A23.862,23.862,0,0,1,72.1,58.21a1.922,1.922,0,0,1,.185-2.767,1.957,1.957,0,0,1,2.836.26,19.552,19.552,0,0,0,28.162,2.013,2.753,2.753,0,0,1,2.961-.8l28.274,5.687,5.659-7.154L90.42,24.8,86.848,6.137A52.693,52.693,0,0,0,74.111,29.4c-.418,1.695-.969,2.095-2.592,2.59A57.058,57.058,0,0,0,35.4,65.171c-.211.52-.768.717-.988,1.041a2.52,2.52,0,0,1-2.271-.7,2.03,2.03,0,0,1-.126-2.34c.31-.515.2-1.136.4-1.551,7.708-15.877,20.711-28.137,37.9-33.4a63,63,0,0,1,2.99-8.838,45.055,45.055,0,0,0-6.623,1.77c.239,1.238,1.471,3.158-.228,4.145a1.939,1.939,0,0,1-2.623-.471c-.483-.731-.514-1.6-1.034-2.252A55.456,55.456,0,0,0,55.749,25.9c.373,1.268,2.063,2.851.341,4.21a1.94,1.94,0,0,1-2.683-.28,17.335,17.335,0,0,0-1.276-1.875,53.014,53.014,0,0,0-6.254,4.436c-.192.8,2.667,2.383.82,4.276a2.08,2.08,0,0,1-3.1-.46c-.187-.269-.814-1.191-1.17-.9a36.472,36.472,0,0,0-5.235,5.238c-.452.556,3.128,2.045,1.593,3.985a2.039,2.039,0,0,1-3.015.339,6.733,6.733,0,0,0-1.4-1.016c-1.742,1.624-2.96,4.9-4.835,5.512a3.171,3.171,0,0,1-1.619-.816,1.934,1.934,0,0,1-.337-2.1,72.717,72.717,0,0,1,48.011-31.6A58.3,58.3,0,0,1,86.7.7,2.05,2.05,0,0,1,88.931.122a2.162,2.162,0,0,1,1.319,1.91l3.68,20.315,49.8,30.625c.68.419,1.111.741,1.26,1.25a2.186,2.186,0,0,1-.385,2.085l-7.953,9.953c-.528.66-1.521.555-2.3.352l-28.6-5.754A23.459,23.459,0,0,1,92.229,66.61,43,43,0,0,0,135.2,107.871a1.965,1.965,0,0,1,.187,3.924c-9.645.062-14.529-2.619-16.791-2.808" transform="translate(-19.572 0)" fill="#040404"/>
        <path id="Path_1260760" data-name="Path 1260760" d="M37.783,110.173c-1.5-1.77-3.074-9.856-2.884-12.26,1.875-.608,3.093-3.888,4.835-5.512a6.731,6.731,0,0,1,1.4,1.016,2.04,2.04,0,0,0,3.015-.339c1.535-1.94-2.046-3.429-1.593-3.985a36.506,36.506,0,0,1,5.235-5.238c.355-.29.983.631,1.17.9a2.08,2.08,0,0,0,3.1.46c1.848-1.893-1.012-3.476-.82-4.276A53.04,53.04,0,0,1,57.49,76.5a17.362,17.362,0,0,1,1.276,1.875,1.94,1.94,0,0,0,2.683.281c1.723-1.36.032-2.942-.341-4.21a55.356,55.356,0,0,1,7.059-3.322c.52.648.551,1.52,1.034,2.252a1.939,1.939,0,0,0,2.623.471c1.7-.987.468-2.906.228-4.145a45.075,45.075,0,0,1,6.623-1.77,62.974,62.974,0,0,0-2.99,8.838c-17.191,5.262-30.194,17.522-37.9,33.4" transform="translate(-24.932 -48.555)" fill="#636b76"/>
        <path id="Path_1260761" data-name="Path 1260761" d="M251.563,132.69a1.951,1.951,0,1,1-1.951-1.951,1.951,1.951,0,0,1,1.951,1.951" transform="translate(-177.006 -93.441)" fill="#070404"/>
        <path id="Path_1260762" data-name="Path 1260762" d="M18.55,254.136l38.459.1a1.864,1.864,0,0,1,1.809,1.846l.008,8.018a2.012,2.012,0,0,1-2.056,1.958l-25.941.036-28.791-.081a2.067,2.067,0,0,1-2.025-2.2l.032-7.712a1.916,1.916,0,0,1,2.02-1.875Zm.089,7.884-3.82-3.9-10.806.027A26.44,26.44,0,0,0,4,262.1Zm36.27.036a18.407,18.407,0,0,0-.12-3.944l-34.226.038,3.837,3.942Z" transform="translate(-0.009 -181.635)" fill="#040303"/>
        <path id="Path_1260763" data-name="Path 1260763" d="M106.392,272.018l-30.508.036-3.837-3.942,34.226-.038a18.407,18.407,0,0,1,.12,3.944" transform="translate(-51.493 -191.597)" fill="#e2e5e9"/>
        <path id="Path_1260764" data-name="Path 1260764" d="M28.459,272.007l-14.637.082a26.44,26.44,0,0,1,.011-3.953l10.806-.027Z" transform="translate(-9.83 -191.622)" fill="#5c9ae9"/>
        <path id="Path_1260765" data-name="Path 1260765" d="M56.854,362.521l-54.811-.009A2.048,2.048,0,0,1,0,360.544l.015-7.736a1.942,1.942,0,0,1,2.014-2.06h54.7a1.95,1.95,0,0,1,2.1,2.051l-.01,7.727a1.926,1.926,0,0,1-1.962,2M32.329,358.5l-3.668-3.858-24.675.015a21.955,21.955,0,0,0,.045,3.9Zm22.575.005a21.552,21.552,0,0,0-.088-3.866l-20.486.036a45.693,45.693,0,0,0,3.7,3.873Z" transform="translate(0 -250.684)" fill="#010102"/>
        <path id="Path_1260766" data-name="Path 1260766" d="M42.151,368.268l-28.3.062a21.929,21.929,0,0,1-.045-3.9l24.675-.015Z" transform="translate(-9.821 -260.449)" fill="#5a97e4"/>
        <path id="Path_1260767" data-name="Path 1260767" d="M140.91,368.266l-16.879.043a45.688,45.688,0,0,1-3.7-3.873l20.486-.036a21.552,21.552,0,0,1,.088,3.866" transform="translate(-86.006 -260.442)" fill="#dcdfe2"/>
        <path id="Path_1260768" data-name="Path 1260768" d="M32.636,302.446l23.925.083c1.213,0,2.31.408,2.314,1.82l.023,7.963a1.976,1.976,0,0,1-2.018,1.983l-2.629-.01-52.121-.024a1.965,1.965,0,0,1-2.02-1.955l.011-7.98a1.87,1.87,0,0,1,1.98-1.82Zm7.646,7.837L36.5,306.389l-32.4,0a20.318,20.318,0,0,0-.013,3.924Zm14.7-.025-.03-3.849-12.723.057,3.784,3.865Z" transform="translate(-0.078 -216.163)" fill="#010101"/>
        <path id="Path_1260769" data-name="Path 1260769" d="M50.025,320.162l-36.2.034a20.318,20.318,0,0,1,.013-3.924l32.4,0Z" transform="translate(-9.82 -226.042)" fill="#5b98e6"/>
        <path id="Path_1260770" data-name="Path 1260770" d="M160.521,320.183l-8.969.073-3.784-3.865,12.723-.057Z" transform="translate(-105.612 -226.089)" fill="#dbdde1"/>
      </g>
    </g>
  </g>
</svg>
