<svg id="Group_1213615" data-name="Group 1213615" xmlns="http://www.w3.org/2000/svg" xmlns:xlink="http://www.w3.org/1999/xlink" width="111.846" height="100.921" viewBox="0 0 111.846 100.921">
  <defs>
    <clipPath id="clip-path">
      <rect id="Rectangle_412008" data-name="Rectangle 412008" width="111.846" height="100.921" fill="none"/>
    </clipPath>
  </defs>
  <g id="Group_1213614" data-name="Group 1213614" clip-path="url(#clip-path)">
    <path id="Path_1260722" data-name="Path 1260722" d="M65.391,100.68a20.032,20.032,0,0,0,1.325,2.934,2.749,2.749,0,0,1-3.446-.824,33.82,33.82,0,0,0-4.733-5.133,5.62,5.62,0,0,0-8,.772,5.7,5.7,0,0,0,.756,7.947c1.847,1.623,5.405,5.675,3.973,8.3a33.394,33.394,0,0,0-2.218,4.908,3.3,3.3,0,0,1-3.517,2.335c-4.024-.592-9.315-1.223-11.407,2.919a17.322,17.322,0,0,1-4.024-1.979c-3.8-2.312-8.322.719-11.034,3.426a1.819,1.819,0,0,1-2.584.119c-2.024-1.968,2.323-4.561,4.187-5.933a5.611,5.611,0,0,0,1.761-6.527,28.577,28.577,0,0,1-1.3-4.062c-1-4.425-6.426-5.479-10.241-5.476a1.746,1.746,0,0,1-1.868-1.809c.13-3.61,6.409.192,6.928-2.732a4.72,4.72,0,0,0,3.989-1.541,4.99,4.99,0,0,0,1.959-.188,25.967,25.967,0,0,0,15.8,17.794,1.684,1.684,0,0,0,1.009,1.43,2.274,2.274,0,0,0,2.062-.383,14.554,14.554,0,0,0,5.92,1.006c.42-1.7,1.983-3.114,1.991-4.842-.062-1.65-1.7-3.353-2.93-4.43-3.568-3.114-4.339-8.045-1.475-11.808a8.328,8.328,0,0,1,11.448-1.75,28.728,28.728,0,0,1,5.038,5.118c.206.245.37.407.626.413" transform="translate(-9.714 -69.807)" fill="#f7c1a8"/>
    <path id="Path_1260723" data-name="Path 1260723" d="M97.566,40.558c-.256-.006-.42-.167-.626-.413A28.727,28.727,0,0,0,91.9,35.028a8.328,8.328,0,0,0-11.449,1.75c-2.864,3.763-2.094,8.694,1.475,11.808,1.234,1.077,2.868,2.78,2.93,4.43-.008,1.728-1.571,3.142-1.991,4.842a14.554,14.554,0,0,1-5.92-1.006c.1-.642.4-1.31.008-1.928a1.7,1.7,0,0,0-1.816-.745,1.615,1.615,0,0,0-1.263,1.627,25.967,25.967,0,0,1-15.8-17.794c.692-1.44,1.459-2.846,2.308-4.321,2.078-3.614-1.21-8.175-3.694-10.725a1.773,1.773,0,0,1-.1-2.4c1.82-2.063,4.5,1.935,5.553,3.548a5.723,5.723,0,0,0,6.923,2.357,21.9,21.9,0,0,1,3.782-1.259,5.97,5.97,0,0,0,4.473-3.635c2.269-5.133.163-8.567,3.089-8.587C83,12.97,82.052,17.6,81.663,19.515A5.848,5.848,0,0,0,85.1,26.09,19.949,19.949,0,0,1,88.3,27.683c4.048,2.789,8.62-.157,11.569-3.111a1.809,1.809,0,0,1,2.374-.278c2.606,1.833-2.263,4.822-3.817,5.952a5.72,5.72,0,0,0-1.751,7.16,12.529,12.529,0,0,1,.894,3.152m-24.5-6.974A1.626,1.626,0,1,0,71.44,35.21a1.626,1.626,0,0,0,1.626-1.626m-3.714,4.368a1.633,1.633,0,1,0-1.634,1.634,1.633,1.633,0,0,0,1.634-1.634m8.917,12.114a1.645,1.645,0,1,0-1.645,1.645,1.645,1.645,0,0,0,1.645-1.645m4.365,4.367a1.628,1.628,0,1,0-1.628,1.628,1.628,1.628,0,0,0,1.628-1.628" transform="translate(-41.889 -9.685)" fill="#fccdbb"/>
    <path id="Path_1260724" data-name="Path 1260724" d="M128.881,177.558a2.274,2.274,0,0,1-2.062.383,1.684,1.684,0,0,1-1.009-1.429,1.614,1.614,0,0,1,1.263-1.627,1.7,1.7,0,0,1,1.817.745c.394.619.092,1.285-.009,1.928" transform="translate(-93.823 -130.391)" fill="#0d0b0a"/>
    <path id="Path_1260725" data-name="Path 1260725" d="M133.437,154a1.645,1.645,0,1,1-1.645-1.645A1.645,1.645,0,0,1,133.437,154" transform="translate(-97.058 -113.623)" fill="#110e0d"/>
    <path id="Path_1260726" data-name="Path 1260726" d="M98.433,106.391a1.633,1.633,0,1,1-1.634-1.634,1.633,1.633,0,0,1,1.634,1.634" transform="translate(-70.97 -78.123)" fill="#0e0c0b"/>
    <path id="Path_1260727" data-name="Path 1260727" d="M113.087,89.232a1.626,1.626,0,1,1-1.626-1.625,1.626,1.626,0,0,1,1.626,1.625" transform="translate(-81.91 -65.333)" fill="#0b0909"/>
    <path id="Path_1260728" data-name="Path 1260728" d="M150.705,171.231a1.628,1.628,0,1,1-1.628-1.628,1.628,1.628,0,0,1,1.628,1.628" transform="translate(-109.961 -126.482)" fill="#0d0b0a"/>
    <path id="Path_1260729" data-name="Path 1260729" d="M207.772,94.74c1.126.94,2.562.936,3.869,1.2,1.583,3.14,7.4-2.351,8.734-3.891a2.42,2.42,0,0,1,3.334-.422,2.347,2.347,0,0,1,.39,3.338,24.353,24.353,0,0,1-4.38,4.055,6.526,6.526,0,0,0-1.9,8.335,18.878,18.878,0,0,1,1.482,3.836c1.375,5.513,7.543,6.2,12.4,6.057a2.439,2.439,0,0,1,2.5,2.017,2.3,2.3,0,0,1-2,2.663,25.509,25.509,0,0,1-6.074-.228,6.48,6.48,0,0,0-7.141,4.481c-1.11,3.387-3.023,5.247-2.79,7.947-5.717,2.2-12.1,3.469-18.057,2.082a2.086,2.086,0,0,0,1.091-1.693,1.67,1.67,0,0,0-1.35-1.511,1.6,1.6,0,0,0-1.787.914,2.016,2.016,0,0,0,.557,2.162,28.3,28.3,0,0,0-2.868-.459c-.051-.7-.885-1.552-2.5-1.233a2.161,2.161,0,0,1-1.291-.25,33.384,33.384,0,0,1-19.068-21.6c1.073-1.635,1.826-4.5,2.741-5.946a7.111,7.111,0,0,0,.429-7.191,19.269,19.269,0,0,0-4.635-6.022,2.469,2.469,0,0,1-.5-3.3,2.271,2.271,0,0,1,3.154-.649,22.219,22.219,0,0,1,4.1,4.328,6.448,6.448,0,0,0,7.906,2.368,40.142,40.142,0,0,1,4.969-1.895c5.1-1.473,5.75-7.986,5.581-12.41a2.336,2.336,0,0,1,2.1-2.354c3.639-.4,2.671,5.665,2.344,8.1a6.443,6.443,0,0,0,4.128,7.026l2.42.9a1.829,1.829,0,0,0,2.116-.764m-2,9.269a1.649,1.649,0,1,0-1.649,1.649,1.649,1.649,0,0,0,1.649-1.649m4.35,4.361A1.626,1.626,0,1,0,208.5,110a1.626,1.626,0,0,0,1.626-1.626m-5.475,1.307a1.621,1.621,0,1,0-1.621,1.621,1.621,1.621,0,0,0,1.621-1.621m-21.932,4.04a1.633,1.633,0,1,0-1.633,1.633,1.633,1.633,0,0,0,1.633-1.633m3.657,4.421a1.629,1.629,0,1,0-1.628,1.629,1.629,1.629,0,0,0,1.628-1.629m8.455,12.079a1.639,1.639,0,1,0-1.638,1.638,1.638,1.638,0,0,0,1.638-1.638" transform="translate(-125.677 -59.25)" fill="#fce5cc"/>
    <path id="Path_1260730" data-name="Path 1260730" d="M82.095,35.49a1.828,1.828,0,0,1-2.116.764l-2.42-.9a6.443,6.443,0,0,1-4.129-7.026c.327-2.439,1.3-8.505-2.343-8.1a2.336,2.336,0,0,0-2.1,2.354C69.155,27,68.5,33.509,63.4,34.983a40.092,40.092,0,0,0-4.969,1.895,6.449,6.449,0,0,1-7.906-2.368,22.205,22.205,0,0,0-4.1-4.328,2.271,2.271,0,0,0-3.154.649,2.469,2.469,0,0,0,.5,3.3,19.266,19.266,0,0,1,4.635,6.022,7.111,7.111,0,0,1-.429,7.191c-.916,1.448-1.668,4.311-2.741,5.946-4.678,3.907-6.244,1.129-11.895,1.82A2.381,2.381,0,0,0,31.2,57.7a2.41,2.41,0,0,0,2.6,2.143c4.36-.2,10.654.535,12.1,5.458a28.482,28.482,0,0,0,1.738,4.586,6.5,6.5,0,0,1-1.978,8.19,25.884,25.884,0,0,0-4.28,3.912,2.4,2.4,0,0,0,.3,3.446,2.46,2.46,0,0,0,3.32-.358c2.606-2.953,7.7-6.921,11.818-4.993a1.674,1.674,0,0,1,.884,1.027,1.508,1.508,0,0,1-.28,1.363c-1.1,1.685-2.195-.386-4.751.814A15.046,15.046,0,0,0,47.6,87.135,5.7,5.7,0,1,1,39.3,79.36a41.216,41.216,0,0,1,4.572-4.082,3.118,3.118,0,0,0,.9-3.72,41.518,41.518,0,0,1-2.089-5.52c-.811-2.722-6.246-3.043-8.621-2.915A5.762,5.762,0,0,1,27.934,58.4a22.616,22.616,0,0,1-4.877-2.325c-2.413-1.6-5.709,1.01-7.376,2.721a5.062,5.062,0,0,1-7.1.253,5,5,0,0,1-.386-6.989,23.106,23.106,0,0,1,4.4-3.717c2.4-1.6.575-3.622-.387-7.515-.6-2.432-4.849-2.957-6.889-2.925a5.078,5.078,0,0,1-5.3-4.626,5.024,5.024,0,0,1,4.3-5.386c1.341-.185,6.716-.466,5.928,2.166-.519,2.924-6.8-.877-6.928,2.732A1.746,1.746,0,0,0,5.18,34.6c3.814,0,9.24,1.051,10.241,5.476a28.628,28.628,0,0,0,1.3,4.061,5.611,5.611,0,0,1-1.761,6.527c-1.864,1.372-6.211,3.966-4.187,5.933a1.819,1.819,0,0,0,2.584-.119c2.712-2.707,7.233-5.738,11.034-3.426a17.326,17.326,0,0,0,4.024,1.979c2.092-4.142,7.383-3.511,11.407-2.919a3.3,3.3,0,0,0,3.516-2.335,33.421,33.421,0,0,1,2.218-4.908c1.432-2.625-2.126-6.677-3.973-8.3a5.7,5.7,0,0,1-.756-7.947,5.62,5.62,0,0,1,8-.772,33.834,33.834,0,0,1,4.733,5.133A2.749,2.749,0,0,0,57,33.806a20.032,20.032,0,0,1-1.325-2.934,12.517,12.517,0,0,0-.894-3.152,5.72,5.72,0,0,1,1.751-7.16c1.554-1.13,6.422-4.119,3.817-5.952a1.809,1.809,0,0,0-2.374.278c-2.95,2.954-7.521,5.9-11.569,3.111A19.949,19.949,0,0,0,43.214,16.4,5.848,5.848,0,0,1,39.773,9.83c.389-1.911,1.336-6.546-1.252-6.528-2.926.019-.82,3.453-3.089,8.587a5.97,5.97,0,0,1-4.473,3.635,21.89,21.89,0,0,0-3.782,1.259,5.723,5.723,0,0,1-6.923-2.357c-1.049-1.612-3.733-5.611-5.553-3.548a1.773,1.773,0,0,0,.1,2.4c2.485,2.55,5.772,7.111,3.694,10.725-.848,1.475-1.615,2.881-2.308,4.321a4.988,4.988,0,0,1-1.958.188,2.076,2.076,0,0,1-.52-2.562,27.722,27.722,0,0,1,1.587-2.94c1.632-2.36-1.144-5.693-2.834-7.4a5.127,5.127,0,0,1-.32-6.842,5.019,5.019,0,0,1,6.786-.831,21.065,21.065,0,0,1,4.2,4.844c1.644,2.312,3.7.2,7.28-.5,2.6-.508,3.029-4.931,3.027-7.078a5.036,5.036,0,0,1,10.056-.52c.369,4.589-1.876,7.4,1,8.669a26.34,26.34,0,0,1,3.883,2c2.4,1.57,5.719-1.246,7.407-2.887a5.044,5.044,0,0,1,7.149,7.118c-2.745,2.858-6.216,4.007-5.321,6.244a53.467,53.467,0,0,1,1.668,5.2,2.29,2.29,0,0,0,1.057,1.195c.474.3,3.36-.364,4.139-2a14.61,14.61,0,0,0,1.2-7.231,5.645,5.645,0,0,1,11.181-1.454,25.336,25.336,0,0,1-.154,7.293c-.539,4.962,6.291,2.779,5.4,6.666" transform="translate(0 0)" fill="#070606"/>
    <path id="Path_1260731" data-name="Path 1260731" d="M157.092,231.438a1.932,1.932,0,0,0-.7,2.1,1.646,1.646,0,0,0,2.06.933,1.758,1.758,0,0,0,1.135-1.8,28.3,28.3,0,0,1,2.867.459c.473.058,1.036.023,1.488.128,5.962,1.388,12.34.124,18.057-2.081.265,3.066,3.042,6.646,5.426,8.792a2.452,2.452,0,0,1,.521,3.328,2.3,2.3,0,0,1-3.2.6,22.779,22.779,0,0,1-4.192-4.465A6.473,6.473,0,0,0,172.4,237.4c-4.151,2.044-7.323,1.523-8.993,5.935-2.381,6.3.322,10.04-3.136,10.531a2.347,2.347,0,0,1-2.692-2.105c-.528-5.168,1.749-8.232-1.764-11.7a2.007,2.007,0,0,0-1.8-.471c-.446.093-.785.576-1.19.986-.094-.576-.673-.624-1.252-.821-.95-.323-1.728-.981-2.651-.986a1.507,1.507,0,0,0,.28-1.363,1.675,1.675,0,0,0-.884-1.027c-4.121-1.928-9.212,2.04-11.818,4.993a2.46,2.46,0,0,1-3.32.358,2.4,2.4,0,0,1-.3-3.447,25.894,25.894,0,0,1,4.28-3.912,6.5,6.5,0,0,0,1.978-8.19,28.482,28.482,0,0,1-1.737-4.586c-1.45-4.923-7.744-5.657-12.1-5.458A2.41,2.41,0,0,1,122.7,214a2.381,2.381,0,0,1,2.141-2.587c5.65-.691,7.217,2.086,11.895-1.82a33.384,33.384,0,0,0,19.068,21.6,2.162,2.162,0,0,0,1.291.25" transform="translate(-91.493 -156.302)" fill="#fbcdba"/>
    <path id="Path_1260732" data-name="Path 1260732" d="M241.236,168.169c.4-.41.743-.893,1.19-.985a2.006,2.006,0,0,1,1.8.471c3.513,3.464,1.236,6.528,1.764,11.7a2.348,2.348,0,0,0,2.692,2.105c3.458-.492.754-4.236,3.136-10.532,1.669-4.412,4.842-3.891,8.992-5.935a6.473,6.473,0,0,1,8.154,2.032,22.763,22.763,0,0,0,4.192,4.465,2.3,2.3,0,0,0,3.2-.6,2.451,2.451,0,0,0-.521-3.328c-2.384-2.146-5.161-5.726-5.426-8.792-.233-2.7,1.681-4.56,2.79-7.947a6.481,6.481,0,0,1,7.141-4.481,25.512,25.512,0,0,0,6.075.228,2.3,2.3,0,0,0,2-2.663,2.438,2.438,0,0,0-2.5-2.017c-4.853.144-11.021-.544-12.4-6.057a18.87,18.87,0,0,0-1.481-3.835,6.527,6.527,0,0,1,1.9-8.335,24.336,24.336,0,0,0,4.38-4.055,2.347,2.347,0,0,0-.389-3.338,2.421,2.421,0,0,0-3.334.422c-1.336,1.539-7.151,7.03-8.734,3.891-.152-2.949,2.283-1.514,6.153-5.969a5.7,5.7,0,1,1,8.422,7.665,42.254,42.254,0,0,1-4.684,4.178,3.176,3.176,0,0,0-.772,4.017,41.979,41.979,0,0,1,2.033,5.352c.946,2.735,6.526,2.817,8.861,2.776a5.686,5.686,0,0,1,5.859,5.294,5.6,5.6,0,0,1-5.046,5.974c-5.616.567-8.992-1.812-10.335,1.941a30.322,30.322,0,0,1-2.211,4.894c-1.553,2.719,2,6.718,3.909,8.418a5.707,5.707,0,1,1-7.942,8.153,32.261,32.261,0,0,1-3.7-4.16,3.362,3.362,0,0,0-4.44-1.054c-4.05,2.072-6.011,1.294-7.066,3.995a14.714,14.714,0,0,0-.944,6.49,5.73,5.73,0,0,1-4.755,6.191,5.643,5.643,0,0,1-6.378-4.428c-1.069-5.641,1.659-7.962-1.313-10.713-.322-.3-.225-1.059-.285-1.424" transform="translate(-179.902 -83.891)" fill="#070706"/>
    <path id="Path_1260733" data-name="Path 1260733" d="M305.351,171.208a1.649,1.649,0,1,1-1.649-1.649,1.649,1.649,0,0,1,1.649,1.649" transform="translate(-225.256 -126.449)" fill="#12110f"/>
    <path id="Path_1260734" data-name="Path 1260734" d="M262.362,274.321a1.639,1.639,0,1,1-1.638-1.638,1.638,1.638,0,0,1,1.638,1.638" transform="translate(-193.213 -203.354)" fill="#0f0d0c"/>
    <path id="Path_1260735" data-name="Path 1260735" d="M322.591,188.425a1.627,1.627,0,1,1-1.626-1.626,1.626,1.626,0,0,1,1.626,1.626" transform="translate(-238.147 -139.306)" fill="#0e0d0b"/>
    <path id="Path_1260736" data-name="Path 1260736" d="M214.756,209.437a1.633,1.633,0,1,1-1.633-1.633,1.633,1.633,0,0,1,1.633,1.633" transform="translate(-157.719 -154.97)" fill="#0c0b0a"/>
    <path id="Path_1260737" data-name="Path 1260737" d="M229.165,226.839a1.629,1.629,0,1,1-1.629-1.629,1.629,1.629,0,0,1,1.629,1.629" transform="translate(-168.47 -167.951)" fill="#0e0d0b"/>
    <path id="Path_1260738" data-name="Path 1260738" d="M278.576,293.182c-.452-.105-1.015-.07-1.488-.128a2.016,2.016,0,0,1-.557-2.161,1.6,1.6,0,0,1,1.787-.914,1.67,1.67,0,0,1,1.35,1.512,2.086,2.086,0,0,1-1.092,1.692" transform="translate(-206.124 -216.226)" fill="#0b0a09"/>
    <path id="Path_1260739" data-name="Path 1260739" d="M301.089,193.582a1.621,1.621,0,1,1-1.621-1.621,1.621,1.621,0,0,1,1.621,1.621" transform="translate(-222.119 -143.155)" fill="#0b0a09"/>
    <path id="Path_1260740" data-name="Path 1260740" d="M258.17,296.552a1.758,1.758,0,0,1-1.135,1.8,1.646,1.646,0,0,1-2.06-.933,1.932,1.932,0,0,1,.7-2.1c1.614-.32,2.448.534,2.5,1.233" transform="translate(-190.073 -220.183)" fill="#0b0909"/>
  </g>
</svg>
