<svg xmlns="http://www.w3.org/2000/svg" xmlns:xlink="http://www.w3.org/1999/xlink" width="58.535" height="82.296" viewBox="0 0 58.535 82.296">
  <defs>
    <filter id="Rectangle_410591" x="0" y="0" width="53.687" height="82.296" filterUnits="userSpaceOnUse">
      <feOffset dy="3" input="SourceAlpha"/>
      <feGaussianBlur stdDeviation="3" result="blur"/>
      <feFlood flood-opacity="0.161"/>
      <feComposite operator="in" in2="blur"/>
      <feComposite in="SourceGraphic"/>
    </filter>
  </defs>
  <g id="Group_1213503" data-name="Group 1213503" transform="translate(9 6)">
    <g transform="matrix(1, 0, 0, 1, -9, -6)" filter="url(#Rectangle_410591)">
      <path id="Rectangle_410591-2" data-name="Rectangle 410591" d="M10,0H25.687a10,10,0,0,1,10,10V64.3a0,0,0,0,1,0,0H0a0,0,0,0,1,0,0V10A10,10,0,0,1,10,0Z" transform="translate(9 6)" fill="#695640"/>
    </g>
    <g id="horse_5705631" transform="translate(3.876 6.505)">
      <g id="Group_1201408" data-name="Group 1201408" transform="translate(0.856 0.857)">
        <path id="Path_1247377" data-name="Path 1247377" d="M78.416,69.757s-5.772,7.629-7.173,14.775A27.256,27.256,0,0,1,67.292,94.4a.772.772,0,0,0,.643,1.2h2.1s-4.379,10.874-6.324,14.648a.773.773,0,0,0,.686,1.128h3.218s-3.315,6.732-4.125,8.007H78.416V69.757Z" transform="translate(-63.489 -62.652)" fill="#fccd7f"/>
        <path id="Path_1247378" data-name="Path 1247378" d="M78.421,69.755v49.622H63.494c.809-1.275,4.124-8.007,4.124-8.007H64.4a.773.773,0,0,1-.686-1.128c1.945-3.774,6.324-14.648,6.324-14.648h-2.1a.772.772,0,0,1-.643-1.2,27.251,27.251,0,0,0,3.951-9.863,26.312,26.312,0,0,1,1.569-4.986,50.851,50.851,0,0,1,5.6-9.79Z" transform="translate(-63.493 -62.65)" fill="#fccd7f"/>
        <path id="Path_1247379" data-name="Path 1247379" d="M125.063,69.755v49.622h-8.918s4.582-18.486,4.574-30.657c-1.15-1.4-2.087-2.841-1.953-4.379.09-1.035.361-2.821.692-4.8A50.851,50.851,0,0,1,125.063,69.755Z" transform="translate(-110.135 -62.65)" fill="#f4b869"/>
        <path id="Path_1247380" data-name="Path 1247380" d="M183.706,264.918h-34.12s1.06-4.274,2.158-10.064c1.2-6.324,2.447-14.454,2.415-20.806h24.974C179.071,246.214,183.706,264.918,183.706,264.918Z" transform="translate(-139.759 -208.191)" fill="#d86f56"/>
        <path id="Path_1247381" data-name="Path 1247381" d="M181.8,234.048v25.88h-5.691a8.7,8.7,0,0,1-6.531-2.953,4.822,4.822,0,0,1-1.081-2.121c1.2-6.324,2.447-14.454,2.415-20.806Z" transform="translate(-156.509 -208.191)" fill="#d1654b"/>
        <path id="Path_1247382" data-name="Path 1247382" d="M346.916,234.045h-7.929c-.062,12.166,4.573,30.87,4.573,30.87h7.929S346.854,246.211,346.916,234.045Z" transform="translate(-307.542 -208.189)" fill="#d1654b"/>
        <path id="Path_1247383" data-name="Path 1247383" d="M187.841,33.306c-.292-3.355-2.48-14.585-2.48-14.585a7.394,7.394,0,0,0,4.23-6.368s-6.02-1.168-8.261,2.041H165.473c-2.24-3.209-8.261-2.041-8.261-2.041a7.394,7.394,0,0,0,4.23,6.368s-2.188,11.231-2.48,14.585,4.505,6.272,5.526,9.189c.75,2.143-.722,9.809-1.557,13.728a4.807,4.807,0,0,0,1.094,4.177,8.7,8.7,0,0,0,6.531,2.953h5.691a8.7,8.7,0,0,0,6.531-2.953,4.807,4.807,0,0,0,1.094-4.177c-.834-3.919-2.307-11.585-1.557-13.728C183.336,39.578,188.133,36.661,187.841,33.306Z" transform="translate(-146.515 -11.616)" fill="#dd7f66"/>
        <g id="Group_1201406" data-name="Group 1201406" transform="translate(26.076 0.529)">
          <path id="Path_1247384" data-name="Path 1247384" d="M307.2,33.309c-.292-3.355-2.48-14.585-2.48-14.585a7.394,7.394,0,0,0,4.23-6.368,14.322,14.322,0,0,0-4.231-.087c.361.046.574.087.574.087a7.394,7.394,0,0,1-4.23,6.368s2.188,11.231,2.48,14.585-4.505,6.272-5.526,9.189c-.75,2.143.722,9.809,1.557,13.728a4.807,4.807,0,0,1-1.094,4.177,8.7,8.7,0,0,1-6.53,2.953H295.6a8.7,8.7,0,0,0,6.531-2.953,4.807,4.807,0,0,0,1.094-4.177c-.834-3.919-2.307-11.585-1.557-13.728C302.691,39.58,307.488,36.663,307.2,33.309Z" transform="translate(-291.945 -12.148)" fill="#d86f56"/>
        </g>
        <path id="Path_1247385" data-name="Path 1247385" d="M229.589,10.286s5.02,6.74,9.659,8.028a1.148,1.148,0,0,0,1.452-1.109V15.152l4.457,2.984a.741.741,0,0,0,1.148-.7l-.857-7.146c-1.9-2.4-9.3-4.816-15.857,0Z" transform="translate(-210.631 -7.509)" fill="#fccd7f"/>
        <g id="Group_1201407" data-name="Group 1201407" transform="translate(25.408 0)">
          <path id="Path_1247386" data-name="Path 1247386" d="M296.365,17.437l-.857-7.146c-1.281-1.617-5.066-3.244-9.407-2.652a9.266,9.266,0,0,1,5.75,2.652l.73,6.084,2.637,1.766A.741.741,0,0,0,296.365,17.437Z" transform="translate(-286.1 -7.514)" fill="#f4b869"/>
        </g>
      </g>
      <g id="Group_1201409" data-name="Group 1201409" transform="translate(0 0)">
        <path id="Path_1247387" data-name="Path 1247387" d="M144.558,440.394a.855.855,0,0,0-1.012.665c-.789,3.813-1.43,6.406-1.436,6.431a.856.856,0,1,0,1.662.412c.007-.026.654-2.648,1.451-6.5a.856.856,0,0,0-.665-1.012Z" transform="translate(-132.259 -390.112)"/>
        <path id="Path_1247388" data-name="Path 1247388" d="M101.625,57.377c-.045-.182-4.479-18.217-4.548-30.146,1.176-1.462,2.1-3.005,1.949-4.759-.179-2.059-1.044-6.954-1.739-10.7a.856.856,0,1,0-1.683.312c.687,3.707,1.543,8.543,1.716,10.534.141,1.621-1.345,3.312-2.781,4.947a12.969,12.969,0,0,0-2.7,3.885c-.768,2.194.407,8.927,1.528,14.189a3.968,3.968,0,0,1-.9,3.433,7.844,7.844,0,0,1-5.888,2.662H80.889A7.844,7.844,0,0,1,75,49.074a3.969,3.969,0,0,1-.9-3.433c1.12-5.262,2.3-12,1.528-14.189a12.969,12.969,0,0,0-2.7-3.885c-.344-.392-.691-.787-1.018-1.184l0-.005c-1.035-1.256-1.865-2.527-1.759-3.758.284-3.271,2.445-14.384,2.467-14.5a.881.881,0,0,0-.5-.95,6.535,6.535,0,0,1-3.645-4.847c1.576-.171,5.172-.3,6.637,1.8l.008.01.007.011c.212.285,5.25,6.991,10.117,8.342a2.011,2.011,0,0,0,.539.074,2.008,2.008,0,0,0,2-2.008V10.1L90.9,12.194a1.6,1.6,0,0,0,2.474-1.517l-.815-6.8C94.121,2.036,97.492,2.162,99,2.327a6.535,6.535,0,0,1-3.645,4.847.856.856,0,0,0,.673,1.574,8.2,8.2,0,0,0,4.75-7.129.856.856,0,0,0-.692-.867C99.841.7,94.449-.3,91.624,2.375a11.52,11.52,0,0,0-6.052-2.3,14.491,14.491,0,0,0-9.614,2.408C73.166-.329,67.633.7,67.382.752a.856.856,0,0,0-.692.867,8.044,8.044,0,0,0,3.826,6.622c-1.524,2.166-5.58,8.348-6.753,14.329a26.471,26.471,0,0,1-3.822,9.551,1.628,1.628,0,0,0,1.354,2.534h.829c-1.187,2.912-4.285,10.434-5.814,13.4a1.629,1.629,0,0,0,1.447,2.376h1.839c-1.213,2.441-2.945,5.868-3.468,6.691a.856.856,0,1,0,1.445.918c.706-1.11,3.155-6.034,3.934-7.61h2.147a.856.856,0,1,0,0-1.712h-5.76c1.737-3.412,5.175-11.834,6.079-14.064h2.077a.856.856,0,1,0,0-1.712h-4.6A28.333,28.333,0,0,0,65.442,22.9a36.057,36.057,0,0,1,4.709-10.964c-.662,3.574-1.528,8.47-1.708,10.536-.152,1.754.773,3.3,1.948,4.758a121.66,121.66,0,0,1-2.329,19.756.856.856,0,1,0,1.683.316,134.189,134.189,0,0,0,2.313-18.131,9.962,9.962,0,0,1,1.956,2.846c.181.516.6,3-1.586,13.267a5.688,5.688,0,0,0,1.289,4.92,9.557,9.557,0,0,0,7.173,3.243h5.691A9.556,9.556,0,0,0,93.754,50.2a5.688,5.688,0,0,0,1.289-4.92c-2.187-10.268-1.767-12.75-1.586-13.267a9.958,9.958,0,0,1,1.955-2.845c.478,12.045,4.509,28.441,4.553,28.616a.856.856,0,0,0,1.662-.411ZM85.395,1.779a9.167,9.167,0,0,1,5.45,2.214l.8,6.639L84.769,5.969a.856.856,0,1,0-.975,1.407l2.267,1.57v1.6a.291.291,0,0,1-.117.235.281.281,0,0,1-.249.049c-3.45-.958-7.256-5.3-8.651-7.017a12.791,12.791,0,0,1,8.351-2.04Z" transform="translate(-55.992 0.002)"/>
      </g>
    </g>
  </g>
</svg>
