<svg id="Group_1213617" data-name="Group 1213617" xmlns="http://www.w3.org/2000/svg" xmlns:xlink="http://www.w3.org/1999/xlink" width="99.303" height="99.243" viewBox="0 0 99.303 99.243">
  <defs>
    <clipPath id="clip-path">
      <rect id="Rectangle_412017" data-name="Rectangle 412017" width="99.303" height="99.243" fill="none"/>
    </clipPath>
  </defs>
  <g id="Group_1213616" data-name="Group 1213616" clip-path="url(#clip-path)">
    <path id="Path_1260741" data-name="Path 1260741" d="M.114,97.527a.913.913,0,0,0,0-1.15A3.269,3.269,0,0,0,.175,96a25.993,25.993,0,0,0,3.141,0l0-6.327L.276,89.646c-.067-.632.186-1.233-.161-1.6A5.531,5.531,0,0,1,.29,86.493c1.075-.169,2.049.161,3.059-.173l0-65.046L.077,14.657,3.659.193A12.23,12.23,0,0,1,6.442,0H92.323a16.854,16.854,0,0,1,3.456.178l3.583,14.475-3.278,6.665-.013,77.89-95.829.03ZM16.8,19.243l2.534-5.226-.024-10.7-13.1.023L3.449,14.263l2.5,5.008Zm19.193,0,2.5-5.073,0-10.841L22.569,3.32l0,10.851,2.557,5.1Zm19.2,0,2.493-5.068,0-10.855H41.757l0,10.847,2.549,5.1Zm19.182,0,2.5-5.071.005-10.848H60.944V14.172l2.555,5.1Zm19.187,0,2.436-4.986L93.2,3.312,80.13,3.326,80.1,14.019l2.591,5.251ZM59.038,31.369l-2.154,3.77a27.1,27.1,0,0,1,3.262,2.673l3.028-2.149a19.344,19.344,0,0,1,1.8,2.485l-2.717,2.225a20.451,20.451,0,0,0,1.487,2.463L74.864,27.431a4.728,4.728,0,0,1,6.642-.68,4.777,4.777,0,0,1,.846,6.6L68.445,52.842c-.251.54.315,1.347.628,1.643l3.644-2.829a18.892,18.892,0,0,1,1.923,2.5l-4.252,3.462,4.7,10.415a1.762,1.762,0,0,1-.213,1.9c-1.178,1.33-3.842-.523-5.472-.068L76.7,80.875a1.613,1.613,0,0,1-.384,2.016c-1.33,1.164-3-.9-4.533-1.016l1.5,4.572L86.5,86.413V22.562l-5.768-.09-2.248-4.266L76.2,22.534l-14.642-.024L59.3,18.193l-2.281,4.341-14.652-.021-2.211-4.323-2.269,4.325-14.7,0-2.26-4.31-2.209,4.271c-1.875.142-3.635.04-5.763.054l-.013,63.9,6.792.029a42.308,42.308,0,0,0,1.512-4.6c-1.82.344-3.493,2.44-4.768.77a1.669,1.669,0,0,1,.045-2.025L23.7,69.76c-2.229-.122-4.535,1.548-5.674,0a1.681,1.681,0,0,1-.06-1.751l4.7-10.369-4.254-3.575,1.934-2.4,3.758,2.823,2.669-5.873-2.863-.674a26.1,26.1,0,0,1,.525-2.993l3.8.469a40.21,40.21,0,0,1,2.585-5.091L28,38.166a20.753,20.753,0,0,1,1.922-2.515L32.961,37.8a21.927,21.927,0,0,1,3.22-2.661L34.062,31.25a15.928,15.928,0,0,1,2.669-1.488L39.1,33.575a20.19,20.19,0,0,1,5.8-1.417l.081-6.4a24.607,24.607,0,0,1,3.082-.007l.1,6.422a20.515,20.515,0,0,1,5.809,1.4l2.349-3.848a13.4,13.4,0,0,1,2.714,1.645M9.753,22.5H6.571V86.456H9.753ZM89.69,96.034h3.18V22.5H89.69ZM66.849,49.561l12.912-18.1A1.591,1.591,0,1,0,77.2,29.567L65.267,46.261a13,13,0,0,0,1.582,3.3m2.992,36.865L67.4,78.984a1.652,1.652,0,0,1,.726-1.937c.632-.409,1.28-.032,2.233.149l-6.026-9.138a1.67,1.67,0,0,1,.184-1.883c1.105-1.338,4.625.591,6.36.331L60.751,44.3a15.629,15.629,0,0,0-14.507-9.013,15.9,15.9,0,0,0-14.178,9.432L22.152,66.609c2.114-.046,5.5-1.817,6.481-.264a1.686,1.686,0,0,1,.032,1.788l-6.031,9.112c1.071-.248,1.639-.637,2.324-.177a1.642,1.642,0,0,1,.7,1.88l-2.452,7.5Zm-56.9,3.225H6.571v6.383h6.367Zm9.615-.025H16.145v6.408h6.408Zm9.574.025H25.761v6.383h6.365Zm9.619,6.3-.051-6.315-6.387.045.055,6.345Zm9.6-6.3h-6.39v6.383h6.39Zm9.59,6.308-.054-6.3-6.381.025.056,6.342Zm9.586-6.309H64.14v6.385h6.378Zm9.6,6.308-.052-6.3-6.376.024.055,6.344ZM86.5,89.651H83.3v6.383h3.2Z" transform="translate(-0.06 0)" fill="#050505"/>
    <path id="Path_1260742" data-name="Path 1260742" d="M113.136,30.627l-10.866.026-2.557-5.1,0-10.851,15.931.009,0,10.841Z" transform="translate(-77.202 -11.384)" fill="#cbd0d8"/>
    <path id="Path_1260743" data-name="Path 1260743" d="M198.143,30.632l-10.88.027-2.55-5.1,0-10.847h15.929l0,10.855Z" transform="translate(-143.013 -11.388)" fill="#cbd0d8"/>
    <path id="Path_1260744" data-name="Path 1260744" d="M283.132,30.628l-10.872.032-2.555-5.1V14.709h15.93l-.005,10.848Z" transform="translate(-208.82 -11.388)" fill="#cbd0d8"/>
    <rect id="Rectangle_412009" data-name="Rectangle 412009" width="3.18" height="73.534" transform="translate(89.63 22.499)" fill="#949da8"/>
    <path id="Path_1260745" data-name="Path 1260745" d="M28.368,30.625l-10.856.028-2.5-5.008,2.758-10.921,13.1-.023L30.9,25.4Z" transform="translate(-11.626 -11.383)" fill="#cbd0d7"/>
    <path id="Path_1260746" data-name="Path 1260746" d="M368.026,30.6l-10.866.029-2.591-5.251.028-10.693,13.066-.014,2.8,10.944Z" transform="translate(-274.527 -11.357)" fill="#cbd0d7"/>
    <rect id="Rectangle_412010" data-name="Rectangle 412010" width="3.182" height="63.957" transform="translate(6.512 22.499)" fill="#949da8"/>
    <path id="Path_1260747" data-name="Path 1260747" d="M.3,397.97l-.06-7.95c.348.368.095.968.161,1.6l3.044.026,0,6.327a25.934,25.934,0,0,1-3.141,0" transform="translate(-0.189 -301.975)" fill="#9b8b7a"/>
    <path id="Path_1260748" data-name="Path 1260748" d="M.054,428.076a3.015,3.015,0,0,1,0-1.15.913.913,0,0,1,0,1.15" transform="translate(0 -330.55)" fill="#9b8b7a"/>
    <rect id="Rectangle_412011" data-name="Rectangle 412011" width="6.408" height="6.408" transform="translate(16.085 89.625)" fill="#cd9b69"/>
    <path id="Path_1260749" data-name="Path 1260749" d="M162.576,403.385l-6.384.074-.055-6.345,6.387-.045Z" transform="translate(-120.89 -307.433)" fill="#cc9b69"/>
    <path id="Path_1260750" data-name="Path 1260750" d="M247.58,403.47l-6.379.069-.056-6.342,6.382-.025Z" transform="translate(-186.707 -307.513)" fill="#cc9b69"/>
    <path id="Path_1260751" data-name="Path 1260751" d="M332.579,403.473l-6.373.072-.055-6.344,6.376-.024Z" transform="translate(-252.524 -307.517)" fill="#cc9b69"/>
    <rect id="Rectangle_412012" data-name="Rectangle 412012" width="6.367" height="6.383" transform="translate(6.512 89.65)" fill="#d09e6b"/>
    <rect id="Rectangle_412013" data-name="Rectangle 412013" width="6.365" height="6.383" transform="translate(25.702 89.65)" fill="#d09e6b"/>
    <rect id="Rectangle_412014" data-name="Rectangle 412014" width="6.39" height="6.383" transform="translate(44.892 89.65)" fill="#d09e6b"/>
    <rect id="Rectangle_412015" data-name="Rectangle 412015" width="6.378" height="6.385" transform="translate(64.08 89.649)" fill="#d19f6b"/>
    <rect id="Rectangle_412016" data-name="Rectangle 412016" width="3.205" height="6.383" transform="translate(83.238 89.65)" fill="#cd9b69"/>
    <path id="Path_1260752" data-name="Path 1260752" d="M145.554,207.44l-46.63.028,2.452-7.5a1.641,1.641,0,0,0-.7-1.88c-.685-.461-1.253-.072-2.324.177l6.031-9.112a1.686,1.686,0,0,0-.032-1.788c-.979-1.552-4.367.219-6.481.264l9.914-21.891a15.9,15.9,0,0,1,14.178-9.432,15.629,15.629,0,0,1,14.507,9.012l10.128,22.208c-1.735.26-5.255-1.669-6.36-.331a1.67,1.67,0,0,0-.184,1.883l6.025,9.138c-.953-.181-1.6-.558-2.233-.149a1.652,1.652,0,0,0-.726,1.937Zm-24.37-38.426,8.539-2.157-6.19-8.276a15.078,15.078,0,0,0-2.5,1.913l3.181,4.351-3.933,1.175c.361,1.063.275,2.078.905,2.995m-5.883,9.725c-.833.29-1.24.583-1.856.522l.65-3.426a17.784,17.784,0,0,0-3.034-.65l-2.2,9.06,7.439-2.407a24.369,24.369,0,0,0-1-3.1m19.151,3.246a5.67,5.67,0,0,1-1.839.469l.712-3.371a13.377,13.377,0,0,0-3.078-.714l-2.183,9.086L135.484,185a16.18,16.18,0,0,0-1.032-3.015M122.44,197.059a15.938,15.938,0,0,1-1.619,2.278l-1.927-3.7a10.28,10.28,0,0,0-2.845,1.439l4.4,8.725,4.668-7.026a12.4,12.4,0,0,0-2.679-1.717" transform="translate(-75.772 -121.014)" fill="#cd9c75"/>
    <path id="Path_1260753" data-name="Path 1260753" d="M290.436,148.7a13.008,13.008,0,0,1-1.582-3.3L300.791,128.7a1.591,1.591,0,1,1,2.557,1.892Z" transform="translate(-223.647 -99.136)" fill="#a5acb7"/>
    <path id="Path_1260754" data-name="Path 1260754" d="M198.055,176.84c-.631-.917-.544-1.933-.905-2.995l3.933-1.175-3.181-4.351a15.086,15.086,0,0,1,2.5-1.913l6.19,8.276Z" transform="translate(-152.644 -128.841)" fill="#060503"/>
    <path id="Path_1260755" data-name="Path 1260755" d="M184.812,331.985a12.4,12.4,0,0,1,2.679,1.717l-4.668,7.026-4.4-8.725a10.281,10.281,0,0,1,2.845-1.439l1.927,3.7a15.937,15.937,0,0,0,1.619-2.278" transform="translate(-138.144 -255.941)" fill="#060503"/>
    <path id="Path_1260756" data-name="Path 1260756" d="M238.024,257.681a16.183,16.183,0,0,1,1.032,3.015l-7.421,2.454,2.183-9.085a13.379,13.379,0,0,1,3.077.714l-.711,3.371a5.668,5.668,0,0,0,1.839-.468" transform="translate(-179.345 -196.71)" fill="#060503"/>
    <path id="Path_1260757" data-name="Path 1260757" d="M153.031,243.515a24.333,24.333,0,0,1,1,3.1l-7.438,2.407,2.2-9.06a17.856,17.856,0,0,1,3.033.65l-.65,3.427c.616.061,1.023-.233,1.856-.523" transform="translate(-113.503 -185.791)" fill="#070504"/>
  </g>
</svg>
