<svg xmlns="http://www.w3.org/2000/svg" xmlns:xlink="http://www.w3.org/1999/xlink" width="129.063" height="93.203" viewBox="0 0 129.063 93.203">
  <defs>
    <clipPath id="clip-path">
      <rect id="Rectangle_412142" data-name="Rectangle 412142" width="93.239" height="93.203" fill="none"/>
    </clipPath>
  </defs>
  <g id="Group_1201398" data-name="Group 1201398" transform="translate(-787.781 -2558.763)">
    <g id="Group_1201005" data-name="Group 1201005" transform="translate(0 26)">
      <g id="Rectangle_410589" data-name="Rectangle 410589" transform="translate(787.781 2575.623)" fill="#70d9c1" stroke="#4d9686" stroke-width="1">
        <rect width="129.063" height="43.021" rx="8" stroke="none"/>
        <rect x="0.5" y="0.5" width="128.063" height="42.021" rx="7.5" fill="none"/>
      </g>
    </g>
    <g id="Group_1213712" data-name="Group 1213712" transform="translate(802.693 2558.763)">
      <g id="Group_1213711" data-name="Group 1213711" clip-path="url(#clip-path)">
        <path id="Path_1261292" data-name="Path 1261292" d="M279.643,14.128a1.423,1.423,0,0,1-2.037-.013c-1.681-1.828,2.787-3.5-.105-5.947-2.384-2.015-1.807-5.781.121-7.752A1.474,1.474,0,0,1,279.75.5a1.561,1.561,0,0,1-.16,2.122c-.747.893-1.141,2.355-.231,3.252a5.513,5.513,0,0,1,2.011,3.662,6.335,6.335,0,0,1-1.727,4.594" transform="translate(-217.473 0)" fill="#080808"/>
        <path id="Path_1261293" data-name="Path 1261293" d="M327.739,27.9a1.4,1.4,0,0,1-2.079-.164,1.682,1.682,0,0,1,.248-2.19,2.376,2.376,0,0,0,.045-3.289,5.511,5.511,0,0,1-.006-8.249,1.46,1.46,0,0,1,2.042.329,1.644,1.644,0,0,1-.277,2.049,2.434,2.434,0,0,0-.1,3.347,5.2,5.2,0,0,1,1.911,3.79,6.31,6.31,0,0,1-1.783,4.376" transform="translate(-255.422 -10.814)" fill="#070707"/>
        <path id="Path_1261294" data-name="Path 1261294" d="M231.841,34.355a1.569,1.569,0,0,1-2.355.39c-1.861-1.637,2.727-3.555-.109-5.928-2.305-1.929-1.979-5.236-.146-7.579a1.506,1.506,0,0,1,2.215-.293,1.576,1.576,0,0,1-.04,2.292,2.422,2.422,0,0,0-.176,3.289c2.488,2.379,2.6,4.883.611,7.829" transform="translate(-179.499 -16.221)" fill="#070707"/>
        <path id="Path_1261296" data-name="Path 1261296" d="M119.8,175.265,109.4,194.9a6.539,6.539,0,0,1-7.536,3.412,6.618,6.618,0,0,1-4.928-6.422l.038-43.8c0-5.193-3.68-9.289-8.986-9.3l-5.512-.01a2.62,2.62,0,0,1,0-1.4l5.528-.04a10.27,10.27,0,0,1,10.416,10.532l0,44.216a5.113,5.113,0,0,0,3.666,4.763,4.953,4.953,0,0,0,5.794-2.29l10.408-19.449c.23-.43,1.143-.089,1.526.151" transform="translate(-64.922 -108.244)" fill="#dadde1"/>
        <path id="Path_1261297" data-name="Path 1261297" d="M25.363,138.829l-10.626,0c-.451,0-.816-.192-.868-.583a.726.726,0,0,1,.681-.863l10.766-.01a1.531,1.531,0,0,1,.047,1.453" transform="translate(-10.925 -108.271)" fill="#5d656f"/>
        <path id="Path_1261298" data-name="Path 1261298" d="M1.45,152.788A1.336,1.336,0,0,1,.026,151.4a1.4,1.4,0,0,1,1.266-1.512l30.358-.035a10.125,10.125,0,0,1-2.527-6.418l0-44.217a5.845,5.845,0,0,0-5.836-6.145L3.192,93C1.019,93-.266,90.693.046,88.8c.341-2.072,2.073-3.07,4.209-3.061l19.466.079A13.02,13.02,0,0,1,36.1,95.993l5.582-4.639L39.5,87.9a1.389,1.389,0,0,1,.541-1.9c1.952-1.01,2.664,2.039,4,3.406l15.76-13.17a1.781,1.781,0,0,1,2.651-.073l9.633,8.064c.813-1.077.706-3.172,2.538-2.75a1.442,1.442,0,0,1,1.062,1.754c-.257,1.059-.85,1.9-1.071,3.1l13.21,11c.306.255.989.122,1.346.1a3.658,3.658,0,1,1,0,7.28c-.2-.012-.818-.068-.922.156L78.1,126.72a12.74,12.74,0,0,0,1.542,2.886,11.671,11.671,0,0,1,9.748,20.171c1.126.32,3.7-.514,3.794,1.44a1.372,1.372,0,0,1-1.3,1.565ZM83.312,97.426l-22.159-18.5L39.018,97.419ZM14.437,90.143a1.531,1.531,0,0,0-.047-1.453L3.624,88.7a.726.726,0,0,0-.681.863c.051.392.417.584.868.583Zm40.445,36.463c-.383-.24-1.3-.582-1.526-.151L42.948,145.9a4.953,4.953,0,0,1-5.794,2.29,5.113,5.113,0,0,1-3.667-4.763l0-44.216A10.27,10.27,0,0,0,23.074,88.683l-5.528.04a2.623,2.623,0,0,0,0,1.4l5.513.01c5.306.009,8.991,4.106,8.986,9.3l-.038,43.8a6.618,6.618,0,0,0,4.928,6.422,6.54,6.54,0,0,0,7.536-3.412Zm35.364-26.271-53.84,0V101.8l53.84,0ZM73.035,127.5a1.71,1.71,0,0,0,1.952-1.028l10.092-21.753-48.663-.012,0,12.9a2.151,2.151,0,0,0,1.724,2.214ZM40.5,144.411l10-18.882-14.1-3.113,0,20.809a2.2,2.2,0,0,0,4.092,1.186m33.294,5.447a11.735,11.735,0,0,1-.738-16.761,30.436,30.436,0,0,0-1.419-2.9L57.9,127.167,47.376,146.993a21.34,21.34,0,0,1-1.823,2.862Zm8.333-9.23-5.83-10.937a1.648,1.648,0,0,0-1.319.635l5.99,11.195a.725.725,0,0,0,1.026.158.833.833,0,0,0,.134-1.05M78.461,143l-3.867-7.085a8.71,8.71,0,1,0,6.511-3.466l3.651,6.921a3.644,3.644,0,0,1-1.388,4.912A3.594,3.594,0,0,1,78.461,143" transform="translate(0 -59.585)" fill="#040405"/>
        <path id="Path_1261299" data-name="Path 1261299" d="M208.5,235.785l-34.9-7.677a2.151,2.151,0,0,1-1.724-2.214l0-12.9,48.663.012-10.092,21.753a1.71,1.71,0,0,1-1.952,1.028" transform="translate(-135.462 -167.867)" fill="#4988da"/>
        <path id="Path_1261300" data-name="Path 1261300" d="M349.5,354.429a3.594,3.594,0,0,0,4.907,1.281,3.644,3.644,0,0,0,1.388-4.912l-3.651-6.921a8.681,8.681,0,1,1-6.511,3.466Z" transform="translate(-271.037 -271.01)" fill="#636b75"/>
        <rect id="Rectangle_412141" data-name="Rectangle 412141" width="53.84" height="1.458" transform="translate(36.407 40.751)" fill="#5690da"/>
        <path id="Path_1261301" data-name="Path 1261301" d="M361.038,341.839a.833.833,0,0,1-.134,1.05.725.725,0,0,1-1.026-.158l-5.99-11.195a1.647,1.647,0,0,1,1.319-.635Z" transform="translate(-278.913 -260.796)" fill="#d9dce0"/>
        <path id="Path_1261302" data-name="Path 1261302" d="M228.464,109.788l-44.294-.007L206.3,91.288ZM209.256,99.611a1.451,1.451,0,1,0-1.451,1.451,1.452,1.452,0,0,0,1.451-1.451m-8.745,5.816a1.451,1.451,0,1,0-1.451,1.451,1.451,1.451,0,0,0,1.451-1.451m16.021,1.462a1.446,1.446,0,1,0-1.446,1.446,1.447,1.447,0,0,0,1.446-1.446" transform="translate(-145.151 -71.947)" fill="#facea3"/>
        <path id="Path_1261303" data-name="Path 1261303" d="M291.776,125.171a1.451,1.451,0,1,1-1.451-1.451,1.451,1.451,0,0,1,1.451,1.451" transform="translate(-227.672 -97.508)" fill="#0d0a08"/>
        <path id="Path_1261304" data-name="Path 1261304" d="M250.5,152.628a1.451,1.451,0,1,1-1.451-1.451,1.451,1.451,0,0,1,1.451,1.451" transform="translate(-195.145 -119.148)" fill="#0b0907"/>
        <path id="Path_1261305" data-name="Path 1261305" d="M326.157,159.543a1.446,1.446,0,1,1-1.446-1.446,1.446,1.446,0,0,1,1.446,1.446" transform="translate(-254.776 -124.602)" fill="#0b0907"/>
      </g>
    </g>
  </g>
</svg>
