<svg xmlns="http://www.w3.org/2000/svg" xmlns:xlink="http://www.w3.org/1999/xlink" width="129.063" height="87.858" viewBox="0 0 129.063 87.858">
  <defs>
    <clipPath id="clip-path">
      <rect id="Rectangle_412024" data-name="Rectangle 412024" width="89.2" height="87.858" fill="none"/>
    </clipPath>
  </defs>
  <g id="Group_1201389" data-name="Group 1201389" transform="translate(-788.103 -1974.808)">
    <g id="Group_1201007" data-name="Group 1201007">
      <g id="Rectangle_410589" data-name="Rectangle 410589" transform="translate(788.103 2007.607)" fill="#d3af82" stroke="#93795a" stroke-width="1">
        <rect width="129.063" height="43.021" rx="8" stroke="none"/>
        <rect x="0.5" y="0.5" width="128.063" height="42.021" rx="7.5" fill="none"/>
      </g>
    </g>
    <g id="Group_1213631" data-name="Group 1213631" transform="translate(808.034 1974.808)">
      <g id="Group_1213630" data-name="Group 1213630" clip-path="url(#clip-path)">
        <path id="Path_1260808" data-name="Path 1260808" d="M148.942,56.4a37.756,37.756,0,0,0-38.972-.023l-.012-8.164,39.037,0Z" transform="translate(-87.65 -38.433)" fill="#fbfbfb"/>
        <path id="Path_1260809" data-name="Path 1260809" d="M103.879,110.484a34.86,34.86,0,1,1-34.86-34.86,34.86,34.86,0,0,1,34.86,34.86m-1.39-.007a33.47,33.47,0,1,0-33.47,33.47,33.47,33.47,0,0,0,33.47-33.47" transform="translate(-27.228 -60.282)" fill="#606772"/>
        <path id="Path_1260810" data-name="Path 1260810" d="M1.384,6.964l75.192.049a2.193,2.193,0,0,0,0-1.4L1.405,5.663a1.5,1.5,0,0,1-1.4-1.389c.013-.92.509-1.465,1.7-1.467l75.88-.079C80.163.013,84-1.174,87.046,1.522a6.29,6.29,0,1,1-9.33,8.273L68.337,9.8l.009,13.667a37.668,37.668,0,1,1-53-.087L15.306,9.795,1.59,9.8A1.439,1.439,0,0,1,.007,8.509,1.383,1.383,0,0,1,1.384,6.964m85.043-.673a3.477,3.477,0,1,0-3.477,3.477,3.477,3.477,0,0,0,3.477-3.477m-66.92,13.4-.026-9.8a1.736,1.736,0,0,0-1.37.03l.005,10.837a2.692,2.692,0,0,0,1.391-1.065m41.784-1.721.053-8.184-39.037,0,.012,8.164a37.756,37.756,0,0,1,38.972.023m4.223,2.79,0-10.848a1.608,1.608,0,0,0-1.373,0l-.024,9.825a2.55,2.55,0,0,0,1.393,1.02M76.65,50.2a34.86,34.86,0,1,0-34.86,34.86A34.86,34.86,0,0,0,76.65,50.2" transform="translate(0 0)" fill="#040404"/>
        <path id="Path_1260811" data-name="Path 1260811" d="M6.823,29.017l.021-1.3,75.175-.051a2.191,2.191,0,0,1,0,1.4Z" transform="translate(-5.439 -22.052)" fill="#c6cbd2"/>
        <path id="Path_1260812" data-name="Path 1260812" d="M398.692,17.353a3.477,3.477,0,1,1-3.477-3.477,3.477,3.477,0,0,1,3.477,3.477" transform="translate(-312.265 -11.061)" fill="#e1e4e8"/>
        <path id="Path_1260813" data-name="Path 1260813" d="M90.668,58.046a2.691,2.691,0,0,1-1.392,1.065l-.005-10.837a1.737,1.737,0,0,1,1.371-.03Z" transform="translate(-71.16 -38.357)" fill="#4e565f"/>
        <path id="Path_1260814" data-name="Path 1260814" d="M317.457,59.094a2.55,2.55,0,0,1-1.393-1.02l.024-9.825a1.608,1.608,0,0,1,1.373,0Z" transform="translate(-251.943 -38.337)" fill="#505862"/>
        <path id="Path_1260815" data-name="Path 1260815" d="M105.512,111.674l-16.2-4.052c-.956-1.625-1.661-3.285-2.538-4.97a1.4,1.4,0,0,0-1.241-.842,1.477,1.477,0,0,0-1.384.923l-2.358,4.7c-1.475-.021-2.864.071-4.252-.041-1.044-.084-1.487.378-1.914,1.234L66.5,126.919l-11.707.053a30.677,30.677,0,1,1,27.969,30.5l-.024-6.974a6.976,6.976,0,0,0,5.532-6.531l1.313-22.539,12.641-.036a1.475,1.475,0,0,0,1.417-1.169l2.71-6.872a1.319,1.319,0,0,0-.843-1.677m2.308,19.454a1.368,1.368,0,0,0,1.346-1.455,1.272,1.272,0,0,0-1.212-1.311H93.764a1.323,1.323,0,0,0-1.271,1.514,1.413,1.413,0,0,0,1.473,1.279Zm.24,4.122c.933,0,1.2-1.09,1.073-1.654a1.365,1.365,0,0,0-1.393-1.093H93.978a1.408,1.408,0,0,0-1.489,1.243,1.339,1.339,0,0,0,1.276,1.54Zm-.307,4.252a1.4,1.4,0,1,0-.014-2.806l-13.778,0a1.4,1.4,0,0,0-1.47,1.493,1.413,1.413,0,0,0,1.469,1.322Zm-6.987,4.154a1.376,1.376,0,1,0,.1-2.749H93.941a1.345,1.345,0,0,0-1.46,1.356,1.368,1.368,0,0,0,1.465,1.4Z" transform="translate(-43.679 -76.71)" fill="#85baf1"/>
        <path id="Path_1260816" data-name="Path 1260816" d="M118.808,364.425l.026,4.822a29.852,29.852,0,0,1-8.152-4.751Z" transform="translate(-88.228 -290.493)" fill="#84b8ee"/>
        <path id="Path_1260817" data-name="Path 1260817" d="M255.92,257.364l-13.854.026a1.413,1.413,0,0,1-1.473-1.28,1.323,1.323,0,0,1,1.271-1.513h14.19a1.272,1.272,0,0,1,1.212,1.311,1.368,1.368,0,0,1-1.346,1.455" transform="translate(-191.779 -202.946)" fill="#050708"/>
        <path id="Path_1260818" data-name="Path 1260818" d="M256.142,277.759l-14.294.036a1.339,1.339,0,0,1-1.276-1.54,1.408,1.408,0,0,1,1.488-1.243h13.762a1.365,1.365,0,0,1,1.393,1.093c.13.564-.14,1.651-1.073,1.654" transform="translate(-191.761 -219.219)" fill="#050708"/>
        <path id="Path_1260819" data-name="Path 1260819" d="M255.856,298.472l-13.792.006a1.413,1.413,0,0,1-1.469-1.322,1.4,1.4,0,0,1,1.47-1.493l13.778,0a1.4,1.4,0,1,1,.014,2.806" transform="translate(-191.782 -235.681)" fill="#020405"/>
        <path id="Path_1260820" data-name="Path 1260820" d="M248.837,319.186l-6.82.008a1.368,1.368,0,0,1-1.465-1.4,1.345,1.345,0,0,1,1.46-1.356h6.925a1.376,1.376,0,1,1-.1,2.749" transform="translate(-191.749 -252.24)" fill="#020303"/>
        <path id="Path_1260821" data-name="Path 1260821" d="M107.952,115.916a33.47,33.47,0,1,1-33.47-33.47,33.47,33.47,0,0,1,33.47,33.47M94.524,100.684a1.319,1.319,0,0,1,.843,1.676l-2.71,6.872A1.475,1.475,0,0,1,91.24,110.4l-12.641.036-1.313,22.539a6.976,6.976,0,0,1-5.533,6.53l.024,6.974a30.678,30.678,0,1,0-27.969-30.5l11.707-.053,9.123-18.291c.427-.857.87-1.319,1.914-1.234,1.388.112,2.777.02,4.252.041l2.358-4.7a1.477,1.477,0,0,1,1.383-.923,1.4,1.4,0,0,1,1.241.842c.877,1.684,1.581,3.345,2.538,4.97ZM68.918,138.362a1.409,1.409,0,0,1,1.442-1.511,4.223,4.223,0,0,0,4.159-4.286l1.375-23.879a1.248,1.248,0,0,1,1.193-1.063l13.169-.037a36.012,36.012,0,0,0,1.768-4.623L76.4,99.016l-1.959-3.527L63.1,118.155a1.406,1.406,0,0,1-1.242.609l-17.91,0a30.485,30.485,0,0,0,8.13,18.094H64.9a1.326,1.326,0,0,1,1.222,1.2l.012,7.316a6.746,6.746,0,0,0,2.784.6Zm-7.795-22.491L69.352,99.36a4.593,4.593,0,0,0-2.41-.041l-8.269,16.56a7.207,7.207,0,0,0,2.451-.008m2.148,23.781-8.125.071a29.851,29.851,0,0,0,8.152,4.752Z" transform="translate(-32.692 -65.72)" fill="#030304"/>
        <path id="Path_1260822" data-name="Path 1260822" d="M80.462,189.609l0,7.625a6.746,6.746,0,0,1-2.784-.6l-.012-7.316a1.326,1.326,0,0,0-1.222-1.2H63.623a30.485,30.485,0,0,1-8.13-18.094l17.909,0a1.406,1.406,0,0,0,1.242-.609l11.338-22.666,1.96,3.527,15.627,3.948a36.011,36.011,0,0,1-1.768,4.623l-13.169.037a1.248,1.248,0,0,0-1.193,1.063l-1.375,23.879A4.223,4.223,0,0,1,81.9,188.1a1.409,1.409,0,0,0-1.442,1.511" transform="translate(-44.235 -116.967)" fill="#955252"/>
        <path id="Path_1260823" data-name="Path 1260823" d="M130.518,181.612a7.207,7.207,0,0,1-2.451.008l8.269-16.56a4.6,4.6,0,0,1,2.41.041Z" transform="translate(-102.086 -131.461)" fill="#626974"/>
      </g>
    </g>
  </g>
</svg>
